<?xml version="1.0" encoding="UTF-8"?>
<svg xmlns="http://www.w3.org/2000/svg" width="175" height="33" viewBox="0 0 175 33" fill="none">
  <mask id="mask0_552_2782" style="mask-type:luminance" maskUnits="userSpaceOnUse" x="0" y="0" width="33" height="33">
    <path d="M3.31298 20.761C2.28101 20.3911 1.24391 20.124 0.2161 19.9478C0.526967 21.6124 1.10115 23.2568 1.96525 24.8201C4.48918 29.3865 8.89117 32.2538 13.6758 33C13.5017 27.9977 9.44803 22.9604 3.31298 20.761ZM3.89728 15.688C11.9961 14.9816 18.2296 8.67103 18.9809 0.998028C15.4526 0.373421 11.6959 0.905094 8.31571 2.7734C3.40402 5.48825 0.454118 10.3753 0 15.5751C1.26358 15.7581 2.56825 15.8038 3.89728 15.688ZM16.1804 20.7159C15.9732 25.2204 17.3946 29.4217 19.9224 32.7535C21.3187 32.4202 22.6941 31.8992 24.0117 31.171C31.8533 26.8367 34.6964 16.966 30.3621 9.1243C29.4284 7.43497 28.2367 5.97923 26.8648 4.7756C20.8211 7.59641 16.5079 13.5914 16.1804 20.7159Z" fill="white"></path>
  </mask>
  <g mask="url(#mask0_552_2782)">
    <path d="M3.31298 20.761C2.28101 20.3911 1.24391 20.124 0.2161 19.9478C0.526967 21.6124 1.10115 23.2568 1.96525 24.8201C4.48918 29.3865 8.89117 32.2538 13.6758 33C13.5017 27.9977 9.44803 22.9604 3.31298 20.761ZM3.89728 15.688C11.9961 14.9816 18.2296 8.67103 18.9809 0.998028C15.4526 0.373421 11.6959 0.905094 8.31571 2.7734C3.40402 5.48825 0.454118 10.3753 0 15.5751C1.26358 15.7581 2.56825 15.8038 3.89728 15.688ZM16.1804 20.7159C15.9732 25.2204 17.3946 29.4217 19.9224 32.7535C21.3187 32.4202 22.6941 31.8992 24.0117 31.171C31.8533 26.8367 34.6964 16.966 30.3621 9.1243C29.4284 7.43497 28.2367 5.97923 26.8648 4.7756C20.8211 7.59641 16.5079 13.5914 16.1804 20.7159Z" fill="#666562"></path>
  </g>
  <path d="M85.9114 30.1323H90.5887V3.10367H85.9114V30.1323Z" fill="#666562"></path>
  <path d="M104.704 10.5096C102.376 10.5096 100.148 11.3884 98.7097 13.7331V10.9204H94.499V30.1323H99.0023V19.9561C99.0023 19.1601 99.0729 18.3983 99.2139 17.8407C99.732 15.7685 101.208 14.565 103.382 14.565C105.627 14.565 106.921 15.6891 107.337 17.9361C107.437 18.4734 107.485 19.2395 107.485 19.9524V30.1323H111.99V18.7638C111.99 17.488 111.862 16.3351 111.564 15.3509C110.587 12.086 107.978 10.5096 104.704 10.5096Z" fill="#666562"></path>
  <path d="M127.034 25.7319C126.546 25.8471 125.73 25.89 125.203 25.89H120.026V18.2691H125.595C126.095 18.2691 126.666 18.3192 127.069 18.4096C129.258 18.8953 130.098 20.6226 130.098 22.074C130.098 23.994 128.864 25.3011 127.034 25.7319ZM120.026 7.34653H124.179C125.126 7.34653 126.132 7.47717 126.778 7.77525C127.906 8.2944 128.513 9.26494 128.513 10.7236C128.513 12.1892 127.866 13.1909 126.717 13.7071C126.142 13.9652 125.303 14.1017 124.333 14.1017H123.445H120.026V7.34653ZM130.543 15.6866C132.372 14.2825 133.141 12.6718 133.141 10.3709C133.141 6.92733 131.007 4.34486 127.754 3.46525C126.91 3.23781 125.539 3.1043 123.942 3.1043H115.398V30.1323H124.968C126.832 30.1323 128.082 29.9547 129.307 29.5228C132.514 28.3909 134.725 25.9012 134.725 22.2482C134.725 19.198 133.275 17.0259 130.543 15.6866Z" fill="#666562"></path>
  <path d="M170.169 10.9203L165.358 24.6451L160.478 10.9203H155.598L163.228 30.1323H167.385L175 10.9203H170.169Z" fill="#666562"></path>
  <path d="M140.863 19.0151C141.186 16.2503 143.428 14.4327 146.152 14.4327C149.014 14.4327 151.189 16.3271 151.51 19.0151H140.863ZM146.111 10.5099C140.642 10.5099 136.393 14.9105 136.393 20.661C136.393 25.969 140.577 30.5427 146.302 30.5427C150.484 30.5427 153.723 28.1366 155.378 24.2389H150.797C149.765 25.7821 148.383 26.6196 146.379 26.6196C143.394 26.6196 141.442 24.8639 140.849 22.1624H155.842C155.955 21.5233 155.986 20.9874 155.979 20.3379C155.93 15.1742 151.971 10.5099 146.111 10.5099Z" fill="#666562"></path>
  <path d="M74.0435 25.8867H68.4769V18.1177C69.1825 18.088 69.8749 18.0721 70.5441 18.0801C75.6062 18.1456 78.5514 19.619 78.5515 22.2411C78.5515 24.6009 76.4416 25.8867 74.0435 25.8867ZM68.4769 7.3466H72.4467C73.3536 7.3466 74.1137 7.4498 74.6345 7.61963C76.1426 8.11123 76.965 9.24709 76.965 11.0788C76.965 12.7745 76.1113 13.889 74.7564 14.4015C73.4667 14.1823 72.0247 14.0621 70.4161 14.0607C69.8128 14.0602 69.1491 14.0697 68.4769 14.0909V7.3466ZM43.4167 23.9935L49.4218 8.4494L52.9152 17.7689C49.3011 19.4263 46.0791 21.5531 43.4167 23.9935ZM78.9548 15.7245C80.903 14.2993 81.5924 12.168 81.5924 10.3709C81.5924 6.92739 79.458 4.34493 76.2061 3.46507C75.3618 3.23787 73.9906 3.10436 72.3933 3.10436H63.8497V14.509C61.4648 14.8702 59.1579 15.4343 56.9557 16.1707L51.6228 3.10348H51.487H47.4177H47.3308L36.3 30.1324H40.8008C44.69 26.0204 49.3331 23.0697 54.1685 21.1123L57.5498 30.1324H62.6535L58.3817 19.6649C60.2102 19.1442 62.0416 18.7571 63.8497 18.4936V30.1324L66.1722 30.1345L66.1714 30.139H74.3277C80.0911 30.139 83.183 26.7579 83.183 22.2499C83.183 19.5158 81.8291 17.192 78.9548 15.7245Z" fill="#666562"></path>
</svg>
