<?xml version="1.0" encoding="UTF-8"?>
<svg xmlns="http://www.w3.org/2000/svg" width="104" height="104" viewBox="0 0 104 104" fill="none">
  <rect width="104" height="104" fill="#F0F0F0"></rect>
  
  <!-- Cerveau principal -->
  <path d="M52 20C65.8071 20 77 31.1929 77 45C77 50.5 75.5 55.6 72.8 59.9L70.2 64.5C69.5 65.8 68.2 66.5 66.8 66.5H37.2C35.8 66.5 34.5 65.8 33.8 64.5L31.2 59.9C28.5 55.6 27 50.5 27 45C27 31.1929 38.1929 20 52 20Z" fill="white" stroke="black" stroke-width="1.5" stroke-linecap="round" stroke-linejoin="round"/>
  
  <!-- Circuits neuronaux -->
  <path d="M37 35C39.2091 35 41 33.2091 41 31C41 28.7909 39.2091 27 37 27C34.7909 27 33 28.7909 33 31C33 33.2091 34.7909 35 37 35Z" fill="#FF5B4A" stroke="black" stroke-width="1.5"/>
  <path d="M52 40C54.2091 40 56 38.2091 56 36C56 33.7909 54.2091 32 52 32C49.7909 32 48 33.7909 48 36C48 38.2091 49.7909 40 52 40Z" fill="#FF5B4A" stroke="black" stroke-width="1.5"/>
  <path d="M67 35C69.2091 35 71 33.2091 71 31C71 28.7909 69.2091 27 67 27C64.7909 27 63 28.7909 63 31C63 33.2091 64.7909 35 67 35Z" fill="#FF5B4A" stroke="black" stroke-width="1.5"/>
  
  <!-- Connexions -->
  <path d="M41 31L48 36" stroke="black" stroke-width="1.5"/>
  <path d="M56 36L63 31" stroke="black" stroke-width="1.5"/>
  <path d="M37 35L33 45" stroke="black" stroke-width="1.5"/>
  <path d="M67 35L71 45" stroke="black" stroke-width="1.5"/>
  <path d="M52 40L52 50" stroke="black" stroke-width="1.5"/>
  
  <!-- Nœuds secondaires -->
  <circle cx="33" cy="45" r="2" fill="#C8C8C8" stroke="black" stroke-width="1"/>
  <circle cx="71" cy="45" r="2" fill="#C8C8C8" stroke="black" stroke-width="1"/>
  <circle cx="52" cy="50" r="2" fill="#C8C8C8" stroke="black" stroke-width="1"/>
  <circle cx="45" cy="52" r="2" fill="#C8C8C8" stroke="black" stroke-width="1"/>
  <circle cx="59" cy="52" r="2" fill="#C8C8C8" stroke="black" stroke-width="1"/>
  
  <!-- Éclair d'innovation -->
  <path d="M48 75L52 70L50 70L54 65L56 70L54 70L58 75L54 73L56 78L52 73L50 78L52 73L48 75Z" fill="#FF5B4A" stroke="black" stroke-width="1.5" stroke-linejoin="round"/>
  
  <!-- Particules d'énergie -->
  <circle cx="25" cy="30" r="1.5" fill="#FF5B4A"/>
  <circle cx="79" cy="35" r="1.5" fill="#FF5B4A"/>
  <circle cx="22" cy="50" r="1.5" fill="#FF5B4A"/>
  <circle cx="82" cy="55" r="1.5" fill="#FF5B4A"/>
  <circle cx="30" cy="75" r="1.5" fill="#FF5B4A"/>
  <circle cx="74" cy="80" r="1.5" fill="#FF5B4A"/>
</svg>