<svg width="291" height="26" viewBox="0 0 291 26" fill="none" xmlns="http://www.w3.org/2000/svg">
<path d="M0.660156 9.41547L10.6523 9.41747L16.7282 9.4185V3.39917L0.660156 9.41547Z" fill="#010B1F"/>
<path d="M16.7266 3.3992V24.6505L24.3152 0.556885L16.7266 3.3992Z" fill="#010B1F"/>
<path d="M16.7243 9.41852L10.6484 9.41748L16.7243 24.6505V9.41852Z" fill="#010B1F"/>
<path d="M0.660156 9.41553L12.2104 13.3261L10.6523 9.41752L0.660156 9.41553Z" fill="#010B1F"/>
<path d="M37.4681 19.0565C37.38 19.1446 37.2332 19.2545 37.0279 19.3865C36.8223 19.5187 36.5547 19.6507 36.2246 19.7828C35.8945 19.9147 35.4908 20.0282 35.0141 20.124C34.5371 20.2191 33.9908 20.2669 33.3745 20.2669C32.1859 20.2669 31.1588 20.0761 30.2932 19.6948C29.4273 19.3135 28.7121 18.7813 28.1474 18.0992C27.5824 17.4168 27.168 16.61 26.9039 15.6781C26.6398 14.7465 26.5078 13.7232 26.5078 12.6079C26.5078 11.4931 26.6508 10.4621 26.937 9.51574C27.223 8.56931 27.6522 7.75165 28.2244 7.06171C28.7966 6.37229 29.5119 5.83299 30.3703 5.44404C31.2286 5.05554 32.2372 4.86084 33.3965 4.86084C33.9687 4.86084 34.4859 4.91236 34.9481 5.01488C35.4103 5.11763 35.8137 5.23878 36.1587 5.37803C36.5032 5.51766 36.7894 5.66409 37.017 5.81821C37.2443 5.97225 37.4167 6.10094 37.5343 6.20331C37.6663 6.32099 37.7798 6.46025 37.8754 6.62146C37.9707 6.78312 38.0184 6.95919 38.0184 7.14974C38.0184 7.44341 37.9084 7.73672 37.6883 8.03009C37.4683 8.32376 37.2261 8.59518 36.9619 8.84443C36.7859 8.66836 36.5878 8.48889 36.3678 8.30528C36.1477 8.1219 35.9018 7.96068 35.6305 7.82105C35.3588 7.6818 35.0507 7.56449 34.7061 7.46892C34.3612 7.37364 33.9761 7.32581 33.5507 7.32581C32.8023 7.32581 32.1752 7.47646 31.6689 7.777C31.1627 8.07792 30.7555 8.47027 30.4474 8.95449C30.1393 9.43872 29.9192 9.99265 29.7871 10.6161C29.6551 11.2399 29.5891 11.8744 29.5891 12.5199C29.5891 13.2097 29.6551 13.87 29.7871 14.5006C29.9191 15.1316 30.1464 15.6893 30.4695 16.1733C30.7919 16.6574 31.2139 17.0464 31.7349 17.3397C32.2555 17.6334 32.9048 17.7799 33.6827 17.7799C34.0932 17.7799 34.4712 17.7287 34.8161 17.626C35.1606 17.5234 35.4653 17.3985 35.7294 17.2516C35.9935 17.1052 36.2247 16.9512 36.4227 16.7897C36.6208 16.6282 36.7859 16.489 36.9179 16.3714C37.006 16.4743 37.1084 16.5991 37.226 16.7456C37.3442 16.8937 37.4544 17.048 37.5561 17.2078C37.6587 17.3694 37.7467 17.5307 37.8202 17.6918C37.8935 17.8535 37.9302 18 37.9302 18.1319C37.9302 18.3229 37.8935 18.4842 37.8202 18.6162C37.7466 18.7483 37.6293 18.8952 37.4681 19.0565V19.0565ZM48.8101 17.3685C48.8101 18.5347 48.9796 19.3835 49.3193 19.9149C49.0537 20.018 48.8063 20.0919 48.5776 20.1362C48.3486 20.1805 48.1089 20.2025 47.858 20.2025C47.3267 20.2025 46.9243 20.0992 46.6514 19.8926C46.3781 19.6862 46.2047 19.3909 46.1311 19.0069C45.8061 19.3468 45.3782 19.6345 44.8468 19.8707C44.3155 20.1065 43.6657 20.2249 42.8984 20.2249C42.4998 20.2249 42.1014 20.1696 41.7028 20.0596C41.3042 19.9487 40.9424 19.7688 40.6178 19.519C40.2929 19.2686 40.0273 18.9338 39.8207 18.5144C39.6138 18.095 39.5107 17.5838 39.5107 16.9807C39.5107 16.2303 39.6914 15.6194 40.0532 15.1488C40.4148 14.6777 40.8686 14.3063 41.415 14.034C41.9609 13.762 42.5514 13.5747 43.1863 13.4715C43.8208 13.3684 44.4041 13.3023 44.9354 13.2726C45.1126 13.258 45.2859 13.2504 45.4558 13.2504H45.9318V12.8474C45.9318 12.28 45.7803 11.8769 45.4779 11.6383C45.1751 11.3995 44.6842 11.2798 44.0054 11.2798C43.3706 11.2798 42.806 11.3832 42.3116 11.5898C41.8169 11.7967 41.3336 12.0326 40.8614 12.2983C40.6545 12.0475 40.4883 11.7708 40.3632 11.468C40.2377 11.1657 40.175 10.9405 40.175 10.7927C40.175 10.5862 40.2891 10.3869 40.5182 10.1949C40.7469 10.0033 41.0607 9.82959 41.4592 9.67459C41.8579 9.51959 42.3152 9.39437 42.8321 9.29821C43.3486 9.20234 43.8948 9.15429 44.4705 9.15429C45.2676 9.15429 45.9429 9.2356 46.4964 9.39785C47.0499 9.56046 47.5001 9.81126 47.847 10.1506C48.1937 10.4904 48.441 10.9145 48.5887 11.4238C48.7361 11.933 48.8102 12.5274 48.8102 13.2061V17.3685H48.8101ZM45.9759 14.8002H45.6661C45.5625 14.8002 45.4591 14.8079 45.3561 14.8224C44.9868 14.8522 44.6215 14.8964 44.2601 14.9551C43.8982 15.0143 43.5771 15.1177 43.297 15.2652C43.0164 15.4129 42.7877 15.6049 42.6106 15.8408C42.4334 16.0771 42.3448 16.3799 42.3448 16.7487C42.3448 17.1621 42.4628 17.5124 42.699 17.8003C42.935 18.0882 43.3335 18.2321 43.8947 18.2321C44.1749 18.2321 44.4407 18.1955 44.6918 18.1213C44.9426 18.0478 45.164 17.9518 45.3561 17.8337C45.5477 17.7155 45.6992 17.5865 45.81 17.446C45.9206 17.306 45.976 17.1769 45.976 17.0587V14.8002H45.9759ZM54.323 10.4384C54.5582 10.1582 54.9263 9.8738 55.4265 9.58589C55.9268 9.29806 56.5595 9.15414 57.3248 9.15414C57.8694 9.15414 58.388 9.24646 58.8811 9.43089C59.3737 9.6156 59.8116 9.9146 60.1942 10.3276C60.5769 10.7411 60.8822 11.2873 61.1104 11.9661C61.3385 12.6452 61.4526 13.4794 61.4526 14.468C61.4526 15.6193 61.32 16.568 61.0552 17.3132C60.7902 18.0589 60.4483 18.6493 60.0291 19.0846C59.6097 19.5201 59.1423 19.8264 58.6275 20.0034C58.1124 20.1805 57.5973 20.2692 57.0824 20.2692C56.6556 20.2692 56.2839 20.2212 55.9678 20.1253C55.6512 20.0291 55.3828 19.9225 55.1621 19.8042C54.9413 19.6862 54.7722 19.5683 54.6546 19.4499C54.5369 19.332 54.4633 19.2506 54.4339 19.2062V24.6491H51.4226V9.46407C51.4967 9.44959 51.586 9.43473 51.6903 9.41987C51.7797 9.40539 51.8838 9.39422 52.0028 9.38661C52.1217 9.37937 52.263 9.3756 52.4266 9.3756C52.9171 9.3756 53.3337 9.45691 53.6757 9.61915C54.0178 9.78177 54.2337 10.0547 54.323 10.4384V10.4384ZM58.3085 14.5344C58.3085 14.0916 58.2717 13.6786 58.1984 13.2946C58.1251 12.911 58.004 12.5788 57.8352 12.2983C57.6664 12.018 57.4386 11.8001 57.1526 11.645C56.8661 11.4901 56.5178 11.4127 56.107 11.4127C55.4906 11.4127 55.0613 11.5309 54.819 11.7668C54.5769 12.0031 54.4559 12.2616 54.4559 12.5418V17.2358C54.5731 17.3541 54.782 17.4941 55.083 17.6565C55.384 17.819 55.7323 17.8999 56.1288 17.8999C56.8774 17.8999 57.4278 17.605 57.7801 17.0144C58.1324 16.4241 58.3085 15.5972 58.3085 14.5344V14.5344ZM63.7767 18.3429C63.6732 18.0478 63.6068 17.7376 63.5774 17.4129C63.5477 17.0883 63.5331 16.7636 63.5331 16.4385V6.16503C63.6362 6.15054 63.747 6.13568 63.8652 6.12075C63.9682 6.10626 64.079 6.09525 64.1973 6.08756C64.3153 6.08032 64.4333 6.07655 64.5515 6.07655C64.7875 6.07655 65.0239 6.09872 65.2601 6.14292C65.496 6.18727 65.7101 6.27583 65.9023 6.40858C66.094 6.54141 66.2489 6.72243 66.3672 6.95106C66.4852 7.18005 66.5443 7.47904 66.5443 7.84774V9.41972H69.6442V11.6561H66.5443V16.3777C66.5443 17.4074 66.9649 17.9221 67.8064 17.9221C68.013 17.9221 68.2084 17.889 68.3932 17.8224C68.5776 17.756 68.7436 17.6824 68.8914 17.6011C69.0388 17.52 69.1681 17.4351 69.2788 17.3465C69.3895 17.2579 69.467 17.1915 69.5112 17.1473C69.7327 17.4722 69.9022 17.7535 70.0205 17.9908C70.1385 18.2284 70.1976 18.4515 70.1976 18.6598C70.1976 18.8537 70.1203 19.0438 69.9651 19.2299C69.81 19.4161 69.5922 19.5877 69.3119 19.744C69.0314 19.9004 68.6921 20.027 68.2934 20.1239C67.895 20.2208 67.4593 20.2693 66.9871 20.2693C66.0717 20.2693 65.3596 20.092 64.8504 19.7379C64.3412 19.3835 63.9831 18.9185 63.7767 18.3429V18.3429ZM77.2706 18.055C77.6408 18.055 77.9667 18.0145 78.2484 17.9332C78.5296 17.8523 78.7814 17.7526 79.0037 17.6345C79.2257 17.5165 79.4185 17.3873 79.5815 17.247C79.7443 17.1068 79.8924 16.9777 80.026 16.8594C80.2035 17.0807 80.3886 17.3651 80.5813 17.7117C80.7738 18.0589 80.8701 18.3429 80.8701 18.5642C80.8701 18.889 80.6854 19.1843 80.3167 19.4499C80.0067 19.6862 79.5672 19.8892 78.9993 20.0587C78.4308 20.2283 77.7628 20.3133 76.9955 20.3133C76.3014 20.3133 75.6188 20.2249 74.9474 20.0477C74.2757 19.8707 73.6777 19.5606 73.154 19.1177C72.6298 18.6751 72.2053 18.081 71.8807 17.3355C71.556 16.5901 71.3937 15.6493 71.3937 14.5124C71.3937 13.5823 71.5376 12.7819 71.8253 12.1101C72.1132 11.4385 72.4969 10.8813 72.9769 10.4384C73.4563 9.99561 73.9988 9.67112 74.6041 9.46415C75.2092 9.2577 75.8293 9.15422 76.4641 9.15422C77.2907 9.15422 77.9918 9.28364 78.5674 9.54169C79.1432 9.8001 79.6116 10.1471 79.9735 10.5824C80.3349 11.0178 80.5969 11.516 80.7594 12.0769C80.9216 12.638 81.003 13.2282 81.003 13.8481V14.1581C81.003 14.2765 80.9992 14.4016 80.9919 14.5345C80.9843 14.6674 80.9771 14.7968 80.9699 14.9219C80.9622 15.0477 80.9511 15.1472 80.9367 15.2209H74.4049C74.4641 16.0328 74.7158 16.7081 75.1601 17.247C75.6042 17.7859 76.3078 18.055 77.2706 18.055V18.055ZM78.2796 13.5602C78.2796 12.8518 78.1421 12.2761 77.8675 11.8333C77.5928 11.3905 77.099 11.169 76.3868 11.169C75.7778 11.169 75.2917 11.3794 74.9281 11.8001C74.5642 12.2208 74.3827 12.8075 74.3827 13.5602H78.2796V13.5602ZM86.2432 10.4943C86.3316 10.3626 86.4497 10.2163 86.5974 10.055C86.7448 9.89383 86.9258 9.7474 87.1399 9.61568C87.3537 9.48389 87.59 9.37382 87.8485 9.28601C88.1064 9.19812 88.3833 9.15422 88.6789 9.15422C88.8559 9.15422 89.0441 9.16907 89.2434 9.19812C89.4426 9.22754 89.627 9.28254 89.7968 9.36281C89.9664 9.44345 90.1032 9.55307 90.2065 9.69218C90.3096 9.83129 90.3615 10.0032 90.3615 10.208C90.3615 10.5301 90.2801 10.9 90.1179 11.3175C89.9553 11.7355 89.7932 12.0918 89.6309 12.3869C89.3797 12.1803 89.1288 12.0216 88.878 11.9109C88.6269 11.8002 88.3317 11.7448 87.9923 11.7448C87.5347 11.7448 87.151 11.878 86.8411 12.1444C86.5309 12.4108 86.376 12.729 86.376 13.0991V20.2668H83.3649V9.46407C83.4385 9.44959 83.5271 9.43473 83.6305 9.41987C83.719 9.40539 83.8223 9.39422 83.9405 9.38661C84.0585 9.37937 84.1986 9.3756 84.3612 9.3756C84.8334 9.3756 85.243 9.46718 85.59 9.64997C85.9366 9.83255 86.1547 10.1142 86.2432 10.4943V10.4943ZM94.8045 10.4943C94.893 10.3626 95.011 10.2163 95.1588 10.055C95.3061 9.89383 95.4871 9.7474 95.7012 9.61568C95.9151 9.48389 96.1512 9.37382 96.4097 9.28601C96.6678 9.19812 96.9446 9.15422 97.24 9.15422C97.4171 9.15422 97.6053 9.16907 97.8045 9.19812C98.0037 9.22754 98.1882 9.28254 98.3581 9.36281C98.5277 9.44345 98.6642 9.55307 98.7679 9.69218C98.8709 9.83129 98.9228 10.0032 98.9228 10.208C98.9228 10.5301 98.8414 10.9 98.6793 11.3175C98.5165 11.7355 98.3543 12.0918 98.1921 12.3869C97.9411 12.1803 97.69 12.0216 97.4392 11.9109C97.1882 11.8002 96.893 11.7448 96.5536 11.7448C96.096 11.7448 95.7122 11.878 95.4023 12.1444C95.0923 12.4108 94.9374 12.729 94.9374 13.0991V20.2668H91.9262V9.46407C91.9999 9.44959 92.0884 9.43473 92.1919 9.41987C92.2804 9.40539 92.3837 9.39422 92.5018 9.38661C92.6198 9.37937 92.7599 9.3756 92.9224 9.3756C93.3948 9.3756 93.8044 9.46718 94.1512 9.64997C94.4979 9.83255 94.7158 10.1142 94.8045 10.4943ZM109.174 17.3685C109.174 18.5347 109.344 19.3835 109.684 19.9149C109.418 20.018 109.171 20.0919 108.942 20.1362C108.713 20.1805 108.473 20.2025 108.222 20.2025C107.691 20.2025 107.289 20.0992 107.016 19.8926C106.742 19.6862 106.569 19.3909 106.495 19.0069C106.17 19.3468 105.742 19.6345 105.211 19.8707C104.68 20.1065 104.03 20.2249 103.263 20.2249C102.864 20.2249 102.466 20.1696 102.067 20.0596C101.668 19.9487 101.306 19.7688 100.982 19.519C100.657 19.2686 100.392 18.9338 100.185 18.5144C99.9781 18.095 99.8751 17.5838 99.8751 16.9807C99.8751 16.2303 100.056 15.6194 100.418 15.1488C100.779 14.6777 101.233 14.3063 101.779 14.034C102.325 13.762 102.916 13.5747 103.551 13.4715C104.185 13.3684 104.768 13.3023 105.3 13.2726C105.477 13.258 105.65 13.2504 105.82 13.2504H106.296V12.8474C106.296 12.28 106.144 11.8769 105.842 11.6383C105.539 11.3995 105.049 11.2798 104.37 11.2798C103.735 11.2798 103.17 11.3832 102.676 11.5898C102.181 11.7967 101.698 12.0326 101.226 12.2983C101.019 12.0475 100.853 11.7708 100.727 11.468C100.602 11.1657 100.539 10.9405 100.539 10.7927C100.539 10.5862 100.653 10.3869 100.882 10.1949C101.111 10.0033 101.425 9.82959 101.823 9.67459C102.222 9.51959 102.679 9.39437 103.196 9.29821C103.713 9.20234 104.259 9.15429 104.835 9.15429C105.632 9.15429 106.307 9.2356 106.861 9.39785C107.414 9.56046 107.864 9.81126 108.211 10.1506C108.558 10.4904 108.805 10.9145 108.953 11.4238C109.1 11.933 109.174 12.5274 109.174 13.2061V17.3685V17.3685ZM106.34 14.8002H106.03C105.927 14.8002 105.823 14.8079 105.72 14.8224C105.351 14.8522 104.986 14.8964 104.624 14.9551C104.262 15.0143 103.941 15.1177 103.661 15.2652C103.381 15.4129 103.152 15.6049 102.975 15.8408C102.798 16.0771 102.709 16.3799 102.709 16.7487C102.709 17.1621 102.827 17.5124 103.063 17.8003C103.299 18.0882 103.698 18.2321 104.259 18.2321C104.539 18.2321 104.805 18.1955 105.056 18.1213C105.307 18.0478 105.528 17.9518 105.72 17.8337C105.912 17.7155 106.064 17.5865 106.174 17.446C106.285 17.306 106.34 17.1769 106.34 17.0587V14.8002H106.34Z" fill="#010B1F"/>
<path d="M131.699 16.5909V14.9148L136.148 7.11364H138.188L133.841 14.767V14.858H140.75V16.5909H131.699ZM137.25 18.75V16.0966L137.295 15.3295V11.4773H139.233V18.75H137.25ZM143.308 18.875C142.964 18.875 142.668 18.7538 142.422 18.5114C142.176 18.2689 142.054 17.9735 142.058 17.625C142.054 17.2841 142.176 16.9924 142.422 16.75C142.668 16.5076 142.964 16.3864 143.308 16.3864C143.642 16.3864 143.931 16.5076 144.178 16.75C144.428 16.9924 144.554 17.2841 144.558 17.625C144.554 17.8561 144.494 18.0663 144.376 18.2557C144.263 18.4451 144.111 18.5966 143.922 18.7102C143.736 18.8201 143.532 18.875 143.308 18.875ZM145.625 10.8523C145.625 10.0833 145.797 9.4072 146.142 8.82386C146.487 8.23674 146.96 7.77841 147.562 7.44886C148.169 7.11932 148.858 6.95455 149.631 6.95455C150.381 6.95455 151.063 7.11364 151.676 7.43182C152.294 7.74621 152.784 8.19508 153.148 8.77841C153.515 9.36174 153.695 10.0549 153.688 10.858C153.684 11.2519 153.629 11.6496 153.523 12.0511C153.417 12.4489 153.25 12.8731 153.023 13.3239C152.795 13.7708 152.5 14.2652 152.136 14.8068L149.466 18.75H147.301L150.21 14.4886C150.066 14.5303 149.919 14.5644 149.767 14.5909C149.619 14.6174 149.466 14.6307 149.307 14.6307C148.595 14.6307 147.96 14.4697 147.403 14.1477C146.85 13.8258 146.415 13.3807 146.097 12.8125C145.782 12.2443 145.625 11.5909 145.625 10.8523ZM147.648 10.8011C147.648 11.2216 147.733 11.5947 147.903 11.9205C148.074 12.2424 148.309 12.4962 148.608 12.6818C148.907 12.8636 149.252 12.9545 149.642 12.9545C150.032 12.9545 150.377 12.8636 150.676 12.6818C150.979 12.5 151.216 12.2481 151.386 11.9261C151.557 11.6042 151.642 11.233 151.642 10.8125C151.642 10.3883 151.557 10.0152 151.386 9.69318C151.216 9.36742 150.979 9.11174 150.676 8.92614C150.377 8.74053 150.032 8.64773 149.642 8.64773C149.252 8.64773 148.905 8.74053 148.602 8.92614C148.303 9.10795 148.068 9.36174 147.898 9.6875C147.731 10.0095 147.648 10.3807 147.648 10.8011ZM160.416 6.56818L156.666 20.5H154.865L158.615 6.56818H160.416ZM165.751 18.9091C164.994 18.9091 164.316 18.767 163.717 18.483C163.119 18.1951 162.643 17.8011 162.291 17.3011C161.943 16.8011 161.757 16.2292 161.734 15.5852H163.78C163.818 16.0625 164.024 16.4527 164.399 16.7557C164.774 17.0549 165.225 17.2045 165.751 17.2045C166.164 17.2045 166.532 17.1098 166.854 16.9205C167.176 16.7311 167.429 16.4678 167.615 16.1307C167.801 15.7936 167.892 15.4091 167.888 14.9773C167.892 14.5379 167.799 14.1477 167.609 13.8068C167.42 13.4659 167.161 13.1989 166.831 13.0057C166.501 12.8087 166.123 12.7102 165.695 12.7102C165.346 12.7064 165.003 12.7708 164.666 12.9034C164.329 13.036 164.062 13.2102 163.865 13.4261L161.962 13.1136L162.57 7.11364H169.32V8.875H164.314L163.979 11.9602H164.047C164.263 11.7064 164.568 11.4962 164.962 11.3295C165.356 11.1591 165.787 11.0739 166.257 11.0739C166.962 11.0739 167.59 11.2405 168.143 11.5739C168.696 11.9034 169.132 12.358 169.45 12.9375C169.768 13.517 169.928 14.1799 169.928 14.9261C169.928 15.6951 169.75 16.3807 169.393 16.983C169.041 17.5814 168.551 18.053 167.922 18.3977C167.297 18.7386 166.573 18.9091 165.751 18.9091Z" fill="#010B1F"/>
<path d="M189.875 3.75L192.256 9.47348L198.435 9.96885L193.727 14.0015L195.165 20.0312L189.875 16.8L184.585 20.0312L186.023 14.0015L181.315 9.96885L187.494 9.47348L189.875 3.75Z" fill="#010B1F"/>
<path d="M212.875 3.75L215.256 9.47348L221.435 9.96885L216.727 14.0015L218.165 20.0312L212.875 16.8L207.585 20.0312L209.023 14.0015L204.315 9.96885L210.494 9.47348L212.875 3.75Z" fill="#010B1F"/>
<path d="M235.875 3.75L238.256 9.47348L244.435 9.96885L239.727 14.0015L241.165 20.0312L235.875 16.8L230.585 20.0312L232.023 14.0015L227.315 9.96885L233.494 9.47348L235.875 3.75Z" fill="#010B1F"/>
<path d="M258.875 3.75L261.256 9.47348L267.435 9.96885L262.727 14.0015L264.165 20.0312L258.875 16.8L253.585 20.0312L255.023 14.0015L250.315 9.96885L256.494 9.47348L258.875 3.75Z" fill="#010B1F"/>
<path d="M281.875 3.75L284.256 9.47348L290.435 9.96885L285.727 14.0015L287.165 20.0312L281.875 16.8L276.585 20.0312L278.023 14.0015L273.315 9.96885L279.494 9.47348L281.875 3.75Z" fill="#010B1F"/>
</svg>
