<svg width="210" height="30" viewBox="0 0 210 30" fill="none" xmlns="http://www.w3.org/2000/svg">
<g clip-path="url(#clip0_2322_21115)">
<path d="M15.1256 29.8117C8.52717 29.7938 2.77781 25.6257 0.902306 19.4087C-0.664081 14.1993 0.351445 9.43773 3.87458 5.27655C6.04037 2.7194 8.83332 1.15202 12.1167 0.48128C13.9534 0.106694 15.8452 0.0912182 17.6877 0.435705C17.8938 0.473354 17.8958 0.528837 17.8155 0.695284C16.9093 2.58169 16.0074 4.47073 15.1098 6.36241C15.0875 6.42157 15.0463 6.47166 14.9925 6.50484C14.9387 6.53801 14.8754 6.55238 14.8125 6.5457C12.9246 6.59397 11.1071 7.27224 9.64912 8.47259C8.19115 9.67294 7.17649 11.3264 6.7666 13.1699C5.86204 17.1993 8.0417 21.3674 11.8878 22.8447C14.9403 24.0167 17.7808 23.5501 20.3647 21.5468C20.4965 21.4477 20.551 21.4279 20.6451 21.5913C21.6359 23.3252 22.6352 25.0557 23.6432 26.7829C23.7313 26.9345 23.6996 27.0029 23.5688 27.094C21.6226 28.471 19.3712 29.3549 17.0081 29.67C16.3835 29.7505 15.7552 29.7978 15.1256 29.8117V29.8117Z" fill="#010B1F"/>
<path d="M25.3765 25.5217C25.2952 25.4781 25.2725 25.3889 25.2308 25.3166C24.104 23.3681 22.9812 21.4177 21.8623 19.4652C21.8242 19.3852 21.7621 19.3191 21.6847 19.2761C21.6072 19.2331 21.5183 19.2154 21.4303 19.2254C19.1932 19.2324 16.957 19.2254 14.7199 19.2254H14.4415C14.4395 19.1395 14.4707 19.0561 14.5287 18.9926C15.6648 17.019 16.8015 15.0454 17.9389 13.0718C17.9691 13.0066 18.0189 12.9524 18.0815 12.9168C18.144 12.8813 18.2161 12.8662 18.2876 12.8737C20.5776 12.8796 22.8669 12.8796 25.1555 12.8737C25.2267 12.8663 25.2984 12.8814 25.3604 12.917C25.4225 12.9525 25.4718 13.0067 25.5013 13.0718C26.6433 15.0619 27.7906 17.0494 28.9432 19.0342C28.9817 19.0851 29.0034 19.1467 29.0051 19.2105C29.0069 19.2742 28.9887 19.337 28.9531 19.3899C27.7953 21.3893 26.6417 23.3866 25.4924 25.382C25.4617 25.4325 25.4478 25.5019 25.3765 25.5217Z" fill="#010B1F"/>
<path d="M20.5545 4.56315C20.1443 4.15298 19.7619 3.76064 19.3656 3.37424C19.2427 3.25535 19.3289 3.16717 19.3814 3.07701C19.8349 2.28736 20.5733 1.70106 21.4452 1.4383C21.9735 1.26394 22.5325 1.20207 23.0862 1.25668C23.6399 1.31128 24.1761 1.48114 24.6602 1.75534C26.4435 2.71935 26.284 4.95549 25.2546 5.96606C24.8644 6.34186 24.4223 6.65982 23.9419 6.91025C23.4465 7.17379 22.9511 7.42247 22.4657 7.70286C22.0624 7.93371 21.7483 8.25273 21.6027 8.71442C21.5433 8.90068 21.5789 8.94923 21.7781 8.94725C23.0879 8.93932 24.3986 8.94725 25.7094 8.93932C25.9075 8.93932 25.9819 8.97697 25.9739 9.19296C25.9561 9.65564 25.963 10.1193 25.9739 10.58C25.9739 10.7267 25.9333 10.7782 25.7827 10.7782C23.6764 10.7742 21.5707 10.7742 19.4656 10.7782C19.3666 10.7782 19.2744 10.7782 19.2734 10.6345C19.2734 9.17612 19.5429 7.81779 20.6843 6.77749C21.2279 6.29604 21.8383 5.89561 22.4964 5.58858C22.857 5.41223 23.2216 5.2438 23.5367 4.98818C23.8121 4.76427 24.0023 4.49281 24.0221 4.12623C24.0519 3.55258 23.5981 3.12655 22.9125 3.08197C21.9267 3.01162 21.2153 3.45548 20.718 4.27979C20.6684 4.36103 20.6228 4.44426 20.5545 4.56315V4.56315Z" fill="#010B1F"/>
</g>
<path d="M50.0178 18.8409V17.1648L54.4667 9.36364H56.5065L52.1599 17.017V17.108H59.069V18.8409H50.0178ZM55.569 21V18.3466L55.6144 17.5795V13.7273H57.5519V21H55.569ZM61.6272 21.125C61.2825 21.125 60.9871 21.0038 60.7408 20.7614C60.4946 20.5189 60.3734 20.2235 60.3772 19.875C60.3734 19.5341 60.4946 19.2424 60.7408 19C60.9871 18.7576 61.2825 18.6364 61.6272 18.6364C61.9605 18.6364 62.2503 18.7576 62.4965 19C62.7465 19.2424 62.8734 19.5341 62.8772 19.875C62.8734 20.1061 62.8128 20.3163 62.6954 20.5057C62.5818 20.6951 62.4302 20.8466 62.2408 20.9602C62.0552 21.0701 61.8507 21.125 61.6272 21.125ZM65.0292 21L69.9781 11.2045V11.125H64.2337V9.36364H72.1599V11.1648L67.2167 21H65.0292ZM78.7664 8.81818L75.0164 22.75H73.2153L76.9653 8.81818H78.7664ZM84.1016 21.1591C83.3441 21.1591 82.666 21.017 82.0675 20.733C81.4691 20.4451 80.9937 20.0511 80.6414 19.5511C80.2929 19.0511 80.1073 18.4792 80.0846 17.8352H82.13C82.1679 18.3125 82.3744 18.7027 82.7494 19.0057C83.1244 19.3049 83.5751 19.4545 84.1016 19.4545C84.5145 19.4545 84.8819 19.3598 85.2039 19.1705C85.5259 18.9811 85.7797 18.7178 85.9653 18.3807C86.1509 18.0436 86.2418 17.6591 86.238 17.2273C86.2418 16.7879 86.149 16.3977 85.9596 16.0568C85.7702 15.7159 85.5107 15.4489 85.1812 15.2557C84.8516 15.0587 84.4729 14.9602 84.0448 14.9602C83.6963 14.9564 83.3535 15.0208 83.0164 15.1534C82.6793 15.286 82.4122 15.4602 82.2153 15.6761L80.3119 15.3636L80.9198 9.36364H87.6698V11.125H82.6641L82.3289 14.2102H82.3971C82.613 13.9564 82.9179 13.7462 83.3119 13.5795C83.7058 13.4091 84.1376 13.3239 84.6073 13.3239C85.3119 13.3239 85.9407 13.4905 86.4937 13.8239C87.0467 14.1534 87.4823 14.608 87.8005 15.1875C88.1187 15.767 88.2778 16.4299 88.2778 17.1761C88.2778 17.9451 88.0997 18.6307 87.7437 19.233C87.3914 19.8314 86.9009 20.303 86.2721 20.6477C85.6471 20.9886 84.9236 21.1591 84.1016 21.1591Z" fill="#010B1F"/>
<path d="M108.194 6L110.575 11.7235L116.753 12.2188L112.046 16.2515L113.484 22.2812L108.194 19.05L102.904 22.2812L104.342 16.2515L99.6345 12.2188L105.813 11.7235L108.194 6Z" fill="#010B1F"/>
<path d="M131.194 6L133.575 11.7235L139.753 12.2188L135.046 16.2515L136.484 22.2812L131.194 19.05L125.904 22.2812L127.342 16.2515L122.634 12.2188L128.813 11.7235L131.194 6Z" fill="#010B1F"/>
<path d="M154.194 6L156.575 11.7235L162.753 12.2188L158.046 16.2515L159.484 22.2812L154.194 19.05L148.904 22.2812L150.342 16.2515L145.634 12.2188L151.813 11.7235L154.194 6Z" fill="#010B1F"/>
<path d="M177.194 6L179.575 11.7235L185.753 12.2188L181.046 16.2515L182.484 22.2812L177.194 19.05L171.904 22.2812L173.342 16.2515L168.634 12.2188L174.813 11.7235L177.194 6Z" fill="#010B1F"/>
<path d="M200.194 6L202.575 11.7235L208.753 12.2188L204.046 16.2515L205.484 22.2812L200.194 19.05L194.904 22.2812L196.342 16.2515L191.634 12.2188L197.813 11.7235L200.194 6Z" fill="#C7C9CD"/>
<mask id="mask0_2322_21115" style="mask-type:alpha" maskUnits="userSpaceOnUse" x="191" y="6" width="18" height="17">
<path d="M200.2 6L202.581 11.7235L208.76 12.2188L204.052 16.2515L205.49 22.2812L200.2 19.05L194.91 22.2812L196.348 16.2515L191.641 12.2188L197.819 11.7235L200.2 6Z" fill="#010B1F"/>
</mask>
<g mask="url(#mask0_2322_21115)">
<rect x="192" y="4" width="12" height="19" fill="#010B1F"/>
</g>
<defs>
<clipPath id="clip0_2322_21115">
<rect width="29.194" height="30" fill="white"/>
</clipPath>
</defs>
</svg>
