<svg width="130" height="24" viewBox="0 0 130 24" fill="none" xmlns="http://www.w3.org/2000/svg">
<path d="M41.6155 10.0298C41.5332 9.77131 41.4224 9.53977 41.2832 9.33523C41.1468 9.12784 40.9834 8.9517 40.7931 8.80682C40.6028 8.65909 40.3854 8.54687 40.1411 8.47017C39.8996 8.39347 39.634 8.35511 39.3442 8.35511C38.8528 8.35511 38.4096 8.48153 38.0147 8.73438C37.6198 8.98722 37.3073 9.35795 37.0772 9.84659C36.8499 10.3324 36.7363 10.9276 36.7363 11.6321C36.7363 12.3395 36.8513 12.9375 37.0815 13.4261C37.3116 13.9148 37.6269 14.2855 38.0275 14.5384C38.428 14.7912 38.884 14.9176 39.3954 14.9176C39.8698 14.9176 40.2832 14.821 40.6354 14.6278C40.9905 14.4347 41.2647 14.1619 41.4579 13.8097C41.6539 13.4545 41.7519 13.0369 41.7519 12.5568L42.0928 12.6207H39.5957V11.5341H43.0261V12.527C43.0261 13.2599 42.8698 13.8963 42.5573 14.4361C42.2476 14.973 41.8187 15.3878 41.2704 15.6804C40.7249 15.973 40.0999 16.1193 39.3954 16.1193C38.6056 16.1193 37.9124 15.9375 37.3158 15.5739C36.7221 15.2102 36.259 14.6946 35.9266 14.027C35.5942 13.3565 35.428 12.5611 35.428 11.6406C35.428 10.9446 35.5246 10.3196 35.7178 9.76562C35.911 9.21165 36.1823 8.74148 36.5317 8.35511C36.884 7.96591 37.2974 7.66903 37.7718 7.46449C38.2491 7.2571 38.7704 7.15341 39.3357 7.15341C39.8073 7.15341 40.2462 7.22301 40.6525 7.36222C41.0616 7.50142 41.4252 7.69886 41.7434 7.95455C42.0644 8.21023 42.33 8.5142 42.5403 8.86648C42.7505 9.21591 42.8925 9.60369 42.9664 10.0298H41.6155ZM47.5229 16H44.6976V7.27273H47.6123C48.4675 7.27273 49.2018 7.44744 49.8155 7.79688C50.4291 8.14347 50.8993 8.64205 51.226 9.29261C51.5555 9.94034 51.7203 10.7173 51.7203 11.6236C51.7203 12.5327 51.5541 13.3139 51.2217 13.9673C50.8922 14.6207 50.4149 15.1236 49.7899 15.4759C49.1649 15.8253 48.4092 16 47.5229 16ZM46.0143 14.8494H47.4504C48.1152 14.8494 48.6677 14.7244 49.1081 14.4744C49.5484 14.2216 49.878 13.8565 50.0967 13.3793C50.3155 12.8991 50.4248 12.3139 50.4248 11.6236C50.4248 10.9389 50.3155 10.358 50.0967 9.88068C49.8808 9.40341 49.5584 9.04119 49.1294 8.79403C48.7004 8.54687 48.1677 8.4233 47.5314 8.4233H46.0143V14.8494ZM53.3577 16V7.27273H56.4685C57.1475 7.27273 57.71 7.39631 58.156 7.64347C58.6021 7.89062 58.9359 8.22869 59.1574 8.65767C59.379 9.08381 59.4898 9.56392 59.4898 10.098C59.4898 10.6349 59.3776 11.1179 59.1532 11.5469C58.9316 11.973 58.5964 12.3111 58.1475 12.5611C57.7015 12.8082 57.1404 12.9318 56.4643 12.9318H54.3251V11.8153H56.3449C56.7739 11.8153 57.1219 11.7415 57.389 11.5938C57.656 11.4432 57.8521 11.2386 57.9771 10.9801C58.1021 10.7216 58.1646 10.4276 58.1646 10.098C58.1646 9.76847 58.1021 9.47585 57.9771 9.22017C57.8521 8.96449 57.6546 8.7642 57.3847 8.61932C57.1177 8.47443 56.7654 8.40199 56.3279 8.40199H54.6745V16H53.3577ZM61.0335 16V7.27273H64.1443C64.8204 7.27273 65.3815 7.3892 65.8275 7.62216C66.2764 7.85511 66.6116 8.17756 66.8332 8.58949C67.0548 8.99858 67.1656 9.47159 67.1656 10.0085C67.1656 10.5426 67.0534 11.0128 66.829 11.419C66.6074 11.8224 66.2722 12.1364 65.8233 12.3608C65.3773 12.5852 64.8162 12.6974 64.14 12.6974H61.7835V11.5639H64.0207C64.4469 11.5639 64.7935 11.5028 65.0605 11.3807C65.3304 11.2585 65.5278 11.081 65.6528 10.848C65.7778 10.6151 65.8403 10.3352 65.8403 10.0085C65.8403 9.67898 65.7764 9.39347 65.6486 9.15199C65.5236 8.91051 65.3261 8.72585 65.0562 8.59801C64.7892 8.46733 64.4383 8.40199 64.0037 8.40199H62.3503V16H61.0335ZM65.3418 12.0625L67.498 16H65.998L63.8844 12.0625H65.3418ZM71.9437 16V7.27273H75.0545C75.7306 7.27273 76.2917 7.3892 76.7377 7.62216C77.1866 7.85511 77.5218 8.17756 77.7434 8.58949C77.965 8.99858 78.0758 9.47159 78.0758 10.0085C78.0758 10.5426 77.9636 11.0128 77.7391 11.419C77.5175 11.8224 77.1823 12.1364 76.7334 12.3608C76.2874 12.5852 75.7263 12.6974 75.0502 12.6974H72.6937V11.5639H74.9309C75.357 11.5639 75.7036 11.5028 75.9707 11.3807C76.2405 11.2585 76.438 11.081 76.563 10.848C76.688 10.6151 76.7505 10.3352 76.7505 10.0085C76.7505 9.67898 76.6866 9.39347 76.5587 9.15199C76.4337 8.91051 76.2363 8.72585 75.9664 8.59801C75.6994 8.46733 75.3485 8.40199 74.9138 8.40199H73.2604V16H71.9437ZM76.2519 12.0625L78.4082 16H76.9082L74.7945 12.0625H76.2519ZM82.3148 16.1321C81.6699 16.1321 81.1145 15.9943 80.6486 15.7188C80.1855 15.4403 79.8275 15.0497 79.5747 14.5469C79.3247 14.0412 79.1997 13.4489 79.1997 12.7699C79.1997 12.0994 79.3247 11.5085 79.5747 10.9972C79.8275 10.4858 80.1798 10.0866 80.6315 9.79972C81.0861 9.51278 81.6173 9.36932 82.2253 9.36932C82.5946 9.36932 82.9525 9.4304 83.2991 9.55256C83.6457 9.67472 83.9568 9.86648 84.2324 10.1278C84.5079 10.3892 84.7253 10.7287 84.8844 11.1463C85.0435 11.5611 85.123 12.0653 85.123 12.6591V13.1108H79.9199V12.1562H83.8744C83.8744 11.821 83.8062 11.5241 83.6699 11.2656C83.5335 11.0043 83.3418 10.7983 83.0946 10.6477C82.8503 10.4972 82.5633 10.4219 82.2338 10.4219C81.8758 10.4219 81.5633 10.5099 81.2963 10.6861C81.0321 10.8594 80.8275 11.0866 80.6827 11.3679C80.5406 11.6463 80.4696 11.9489 80.4696 12.2756V13.0213C80.4696 13.4588 80.5463 13.831 80.6997 14.1378C80.856 14.4446 81.0733 14.679 81.3517 14.8409C81.6301 15 81.9554 15.0795 82.3275 15.0795C82.569 15.0795 82.7892 15.0455 82.9881 14.9773C83.1869 14.9062 83.3588 14.8011 83.5037 14.6619C83.6486 14.5227 83.7594 14.3509 83.8361 14.1463L85.042 14.3636C84.9454 14.7187 84.7722 15.0298 84.5222 15.2969C84.275 15.5611 83.9639 15.767 83.5889 15.9148C83.2168 16.0597 82.792 16.1321 82.3148 16.1321ZM89.281 18.5909C88.7611 18.5909 88.3137 18.5227 87.9387 18.3864C87.5665 18.25 87.2626 18.0696 87.0268 17.8452C86.791 17.6207 86.6148 17.375 86.4984 17.108L87.5935 16.6562C87.6702 16.7812 87.7725 16.9134 87.9003 17.0526C88.031 17.1946 88.2072 17.3153 88.4288 17.4148C88.6532 17.5142 88.9415 17.5639 89.2938 17.5639C89.7768 17.5639 90.1759 17.446 90.4913 17.2102C90.8066 16.9773 90.9643 16.6051 90.9643 16.0938V14.8068H90.8833C90.8066 14.946 90.6958 15.1009 90.5509 15.2713C90.4089 15.4418 90.2128 15.5895 89.9628 15.7145C89.7128 15.8395 89.3876 15.902 88.987 15.902C88.4699 15.902 88.004 15.7812 87.5893 15.5398C87.1773 15.2955 86.8506 14.9361 86.6092 14.4616C86.3705 13.9844 86.2512 13.3977 86.2512 12.7017C86.2512 12.0057 86.3691 11.4091 86.6049 10.9119C86.8435 10.4148 87.1702 10.0341 87.585 9.76989C87.9998 9.50284 88.4699 9.36932 88.9955 9.36932C89.4018 9.36932 89.7299 9.4375 89.9799 9.57386C90.2299 9.70739 90.4245 9.86364 90.5637 10.0426C90.7057 10.2216 90.8151 10.3793 90.8918 10.5156H90.9856V9.45455H92.2342V16.1449C92.2342 16.7074 92.1035 17.169 91.8421 17.5298C91.5807 17.8906 91.2271 18.1577 90.781 18.331C90.3378 18.5043 89.8378 18.5909 89.281 18.5909ZM89.2682 14.8452C89.6347 14.8452 89.9444 14.7599 90.1972 14.5895C90.4529 14.4162 90.6461 14.169 90.7768 13.848C90.9103 13.5241 90.9771 13.1364 90.9771 12.6847C90.9771 12.2443 90.9117 11.8565 90.781 11.5213C90.6503 11.1861 90.4586 10.9247 90.2057 10.7372C89.9529 10.5469 89.6404 10.4517 89.2682 10.4517C88.8847 10.4517 88.5651 10.5511 88.3094 10.75C88.0538 10.946 87.8606 11.2131 87.7299 11.5511C87.6021 11.8892 87.5381 12.267 87.5381 12.6847C87.5381 13.1136 87.6035 13.4901 87.7342 13.8139C87.8648 14.1378 88.058 14.3906 88.3137 14.5724C88.5722 14.7543 88.8904 14.8452 89.2682 14.8452ZM98.0893 13.2855V9.45455H99.3677V16H98.1148V14.8665H98.0467C97.8961 15.2159 97.6546 15.5071 97.3222 15.7401C96.9927 15.9702 96.5822 16.0852 96.0907 16.0852C95.6702 16.0852 95.2981 15.9929 94.9742 15.8082C94.6532 15.6207 94.4003 15.3438 94.2157 14.9773C94.0339 14.6108 93.943 14.1577 93.943 13.6179V9.45455H95.2171V13.4645C95.2171 13.9105 95.3407 14.2656 95.5878 14.5298C95.835 14.794 96.156 14.9261 96.5509 14.9261C96.7896 14.9261 97.0268 14.8665 97.2626 14.7472C97.5012 14.6278 97.6986 14.4474 97.8549 14.206C98.014 13.9645 98.0921 13.6577 98.0893 13.2855ZM102.354 7.27273V16H101.08V7.27273H102.354ZM105.973 16.1449C105.558 16.1449 105.183 16.0682 104.848 15.9148C104.513 15.7585 104.247 15.5327 104.051 15.2372C103.858 14.9418 103.761 14.5795 103.761 14.1506C103.761 13.7812 103.832 13.4773 103.974 13.2386C104.116 13 104.308 12.8111 104.549 12.6719C104.791 12.5327 105.061 12.4276 105.359 12.3565C105.657 12.2855 105.961 12.2315 106.271 12.1946C106.663 12.1491 106.981 12.1122 107.226 12.0838C107.47 12.0526 107.648 12.0028 107.758 11.9347C107.869 11.8665 107.924 11.7557 107.924 11.6023V11.5724C107.924 11.2003 107.819 10.9119 107.609 10.7074C107.402 10.5028 107.092 10.4006 106.68 10.4006C106.251 10.4006 105.913 10.4957 105.666 10.6861C105.422 10.8736 105.253 11.0824 105.159 11.3125L103.961 11.0398C104.103 10.642 104.311 10.321 104.584 10.0767C104.859 9.82955 105.176 9.65057 105.534 9.53977C105.892 9.42614 106.268 9.36932 106.663 9.36932C106.924 9.36932 107.201 9.40057 107.494 9.46307C107.79 9.52273 108.065 9.63352 108.321 9.79545C108.579 9.95739 108.791 10.1889 108.956 10.4901C109.121 10.7884 109.203 11.1761 109.203 11.6534V16H107.959V15.1051H107.907C107.825 15.2699 107.701 15.4318 107.537 15.5909C107.372 15.75 107.16 15.8821 106.902 15.9872C106.643 16.0923 106.334 16.1449 105.973 16.1449ZM106.25 15.1222C106.602 15.1222 106.903 15.0526 107.153 14.9134C107.406 14.7741 107.598 14.5923 107.728 14.3679C107.862 14.1406 107.929 13.8977 107.929 13.6392V12.7955C107.883 12.8409 107.795 12.8835 107.665 12.9233C107.537 12.9602 107.39 12.9929 107.226 13.0213C107.061 13.0469 106.9 13.071 106.744 13.0938C106.588 13.1136 106.457 13.1307 106.352 13.1449C106.105 13.1761 105.879 13.2287 105.674 13.3026C105.473 13.3764 105.311 13.483 105.189 13.6222C105.069 13.7585 105.01 13.9403 105.01 14.1676C105.01 14.483 105.126 14.7216 105.359 14.8835C105.592 15.0426 105.889 15.1222 106.25 15.1222ZM113.955 9.45455V10.4773H110.38V9.45455H113.955ZM111.339 7.88636H112.613V14.0781C112.613 14.3253 112.65 14.5114 112.724 14.6364C112.798 14.7585 112.893 14.8423 113.009 14.8878C113.129 14.9304 113.258 14.9517 113.397 14.9517C113.499 14.9517 113.589 14.9446 113.666 14.9304C113.742 14.9162 113.802 14.9048 113.845 14.8963L114.075 15.9489C114.001 15.9773 113.896 16.0057 113.759 16.0341C113.623 16.0653 113.453 16.0824 113.248 16.0852C112.913 16.0909 112.6 16.0312 112.311 15.9062C112.021 15.7812 111.786 15.5881 111.607 15.3267C111.428 15.0653 111.339 14.7372 111.339 14.3423V7.88636ZM118.116 16.1321C117.471 16.1321 116.915 15.9943 116.449 15.7188C115.986 15.4403 115.628 15.0497 115.375 14.5469C115.125 14.0412 115 13.4489 115 12.7699C115 12.0994 115.125 11.5085 115.375 10.9972C115.628 10.4858 115.981 10.0866 116.432 9.79972C116.887 9.51278 117.418 9.36932 118.026 9.36932C118.395 9.36932 118.753 9.4304 119.1 9.55256C119.447 9.67472 119.758 9.86648 120.033 10.1278C120.309 10.3892 120.526 10.7287 120.685 11.1463C120.844 11.5611 120.924 12.0653 120.924 12.6591V13.1108H115.721V12.1562H119.675C119.675 11.821 119.607 11.5241 119.471 11.2656C119.334 11.0043 119.143 10.7983 118.895 10.6477C118.651 10.4972 118.364 10.4219 118.035 10.4219C117.677 10.4219 117.364 10.5099 117.097 10.6861C116.833 10.8594 116.628 11.0866 116.483 11.3679C116.341 11.6463 116.27 11.9489 116.27 12.2756V13.0213C116.27 13.4588 116.347 13.831 116.5 14.1378C116.657 14.4446 116.874 14.679 117.152 14.8409C117.431 15 117.756 15.0795 118.128 15.0795C118.37 15.0795 118.59 15.0455 118.789 14.9773C118.988 14.9062 119.16 14.8011 119.304 14.6619C119.449 14.5227 119.56 14.3509 119.637 14.1463L120.843 14.3636C120.746 14.7187 120.573 15.0298 120.323 15.2969C120.076 15.5611 119.765 15.767 119.39 15.9148C119.018 16.0597 118.593 16.1321 118.116 16.1321ZM124.788 16.1278C124.259 16.1278 123.788 15.9929 123.373 15.723C122.961 15.4503 122.637 15.0625 122.401 14.5597C122.168 14.054 122.052 13.4474 122.052 12.7401C122.052 12.0327 122.17 11.4276 122.406 10.9247C122.644 10.4219 122.971 10.0369 123.386 9.76989C123.801 9.50284 124.271 9.36932 124.796 9.36932C125.203 9.36932 125.529 9.4375 125.776 9.57386C126.026 9.70739 126.22 9.86364 126.356 10.0426C126.495 10.2216 126.603 10.3793 126.68 10.5156H126.757V7.27273H128.031V16H126.786V14.9815H126.68C126.603 15.1207 126.492 15.2798 126.347 15.4588C126.205 15.6378 126.009 15.794 125.759 15.9276C125.509 16.0611 125.186 16.1278 124.788 16.1278ZM125.069 15.0412C125.436 15.0412 125.745 14.9446 125.998 14.7514C126.254 14.5554 126.447 14.2841 126.578 13.9375C126.711 13.5909 126.778 13.1875 126.778 12.7273C126.778 12.2727 126.712 11.875 126.582 11.5341C126.451 11.1932 126.259 10.9276 126.007 10.7372C125.754 10.5469 125.441 10.4517 125.069 10.4517C124.686 10.4517 124.366 10.5511 124.11 10.75C123.855 10.9489 123.661 11.2202 123.531 11.5639C123.403 11.9077 123.339 12.2955 123.339 12.7273C123.339 13.1648 123.404 13.5582 123.535 13.9077C123.666 14.2571 123.859 14.5341 124.114 14.7386C124.373 14.9403 124.691 15.0412 125.069 15.0412Z" fill="#010B1F"/>
<g clip-path="url(#clip0_3892_20894)">
<path d="M12.6632 0L12.2751 1.19913H11.0122L12.0318 1.94062L11.6436 3.14555L12.6632 2.40406L13.6885 3.14555L13.2946 1.94062L14.32 1.19913H13.0571L12.6632 0Z" fill="#010B1F"/>
<path d="M13.0571 22.0536L12.6632 20.8545L12.2751 22.0536H11.0122L12.0318 22.7951L11.6436 24L12.6632 23.2585L13.6885 24L13.2946 22.7951L14.32 22.0536H13.0571Z" fill="#010B1F"/>
<path d="M2.2374 12.8313L3.26275 13.5728L2.86883 12.3679L3.89417 11.6264H2.63132L2.2374 10.4272L1.84928 11.6264H0.586426L1.60598 12.3679L1.21785 13.5728L2.2374 12.8313Z" fill="#010B1F"/>
<path d="M7.45225 1.396L7.06412 2.59513H5.80127L6.82082 3.34241L6.4327 4.54154L7.45225 3.80005L8.47759 4.54154L8.08367 3.34241L9.10902 2.59513H7.84616L7.45225 1.396Z" fill="#010B1F"/>
<path d="M3.63193 5.21362L3.24381 6.41275H1.98096L3.00051 7.15425L2.61238 8.35917L3.63193 7.61768L4.65728 8.35917L4.26336 7.15425L5.28871 6.41275H4.02585L3.63193 5.21362Z" fill="#010B1F"/>
<path d="M4.02585 16.84L3.63193 15.6409L3.24381 16.84H1.98096L3.00051 17.5815L2.61238 18.7864L3.63193 18.0449L4.65728 18.7864L4.26336 17.5815L5.28871 16.84H4.02585Z" fill="#010B1F"/>
<path d="M7.84616 20.6576L7.45225 19.4585L7.06412 20.6576H5.80127L6.82082 21.3991L6.4327 22.604L7.45225 21.8568L8.47759 22.604L8.08367 21.3991L9.10902 20.6576H7.84616Z" fill="#010B1F"/>
<path d="M24.7496 11.6264H23.4868L23.0929 10.4272L22.7047 11.6264H21.4419L22.4614 12.3679L22.0733 13.5728L23.0929 12.8313L24.1182 13.5728L23.7243 12.3679L24.7496 11.6264Z" fill="#010B1F"/>
<path d="M17.878 1.396L17.4899 2.59513H16.2271L17.2466 3.34241L16.8585 4.54154L17.878 3.80005L18.9034 4.54154L18.5095 3.34241L19.5348 2.59513H18.2719L17.878 1.396Z" fill="#010B1F"/>
<path d="M20.6749 8.35917L21.6944 7.61768L22.714 8.35917L22.3259 7.15425L23.3454 6.41275H22.0884L21.6944 5.21362L21.3063 6.41275H20.0435L21.063 7.15425L20.6749 8.35917Z" fill="#010B1F"/>
<path d="M22.0884 16.84L21.6944 15.6409L21.3063 16.84H20.0435L21.063 17.5815L20.6749 18.7864L21.6944 18.0449L22.714 18.7864L22.3259 17.5815L23.3454 16.84H22.0884Z" fill="#010B1F"/>
<path d="M18.2719 20.6576L17.878 19.4585L17.4899 20.6576H16.2271L17.2466 21.3991L16.8585 22.604L17.878 21.8568L18.9034 22.604L18.5095 21.3991L19.5348 20.6576H18.2719Z" fill="#010B1F"/>
<path d="M15.315 10.6283H14.9893V9.00017C14.9893 8.482 14.7835 7.98504 14.4171 7.61864C14.0507 7.25223 13.5537 7.04639 13.0356 7.04639C12.5174 7.04639 12.0204 7.25223 11.654 7.61864C11.2876 7.98504 11.0818 8.482 11.0818 9.00017V10.6283H10.7561C10.4108 10.6287 10.0797 10.7661 9.83553 11.0102C9.59134 11.2544 9.45399 11.5855 9.45361 11.9309V15.5128C9.45399 15.8581 9.59134 16.1892 9.83553 16.4334C10.0797 16.6776 10.4108 16.8149 10.7561 16.8153H15.315C15.6603 16.8149 15.9914 16.6776 16.2356 16.4334C16.4798 16.1892 16.6171 15.8581 16.6175 15.5128V11.9309C16.6171 11.5855 16.4798 11.2544 16.2356 11.0102C15.9914 10.7661 15.6603 10.6287 15.315 10.6283V10.6283ZM14.3381 10.6283H11.733V9.00017C11.733 8.65472 11.8703 8.32342 12.1145 8.07915C12.3588 7.83488 12.6901 7.69765 13.0356 7.69765C13.381 7.69765 13.7123 7.83488 13.9566 8.07915C14.2008 8.32342 14.3381 8.65472 14.3381 9.00017V10.6283Z" fill="#010B1F"/>
</g>
<defs>
<clipPath id="clip0_3892_20894">
<rect width="24.1622" height="24" fill="white" transform="translate(0.586426)"/>
</clipPath>
</defs>
</svg>
