<?xml version="1.0" encoding="UTF-8"?>
<svg xmlns="http://www.w3.org/2000/svg" width="104" height="104" viewBox="0 0 104 104" fill="none">
  <rect width="104" height="104" fill="#F0F0F0"></rect>
  
  <!-- Globe terrestre -->
  <circle cx="52" cy="52" r="28" fill="white" stroke="black" stroke-width="1.5"/>
  
  <!-- Continents -->
  <path d="M35 35C38 32 42 30 45 32C48 34 50 36 52 34C54 32 58 35 60 38C62 41 65 43 67 45C69 47 68 50 65 52C62 54 58 56 55 58C52 60 48 58 45 56C42 54 38 52 35 50C32 48 30 45 32 42C34 39 35 36 35 35Z" fill="#C8C8C8" stroke="black" stroke-width="1"/>
  <path d="M28 48C30 46 32 44 35 46C38 48 40 50 42 52C44 54 46 56 48 58C50 60 52 62 54 64C56 66 58 68 60 66C62 64 64 62 66 60" fill="#C8C8C8" stroke="black" stroke-width="1"/>
  
  <!-- Points de connexion -->
  <circle cx="40" cy="35" r="2" fill="#FF5B4A" stroke="black" stroke-width="1"/>
  <circle cx="60" cy="40" r="2" fill="#FF5B4A" stroke="black" stroke-width="1"/>
  <circle cx="45" cy="55" r="2" fill="#FF5B4A" stroke="black" stroke-width="1"/>
  <circle cx="65" cy="50" r="2" fill="#FF5B4A" stroke="black" stroke-width="1"/>
  <circle cx="38" cy="65" r="2" fill="#FF5B4A" stroke="black" stroke-width="1"/>
  <circle cx="58" cy="68" r="2" fill="#FF5B4A" stroke="black" stroke-width="1"/>
  
  <!-- Connexions réseau -->
  <path d="M40 35L60 40" stroke="#FF5B4A" stroke-width="1.5" stroke-dasharray="2,2"/>
  <path d="M60 40L65 50" stroke="#FF5B4A" stroke-width="1.5" stroke-dasharray="2,2"/>
  <path d="M45 55L65 50" stroke="#FF5B4A" stroke-width="1.5" stroke-dasharray="2,2"/>
  <path d="M45 55L38 65" stroke="#FF5B4A" stroke-width="1.5" stroke-dasharray="2,2"/>
  <path d="M58 68L38 65" stroke="#FF5B4A" stroke-width="1.5" stroke-dasharray="2,2"/>
  <path d="M40 35L45 55" stroke="#FF5B4A" stroke-width="1.5" stroke-dasharray="2,2"/>
  
  <!-- Satellites de données -->
  <circle cx="20" cy="25" r="3" fill="white" stroke="black" stroke-width="1.5"/>
  <path d="M18 23L22 27M22 23L18 27" stroke="black" stroke-width="1"/>
  <path d="M20 25L35 38" stroke="#FF5B4A" stroke-width="1" stroke-dasharray="1,1"/>
  
  <circle cx="85" cy="30" r="3" fill="white" stroke="black" stroke-width="1.5"/>
  <path d="M83 28L87 32M87 28L83 32" stroke="black" stroke-width="1"/>
  <path d="M85 30L65 45" stroke="#FF5B4A" stroke-width="1" stroke-dasharray="1,1"/>
  
  <circle cx="25" cy="80" r="3" fill="white" stroke="black" stroke-width="1.5"/>
  <path d="M23 78L27 82M27 78L23 82" stroke="black" stroke-width="1"/>
  <path d="M25 80L42 62" stroke="#FF5B4A" stroke-width="1" stroke-dasharray="1,1"/>
  
  <circle cx="80" cy="75" r="3" fill="white" stroke="black" stroke-width="1.5"/>
  <path d="M78 73L82 77M82 73L78 77" stroke="black" stroke-width="1"/>
  <path d="M80 75L60 65" stroke="#FF5B4A" stroke-width="1" stroke-dasharray="1,1"/>
</svg>