<?xml version="1.0" encoding="UTF-8"?>
<svg xmlns="http://www.w3.org/2000/svg" width="104" height="104" viewBox="0 0 104 104" fill="none">
  <rect width="104" height="104" fill="#F0F0F0"></rect>
  <path d="M79.6236 74.8343C79.6965 73.8303 79.6617 72.8485 79.554 71.8826L83.8105 68.9119C83.4684 67.4709 82.9775 66.0394 82.303 64.6522C81.6284 63.2619 80.8113 61.9919 79.8897 60.8296L74.9206 62.3371C73.5303 60.9594 71.8865 59.8415 70.0592 59.0465L69.6158 53.8684C68.1938 53.444 66.7116 53.1558 65.1724 53.045C63.6332 52.9341 62.1225 53.007 60.6562 53.2255L59.4749 58.2864C57.5493 58.8122 55.7631 59.6831 54.1923 60.8486L49.4892 58.6443C48.4124 59.6641 47.4211 60.8011 46.5533 62.0806C45.6887 63.36 44.9983 64.7029 44.4504 66.0806L48.2382 69.6308C47.9943 70.5683 47.8201 71.5374 47.7473 72.5413C47.6744 73.5453 47.7093 74.5271 47.8169 75.4931L43.5604 78.4637C43.9025 79.9047 44.3934 81.3362 45.068 82.7234C45.7425 84.1137 46.5596 85.3837 47.4812 86.5461L52.4504 85.0385C53.8407 86.4162 55.4844 87.5342 57.3118 88.3291L57.7552 93.5072C59.1772 93.9316 60.6593 94.2199 62.1985 94.3307C63.7377 94.4415 65.2484 94.3687 66.7147 94.1502L67.896 89.0892C69.8216 88.5635 71.6079 87.6925 73.1787 86.527L77.8818 88.7282C78.9586 87.7084 79.9499 86.5714 80.8176 85.2919C81.6822 84.0124 82.3727 82.6696 82.9206 81.292L79.1328 77.7416C79.3767 76.8042 79.5508 75.8351 79.6236 74.8311V74.8343Z" fill="#C8C8C8" stroke="black" stroke-width="1.5" stroke-linecap="round" stroke-linejoin="round"></path>
  <path d="M64.7582 81.9878C69.3017 81.3767 72.4895 77.1981 71.8785 72.6545C71.2674 68.111 67.0888 64.9231 62.5452 65.5342C58.0017 66.1452 54.8138 70.3239 55.4249 74.8675C56.0359 79.411 60.2146 82.5988 64.7582 81.9878Z" fill="white" stroke="black" stroke-width="1.5" stroke-linecap="round" stroke-linejoin="round"></path>
  <path d="M96.1242 37.4251C95.779 36.7442 95.3736 36.1171 94.927 35.5344L96.5391 31.9429C95.7536 31.1385 94.8763 30.4006 93.8977 29.7608C92.9191 29.1211 91.8898 28.6144 90.8384 28.2153L88.1939 31.1322C86.7528 30.7775 85.2485 30.6919 83.7473 30.8851L81.4417 27.6896C80.3522 27.9683 79.2754 28.3578 78.2303 28.8867C77.1852 29.4156 76.2319 30.0522 75.3641 30.7648L76.5676 34.5178C75.5225 35.6104 74.6991 36.8741 74.129 38.2422L70.2113 38.6412C69.9073 39.7244 69.7077 40.8519 69.6412 42.0205C69.5747 43.1891 69.6508 44.3325 69.8313 45.4409L73.6792 46.2739C73.8851 46.9801 74.1511 47.68 74.4932 48.3578C74.8384 49.0387 75.2438 49.6658 75.6903 50.2485L74.0783 53.84C74.8637 54.6444 75.741 55.3823 76.7196 56.022C77.6982 56.6618 78.7275 57.1685 79.779 57.5676L82.4235 54.6507C83.8645 55.0054 85.3689 55.0909 86.87 54.8978L89.1757 58.0933C90.2651 57.8146 91.3419 57.425 92.387 56.8961C93.4322 56.3672 94.3855 55.7307 95.2532 55.0181L94.0497 51.2651C95.0949 50.1725 95.9183 48.9089 96.4884 47.5407L100.406 47.1416C100.71 46.0585 100.91 44.931 100.976 43.7624C101.043 42.5937 100.967 41.4504 100.786 40.342L96.9381 39.509C96.7323 38.8028 96.4662 38.1028 96.1242 37.4251Z" fill="#C8C8C8" stroke="black" stroke-width="1.5" stroke-linecap="round" stroke-linejoin="round"></path>
  <path d="M88.0003 48.6079C84.6052 50.3245 80.4626 48.9627 78.7461 45.5676C77.0295 42.1725 78.3914 38.03 81.7865 36.3134C85.1816 34.5969 89.3241 35.9587 91.0406 39.3538C92.7571 42.7489 91.3954 46.8914 88.0003 48.6079Z" fill="white" stroke="black" stroke-width="1.5" stroke-linecap="round" stroke-linejoin="round"></path>
  <path d="M28.2382 49.3491L5.69201 69.7829C2.31276 72.8771 2.08477 78.1249 5.17898 81.5042C8.2732 84.8834 13.521 85.1114 16.9003 82.0172L39.4465 61.5834" fill="#C8C8C8"></path>
  <path d="M28.2382 49.3491L5.69201 69.7829C2.31276 72.8771 2.08477 78.1249 5.17898 81.5042C8.2732 84.8834 13.521 85.1114 16.9003 82.0172L39.4465 61.5834" stroke="black" stroke-width="1.5" stroke-linecap="round" stroke-linejoin="round"></path>
  <path d="M52.078 69.9813C68.0942 68.3347 79.743 54.0161 78.0964 38C76.4498 21.9838 62.1312 10.3349 46.115 11.9816C30.0988 13.6282 18.45 27.9468 20.0966 43.963C21.7433 59.9791 36.0618 71.628 52.078 69.9813Z" fill="#FF5B4A" stroke="black" stroke-width="1.5" stroke-linecap="round" stroke-linejoin="round"></path>
  <path d="M52.9977 61.8953C64.6031 59.7632 72.2826 48.6269 70.1506 37.0216C68.0185 25.4163 56.8822 17.7367 45.2768 19.8687C33.6715 22.0008 25.992 33.1372 28.124 44.7425C30.2561 56.3478 41.3924 64.0274 52.9977 61.8953Z" fill="white" stroke="black" stroke-width="1.5" stroke-linecap="round" stroke-linejoin="round"></path>
  <path d="M41.0929 49.3492V41.5615H33.8436V49.3492" fill="#C8C8C8"></path>
  <path d="M41.0929 49.3492V41.5615H33.8436V49.3492" stroke="black" stroke-width="1.5" stroke-linecap="round" stroke-linejoin="round"></path>
  <path d="M52.7257 49.3492V30.2677H45.4796V49.3492" fill="#C8C8C8"></path>
  <path d="M52.7257 49.3492V30.2677H45.4796V49.3492" stroke="black" stroke-width="1.5" stroke-linecap="round" stroke-linejoin="round"></path>
  <path d="M64.3615 49.3491V37.3745H57.1122V49.3491" fill="#C8C8C8"></path>
  <path d="M64.3615 49.3491V37.3745H57.1122V49.3491" stroke="black" stroke-width="1.5" stroke-linecap="round" stroke-linejoin="round"></path>
  <path d="M64.3613 49.3491H33.8436" stroke="black" stroke-width="1.5" stroke-linecap="round" stroke-linejoin="round"></path>
</svg>
