<?xml version="1.0" encoding="UTF-8"?>
<svg xmlns="http://www.w3.org/2000/svg" width="32" height="31" viewBox="0 0 32 31" fill="none">
  <circle cx="16.0714" cy="15.5" r="15.5" fill="#1E293B"></circle>
  <path d="M16.0723 9.35228C18.0748 9.35228 18.3119 9.35978 19.103 9.39585C19.5786 9.40167 20.0497 9.48901 20.4958 9.65407C20.8194 9.77883 21.1132 9.96996 21.3583 10.2151C21.6035 10.4603 21.7946 10.7541 21.9194 11.0776C22.0845 11.5238 22.1718 11.9949 22.1776 12.4705C22.2133 13.2616 22.2212 13.4987 22.2212 15.5012C22.2212 17.5037 22.2137 17.7409 22.1776 18.5319C22.1718 19.0076 22.0845 19.4787 21.9194 19.9248C21.7946 20.2483 21.6035 20.5421 21.3583 20.7873C21.1132 21.0325 20.8194 21.2236 20.4958 21.3484C20.0497 21.5134 19.5786 21.6007 19.103 21.6066C18.3123 21.6423 18.0751 21.6501 16.0723 21.6501C14.0694 21.6501 13.8323 21.6426 13.0416 21.6066C12.5659 21.6007 12.0948 21.5134 11.6487 21.3484C11.3252 21.2236 11.0314 21.0325 10.7862 20.7873C10.541 20.5421 10.3499 20.2483 10.2251 19.9248C10.0601 19.4787 9.97273 19.0076 9.96691 18.5319C9.93119 17.7409 9.92334 17.5037 9.92334 15.5012C9.92334 13.4987 9.93084 13.2616 9.96691 12.4705C9.97273 11.9949 10.0601 11.5238 10.2251 11.0776C10.3499 10.7541 10.541 10.4603 10.7862 10.2151C11.0314 9.96996 11.3252 9.77883 11.6487 9.65407C12.0948 9.48901 12.5659 9.40167 13.0416 9.39585C13.8326 9.36014 14.0698 9.35228 16.0723 9.35228ZM16.0723 8.00085C14.0366 8.00085 13.7801 8.00943 12.9801 8.04585C12.3576 8.05824 11.7418 8.1761 11.1587 8.39443C10.6585 8.58288 10.2055 8.8782 9.83119 9.25978C9.44927 9.6342 9.15369 10.0875 8.96512 10.588C8.74679 11.1711 8.62893 11.7869 8.61655 12.4094C8.58084 13.2087 8.57227 13.4651 8.57227 15.5009C8.57227 17.5366 8.58084 17.793 8.61727 18.593C8.62965 19.2155 8.74751 19.8314 8.96584 20.4144C9.1542 20.9149 9.44952 21.3681 9.83119 21.7426C10.2057 22.1243 10.659 22.4196 11.1594 22.608C11.7425 22.8263 12.3584 22.9442 12.9808 22.9566C13.7808 22.9923 14.0362 23.0016 16.073 23.0016C18.1098 23.0016 18.3651 22.993 19.1651 22.9566C19.7876 22.9442 20.4035 22.8263 20.9866 22.608C21.4846 22.4149 21.9369 22.1201 22.3145 21.7422C22.6921 21.3644 22.9867 20.9119 23.1794 20.4137C23.3977 19.8306 23.5156 19.2148 23.528 18.5923C23.5637 17.793 23.5723 17.5366 23.5723 15.5009C23.5723 13.4651 23.5637 13.2087 23.5273 12.4087C23.5149 11.7862 23.397 11.1704 23.1787 10.5873C22.9903 10.0868 22.695 9.63356 22.3133 9.25907C21.9388 8.8774 21.4856 8.58207 20.9851 8.39371C20.4021 8.17538 19.7862 8.05752 19.1637 8.04514C18.3644 8.00943 18.108 8.00085 16.0723 8.00085Z" fill="white"></path>
  <path d="M16.0738 11.651C15.312 11.651 14.5674 11.8769 13.934 12.3001C13.3007 12.7233 12.807 13.3248 12.5155 14.0286C12.224 14.7323 12.1477 15.5067 12.2964 16.2538C12.445 17.0009 12.8118 17.6872 13.3504 18.2258C13.889 18.7644 14.5753 19.1312 15.3224 19.2799C16.0695 19.4285 16.8439 19.3522 17.5477 19.0607C18.2514 18.7692 18.8529 18.2755 19.2761 17.6422C19.6993 17.0088 19.9252 16.2642 19.9252 15.5024C19.9252 14.481 19.5194 13.5013 18.7972 12.7791C18.0749 12.0568 17.0952 11.651 16.0738 11.651ZM16.0738 18.0024C15.5793 18.0024 15.096 17.8558 14.6849 17.5811C14.2737 17.3064 13.9533 16.916 13.7641 16.4591C13.5749 16.0023 13.5254 15.4997 13.6218 15.0147C13.7183 14.5298 13.9564 14.0843 14.306 13.7347C14.6556 13.385 15.1011 13.1469 15.5861 13.0505C16.071 12.954 16.5737 13.0035 17.0305 13.1927C17.4873 13.3819 17.8778 13.7024 18.1525 14.1135C18.4272 14.5246 18.5738 15.008 18.5738 15.5024C18.5738 16.1655 18.3104 16.8014 17.8415 17.2702C17.3727 17.739 16.7368 18.0024 16.0738 18.0024Z" fill="white"></path>
  <path d="M20.0766 12.3979C20.5737 12.3979 20.9766 11.995 20.9766 11.4979C20.9766 11.0008 20.5737 10.5979 20.0766 10.5979C19.5796 10.5979 19.1766 11.0008 19.1766 11.4979C19.1766 11.995 19.5796 12.3979 20.0766 12.3979Z" fill="white"></path>
</svg>
