<svg xmlns="http://www.w3.org/2000/svg" width="135" height="40"><defs><clipPath id="a"><path data-name="Rectangle 7071" fill="none" d="M0 0h135v40H0z"/></clipPath><clipPath id="b"><path data-name="Rectangle 7076" transform="translate(10.435 24.132)" fill="none" d="M0 0h16.687v8.729H0z"/></clipPath><clipPath id="c"><path data-name="Rectangle 7077" transform="translate(9.972 30.913)" fill="none" d="M0 0h.537v1.551H0z"/></clipPath><clipPath id="d"><path data-name="Rectangle 7078" transform="translate(27.029 20.001)" fill="none" d="M0 0h6.034v4.223H0z"/></clipPath><clipPath id="e"><path data-name="Rectangle 7079" transform="translate(9.972 7.141)" fill="none" d="M0 0h23.09v12.861H0z"/></clipPath></defs><g data-name="Group 13127"><g data-name="Group 13126" clip-path="url(#a)"><path data-name="Path 14591" d="M130 40H5a5.015 5.015 0 0 1-5-5V5a5.015 5.015 0 0 1 5-5h125a5.015 5.015 0 0 1 5 5v30a5.015 5.015 0 0 1-5 5"/><path data-name="Path 14592" d="M130 .8a4.2 4.2 0 0 1 4.2 4.2v30a4.2 4.2 0 0 1-4.2 4.2H5A4.2 4.2 0 0 1 .8 35V5A4.2 4.2 0 0 1 5 .8Zm0-.8H5a5.015 5.015 0 0 0-5 5v30a5.015 5.015 0 0 0 5 5h125a5.015 5.015 0 0 0 5-5V5a5.015 5.015 0 0 0-5-5" fill="#a6a6a6"/><path data-name="Path 14593" d="M47.418 10.243a2.709 2.709 0 0 1-.745 2 2.909 2.909 0 0 1-2.2.888A3.091 3.091 0 0 1 41.352 10a3.091 3.091 0 0 1 3.117-3.135 3.085 3.085 0 0 1 1.231.252 2.481 2.481 0 0 1 .939.67l-.528.528a2.027 2.027 0 0 0-1.642-.715 2.319 2.319 0 0 0-2.33 2.4 2.359 2.359 0 0 0 4.006 1.726 1.881 1.881 0 0 0 .5-1.215h-2.176V9.79h2.907a2.572 2.572 0 0 1 .042.453" fill="#fff"/><path data-name="Path 14594" d="M47.418 10.243a2.709 2.709 0 0 1-.745 2 2.909 2.909 0 0 1-2.2.888A3.091 3.091 0 0 1 41.352 10a3.091 3.091 0 0 1 3.117-3.135 3.085 3.085 0 0 1 1.231.252 2.481 2.481 0 0 1 .939.67l-.528.528a2.027 2.027 0 0 0-1.642-.715 2.319 2.319 0 0 0-2.33 2.4 2.359 2.359 0 0 0 4.006 1.726 1.881 1.881 0 0 0 .5-1.215h-2.176V9.79h2.907a2.572 2.572 0 0 1 .042.453Z" fill="none" stroke="#fff" stroke-miterlimit="10" stroke-width=".2"/><path data-name="Path 14595" d="M52.028 7.737H49.3v1.9h2.46v.721H49.3v1.9h2.732V13h-3.5V7h3.5Z" fill="#fff"/><path data-name="Path 14596" d="M52.028 7.737H49.3v1.9h2.46v.721H49.3v1.9h2.732V13h-3.5V7h3.5Z" fill="none" stroke="#fff" stroke-miterlimit="10" stroke-width=".2"/><path data-name="Path 14597" d="M55.279 13h-.771V7.737h-1.676V7h4.123v.737h-1.676Z" fill="#fff"/><path data-name="Path 14598" d="M55.279 13h-.771V7.737h-1.676V7h4.123v.737h-1.676Z" fill="none" stroke="#fff" stroke-miterlimit="10" stroke-width=".2"/><path data-name="Rectangle 7069" fill="#fff" d="M59.938 7h.771v6h-.771z"/><path data-name="Rectangle 7070" fill="none" stroke="#fff" stroke-miterlimit="10" stroke-width=".2" d="M59.938 7h.771v6h-.771z"/><path data-name="Path 14599" d="M64.128 13h-.772V7.737h-1.675V7H65.8v.737h-1.672Z" fill="#fff"/><path data-name="Path 14600" d="M64.128 13h-.772V7.737h-1.675V7H65.8v.737h-1.672Z" fill="none" stroke="#fff" stroke-miterlimit="10" stroke-width=".2"/><path data-name="Path 14601" d="M73.609 12.224a3.113 3.113 0 0 1-4.4 0A3.064 3.064 0 0 1 68.326 10a3.068 3.068 0 0 1 .884-2.225 3.106 3.106 0 0 1 4.4 0A3.067 3.067 0 0 1 74.493 10a3.068 3.068 0 0 1-.884 2.224m-3.83-.5a2.308 2.308 0 0 0 3.26 0A2.35 2.35 0 0 0 73.706 10a2.348 2.348 0 0 0-.667-1.722 2.306 2.306 0 0 0-3.26 0A2.352 2.352 0 0 0 69.113 10a2.353 2.353 0 0 0 .666 1.722" fill="#fff"/><path data-name="Path 14602" d="M73.609 12.224a3.113 3.113 0 0 1-4.4 0A3.064 3.064 0 0 1 68.326 10a3.068 3.068 0 0 1 .884-2.225 3.106 3.106 0 0 1 4.4 0A3.067 3.067 0 0 1 74.493 10a3.068 3.068 0 0 1-.884 2.224Zm-3.83-.5a2.308 2.308 0 0 0 3.26 0A2.35 2.35 0 0 0 73.706 10a2.348 2.348 0 0 0-.667-1.722 2.306 2.306 0 0 0-3.26 0A2.352 2.352 0 0 0 69.113 10a2.353 2.353 0 0 0 .666 1.722Z" fill="none" stroke="#fff" stroke-miterlimit="10" stroke-width=".2"/><path data-name="Path 14603" d="M75.575 13V7h.939l2.916 4.668h.033l-.033-1.157V7h.77v6h-.8l-3.055-4.894h-.033l.033 1.157V13Z" fill="#fff"/><path data-name="Path 14604" d="M75.575 13V7h.939l2.916 4.668h.033l-.033-1.157V7h.77v6h-.8l-3.055-4.894h-.033l.033 1.157V13Z" fill="none" stroke="#fff" stroke-miterlimit="10" stroke-width=".2"/><path data-name="Path 14605" d="M68.136 21.751A4.254 4.254 0 1 0 72.4 26a4.193 4.193 0 0 0-4.269-4.254m0 6.831A2.584 2.584 0 1 1 70.536 26a2.46 2.46 0 0 1-2.4 2.577m-9.314-6.831A4.254 4.254 0 1 0 63.092 26a4.193 4.193 0 0 0-4.27-4.254m0 6.831A2.584 2.584 0 1 1 61.223 26a2.46 2.46 0 0 1-2.4 2.577m-11.079-5.52v1.8h4.317a3.765 3.765 0 0 1-.982 2.271 4.42 4.42 0 0 1-3.335 1.321 4.8 4.8 0 0 1 0-9.6A4.6 4.6 0 0 1 51 20.14l1.273-1.272a6.3 6.3 0 0 0-4.527-1.821 6.606 6.606 0 1 0 0 13.211 6.04 6.04 0 0 0 4.607-1.853 5.962 5.962 0 0 0 1.563-4.221 5.829 5.829 0 0 0-.1-1.127Zm45.308 1.4a3.953 3.953 0 0 0-3.641-2.707A4.042 4.042 0 0 0 85.4 26a4.162 4.162 0 0 0 4.22 4.253 4.232 4.232 0 0 0 3.545-1.885l-1.45-.967a2.43 2.43 0 0 1-2.095 1.176 2.164 2.164 0 0 1-2.062-1.288l5.687-2.353Zm-5.8 1.418a2.333 2.333 0 0 1 2.223-2.475 1.645 1.645 0 0 1 1.579.9ZM82.628 30H84.5V17.5h-1.872Zm-3.061-7.3H79.5a2.948 2.948 0 0 0-2.239-.951 4.257 4.257 0 0 0 0 8.507 2.9 2.9 0 0 0 2.239-.967h.064v.611c0 1.628-.869 2.5-2.271 2.5a2.353 2.353 0 0 1-2.143-1.514l-1.627.677a4.053 4.053 0 0 0 3.77 2.513c2.191 0 4.044-1.289 4.044-4.43v-7.637h-1.77Zm-2.142 5.88a2.587 2.587 0 0 1 0-5.155 2.4 2.4 0 0 1 2.275 2.596 2.376 2.376 0 0 1-2.271 2.561M101.806 17.5h-4.471V30H99.2v-4.736h2.606a3.888 3.888 0 1 0 0-7.765m.048 6.025H99.2v-4.286h2.654a2.143 2.143 0 1 1 0 4.286m11.532-1.8a3.505 3.505 0 0 0-3.33 1.913l1.657.692a1.768 1.768 0 0 1 1.705-.917 1.8 1.8 0 0 1 1.962 1.608v.129a4.131 4.131 0 0 0-1.946-.482c-1.785 0-3.6.981-3.6 2.814a2.888 2.888 0 0 0 3.1 2.75 2.632 2.632 0 0 0 2.381-1.222h.064v.965h1.8v-4.788c0-2.219-1.656-3.457-3.795-3.457m-.225 6.851c-.612 0-1.464-.306-1.464-1.062 0-.965 1.061-1.334 1.978-1.334a3.329 3.329 0 0 1 1.7.418 2.262 2.262 0 0 1-2.219 1.978M123.743 22l-2.139 5.42h-.064L119.32 22h-2.01l3.329 7.575-1.9 4.214h1.946L125.818 22Zm-16.807 8h1.864V17.5h-1.866Z" fill="#fff"/></g></g><path data-name="Intersection 1" d="M10.437 32.463a1.979 1.979 0 0 1-.467-1.4V8.946a2 2 0 0 1 .467-1.408l.07-.068 12.391 12.385v.295L10.507 32.541Z" fill="#3de3fd" stroke="rgba(0,0,0,0)" stroke-miterlimit="10"/><path data-name="Intersection 3" d="m27.028 24.282-4.131-4.135v-.291l4.131-4.129.1.053 4.893 2.779c1.4.793 1.4 2.092 0 2.885l-4.893 2.783Z" fill="#fb9c2f" stroke="rgba(0,0,0,0)" stroke-miterlimit="10"/><path data-name="Intersection 4" d="m10.437 32.458 12.461-12.461 4.227 4.225-14.609 8.3a2.311 2.311 0 0 1-1.119.334 1.281 1.281 0 0 1-.96-.398Z" fill="#c31162" stroke="rgba(0,0,0,0)" stroke-miterlimit="10"/><path data-name="Intersection 2" d="M10.434 7.535a1.288 1.288 0 0 1 .961-.4 2.26 2.26 0 0 1 1.117.338l14.607 8.3-4.219 4.225Z" fill="#44f076" stroke="rgba(0,0,0,0)" stroke-miterlimit="10"/><g data-name="Group 13149"><g data-name="Group 13148" clip-path="url(#a)"><g data-name="Group 13138" opacity=".2" style="isolation:isolate"><g data-name="Group 13137"><g data-name="Group 13136" clip-path="url(#b)"><path data-name="Path 14610" d="m27.029 24.132-14.515 8.247a1.665 1.665 0 0 1-2 .011l-.074.074.074.073a1.665 1.665 0 0 0 2-.011l14.608-8.3Z"/></g></g></g><g data-name="Group 13141" opacity=".12" style="isolation:isolate"><g data-name="Group 13140"><g data-name="Group 13139" clip-path="url(#c)"><path data-name="Path 14611" d="M10.435 32.318a2 2 0 0 1-.463-1.405v.146a2 2 0 0 0 .463 1.405l.074-.074Z"/></g></g></g><g data-name="Group 13144" opacity=".12" style="isolation:isolate"><g data-name="Group 13143"><g data-name="Group 13142" clip-path="url(#d)"><path data-name="Path 14612" d="m32.015 21.3-4.986 2.833.093.093 4.893-2.78A1.753 1.753 0 0 0 33.063 20a1.861 1.861 0 0 1-1.048 1.3"/></g></g></g><g data-name="Group 13147" opacity=".25" style="isolation:isolate"><g data-name="Group 13146"><g data-name="Group 13145" clip-path="url(#e)"><path data-name="Path 14613" d="m12.513 7.623 19.5 11.08A1.858 1.858 0 0 1 33.062 20a1.753 1.753 0 0 0-1.048-1.444l-19.5-11.08c-1.4-.794-2.541-.135-2.541 1.466v.146c0-1.6 1.143-2.26 2.541-1.466" fill="#fff"/></g></g></g></g></g><path data-name="Rectangle 7081" fill="none" d="M0 0h135v40H0z"/></svg>