<?xml version="1.0" encoding="UTF-8"?>
<svg xmlns="http://www.w3.org/2000/svg" width="104" height="104" viewBox="0 0 104 104" fill="none">
  <rect width="104" height="104" fill="#F0F0F0"></rect>
  <path d="M72.3533 93.1854V96.7519C72.3533 98.6087 70.855 100.1 69.0055 100.1H10.1917C8.34209 100.1 6.84375 98.6087 6.84375 96.7519V21.6503C6.84375 19.8007 8.34209 18.3025 10.1917 18.3025H63.0194H69.0019C70.855 18.3025 72.3497 19.8007 72.3497 21.6503V33.0776" fill="white"></path>
  <path d="M72.3533 93.1854V96.7519C72.3533 98.6087 70.855 100.1 69.0055 100.1H10.1917C8.34209 100.1 6.84375 98.6087 6.84375 96.7519V21.6503C6.84375 19.8007 8.34209 18.3025 10.1917 18.3025H63.0194H69.0019C70.855 18.3025 72.3497 19.8007 72.3497 21.6503V33.0776" stroke="black" stroke-width="1.5" stroke-linecap="round" stroke-linejoin="round"></path>
  <path d="M75.6146 43.3398C85.7658 44.9098 93.5405 53.6917 93.5405 64.2838C93.5405 70.3165 91.017 75.7613 86.9701 79.6217C83.167 83.2492 78.0197 85.468 72.3491 85.468C67.6356 85.468 63.2805 83.9302 59.757 81.3208C54.5416 77.4639 51.165 71.2735 51.165 64.2838C51.165 57.2941 54.5452 51.1003 59.757 47.247C62.4489 45.2468 65.6283 43.8775 69.0909 43.3398" fill="#FF5B4A"></path>
  <path d="M75.6146 43.3398C85.7658 44.9098 93.5405 53.6917 93.5405 64.2838C93.5405 70.3165 91.017 75.7613 86.9702 79.6217C83.167 83.2492 78.0197 85.468 72.3491 85.468C67.6356 85.468 63.2805 83.9302 59.757 81.3208C54.5416 77.4639 51.165 71.2735 51.165 64.2838C51.165 57.2941 54.5452 51.1003 59.757 47.247C62.4489 45.2468 65.6283 43.8775 69.0909 43.3398" stroke="black" stroke-width="1.5" stroke-linecap="round" stroke-linejoin="round"></path>
  <path d="M74.4718 52.2043C80.2248 53.2044 84.6122 58.237 84.6122 64.2804C84.6122 71.0371 79.1136 76.5357 72.3498 76.5357C65.5859 76.5357 60.0873 71.0371 60.0873 64.2804C60.0873 58.237 64.4783 53.2044 70.235 52.2043" fill="white"></path>
  <path d="M74.4718 52.2043C80.2248 53.2044 84.6122 58.237 84.6122 64.2804C84.6122 71.0371 79.1136 76.5357 72.3498 76.5357C65.5859 76.5357 60.0873 71.0371 60.0873 64.2804C60.0873 58.237 64.4783 53.2044 70.235 52.2043" stroke="black" stroke-width="1.5" stroke-linecap="round" stroke-linejoin="round"></path>
  <path d="M75.9659 40.5906L74.1988 54.3083C74.1056 55.036 73.2023 55.5736 72.1807 55.5055C71.2774 55.4446 70.5821 54.932 70.5032 54.3083L68.7361 40.5906C68.5533 39.164 70.0229 37.9022 72.0159 37.7696C74.0124 37.637 75.7795 38.6872 75.9623 40.1139C75.9839 40.2716 75.9803 40.4401 75.9623 40.5906H75.9659Z" fill="#C8C8C8" stroke="black" stroke-width="1.5" stroke-linecap="round" stroke-linejoin="round"></path>
  <path d="M76.4231 64.5918C76.6095 62.3388 74.9341 60.3612 72.6811 60.1747C70.428 59.9883 68.4505 61.6637 68.2641 63.9167C68.0776 66.1698 69.7529 68.1473 72.006 68.3338C74.259 68.5202 76.2367 66.8449 76.4231 64.5918Z" fill="#C8C8C8" stroke="black" stroke-width="1.5" stroke-linecap="round" stroke-linejoin="round"></path>
  <path d="M96.9999 64.2803H89.5765" stroke="black" stroke-width="1.5" stroke-linecap="round" stroke-linejoin="round"></path>
  <path d="M55.1333 64.2803H47.7062" stroke="black" stroke-width="1.5" stroke-linecap="round" stroke-linejoin="round"></path>
  <path d="M72.353 88.9271V81.9912" stroke="black" stroke-width="1.5" stroke-linecap="round" stroke-linejoin="round"></path>
  <path d="M15.0055 44.2541L20.0166 38.1211V50.3871" stroke="black" stroke-width="1.5" stroke-linecap="round" stroke-linejoin="round"></path>
  <path d="M17.027 70.657C17.9589 70.062 19.0701 69.6354 20.1885 69.6713C21.547 69.7179 22.4861 70.6356 22.9557 71.865C23.7945 74.0587 21.8767 76.5463 20.5541 78.1091C19.3891 79.4856 18.0736 80.7616 16.6721 81.8943C16.6542 81.9087 16.6363 81.923 16.6183 81.9373H23.8124" stroke="black" stroke-width="1.5" stroke-linecap="round" stroke-linejoin="round"></path>
  <path d="M30.4043 40.2144H58.1373" stroke="black" stroke-width="1.5" stroke-linecap="round" stroke-linejoin="round"></path>
  <path d="M30.4042 46.3616H54.0186" stroke="black" stroke-width="1.5" stroke-linecap="round" stroke-linejoin="round"></path>
  <path d="M30.4043 73.2236H48.8857" stroke="black" stroke-width="1.5" stroke-linecap="round" stroke-linejoin="round"></path>
  <path d="M30.4042 79.3745H51.9002" stroke="black" stroke-width="1.5" stroke-linecap="round" stroke-linejoin="round"></path>
  <path d="M48.1264 11.0046C47.3808 11.0046 46.7248 10.4812 46.5922 9.75001C46.0008 6.42363 43.0938 3.90015 39.5954 3.90015C36.097 3.90015 33.1935 6.42721 32.5985 9.75001C32.4695 10.4848 31.8099 11.0046 31.0644 11.0046H17.7409C16.8735 11.0046 16.1745 11.7071 16.1745 12.5709V23.647C16.1745 24.5144 16.8771 25.2133 17.7409 25.2133H61.4462C62.3137 25.2133 63.0126 24.5108 63.0126 23.647V12.5709C63.0126 11.7035 62.3101 11.0046 61.4462 11.0046H48.1228H48.1264Z" fill="#C8C8C8" stroke="black" stroke-width="1.5" stroke-linecap="round" stroke-linejoin="round"></path>
</svg>
