<svg width="161" height="24" viewBox="0 0 161 24" fill="none" xmlns="http://www.w3.org/2000/svg">
<path d="M35.4692 9.56534C35.4238 9.16193 35.2363 8.84943 34.9067 8.62784C34.5772 8.40341 34.1624 8.29119 33.6624 8.29119C33.3045 8.29119 32.9948 8.34801 32.7334 8.46165C32.4721 8.57244 32.269 8.72585 32.1241 8.92188C31.982 9.11506 31.911 9.33523 31.911 9.58239C31.911 9.78977 31.9593 9.96875 32.0559 10.1193C32.1553 10.2699 32.2846 10.3963 32.4437 10.4986C32.6056 10.598 32.7789 10.6818 32.9636 10.75C33.1482 10.8153 33.3258 10.8693 33.4962 10.9119L34.3485 11.1335C34.6269 11.2017 34.9124 11.294 35.205 11.4105C35.4976 11.527 35.769 11.6804 36.019 11.8707C36.269 12.0611 36.4707 12.2969 36.6241 12.5781C36.7803 12.8594 36.8584 13.196 36.8584 13.5881C36.8584 14.0824 36.7306 14.5213 36.4749 14.9048C36.2221 15.2884 35.8542 15.5909 35.3712 15.8125C34.8911 16.0341 34.3101 16.1449 33.6283 16.1449C32.9749 16.1449 32.4096 16.0412 31.9323 15.8338C31.455 15.6264 31.0815 15.3324 30.8116 14.9517C30.5417 14.5682 30.3925 14.1136 30.3641 13.5881H31.6851C31.7107 13.9034 31.813 14.1662 31.992 14.3764C32.1738 14.5838 32.4053 14.7386 32.6866 14.8409C32.9707 14.9403 33.2817 14.9901 33.6198 14.9901C33.992 14.9901 34.3229 14.9318 34.6127 14.8153C34.9053 14.696 35.1354 14.5312 35.303 14.321C35.4707 14.108 35.5545 13.8594 35.5545 13.5753C35.5545 13.3168 35.4806 13.1051 35.3329 12.9403C35.188 12.7756 34.9905 12.6392 34.7405 12.5312C34.4934 12.4233 34.2136 12.3281 33.9011 12.2457L32.8698 11.9645C32.1709 11.7741 31.617 11.4943 31.2079 11.125C30.8016 10.7557 30.5985 10.267 30.5985 9.65909C30.5985 9.15625 30.7349 8.71733 31.0076 8.34233C31.2803 7.96733 31.6496 7.67614 32.1155 7.46875C32.5815 7.25852 33.107 7.15341 33.6922 7.15341C34.2832 7.15341 34.8045 7.2571 35.2562 7.46449C35.7107 7.67188 36.0687 7.95739 36.33 8.32102C36.5914 8.68182 36.7278 9.09659 36.7391 9.56534H35.4692ZM41.1507 16.1321C40.5058 16.1321 39.9504 15.9943 39.4845 15.7188C39.0214 15.4403 38.6635 15.0497 38.4106 14.5469C38.1606 14.0412 38.0356 13.4489 38.0356 12.7699C38.0356 12.0994 38.1606 11.5085 38.4106 10.9972C38.6635 10.4858 39.0158 10.0866 39.4675 9.79972C39.922 9.51278 40.4533 9.36932 41.0612 9.36932C41.4305 9.36932 41.7885 9.4304 42.1351 9.55256C42.4817 9.67472 42.7927 9.86648 43.0683 10.1278C43.3439 10.3892 43.5612 10.7287 43.7203 11.1463C43.8794 11.5611 43.9589 12.0653 43.9589 12.6591V13.1108H38.7558V12.1562H42.7104C42.7104 11.821 42.6422 11.5241 42.5058 11.2656C42.3695 11.0043 42.1777 10.7983 41.9305 10.6477C41.6862 10.4972 41.3993 10.4219 41.0697 10.4219C40.7118 10.4219 40.3993 10.5099 40.1322 10.6861C39.868 10.8594 39.6635 11.0866 39.5186 11.3679C39.3766 11.6463 39.3055 11.9489 39.3055 12.2756V13.0213C39.3055 13.4588 39.3822 13.831 39.5356 14.1378C39.6919 14.4446 39.9092 14.679 40.1876 14.8409C40.466 15 40.7913 15.0795 41.1635 15.0795C41.405 15.0795 41.6251 15.0455 41.824 14.9773C42.0229 14.9062 42.1947 14.8011 42.3396 14.6619C42.4845 14.5227 42.5953 14.3509 42.672 14.1463L43.878 14.3636C43.7814 14.7187 43.6081 15.0298 43.3581 15.2969C43.1109 15.5611 42.7998 15.767 42.4248 15.9148C42.0527 16.0597 41.628 16.1321 41.1507 16.1321ZM48.1297 16.1321C47.4962 16.1321 46.9508 15.9886 46.4934 15.7017C46.0388 15.4119 45.6894 15.0128 45.4451 14.5043C45.2008 13.9957 45.0786 13.4134 45.0786 12.7571C45.0786 12.0923 45.2036 11.5057 45.4536 10.9972C45.7036 10.4858 46.0559 10.0866 46.5104 9.79972C46.965 9.51278 47.5005 9.36932 48.117 9.36932C48.6141 9.36932 49.0573 9.46165 49.4465 9.64631C49.8357 9.82812 50.1496 10.0838 50.3883 10.4134C50.6297 10.7429 50.7732 11.1278 50.8187 11.5682H49.5786C49.5104 11.2614 49.3542 10.9972 49.1099 10.7756C48.8684 10.554 48.5445 10.4432 48.1383 10.4432C47.7832 10.4432 47.4721 10.5369 47.205 10.7244C46.9408 10.9091 46.7349 11.1733 46.5871 11.517C46.4394 11.858 46.3655 12.2614 46.3655 12.7273C46.3655 13.2045 46.438 13.6165 46.5829 13.9631C46.7278 14.3097 46.9323 14.5781 47.1965 14.7685C47.4636 14.9588 47.7775 15.054 48.1383 15.054C48.3797 15.054 48.5985 15.0099 48.7945 14.9219C48.9934 14.831 49.1596 14.7017 49.2931 14.5341C49.4295 14.3665 49.5246 14.1648 49.5786 13.929H50.8187C50.7732 14.3523 50.6354 14.7301 50.4053 15.0625C50.1752 15.3949 49.867 15.6562 49.4806 15.8466C49.0971 16.0369 48.6468 16.1321 48.1297 16.1321ZM56.3275 13.2855V9.45455H57.606V16H56.3531V14.8665H56.2849C56.1344 15.2159 55.8929 15.5071 55.5605 15.7401C55.231 15.9702 54.8204 16.0852 54.329 16.0852C53.9085 16.0852 53.5364 15.9929 53.2125 15.8082C52.8915 15.6207 52.6386 15.3438 52.454 14.9773C52.2722 14.6108 52.1812 14.1577 52.1812 13.6179V9.45455H53.4554V13.4645C53.4554 13.9105 53.579 14.2656 53.8261 14.5298C54.0733 14.794 54.3943 14.9261 54.7892 14.9261C55.0278 14.9261 55.265 14.8665 55.5008 14.7472C55.7395 14.6278 55.9369 14.4474 56.0932 14.206C56.2523 13.9645 56.3304 13.6577 56.3275 13.2855ZM59.318 16V9.45455H60.5495V10.4943H60.6177C60.737 10.142 60.9472 9.86506 61.2484 9.66335C61.5523 9.45881 61.8961 9.35653 62.2796 9.35653C62.3592 9.35653 62.4529 9.35937 62.5609 9.36506C62.6717 9.37074 62.7583 9.37784 62.8208 9.38636V10.6051C62.7697 10.5909 62.6788 10.5753 62.5481 10.5582C62.4174 10.5384 62.2867 10.5284 62.156 10.5284C61.8549 10.5284 61.5864 10.5923 61.3506 10.7202C61.1177 10.8452 60.933 11.0199 60.7967 11.2443C60.6603 11.4659 60.5921 11.7187 60.5921 12.0028V16H59.318ZM66.5101 16.1321C65.8652 16.1321 65.3098 15.9943 64.8439 15.7188C64.3808 15.4403 64.0229 15.0497 63.77 14.5469C63.52 14.0412 63.395 13.4489 63.395 12.7699C63.395 12.0994 63.52 11.5085 63.77 10.9972C64.0229 10.4858 64.3751 10.0866 64.8268 9.79972C65.2814 9.51278 65.8126 9.36932 66.4206 9.36932C66.7899 9.36932 67.1479 9.4304 67.4945 9.55256C67.841 9.67472 68.1521 9.86648 68.4277 10.1278C68.7033 10.3892 68.9206 10.7287 69.0797 11.1463C69.2388 11.5611 69.3183 12.0653 69.3183 12.6591V13.1108H64.1152V12.1562H68.0697C68.0697 11.821 68.0016 11.5241 67.8652 11.2656C67.7288 11.0043 67.5371 10.7983 67.2899 10.6477C67.0456 10.4972 66.7587 10.4219 66.4291 10.4219C66.0712 10.4219 65.7587 10.5099 65.4916 10.6861C65.2274 10.8594 65.0229 11.0866 64.878 11.3679C64.7359 11.6463 64.6649 11.9489 64.6649 12.2756V13.0213C64.6649 13.4588 64.7416 13.831 64.895 14.1378C65.0513 14.4446 65.2686 14.679 65.547 14.8409C65.8254 15 66.1507 15.0795 66.5229 15.0795C66.7643 15.0795 66.9845 15.0455 67.1834 14.9773C67.3822 14.9062 67.5541 14.8011 67.699 14.6619C67.8439 14.5227 67.9547 14.3509 68.0314 14.1463L69.2373 14.3636C69.1408 14.7187 68.9675 15.0298 68.7175 15.2969C68.4703 15.5611 68.1592 15.767 67.7842 15.9148C67.4121 16.0597 66.9873 16.1321 66.5101 16.1321ZM78.77 9.56534C78.7246 9.16193 78.5371 8.84943 78.2075 8.62784C77.878 8.40341 77.4632 8.29119 76.9632 8.29119C76.6052 8.29119 76.2956 8.34801 76.0342 8.46165C75.7729 8.57244 75.5697 8.72585 75.4248 8.92188C75.2828 9.11506 75.2118 9.33523 75.2118 9.58239C75.2118 9.78977 75.2601 9.96875 75.3567 10.1193C75.4561 10.2699 75.5854 10.3963 75.7445 10.4986C75.9064 10.598 76.0797 10.6818 76.2643 10.75C76.449 10.8153 76.6266 10.8693 76.797 10.9119L77.6493 11.1335C77.9277 11.2017 78.2132 11.294 78.5058 11.4105C78.7984 11.527 79.0697 11.6804 79.3197 11.8707C79.5697 12.0611 79.7714 12.2969 79.9248 12.5781C80.0811 12.8594 80.1592 13.196 80.1592 13.5881C80.1592 14.0824 80.0314 14.5213 79.7757 14.9048C79.5229 15.2884 79.155 15.5909 78.672 15.8125C78.1919 16.0341 77.6109 16.1449 76.9291 16.1449C76.2757 16.1449 75.7104 16.0412 75.2331 15.8338C74.7558 15.6264 74.3822 15.3324 74.1123 14.9517C73.8425 14.5682 73.6933 14.1136 73.6649 13.5881H74.9859C75.0115 13.9034 75.1138 14.1662 75.2927 14.3764C75.4746 14.5838 75.7061 14.7386 75.9873 14.8409C76.2714 14.9403 76.5825 14.9901 76.9206 14.9901C77.2927 14.9901 77.6237 14.9318 77.9135 14.8153C78.2061 14.696 78.4362 14.5312 78.6038 14.321C78.7714 14.108 78.8552 13.8594 78.8552 13.5753C78.8552 13.3168 78.7814 13.1051 78.6337 12.9403C78.4888 12.7756 78.2913 12.6392 78.0413 12.5312C77.7942 12.4233 77.5143 12.3281 77.2018 12.2457L76.1706 11.9645C75.4717 11.7741 74.9177 11.4943 74.5087 11.125C74.1024 10.7557 73.8993 10.267 73.8993 9.65909C73.8993 9.15625 74.0356 8.71733 74.3084 8.34233C74.5811 7.96733 74.9504 7.67614 75.4163 7.46875C75.8822 7.25852 76.4078 7.15341 76.993 7.15341C77.5839 7.15341 78.1052 7.2571 78.557 7.46449C79.0115 7.67188 79.3695 7.95739 79.6308 8.32102C79.8922 8.68182 80.0285 9.09659 80.0399 9.56534H78.77ZM86.4927 9.56534C86.4472 9.16193 86.2597 8.84943 85.9302 8.62784C85.6006 8.40341 85.1859 8.29119 84.6859 8.29119C84.3279 8.29119 84.0182 8.34801 83.7569 8.46165C83.4955 8.57244 83.2924 8.72585 83.1475 8.92188C83.0055 9.11506 82.9344 9.33523 82.9344 9.58239C82.9344 9.78977 82.9827 9.96875 83.0793 10.1193C83.1788 10.2699 83.308 10.3963 83.4671 10.4986C83.629 10.598 83.8023 10.6818 83.987 10.75C84.1717 10.8153 84.3492 10.8693 84.5197 10.9119L85.3719 11.1335C85.6503 11.2017 85.9359 11.294 86.2285 11.4105C86.5211 11.527 86.7924 11.6804 87.0424 11.8707C87.2924 12.0611 87.4941 12.2969 87.6475 12.5781C87.8038 12.8594 87.8819 13.196 87.8819 13.5881C87.8819 14.0824 87.754 14.5213 87.4984 14.9048C87.2455 15.2884 86.8776 15.5909 86.3947 15.8125C85.9146 16.0341 85.3336 16.1449 84.6518 16.1449C83.9984 16.1449 83.433 16.0412 82.9557 15.8338C82.4785 15.6264 82.1049 15.3324 81.835 14.9517C81.5651 14.5682 81.416 14.1136 81.3876 13.5881H82.7086C82.7342 13.9034 82.8364 14.1662 83.0154 14.3764C83.1972 14.5838 83.4288 14.7386 83.71 14.8409C83.9941 14.9403 84.3052 14.9901 84.6432 14.9901C85.0154 14.9901 85.3464 14.9318 85.6361 14.8153C85.9288 14.696 86.1589 14.5312 86.3265 14.321C86.4941 14.108 86.5779 13.8594 86.5779 13.5753C86.5779 13.3168 86.504 13.1051 86.3563 12.9403C86.2114 12.7756 86.014 12.6392 85.764 12.5312C85.5168 12.4233 85.237 12.3281 84.9245 12.2457L83.8932 11.9645C83.1944 11.7741 82.6404 11.4943 82.2313 11.125C81.8251 10.7557 81.6219 10.267 81.6219 9.65909C81.6219 9.15625 81.7583 8.71733 82.031 8.34233C82.3038 7.96733 82.6731 7.67614 83.139 7.46875C83.6049 7.25852 84.1305 7.15341 84.7157 7.15341C85.3066 7.15341 85.8279 7.2571 86.2796 7.46449C86.7342 7.67188 87.0921 7.95739 87.3535 8.32102C87.6148 8.68182 87.7512 9.09659 87.7626 9.56534H86.4927ZM89.4554 16V7.27273H90.7722V14.8665H94.7267V16H89.4554ZM99.4046 16V7.27273H104.876V8.40625H100.721V11.0653H104.591V12.1946H100.721V14.8665H104.927V16H99.4046ZM107.807 12.1136V16H106.533V9.45455H107.756V10.5199H107.837C107.987 10.1733 108.223 9.89489 108.544 9.68466C108.868 9.47443 109.276 9.36932 109.767 9.36932C110.213 9.36932 110.604 9.46307 110.939 9.65057C111.274 9.83523 111.534 10.1108 111.719 10.4773C111.904 10.8437 111.996 11.2969 111.996 11.8366V16H110.722V11.9901C110.722 11.5156 110.598 11.1449 110.351 10.8778C110.104 10.608 109.764 10.473 109.333 10.473C109.037 10.473 108.774 10.5369 108.544 10.6648C108.317 10.7926 108.136 10.9801 108.003 11.2273C107.872 11.4716 107.807 11.767 107.807 12.1136ZM116.462 16.1321C115.828 16.1321 115.283 15.9886 114.825 15.7017C114.371 15.4119 114.021 15.0128 113.777 14.5043C113.533 13.9957 113.411 13.4134 113.411 12.7571C113.411 12.0923 113.536 11.5057 113.786 10.9972C114.036 10.4858 114.388 10.0866 114.842 9.79972C115.297 9.51278 115.833 9.36932 116.449 9.36932C116.946 9.36932 117.389 9.46165 117.779 9.64631C118.168 9.82812 118.482 10.0838 118.72 10.4134C118.962 10.7429 119.105 11.1278 119.151 11.5682H117.911C117.842 11.2614 117.686 10.9972 117.442 10.7756C117.2 10.554 116.877 10.4432 116.47 10.4432C116.115 10.4432 115.804 10.5369 115.537 10.7244C115.273 10.9091 115.067 11.1733 114.919 11.517C114.771 11.858 114.698 12.2614 114.698 12.7273C114.698 13.2045 114.77 13.6165 114.915 13.9631C115.06 14.3097 115.264 14.5781 115.529 14.7685C115.796 14.9588 116.11 15.054 116.47 15.054C116.712 15.054 116.931 15.0099 117.127 14.9219C117.325 14.831 117.492 14.7017 117.625 14.5341C117.761 14.3665 117.857 14.1648 117.911 13.929H119.151C119.105 14.3523 118.967 14.7301 118.737 15.0625C118.507 15.3949 118.199 15.6562 117.813 15.8466C117.429 16.0369 116.979 16.1321 116.462 16.1321ZM120.513 16V9.45455H121.745V10.4943H121.813C121.932 10.142 122.143 9.86506 122.444 9.66335C122.748 9.45881 123.091 9.35653 123.475 9.35653C123.554 9.35653 123.648 9.35937 123.756 9.36506C123.867 9.37074 123.954 9.37784 124.016 9.38636V10.6051C123.965 10.5909 123.874 10.5753 123.743 10.5582C123.613 10.5384 123.482 10.5284 123.351 10.5284C123.05 10.5284 122.782 10.5923 122.546 10.7202C122.313 10.8452 122.128 11.0199 121.992 11.2443C121.856 11.4659 121.787 11.7187 121.787 12.0028V16H120.513ZM126.123 18.4545C125.933 18.4545 125.76 18.4389 125.603 18.4077C125.447 18.3793 125.331 18.348 125.254 18.3139L125.561 17.2699C125.794 17.3324 126.001 17.3594 126.183 17.3509C126.365 17.3423 126.525 17.2741 126.665 17.1463C126.807 17.0185 126.932 16.8097 127.04 16.5199L127.197 16.0852L124.802 9.45455H126.166L127.824 14.5341H127.892L129.549 9.45455H130.917L128.22 16.8736C128.095 17.2145 127.936 17.5028 127.743 17.7386C127.549 17.9773 127.319 18.1563 127.052 18.2756C126.785 18.3949 126.476 18.4545 126.123 18.4545ZM132.115 18.4545V9.45455H133.359V10.5156H133.466C133.54 10.3793 133.646 10.2216 133.785 10.0426C133.924 9.86364 134.118 9.70739 134.365 9.57386C134.612 9.4375 134.939 9.36932 135.345 9.36932C135.873 9.36932 136.345 9.50284 136.76 9.76989C137.174 10.0369 137.5 10.4219 137.736 10.9247C137.974 11.4276 138.094 12.0327 138.094 12.7401C138.094 13.4474 137.976 14.054 137.74 14.5597C137.504 15.0625 137.18 15.4503 136.768 15.723C136.356 15.9929 135.886 16.1278 135.358 16.1278C134.96 16.1278 134.635 16.0611 134.382 15.9276C134.132 15.794 133.936 15.6378 133.794 15.4588C133.652 15.2798 133.542 15.1207 133.466 14.9815H133.389V18.4545H132.115ZM133.363 12.7273C133.363 13.1875 133.43 13.5909 133.564 13.9375C133.697 14.2841 133.89 14.5554 134.143 14.7514C134.396 14.9446 134.706 15.0412 135.072 15.0412C135.453 15.0412 135.771 14.9403 136.027 14.7386C136.282 14.5341 136.476 14.2571 136.606 13.9077C136.74 13.5582 136.807 13.1648 136.807 12.7273C136.807 12.2955 136.741 11.9077 136.611 11.5639C136.483 11.2202 136.29 10.9489 136.031 10.75C135.775 10.5511 135.456 10.4517 135.072 10.4517C134.703 10.4517 134.39 10.5469 134.135 10.7372C133.882 10.9276 133.69 11.1932 133.559 11.5341C133.429 11.875 133.363 12.2727 133.363 12.7273ZM142.576 9.45455V10.4773H139.001V9.45455H142.576ZM139.96 7.88636H141.234V14.0781C141.234 14.3253 141.271 14.5114 141.345 14.6364C141.419 14.7585 141.514 14.8423 141.63 14.8878C141.75 14.9304 141.879 14.9517 142.018 14.9517C142.121 14.9517 142.21 14.9446 142.287 14.9304C142.363 14.9162 142.423 14.9048 142.466 14.8963L142.696 15.9489C142.622 15.9773 142.517 16.0057 142.38 16.0341C142.244 16.0653 142.074 16.0824 141.869 16.0852C141.534 16.0909 141.221 16.0312 140.932 15.9062C140.642 15.7812 140.407 15.5881 140.228 15.3267C140.049 15.0653 139.96 14.7372 139.96 14.3423V7.88636ZM143.986 16V9.45455H145.26V16H143.986ZM144.629 8.4446C144.408 8.4446 144.217 8.37074 144.058 8.22301C143.902 8.07244 143.824 7.89347 143.824 7.68608C143.824 7.47585 143.902 7.29687 144.058 7.14915C144.217 6.99858 144.408 6.9233 144.629 6.9233C144.851 6.9233 145.04 6.99858 145.196 7.14915C145.355 7.29687 145.435 7.47585 145.435 7.68608C145.435 7.89347 145.355 8.07244 145.196 8.22301C145.04 8.37074 144.851 8.4446 144.629 8.4446ZM149.731 16.1321C149.118 16.1321 148.582 15.9915 148.125 15.7102C147.667 15.429 147.312 15.0355 147.059 14.5298C146.807 14.0241 146.68 13.4332 146.68 12.7571C146.68 12.0781 146.807 11.4844 147.059 10.9759C147.312 10.4673 147.667 10.0724 148.125 9.79119C148.582 9.50994 149.118 9.36932 149.731 9.36932C150.345 9.36932 150.88 9.50994 151.338 9.79119C151.795 10.0724 152.15 10.4673 152.403 10.9759C152.656 11.4844 152.782 12.0781 152.782 12.7571C152.782 13.4332 152.656 14.0241 152.403 14.5298C152.15 15.0355 151.795 15.429 151.338 15.7102C150.88 15.9915 150.345 16.1321 149.731 16.1321ZM149.736 15.0625C150.133 15.0625 150.463 14.9574 150.724 14.7472C150.986 14.5369 151.179 14.2571 151.304 13.9077C151.432 13.5582 151.496 13.1733 151.496 12.7528C151.496 12.3352 151.432 11.9517 151.304 11.6023C151.179 11.25 150.986 10.9673 150.724 10.7543C150.463 10.5412 150.133 10.4347 149.736 10.4347C149.335 10.4347 149.003 10.5412 148.738 10.7543C148.477 10.9673 148.282 11.25 148.155 11.6023C148.03 11.9517 147.967 12.3352 147.967 12.7528C147.967 13.1733 148.03 13.5582 148.155 13.9077C148.282 14.2571 148.477 14.5369 148.738 14.7472C149.003 14.9574 149.335 15.0625 149.736 15.0625ZM155.479 12.1136V16H154.205V9.45455H155.428V10.5199H155.509C155.659 10.1733 155.895 9.89489 156.216 9.68466C156.54 9.47443 156.948 9.36932 157.439 9.36932C157.885 9.36932 158.276 9.46307 158.611 9.65057C158.946 9.83523 159.206 10.1108 159.391 10.4773C159.575 10.8437 159.668 11.2969 159.668 11.8366V16H158.394V11.9901C158.394 11.5156 158.27 11.1449 158.023 10.8778C157.776 10.608 157.436 10.473 157.004 10.473C156.709 10.473 156.446 10.5369 156.216 10.6648C155.989 10.7926 155.808 10.9801 155.675 11.2273C155.544 11.4716 155.479 11.767 155.479 12.1136Z" fill="#010B1F"/>
<path d="M15.563 9.1875L11.6677 13.6875L9.93799 11.993" stroke="#010B1F" stroke-width="1.125" stroke-linecap="round" stroke-linejoin="round"/>
<path d="M20.0313 6.95051C16.8876 6.3866 15.5879 5.96895 12.7505 4.6875C9.913 5.96895 8.61327 6.3866 5.4696 6.95051C4.90007 15.9772 12.2083 19.0942 12.7505 19.3125C13.2926 19.0942 20.6008 15.9772 20.0313 6.95051Z" stroke="#010B1F" stroke-width="1.125" stroke-linecap="round" stroke-linejoin="round"/>
</svg>
