<?xml version="1.0" encoding="UTF-8"?>
<svg xmlns="http://www.w3.org/2000/svg" width="175" height="42" viewBox="0 0 175 42" fill="none">
  <path d="M150.64 0C141.551 0 134.066 7.35158 134.066 16.5745C134.066 25.6637 141.417 33.1489 150.64 33.1489C159.729 33.1489 167.215 25.7973 167.215 16.5745C167.215 7.35158 159.729 0 150.64 0ZM163.472 7.35158C162.67 7.88624 161.734 8.4209 160.799 8.95556C160.264 7.88624 159.596 6.81692 158.794 5.88126C159.462 5.48027 160.13 4.94561 160.665 4.54461C161.868 5.21294 162.804 6.28226 163.472 7.35158ZM156.521 1.87131C157.858 2.40597 159.061 3.0743 160.264 4.00995C159.729 4.54461 159.061 4.94561 158.393 5.3466C157.591 4.41095 156.655 3.60896 155.719 2.80697C155.987 2.40597 156.254 2.13864 156.521 1.87131ZM157.858 5.61393C156.922 6.14859 155.987 6.41592 155.051 6.81692C154.65 5.88126 154.249 4.94561 153.714 4.14362C154.249 3.87629 154.784 3.60896 155.185 3.20796C156.12 3.87629 157.056 4.67828 157.858 5.61393ZM155.853 1.60398C155.586 1.87131 155.318 2.13864 155.185 2.40597C154.249 1.87131 153.447 1.33665 152.378 0.935655C153.581 0.935655 154.784 1.20299 155.853 1.60398ZM154.65 2.80697C154.249 3.0743 153.848 3.34163 153.447 3.47529C152.912 2.6733 152.378 2.00498 151.843 1.20299C152.779 1.60398 153.714 2.13864 154.65 2.80697ZM150.907 1.33665C151.576 2.00498 152.11 2.80697 152.645 3.74262C152.11 3.87629 151.576 4.00995 150.907 4.00995V1.33665ZM150.907 4.67828C151.576 4.67828 152.378 4.54461 153.046 4.27728C153.581 5.07927 153.982 6.01493 154.383 6.95058C153.313 7.21791 152.11 7.35158 150.907 7.48524V4.67828ZM150.239 1.33665V4.00995C149.704 4.00995 149.17 3.87629 148.501 3.74262C149.17 2.94063 149.704 2.13864 150.239 1.33665ZM147.967 3.47529C147.566 3.34163 147.031 3.0743 146.764 2.80697C147.7 2.27231 148.635 1.73765 149.571 1.33665C148.902 2.00498 148.368 2.6733 147.967 3.47529ZM148.902 0.80199C147.967 1.20299 147.031 1.73765 146.096 2.27231C145.828 2.00498 145.561 1.73765 145.427 1.47032C146.497 1.20299 147.7 0.935655 148.902 0.80199ZM160.264 29.139C158.125 27.936 157.992 26.1983 158.125 25.6637C158.259 24.9954 158.66 25.2627 158.927 25.2627C160.398 25.2627 161.868 24.8617 163.739 22.8567C165.878 20.7181 166.546 15.9061 163.205 12.8318C159.729 9.49022 155.987 10.0249 153.581 13.0992C153.046 13.7675 151.843 14.1685 150.907 14.1685C149.303 14.1685 150.373 15.3715 150.373 15.6388C150.373 15.9061 150.105 16.0398 149.972 16.0398C149.437 15.9061 149.704 16.7081 149.704 16.8418C149.704 16.9755 149.437 17.2428 149.437 17.2428C148.769 17.2428 148.902 17.7774 149.036 18.0448C149.036 18.1784 149.036 18.4458 148.769 18.5794C148.501 18.7131 148.368 19.2478 148.368 19.6488C148.368 20.3171 149.036 20.8517 150.105 21.6537C151.175 22.4557 151.308 23.2577 151.308 23.7924C151.308 24.327 151.442 25.2627 151.576 25.7973C151.843 26.4657 151.843 27.8023 150.373 27.8023C148.501 27.936 145.294 29.2726 145.026 29.4063C143.957 29.8073 142.62 29.941 141.551 29.6736C141.016 29.2726 140.482 28.8716 139.947 28.337C139.68 27.6687 140.081 26.8667 140.482 26.332C141.15 27.0003 141.952 26.8667 142.487 26.8667C143.021 26.8667 145.427 26.4657 145.828 26.332C146.229 26.1983 146.363 26.1983 146.497 26.332C147.432 26.733 148.769 26.733 149.303 24.9954C149.838 23.1241 148.635 23.6587 148.368 23.7924C148.234 23.926 147.967 23.7924 148.101 23.6587C148.368 23.2577 147.967 23.2577 147.833 23.2577C147.299 23.2577 146.63 23.7924 146.497 23.926C146.229 24.0597 146.096 24.0597 145.962 24.0597C145.294 23.6587 143.289 24.1934 142.62 23.124C142.62 22.8567 142.086 18.4458 141.818 17.6438C141.818 17.5101 141.685 17.2428 141.952 16.9755C142.487 16.1735 143.823 16.9755 144.625 16.9755C145.561 16.9755 145.695 16.5745 145.962 16.3071C146.229 16.0398 146.363 16.1735 146.497 16.0398C146.63 15.9061 146.497 15.7725 146.497 15.6388C146.497 15.5051 146.63 15.6388 146.764 15.5051C146.898 15.3715 146.764 15.1041 146.764 14.9705C147.031 14.5695 147.566 14.8368 147.299 14.0348C147.165 13.5002 147.432 12.9655 147.7 12.6982C148.1 12.1635 149.838 9.75755 146.898 7.21791C144.091 4.81194 141.15 5.07927 139.279 7.08425C137.407 9.08922 138.343 12.0299 138.477 12.8318C138.61 13.6338 138.076 14.3022 137.407 14.5695C136.873 14.8368 135.67 15.6388 134.868 16.3071C135.001 9.89121 138.878 4.27728 144.759 2.00498C145.026 2.27231 145.294 2.6733 145.561 2.94063C144.893 3.47529 143.422 4.67828 143.422 4.67828C143.422 4.67828 143.556 4.67828 143.823 4.81194C143.957 4.81194 144.224 4.94561 144.224 4.94561C144.224 4.94561 145.427 3.87629 146.096 3.47529C146.497 3.87629 147.031 4.14362 147.566 4.41095C147.299 4.94561 146.497 6.28226 146.497 6.28226C146.497 6.28226 146.63 6.41592 146.764 6.41592C146.898 6.54959 147.031 6.54959 147.031 6.54959C147.031 6.54959 147.833 5.07927 148.101 4.54461C148.769 4.81194 149.437 4.94561 150.105 4.94561V7.61891C149.704 7.61891 148.769 7.61891 148.368 7.48524H148.101L148.234 7.75257C148.368 7.88624 148.368 8.0199 148.501 8.15357C148.769 8.15357 149.704 8.15357 150.105 8.15357V13.0992H150.774V11.8962C151.843 11.8962 152.645 11.7625 153.581 11.6289L154.516 10.8269H153.982C152.912 10.9605 151.977 11.0942 151.175 11.0942C151.175 11.0942 150.907 11.0942 150.774 11.0942V8.0199C151.977 8.0199 153.313 7.88624 154.516 7.48524C154.784 8.28723 155.452 10.2922 155.452 10.2922L156.12 10.0249C156.12 10.0249 155.452 8.0199 155.185 7.21791C156.254 6.95058 157.19 6.41592 158.125 6.01493C158.927 6.95058 159.596 8.0199 160.13 9.08922C159.596 9.35655 158.794 9.62388 158.794 9.62388C159.462 9.75755 159.997 9.89121 159.997 9.89121C159.997 9.89121 160.264 9.75755 160.398 9.75755C160.398 9.89121 160.531 10.1585 160.531 10.1585L161.467 10.5595L161.333 10.2922C161.333 10.2922 161.066 9.62388 160.932 9.49022C161.868 9.08922 162.804 8.55456 163.739 7.88624C165.477 10.4259 166.279 13.5002 166.279 16.5745C166.546 21.6537 164.007 26.1983 160.264 29.139Z" fill="#666562"></path>
  <path d="M132.595 4.41076L132.328 4.67809C131.392 5.48009 129.12 7.75239 129.521 10.292V10.4257L129.655 10.9604L129.922 10.693C131.259 9.49004 132.328 7.3514 132.729 4.94542L132.863 4.2771L132.595 4.41076Z" fill="#666562"></path>
  <path d="M128.051 8.68811L127.918 8.95544C127.784 9.35643 127.517 10.2921 127.383 11.3614C127.116 12.9654 127.249 15.3714 128.586 17.109L128.72 17.3763L128.853 17.6437L129.121 16.5743C129.388 14.703 128.987 10.8267 128.319 9.0891L128.051 8.55444V8.68811Z" fill="#666562"></path>
  <path d="M126.447 15.3715V15.6388C126.313 17.2428 126.447 21.3864 129.789 23.6587L130.19 23.926V23.3914C130.19 21.7874 128.318 17.1091 126.982 15.5051L126.581 14.9705L126.447 15.3715Z" fill="#666562"></path>
  <path d="M126.982 22.723V22.9904C127.517 25.3963 129.655 29.1389 133.131 30.3419L133.665 30.4756L133.532 29.9409C132.863 28.2033 129.522 24.0597 127.383 22.723L126.982 22.4557V22.723Z" fill="#666562"></path>
  <path d="M134.066 8.01977L133.665 8.15344C131.126 9.75742 129.923 11.6287 129.923 14.0347V14.5694L130.324 14.302C131.66 13.099 133.532 10.1584 133.933 8.55443L134.066 7.88611V8.01977Z" fill="#666562"></path>
  <path d="M132.462 13.0991L132.329 13.3664C131.66 14.0348 129.522 16.3071 129.655 19.114C129.655 19.515 129.789 20.0497 129.923 20.4507L130.056 20.8517L130.324 20.4507C131.393 18.9804 132.73 15.2378 132.596 13.5001V12.9655L132.462 13.0991Z" fill="#666562"></path>
  <path d="M132.596 18.0446L132.462 18.3119C131.393 19.9159 130.858 21.5198 130.858 23.1238C130.858 24.1931 131.259 25.2625 131.927 26.3318L132.195 26.7328L132.328 26.3318C132.729 25.3961 133.13 22.5892 133.13 20.3169C133.13 19.5149 132.997 18.8465 132.863 18.4455L132.729 17.9109L132.596 18.0446Z" fill="#666562"></path>
  <path d="M133.799 23.2576L133.665 23.5249C133.398 24.5942 133.13 25.5299 133.264 26.5992C133.264 28.7378 134.333 30.4755 136.205 31.6785L136.472 31.8121L136.606 31.4111V31.0101C136.606 29.2725 135.269 24.7279 134.2 23.3912L133.932 22.9902L133.799 23.2576Z" fill="#666562"></path>
  <path d="M130.19 30.2083L130.323 30.4756C131.66 32.7479 134.066 35.8222 138.477 35.0202H138.878L138.611 34.7529C137.809 33.5499 132.462 30.4756 130.591 30.2083L130.056 30.0746L130.19 30.2083Z" fill="#666562"></path>
  <path d="M136.739 36.0897L136.071 36.2234L136.739 36.4907C139.546 37.6937 143.022 37.961 145.16 37.2927C145.962 37.0253 146.363 36.6244 146.898 36.0897C150.507 36.4907 153.848 39.4313 155.853 41.8373L155.987 41.971H156.121C156.388 41.8373 156.655 41.57 156.789 41.4363L156.923 41.3026L156.789 41.169C154.784 38.4957 151.576 36.8917 151.443 36.758C148.502 35.4214 143.423 34.352 136.739 36.0897Z" fill="#666562"></path>
  <path d="M136.872 28.6044V28.8717C137.273 31.545 138.343 35.0203 142.887 34.6193H143.155L143.021 34.352C142.754 33.149 138.61 29.6737 137.14 28.738L136.739 28.4707L136.872 28.6044Z" fill="#666562"></path>
  <path d="M168.418 4.1438L168.552 4.81212C168.953 7.21809 170.022 9.35674 171.359 10.5597L171.626 10.8271L171.76 10.2924V10.1587C172.161 7.61909 169.888 5.34678 168.953 4.54479L168.685 4.27746L168.418 4.1438Z" fill="#666562"></path>
  <path d="M173.096 8.4209L172.828 8.95556C172.16 10.6932 171.893 14.5695 172.026 16.4408L172.294 17.5101L172.427 17.3765L172.561 17.1091C174.031 15.3715 174.031 13.0992 173.764 11.3615C173.63 10.1585 173.363 9.35655 173.229 8.95556L173.096 8.68823V8.4209Z" fill="#666562"></path>
  <path d="M174.834 15.1042L174.433 15.6389C173.096 17.3766 171.225 21.9212 171.225 23.5251V24.0598L171.626 23.7925C174.967 21.6538 175.101 17.5102 174.967 15.7726V15.5052L174.834 15.1042Z" fill="#666562"></path>
  <path d="M174.299 22.4557L173.765 22.723C171.626 24.0597 168.284 28.2033 167.616 29.9409L167.482 30.4756L168.017 30.3419C171.492 29.2726 173.765 25.3963 174.166 22.9904V22.723L174.299 22.4557Z" fill="#666562"></path>
  <path d="M167.215 7.75256L167.349 8.42089C167.884 10.1585 169.488 13.0992 170.958 14.3022L171.359 14.5695V14.0348C171.493 11.6288 170.29 9.75754 167.75 8.15356L167.483 8.01989L167.215 7.75256Z" fill="#666562"></path>
  <path d="M168.686 12.9655V13.5001C168.552 15.2378 170.022 19.114 170.958 20.4507L171.225 20.8517L171.359 20.4507C171.493 19.916 171.626 19.515 171.626 19.114C171.76 16.3071 169.621 14.0348 168.953 13.3664L168.819 13.2328L168.686 12.9655Z" fill="#666562"></path>
  <path d="M168.551 17.7775L168.417 18.3121C168.284 18.7131 168.15 19.3814 168.15 20.1834C168.15 22.4557 168.417 25.2627 168.952 26.1984L169.086 26.5994L169.353 26.1984C170.021 25.2627 170.422 24.1934 170.422 22.9904C170.422 21.5201 169.888 19.7824 168.818 18.1785L168.685 17.9111L168.551 17.7775Z" fill="#666562"></path>
  <path d="M167.349 22.9902L167.082 23.3912C166.012 24.7279 164.676 29.2725 164.676 31.0101C164.676 31.0101 164.676 31.2775 164.676 31.4111L164.809 31.8121L165.077 31.6785C166.948 30.4755 167.883 28.7378 168.017 26.5992C168.017 25.6635 167.884 24.5942 167.616 23.5249L167.483 23.2576L167.349 22.9902Z" fill="#666562"></path>
  <path d="M171.225 29.9408L170.69 30.0745C168.819 30.3418 163.472 33.4161 162.67 34.6191L162.403 34.8864H162.804C167.215 35.6884 169.621 32.6141 170.958 30.3418L171.091 30.0745L171.225 29.9408Z" fill="#666562"></path>
  <path d="M149.972 36.758C149.838 36.758 146.63 38.4957 144.625 41.169L144.492 41.3026L144.625 41.4363C144.759 41.57 145.16 41.8373 145.294 41.971H145.427L145.561 41.8373C147.566 39.4313 150.908 36.357 154.517 36.0897C155.051 36.6244 155.586 37.0253 156.254 37.2927C158.259 37.961 161.868 37.6937 164.675 36.4907L165.343 36.2234L164.675 36.0897C157.858 34.352 152.779 35.4214 149.972 36.758Z" fill="#666562"></path>
  <path d="M164.408 28.3369L164.007 28.6042C162.537 29.5399 158.527 33.0152 158.126 34.2182L157.992 34.4855H158.26C162.671 34.8865 163.74 31.4112 164.275 28.7379V28.4706L164.408 28.3369Z" fill="#666562"></path>
  <path d="M51.595 1.60388H57.2089V6.68315H51.595V1.60388ZM52.1296 12.5644H56.8079V37.4261H52.1296V12.5644Z" fill="#666562"></path>
  <path d="M16.7081 12.5643H21.3864V37.426H16.8418V33.8171H16.7081C14.8368 36.8914 11.6289 38.228 8.15357 38.228C2.94063 38.228 0 34.2181 0 29.2725V12.5643H4.67828V27.2675C4.67828 31.5448 5.61393 34.7527 10.1585 34.7527C12.0299 34.7527 14.7032 33.8171 15.6388 31.1438C16.5745 28.8715 16.5745 25.9308 16.5745 25.2625V12.5643H16.7081Z" fill="#666562"></path>
  <path d="M30.743 16.1735C32.4806 13.0992 35.8222 11.7626 38.3619 11.7626C40.0995 11.7626 47.7184 12.1636 47.7184 20.1835V37.2926H43.0402V21.6538C43.0402 17.5102 41.3025 15.3715 37.2926 15.3715C37.2926 15.3715 34.7529 15.2379 32.7479 17.2428C32.0796 17.9112 30.743 18.9805 30.743 23.9261V37.4263H26.0647V12.5646H30.743V16.1735Z" fill="#666562"></path>
  <path d="M76.4563 20.4508C76.189 17.3765 74.7187 15.2379 71.377 15.2379C66.9661 15.2379 65.2284 19.1142 65.2284 24.8617C65.2284 30.6093 66.9661 34.4856 71.377 34.4856C74.4513 34.4856 76.3226 32.4807 76.59 28.8717H81.2682C80.8673 34.4856 76.7236 37.8273 71.2434 37.8273C63.3571 37.8273 60.1492 32.2133 60.1492 24.9954C60.1492 17.7775 63.7581 11.7626 71.6444 11.7626C76.8573 11.7626 80.7336 15.1042 81.0009 20.4508H76.4563Z" fill="#666562"></path>
  <path d="M88.2188 25.7973C87.8178 30.0746 89.6891 34.6192 94.3674 34.6192C97.9763 34.6192 99.8477 33.1489 100.382 29.5399H105.328C104.526 35.1538 100.249 37.9608 94.3674 37.9608C86.4812 37.9608 83.2732 32.3469 83.2732 25.129C83.2732 17.911 86.8822 11.8961 94.7684 11.8961C102.12 12.0298 105.595 16.7081 105.595 23.525V25.7973H88.2188ZM100.783 22.5893C100.917 18.4457 99.0457 15.2377 94.5011 15.2377C90.6248 15.2377 88.3525 18.5794 88.3525 22.5893H100.783Z" fill="#666562"></path>
  <path d="M110.942 37.159V15.7726H106.665V12.5646H110.942V7.21804C111.075 1.87144 115.219 0.401123 118.694 0.401123C119.764 0.401123 120.967 0.668453 122.036 0.935783V4.81207C121.234 4.81207 120.432 4.6784 119.63 4.6784C116.957 4.6784 115.486 5.34673 115.62 8.02003V12.5646H121.368V15.7726H115.62V37.159H110.942Z" fill="#666562"></path>
</svg>
