<svg width="109" height="28" viewBox="0 0 109 28" fill="none" xmlns="http://www.w3.org/2000/svg">
<path d="M30.0173 26.8743V4.92277H35.9163V26.8743H30.0173ZM22.6436 5.64605V0.474609H43.326V5.64605H22.6436Z" fill="#282828" style="fill:#282828;fill:color(display-p3 0.1569 0.1569 0.1569);fill-opacity:1;"/>
<path d="M57.2841 26.8743V21.0157H56.3129V14.6509C56.3129 13.6383 56.0731 12.8788 55.5935 12.3725C55.1139 11.8663 54.3466 11.6131 53.2915 11.6131C52.7639 11.6131 52.0685 11.6252 51.2052 11.6493C50.342 11.6734 49.4547 11.7095 48.5435 11.7578C47.6323 11.806 46.805 11.8542 46.0616 11.9024V7.02028C46.6131 6.97207 47.2606 6.92385 48.004 6.87563C48.7473 6.82741 49.5147 6.79125 50.306 6.76714C51.0973 6.74303 51.8407 6.73097 52.5361 6.73097C54.5504 6.73097 56.241 7.02028 57.6078 7.59891C58.9986 8.17753 60.0537 9.05752 60.7731 10.2389C61.4925 11.3961 61.8522 12.8909 61.8522 14.7232V26.8743H57.2841ZM50.9894 27.3806C49.5746 27.3806 48.3277 27.1274 47.2486 26.6211C46.1935 26.1148 45.3662 25.3916 44.7667 24.4513C44.1672 23.4869 43.8675 22.3417 43.8675 21.0157C43.8675 19.5692 44.2392 18.3878 44.9825 17.4717C45.7259 16.5314 46.769 15.8443 48.1119 15.4103C49.4547 14.9522 51.0014 14.7232 52.7519 14.7232H56.9603V17.9418H52.716C51.7088 17.9418 50.9295 18.1949 50.3779 18.7012C49.8504 19.1834 49.5866 19.8464 49.5866 20.6903C49.5866 21.4859 49.8504 22.1368 50.3779 22.6431C50.9295 23.1253 51.7088 23.3664 52.716 23.3664C53.3634 23.3664 53.9389 23.2579 54.4425 23.0409C54.97 22.7998 55.4017 22.402 55.7374 21.8475C56.0731 21.293 56.2649 20.5215 56.3129 19.533L57.6797 20.9796C57.5598 22.3538 57.2241 23.511 56.6726 24.4513C56.145 25.3916 55.4017 26.1148 54.4425 26.6211C53.5073 27.1274 52.3563 27.3806 50.9894 27.3806Z" fill="#282828" style="fill:#282828;fill:color(display-p3 0.1569 0.1569 0.1569);fill-opacity:1;"/>
<path d="M74.8641 27.5252C73.4733 27.5252 72.2024 27.2721 71.0514 26.7658C69.9243 26.2595 68.9412 25.5603 68.1019 24.6683C67.2626 23.7521 66.6151 22.6793 66.1595 21.4497C65.7279 20.2201 65.5121 18.8941 65.5121 17.4717V16.6399C65.5121 15.2174 65.7159 13.8914 66.1236 12.6619C66.5552 11.4323 67.1667 10.3594 67.958 9.44327C68.7733 8.50301 69.7445 7.77973 70.8715 7.27343C71.9986 6.74303 73.2575 6.47783 74.6483 6.47783C76.231 6.47783 77.5978 6.82741 78.7488 7.52658C79.8998 8.20164 80.7991 9.21423 81.4465 10.5644C82.094 11.8904 82.4537 13.5298 82.5256 15.4826L81.0149 14.0723V0.474609H86.806V26.8743H82.2378V18.6651H83.0292C82.9572 20.5456 82.5616 22.1489 81.8422 23.4749C81.1468 24.8009 80.1996 25.8135 79.0006 26.5127C77.8016 27.1877 76.4228 27.5252 74.8641 27.5252ZM76.3029 22.6793C77.1901 22.6793 77.9935 22.4864 78.7128 22.1007C79.4562 21.6908 80.0437 21.1001 80.4753 20.3286C80.931 19.5571 81.1588 18.6289 81.1588 17.544V16.2059C81.1588 15.1451 80.931 14.2531 80.4753 13.5298C80.0197 12.8065 79.4202 12.252 78.6769 11.8663C77.9335 11.4805 77.1302 11.2876 76.2669 11.2876C75.3077 11.2876 74.4445 11.5408 73.6771 12.0471C72.9338 12.5293 72.3463 13.2043 71.9146 14.0723C71.483 14.9161 71.2672 15.9046 71.2672 17.0377C71.2672 18.1949 71.483 19.1955 71.9146 20.0393C72.3463 20.8831 72.9457 21.5341 73.7131 21.9922C74.4804 22.4502 75.3437 22.6793 76.3029 22.6793Z" fill="#282828" style="fill:#282828;fill:color(display-p3 0.1569 0.1569 0.1569);fill-opacity:1;"/>
<path d="M103.932 26.8743V21.0157H102.961V14.6509C102.961 13.6383 102.721 12.8788 102.241 12.3725C101.762 11.8663 100.994 11.6131 99.9393 11.6131C99.4117 11.6131 98.7163 11.6252 97.8531 11.6493C96.9898 11.6734 96.1026 11.7095 95.1913 11.7578C94.2801 11.806 93.4528 11.8542 92.7094 11.9024V7.02028C93.261 6.97207 93.9084 6.92385 94.6518 6.87563C95.3952 6.82741 96.1625 6.79125 96.9538 6.76714C97.7452 6.74303 98.4885 6.73097 99.1839 6.73097C101.198 6.73097 102.889 7.02028 104.256 7.59891C105.646 8.17753 106.702 9.05752 107.421 10.2389C108.14 11.3961 108.5 12.8909 108.5 14.7232V26.8743H103.932ZM97.6373 27.3806C96.2225 27.3806 94.9755 27.1274 93.8964 26.6211C92.8413 26.1148 92.014 25.3916 91.4145 24.4513C90.8151 23.4869 90.5153 22.3417 90.5153 21.0157C90.5153 19.5692 90.887 18.3878 91.6304 17.4717C92.3737 16.5314 93.4168 15.8443 94.7597 15.4103C96.1026 14.9522 97.6492 14.7232 99.3997 14.7232H103.608V17.9418H99.3638C98.3566 17.9418 97.5773 18.1949 97.0258 18.7012C96.4982 19.1834 96.2344 19.8464 96.2344 20.6903C96.2344 21.4859 96.4982 22.1368 97.0258 22.6431C97.5773 23.1253 98.3566 23.3664 99.3638 23.3664C100.011 23.3664 100.587 23.2579 101.09 23.0409C101.618 22.7998 102.049 22.402 102.385 21.8475C102.721 21.293 102.913 20.5215 102.961 19.533L104.328 20.9796C104.208 22.3538 103.872 23.511 103.32 24.4513C102.793 25.3916 102.049 26.1148 101.09 26.6211C100.155 27.1274 99.0041 27.3806 97.6373 27.3806Z" fill="#282828" style="fill:#282828;fill:color(display-p3 0.1569 0.1569 0.1569);fill-opacity:1;"/>
<rect x="7.88318" width="8.33405" height="8.38411" fill="#FF5B4A" style="fill:#FF5B4A;fill:color(display-p3 1.0000 0.3569 0.2902);fill-opacity:1;"/>
<path d="M0 8.41626C-2.23488e-07 10.988 0.503521 13.5346 1.48181 15.9106C2.46011 18.2866 3.89402 20.4455 5.70167 22.264C7.50932 24.0825 9.65531 25.525 12.0171 26.5092C14.3789 27.4934 16.9103 27.9999 19.4667 27.9999V20.1665C17.9329 20.1665 16.414 19.8625 14.997 19.272C13.5799 18.6815 12.2923 17.816 11.2077 16.7249C10.1231 15.6338 9.26275 14.3385 8.67577 12.9129C8.0888 11.4873 7.78668 9.95932 7.78668 8.41626L0 8.41626Z" fill="#FF5B4A" style="fill:#FF5B4A;fill:color(display-p3 1.0000 0.3569 0.2902);fill-opacity:1;"/>
</svg>
