<svg xmlns="http://www.w3.org/2000/svg" xmlns:xlink="http://www.w3.org/1999/xlink" xmlns:a="http://ns.adobe.com/AdobeSVGViewerExtensions/3.0/" version="1.1" x="0px" y="0px" width="135px" height="40px" viewBox="0 0 135 40" xml:space="preserve"> <defs> </defs> <g> <defs> <rect id="SVGID_1_" width="135" height="40"/> </defs> <clipPath id="SVGID_2_"> <use xlink:href="#SVGID_1_" overflow="visible"/> </clipPath> <g clip-path="url(#SVGID_2_)"> <path d="M130,40H5c-2.758-0.008-4.992-2.242-5-5V5c0.008-2.758,2.242-4.992,5-5h125c2.758,0.008,4.992,2.242,5,5v30 C134.992,37.758,132.758,39.992,130,40"/> <path fill="#A6A6A6" d="M130,0.8c2.32,0,4.2,1.881,4.2,4.2v30c0,2.319-1.88,4.2-4.2,4.2H5c-2.32,0-4.2-1.881-4.2-4.2l0,0V5 c0-2.32,1.88-4.2,4.2-4.2l0,0H130z M130,0H5C2.242,0.008,0.008,2.242,0,5v30c0.008,2.758,2.242,4.992,5,5h125 c2.758-0.008,4.992-2.242,5-5V5C134.992,2.242,132.758,0.008,130,0"/> <g> <g> <path fill="#FFFFFF" d="M29.541,19.867c0.003-1.607,0.823-3.104,2.176-3.973c-0.874-1.227-2.278-1.964-3.784-1.986 c-1.513-0.188-3.121,0.946-3.878,0.946c-0.851,0-2.081-0.946-3.405-0.946c-1.79,0.06-3.413,1.069-4.256,2.648 c-1.892,3.122-0.473,7.756,1.324,10.404c0.851,1.229,1.892,2.554,3.216,2.554s1.797-0.851,3.405-0.851 c1.514,0,1.986,0.851,3.311,0.851c1.419,0,2.365-1.324,3.216-2.554c0.624-0.896,1.103-1.886,1.419-2.932 c-1.7-0.688-2.818-2.329-2.837-4.162H29.541z M26.892,12.206c0.797-0.913,1.204-2.101,1.135-3.311 c-1.208,0.116-2.326,0.692-3.121,1.608c-0.742,0.863-1.116,1.984-1.041,3.121C25.037,13.634,26.15,13.112,26.892,12.206z"/> </g> <g> <path fill="#FFFFFF" d="M46.377,26.299h-4.351l-1.041,3.216h-1.892l4.256-11.729h1.892l4.257,11.729h-1.892L46.377,26.299z M42.404,24.88h3.405l-1.607-5.296L42.404,24.88z"/> <path fill="#FFFFFF" d="M58.578,25.259c0,2.648-1.419,4.351-3.595,4.351c-1.068,0.017-2.055-0.567-2.554-1.514v4.257h-1.892 V21.002h1.797v1.324c0.562-0.975,1.618-1.558,2.743-1.513c2.176,0,3.594,1.797,3.594,4.445H58.578z M56.687,25.259 c0-1.797-0.852-2.838-2.176-2.838s-2.271,1.136-2.271,2.838s0.946,2.837,2.271,2.837s2.27-1.135,2.27-2.837H56.687z"/> <path fill="#FFFFFF" d="M68.036,25.259c0,2.648-1.419,4.351-3.594,4.351c-1.136,0.092-2.216-0.504-2.743-1.514v4.257h-1.797 V21.002h1.702v1.324c0.577-1.006,1.68-1.594,2.838-1.513C66.522,20.813,68.036,22.61,68.036,25.259z M66.145,25.259 c0-1.797-0.852-2.838-2.176-2.838c-1.419,0-2.27,1.136-2.27,2.838s0.945,2.837,2.27,2.837s2.271-1.135,2.271-2.837H66.145z"/> <path fill="#FFFFFF" d="M74.184,26.204c0.189,1.229,1.324,1.892,2.838,1.892s2.554-0.662,2.554-1.702 c0-0.945-0.662-1.514-2.176-1.892l-1.513-0.378c-2.176-0.474-3.121-1.514-3.121-3.122c0-2.08,1.702-3.404,4.256-3.404 c2.459,0,4.162,1.324,4.256,3.404H79.48c-0.095-1.229-1.04-1.892-2.459-1.892s-2.459,0.757-2.459,1.798 c0,0.756,0.662,1.324,2.175,1.607l1.324,0.379c2.365,0.567,3.405,1.513,3.405,3.216c0,2.175-1.797,3.594-4.54,3.594 c-2.648,0-4.351-1.324-4.54-3.5H74.184z"/> <path fill="#FFFFFF" d="M85.25,18.922v1.986h1.608v1.513H85.25v4.729c0,0.757,0.284,1.04,0.946,1.04 c0.22,0.014,0.441,0.014,0.662,0v1.419c-0.315,0.031-0.631,0.031-0.946,0c-1.797,0-2.459-0.567-2.459-2.27v-4.919h-1.229v-1.419 h1.229v-1.985L85.25,18.922z"/> <path fill="#FFFFFF" d="M87.804,25.259c0-2.743,1.608-4.445,4.067-4.445s4.067,1.702,4.067,4.445s-1.608,4.351-4.067,4.351 S87.804,27.907,87.804,25.259z M94.141,25.259c0-1.892-0.851-2.933-2.27-2.933s-2.271,1.041-2.271,2.838 c0,1.892,0.852,3.026,2.271,3.026S94.141,27.056,94.141,25.259z"/> <path fill="#FFFFFF" d="M97.356,20.908h1.703v1.513c0.225-0.962,1.094-1.634,2.081-1.607c0.225,0.004,0.446,0.035,0.662,0.095 v1.702c-0.271-0.112-0.559-0.178-0.852-0.189c-0.99-0.058-1.842,0.698-1.899,1.689c-0.006,0.099-0.003,0.198,0.008,0.297v5.107 h-1.703V20.908z"/> <path fill="#FFFFFF" d="M109.842,26.961c-0.189,1.608-1.702,2.648-3.688,2.648c-2.459,0-3.973-1.702-3.973-4.351 s1.514-4.445,3.878-4.445s3.878,1.607,3.878,4.256v0.567h-6.054v0.095c-0.106,1.25,0.822,2.347,2.071,2.453 c0.097,0.009,0.196,0.011,0.294,0.006c0.833,0.054,1.602-0.446,1.892-1.229H109.842z M103.883,24.407h4.352 c0.053-1.148-0.834-2.122-1.982-2.175c-0.063-0.003-0.128-0.003-0.193,0C104.857,22.232,103.883,23.206,103.883,24.407 L103.883,24.407L103.883,24.407z"/> </g> </g> <g> <g> <path fill="#FFFFFF" d="M44.436,7.784c1.353-0.121,2.548,0.876,2.669,2.229c0.019,0.203,0.012,0.407-0.021,0.608 c0,1.892-0.946,2.837-2.648,2.837h-2.081V7.784H44.436z M43.206,12.797h1.135c0.99,0.065,1.846-0.685,1.911-1.675 c0.009-0.136,0.002-0.272-0.02-0.405c0.106-0.986-0.607-1.873-1.594-1.979C44.54,8.727,44.44,8.725,44.341,8.73h-1.135V12.797z"/> <path fill="#FFFFFF" d="M48.029,11.284c0-1.124,0.911-2.034,2.034-2.034s2.033,0.91,2.033,2.034c0,1.123-0.91,2.033-2.033,2.033 S48.029,12.407,48.029,11.284z M51.151,11.284c0-0.946-0.379-1.419-1.136-1.419s-1.135,0.567-1.135,1.419 c0,0.851,0.473,1.513,1.135,1.513S51.151,12.23,51.151,11.284z"/> <path fill="#FFFFFF" d="M57.488,13.459h-0.946l-0.945-3.121l-0.946,3.121h-0.852l-1.04-4.256h0.946l0.662,3.216l0.945-3.216 h0.852l0.851,3.216l0.852-3.216h0.757L57.488,13.459z"/> <path fill="#FFFFFF" d="M59.569,9.203h0.756v0.662h0.095c0.213-0.528,0.762-0.842,1.324-0.757 c0.783-0.007,1.425,0.622,1.432,1.406c0.001,0.067-0.004,0.135-0.013,0.202v2.742h-0.852v-2.553 c0-0.662-0.283-0.946-0.945-0.946c-0.522,0-0.946,0.423-0.946,0.946v2.553h-0.945L59.569,9.203z"/> <path fill="#FFFFFF" d="M64.487,7.5h0.945v5.959h-0.945V7.5z"/> <path fill="#FFFFFF" d="M66.568,11.284c-0.002-1.098,0.887-1.987,1.983-1.989c1.096-0.001,1.987,0.887,1.988,1.984 c0,0.002,0,0.004,0,0.005c0,1.097-0.89,1.986-1.985,1.986C67.458,13.271,66.568,12.381,66.568,11.284z M69.689,11.284 c0-0.946-0.473-1.419-1.135-1.419s-1.136,0.567-1.136,1.419c0,0.851,0.379,1.513,1.136,1.513 C69.311,12.797,69.689,12.23,69.689,11.284z"/> <path fill="#FFFFFF" d="M71.392,12.23c0-0.758,0.567-1.23,1.608-1.23h1.135v-0.473c0-0.473-0.284-0.662-0.852-0.662 c-0.473,0-0.757,0.189-0.945,0.473h-0.662c0.095-0.756,0.757-1.229,1.797-1.229c0.945,0,1.607,0.567,1.607,1.419v2.932h-0.756 v-0.567h-0.095c-0.282,0.452-0.794,0.707-1.324,0.662c-0.73,0.053-1.362-0.496-1.416-1.226 c-0.003-0.033-0.003-0.066-0.003-0.098H71.392z M74.229,11.852v-0.283h-1.135c-0.568,0-0.852,0.283-0.852,0.662 c0,0.378,0.378,0.566,0.852,0.566c0.52,0.053,0.983-0.326,1.035-0.846c0.003-0.033,0.005-0.066,0.005-0.1H74.229z"/> <path fill="#FFFFFF" d="M76.121,11.284c0-1.324,0.662-2.176,1.797-2.176c0.518,0.009,0.987,0.3,1.229,0.757h0.095V7.5h0.852 v5.959h-0.852v-0.662c-0.271,0.473-0.779,0.763-1.324,0.757c-1.135,0-1.892-0.945-1.892-2.27H76.121z M76.973,11.284 c0,0.946,0.473,1.513,1.135,1.513s1.135-0.566,1.135-1.513s-0.473-1.419-1.135-1.419S76.973,10.433,76.973,11.284z"/> <path fill="#FFFFFF" d="M83.593,11.284c-0.001-1.098,0.887-1.987,1.983-1.989c1.097-0.001,1.988,0.887,1.989,1.984 c0,0.002,0,0.004,0,0.005c0.002,1.097-0.887,1.986-1.983,1.988s-1.987-0.887-1.989-1.983 C83.593,11.287,83.593,11.285,83.593,11.284z M86.714,11.284c0-0.946-0.378-1.419-1.135-1.419s-1.135,0.567-1.135,1.419 c0,0.851,0.378,1.513,1.135,1.513S86.714,12.23,86.714,11.284z"/> <path fill="#FFFFFF" d="M88.7,9.203h0.852v0.662c0.213-0.528,0.761-0.842,1.324-0.757c0.783-0.007,1.425,0.622,1.431,1.406 c0.001,0.067-0.003,0.135-0.012,0.202v2.742h-0.757v-2.553c0-0.662-0.284-0.946-0.946-0.946c-0.522,0-0.945,0.423-0.945,0.946 v2.553H88.7V9.203z"/> <path fill="#FFFFFF" d="M97.118,8.068v1.135h0.946V9.96h-0.946v2.175c0,0.474,0.095,0.662,0.567,0.662 c0.095,0.005,0.189,0.005,0.284,0v0.662c-0.156,0.014-0.316,0.014-0.473,0c-0.946,0-1.229-0.283-1.229-1.135V9.96h-0.757V9.203 h0.757V8.162L97.118,8.068z"/> <path fill="#FFFFFF" d="M99.104,7.5h0.946v2.46c0.236-0.507,0.767-0.81,1.324-0.757c0.783-0.008,1.425,0.622,1.431,1.406 c0.001,0.067-0.003,0.135-0.013,0.201v2.743h-0.851v-2.647c0-0.662-0.284-0.946-0.946-0.946c-0.522,0-0.945,0.423-0.945,0.946 v2.553h-0.946V7.5z"/> <path fill="#FFFFFF" d="M107.712,12.324c-0.23,0.829-1.041,1.356-1.892,1.229c-1.045,0.012-1.9-0.825-1.912-1.87 c-0.002-0.102,0.006-0.203,0.021-0.305c-0.21-1.023,0.45-2.023,1.475-2.232c0.136-0.028,0.278-0.041,0.417-0.038 c1.229,0,1.892,0.852,1.892,2.176v0.284h-2.933c-0.053,0.624,0.411,1.173,1.038,1.226c0.032,0.002,0.064,0.003,0.098,0.003 c0.381,0.05,0.756-0.137,0.945-0.473H107.712z M104.779,10.906h2.081c0.054-0.52-0.326-0.984-0.847-1.037 c-0.032-0.002-0.066-0.004-0.099-0.004C105.323,9.863,104.83,10.316,104.779,10.906z"/> </g> </g> </g> </g> </svg>