<?xml version="1.0" encoding="UTF-8"?>
<svg xmlns="http://www.w3.org/2000/svg" width="104" height="104" viewBox="0 0 104 104" fill="none">
  <rect width="104" height="104" fill="#F0F0F0"></rect>
  
  <!-- Écran principal -->
  <rect x="15" y="20" width="74" height="50" rx="3" fill="white" stroke="black" stroke-width="1.5"/>
  <rect x="17" y="22" width="70" height="8" fill="black"/>
  
  <!-- Fenêtres du dashboard -->
  <rect x="20" y="35" width="25" height="15" rx="1" fill="#F8F8F8" stroke="black" stroke-width="1"/>
  <rect x="22" y="37" width="21" height="2" rx="1" fill="#FF5B4A"/>
  <rect x="22" y="41" width="8" height="6" rx="1" fill="#C8C8C8"/>
  <rect x="32" y="41" width="11" height="6" rx="1" fill="#E0E0E0"/>
  
  <!-- Graphique en barres -->
  <rect x="50" y="35" width="15" height="15" rx="1" fill="#F8F8F8" stroke="black" stroke-width="1"/>
  <rect x="52" y="45" width="2" height="3" fill="#FF5B4A"/>
  <rect x="55" y="42" width="2" height="6" fill="#FF5B4A"/>
  <rect x="58" y="40" width="2" height="8" fill="#FF5B4A"/>
  <rect x="61" y="43" width="2" height="5" fill="#FF5B4A"/>
  
  <!-- Graphique circulaire -->
  <rect x="70" y="35" width="15" height="15" rx="1" fill="#F8F8F8" stroke="black" stroke-width="1"/>
  <circle cx="77.5" cy="42.5" r="4" fill="white" stroke="black" stroke-width="1"/>
  <path d="M77.5 38.5L77.5 42.5L80.5 42.5" stroke="#FF5B4A" stroke-width="2" fill="none"/>
  <path d="M77.5 38.5A4 4 0 0 1 81.5 42.5" stroke="#FF5B4A" stroke-width="2" fill="none"/>
  
  <!-- Métriques -->
  <rect x="20" y="55" width="65" height="10" rx="1" fill="#F8F8F8" stroke="black" stroke-width="1"/>
  <rect x="22" y="57" width="12" height="6" rx="1" fill="#FF5B4A"/>
  <rect x="36" y="57" width="12" height="6" rx="1" fill="#C8C8C8"/>
  <rect x="50" y="57" width="12" height="6" rx="1" fill="#C8C8C8"/>
  <rect x="64" y="57" width="12" height="6" rx="1" fill="#C8C8C8"/>
  
  <!-- Pied de l'écran -->
  <rect x="45" y="70" width="14" height="2" rx="1" fill="black"/>
  <path d="M52 72L52 78L48 78L56 78L52 78" stroke="black" stroke-width="1.5" fill="none"/>
  
  <!-- Indicateurs de performance -->
  <circle cx="25" cy="10" r="3" fill="#FF5B4A" stroke="black" stroke-width="1"/>
  <path d="M23 8L27 12M27 8L23 12" stroke="white" stroke-width="1"/>
  
  <circle cx="52" cy="10" r="3" fill="#C8C8C8" stroke="black" stroke-width="1"/>
  <rect x="50" y="8" width="4" height="4" rx="1" fill="white"/>
  
  <circle cx="79" cy="10" r="3" fill="#C8C8C8" stroke="black" stroke-width="1"/>
  <path d="M77 10L81 10M79 8L79 12" stroke="white" stroke-width="1"/>
  
  <!-- Flèches de données -->
  <path d="M30 85L40 85M38 83L40 85L38 87" stroke="#FF5B4A" stroke-width="1.5" stroke-linecap="round"/>
  <path d="M50 85L60 85M58 83L60 85L58 87" stroke="#FF5B4A" stroke-width="1.5" stroke-linecap="round"/>
  <path d="M70 85L80 85M78 83L80 85L78 87" stroke="#FF5B4A" stroke-width="1.5" stroke-linecap="round"/>
  
  <!-- Particules de données -->
  <circle cx="12" cy="30" r="1" fill="#FF5B4A"/>
  <circle cx="92" cy="35" r="1" fill="#FF5B4A"/>
  <circle cx="10" cy="55" r="1" fill="#FF5B4A"/>
  <circle cx="94" cy="60" r="1" fill="#FF5B4A"/>
</svg>