<?xml version="1.0" encoding="UTF-8"?>
<svg xmlns="http://www.w3.org/2000/svg" width="32" height="31" viewBox="0 0 32 31" fill="none">
  <circle cx="16.3572" cy="15.5" r="15.5" fill="#1E293B"></circle>
  <g clip-path="url(#clip0_54_12)">
    <path d="M21.6789 20.7039H19.5982V17.4776C19.5982 16.7083 19.5843 15.7179 18.5161 15.7179C17.4324 15.7179 17.2666 16.5561 17.2666 17.4216V20.7037H15.1859V14.0691H17.1833V14.9758H17.2113C17.4112 14.6374 17.7001 14.359 18.0471 14.1702C18.3942 13.9815 18.7864 13.8895 19.1821 13.9041C21.2909 13.9041 21.6797 15.2775 21.6797 17.0643L21.6789 20.7039ZM12.8382 13.1622C12.5994 13.1622 12.366 13.0922 12.1674 12.9608C11.9688 12.8295 11.814 12.6428 11.7226 12.4244C11.6311 12.2059 11.6072 11.9655 11.6537 11.7336C11.7003 11.5017 11.8152 11.2887 11.9841 11.1214C12.1529 10.9542 12.368 10.8403 12.6022 10.7941C12.8365 10.748 13.0792 10.7716 13.2999 10.862C13.5205 10.9525 13.7091 11.1057 13.8418 11.3023C13.9745 11.4988 14.0454 11.73 14.0454 11.9664C14.0455 12.1234 14.0143 12.2789 13.9536 12.424C13.893 12.569 13.8041 12.7008 13.692 12.8119C13.5799 12.9229 13.4468 13.011 13.3003 13.0711C13.1538 13.1312 12.9968 13.1622 12.8382 13.1622ZM13.8786 20.7039H11.7957V14.0691H13.8786V20.7039ZM22.7162 8.85794H10.7502C10.4786 8.85491 10.2169 8.95876 10.0226 9.14668C9.8283 9.3346 9.7173 9.59121 9.71399 9.86013V21.7574C9.71719 22.0264 9.82812 22.2832 10.0224 22.4713C10.2167 22.6594 10.4785 22.7635 10.7502 22.7606H22.7162C22.9884 22.764 23.2509 22.6603 23.446 22.4722C23.6411 22.284 23.7527 22.027 23.7565 21.7574V9.85927C23.7526 9.58982 23.6409 9.33292 23.4458 9.145C23.2507 8.95709 22.9883 8.85353 22.7162 8.85708" fill="white"></path>
  </g>
  <defs>
    <clipPath id="clip0_54_12">
      <rect width="14.3929" height="14.3929" fill="white" transform="translate(9.71423 8.85712)"></rect>
    </clipPath>
  </defs>
</svg>
