<?xml version="1.0" encoding="UTF-8"?>
<svg xmlns="http://www.w3.org/2000/svg" width="160" height="61" viewBox="0 0 160 61" fill="none">
  <path d="M17.0646 25.446C16.3237 26.1198 15.2531 26.3443 14.5829 26.4296C13.2174 26.6001 11.8051 26.1462 10.9035 25.0581C10.1626 24.1694 9.78376 23.0177 9.06083 22.0977C7.9195 20.641 6.0948 19.6874 4.21615 20.0237C0.500807 20.6986 -1.18482 25.0377 0.915621 28.0485C3.91762 32.3504 10.6685 31.6058 14.1333 28.625C15.2123 27.6978 16.2194 26.6674 17.0646 25.4448" fill="#666562"></path>
  <path d="M142.938 25.4448C143.68 26.1198 144.747 26.3444 145.419 26.4296C146.784 26.6014 148.197 26.1474 149.097 25.0593C149.837 24.1694 150.218 23.0189 150.94 22.0989C152.084 20.6422 153.907 19.6874 155.786 20.0249C159.499 20.6998 161.186 25.0389 159.083 28.0497C156.082 32.3504 149.332 31.607 145.87 28.6262C144.79 27.699 143.78 26.6674 142.938 25.4448Z" fill="#666562"></path>
  <path d="M130.565 2.50282C130.472 2.49922 121.606 2.49922 121.523 2.50282C120.551 2.53285 119.748 3.43357 119.702 4.36072C119.653 5.34551 120.508 6.32309 121.523 6.37113C121.617 6.37473 130.483 6.37473 130.565 6.37113C131.538 6.34231 132.341 5.44038 132.386 4.51324C132.437 3.52725 131.581 2.55206 130.565 2.50282Z" fill="#666562"></path>
  <path d="M74.0959 21.8035C73.9712 21.2895 73.9065 20.7839 73.8705 20.2735C73.8645 19.5373 73.8645 18.5033 73.8645 17.5521C73.9568 14.2663 74.5694 8.48481 70.1204 8.48481C67.116 8.48481 65.3356 11.0176 64.8309 11.8451C64.759 9.53686 62.9403 7.86151 60.1625 7.86151C58.3893 7.86151 57.3379 9.27384 57.3379 9.27384C57.3379 9.27384 59.0667 9.87433 59.0667 12.2018C59.0847 13.8675 59.0631 21.98 59.0667 22.0149C59.1338 23.4536 60.1373 24.7999 61.9308 24.7999C63.7243 24.7999 64.8369 23.4188 64.8369 22.0125V14.8175C65.0875 13.6405 65.7481 12.4408 66.7431 12.4408C68.0343 12.4408 68.1075 13.8795 68.1135 13.8795L68.1075 20.8451C68.1135 21.0709 68.1422 21.2895 68.1818 21.5021C68.2465 21.8647 68.3556 22.2034 68.5127 22.5133C69.202 23.916 70.727 24.8311 72.7747 24.8311C74.5455 24.8311 75.5993 23.4188 75.5993 23.4188C75.5993 23.4188 74.5598 23.0513 74.0947 21.8035" fill="#666562"></path>
  <path d="M116.867 21.8035C116.741 21.2895 116.675 20.7839 116.642 20.2735L116.647 3.03484C116.647 1.35949 115.289 0 113.616 0C111.942 0 110.585 1.35949 110.585 3.03604L110.589 18.3027C110.603 19.6778 110.469 21.0829 111.117 22.3463C111.803 23.7503 113.497 24.8323 115.544 24.8323C117.319 24.8323 118.371 23.42 118.371 23.42C118.371 23.42 117.333 23.0525 116.866 21.8047" fill="#666562"></path>
  <path d="M49.1509 8.33472C44.6036 8.33472 40.917 12.0265 40.917 16.5829C40.917 21.1394 44.6024 24.83 49.1509 24.83C53.6995 24.83 57.3849 21.1382 57.3849 16.5829C57.3849 12.0277 53.6971 8.33472 49.1509 8.33472ZM49.2121 21.3279V21.3315C49.2049 21.3315 49.2001 21.3291 49.1941 21.3291C49.1881 21.3291 49.1821 21.3315 49.1773 21.3315V21.3279C47.6223 21.2991 46.8431 19.5097 46.8431 16.5841C46.8431 13.6586 47.8298 11.8704 49.1773 11.8379C49.1773 11.8379 49.1881 11.8379 49.1941 11.8379C49.2001 11.8379 49.2049 11.8379 49.2121 11.8379C50.5572 11.8704 51.5451 13.6622 51.5451 16.5841C51.5451 19.5061 50.767 21.2991 49.2121 21.3279Z" fill="#666562"></path>
  <path d="M92.6194 21.8035C92.4935 21.2895 92.4275 20.7839 92.394 20.2735L92.3988 3.03604C92.3988 1.35949 91.0428 0 89.368 0C87.6931 0 86.3372 1.35949 86.3372 3.03604L86.3252 11.2002C85.5963 10.1842 83.991 8.46559 81.4614 8.46559C74.5018 8.46559 74.0618 20.88 78.8346 23.9508C80.1797 24.8155 82.2095 25.0377 83.7452 24.639C84.805 24.3616 86.4763 23.3191 86.7448 22.0737C86.7832 22.165 86.824 22.2563 86.8707 22.3463C87.5577 23.7503 89.2505 24.8311 91.297 24.8311C93.0725 24.8311 94.124 23.4188 94.124 23.4188C94.124 23.4188 93.0869 23.0513 92.6194 21.8023M83.5882 20.7995V20.8019C83.581 20.8019 83.5774 20.8019 83.5714 20.8019C83.5642 20.8019 83.5606 20.8019 83.5534 20.8019V20.7995C81.9984 20.7767 81.2204 19.2154 81.2204 16.667C81.2204 14.1185 82.2059 12.5609 83.5534 12.5321V12.5297C83.5606 12.5297 83.5654 12.5321 83.5714 12.5321C83.5774 12.5321 83.5822 12.5297 83.5882 12.5297V12.5321C84.9357 12.5609 85.9224 14.1209 85.9224 16.667C85.9224 19.213 85.1419 20.7767 83.5882 20.7995Z" fill="#666562"></path>
  <path d="M108.383 19.7282C108.383 19.7282 107.495 20.9484 104.047 20.9484C100.599 20.9484 99.8591 18.263 99.8591 18.263C104.884 18.263 109.098 17.9256 109.098 13.8507C109.098 9.77582 104.5 8.43195 101.774 8.43195C97.2731 8.43195 93.9834 12.0276 93.9834 16.775C93.9834 22.1205 98.2658 24.8323 101.822 24.8323C108.082 24.8323 108.383 19.7282 108.383 19.7282ZM99.533 15.6473C99.7093 14.3467 100.021 12.7074 101.189 11.9484C102.159 11.3167 103.518 12.036 103.537 13.2514C103.56 14.5352 102.73 15.4095 101.578 15.6521C101.456 15.6786 99.5162 15.7758 99.533 15.6485" fill="#666562"></path>
  <path d="M132.63 19.7282C132.63 19.7282 131.742 20.9484 128.294 20.9484C124.846 20.9484 124.106 18.263 124.106 18.263C129.131 18.263 133.345 17.9256 133.345 13.8507C133.345 9.77582 128.747 8.43195 126.021 8.43195C121.52 8.43195 118.23 12.0276 118.23 16.775C118.23 22.1205 122.513 24.8323 126.069 24.8323C132.329 24.8323 132.63 19.7282 132.63 19.7282ZM123.78 15.6473C123.956 14.3467 124.268 12.7074 125.436 11.9484C126.406 11.3167 127.765 12.036 127.784 13.2514C127.806 14.5352 126.978 15.4095 125.825 15.6521C125.703 15.6786 123.763 15.7758 123.78 15.6485" fill="#666562"></path>
  <path d="M144 20.1689H140.547C140.801 20.1689 143.356 18.012 144.203 17.2926C146.42 15.4071 150.409 12.6857 149.247 9.16211L149.25 9.18613C149.036 8.34786 148.391 7.86267 148.391 7.86267C148.391 7.86267 148.15 8.54722 147.33 8.85467C146.995 8.93633 146.66 8.99758 146.326 9.0168C146.05 9.0228 136.675 9.0168 136.675 9.0168C135.406 9.0156 134.344 10.0364 134.326 11.2422C134.312 12.4576 135.314 13.4315 136.599 13.4496L142.068 13.4844C139.533 14.9003 136.506 16.5781 134.969 19.1385C134.091 20.6085 133.151 22.8747 133.508 24.6137C134.724 23.5352 137.913 22.4904 140.34 22.9984C141.248 23.1894 142.215 23.6529 143 24.1453C147.552 26.9976 150.289 21.4192 148.112 18.9596C148.112 18.9596 146.871 20.1701 143.999 20.1701" fill="#666562"></path>
  <path d="M41.3589 23.6385C38.5667 20.5713 37.6927 15.4708 37.5213 12.0793C37.3738 9.15011 37.5321 4.07844 39.8363 2.60125C39.0643 1.62967 37.5429 1.23816 36.3872 1.23816C33.7892 1.23816 32.5363 2.97115 31.6492 4.21775C31.3554 4.62968 26.9867 10.6669 26.9867 10.6669C26.9867 10.6669 23.3121 4.97316 22.8602 4.28861C22.2367 3.34465 21.0678 1.61046 19.0141 1.31022C18.1294 1.18051 15.8347 1.06402 14.5867 2.7802C16.7387 4.50478 16.6847 8.89911 16.2183 11.8979C14.8156 20.9015 10.9912 21.7314 10.9912 21.7314C12.9502 27.0313 17.9951 24.938 19.4218 20.7118C20.3449 17.9652 20.9407 14.4884 21.0786 11.6049L26.6151 20.1125C26.6151 20.1125 32.884 11.6313 32.884 11.6385C31.8518 26.6373 36.9938 30.89 41.4908 30.89C45.9878 30.89 47.5236 26.7671 47.5236 26.7671C45.0898 26.6205 42.9606 25.3944 41.3601 23.6373" fill="#666562"></path>
  <path d="M55.4024 28.5169C55.4563 28.7367 55.4851 28.9541 55.4995 29.1714C55.4995 29.2375 55.4959 37.0185 55.4995 37.1122C55.5199 37.7655 56.1229 38.3048 56.7439 38.336C57.4033 38.3696 58.0567 37.7944 58.0903 37.1122C58.0927 37.0233 58.0903 30.0157 58.0903 30.0157C58.0843 29.4272 58.1418 28.8256 57.8649 28.2851C57.5711 27.6846 56.8458 27.2211 55.9706 27.2211C55.2093 27.2211 54.7598 27.8252 54.7598 27.8252C54.7598 27.8252 55.2034 27.9825 55.4036 28.5157" fill="#666562"></path>
  <path d="M137.521 37.0413C137.467 36.8203 137.438 36.6041 137.424 36.3856C137.424 36.3195 137.428 28.5385 137.424 28.446C137.404 27.7915 136.801 27.2522 136.18 27.221C135.52 27.1874 134.867 27.7626 134.833 28.446C134.831 28.5349 134.833 35.5413 134.833 35.5413C134.839 36.1298 134.782 36.7302 135.059 37.2719C135.354 37.8724 136.078 38.3347 136.954 38.3347C137.714 38.3347 138.164 37.7306 138.164 37.7306C138.164 37.7306 137.72 37.5721 137.52 37.0389" fill="#666562"></path>
  <path d="M90.6526 31.2503C89.3062 31.2503 88.509 32.3853 88.2824 32.7564L88.2752 32.7624C88.2752 32.3877 88.2752 32.0898 88.2752 32.0754C88.2548 31.4221 87.6518 30.9345 87.0308 30.9033C86.3714 30.8696 85.7168 31.3933 85.6844 32.0754C85.682 32.1643 85.682 37.0426 85.6844 37.1086C85.7048 37.7608 86.3078 38.3012 86.9289 38.3312C87.5882 38.3649 88.2416 37.7896 88.2752 37.1086C88.2752 37.0582 88.2776 35.4657 88.2764 34.0942L88.2872 34.0882C88.3987 33.561 88.6948 33.023 89.1408 33.023C89.7199 33.023 89.751 33.6679 89.7546 33.6679L89.7486 37.1086C89.769 37.7608 90.372 38.3012 90.9931 38.3312C91.6525 38.3649 92.3058 37.7896 92.3394 37.1086L92.3358 35.3108C92.3358 33.4613 92.5288 31.2431 90.655 31.2515" fill="#666562"></path>
  <path d="M123.757 31.2503C122.411 31.2503 121.613 32.3853 121.387 32.7564L121.38 32.7624C121.38 32.3877 121.38 32.0898 121.38 32.0754C121.359 31.4221 120.756 30.9345 120.135 30.9033C119.476 30.8696 118.821 31.3933 118.789 32.0754C118.787 32.1643 118.787 37.0426 118.789 37.1086C118.809 37.7608 119.412 38.3012 120.033 38.3312C120.693 38.3649 121.346 37.7896 121.38 37.1086C121.38 37.0582 121.382 35.4657 121.381 34.0942L121.392 34.0882C121.503 33.561 121.799 33.023 122.245 33.023C122.824 33.023 122.856 33.6679 122.859 33.6679L122.853 37.1086C122.873 37.7608 123.477 38.3012 124.098 38.3312C124.757 38.3649 125.41 37.7896 125.444 37.1086L125.44 35.3108C125.44 33.4613 125.633 31.2431 123.759 31.2515" fill="#666562"></path>
  <path d="M64.355 31.2503C63.0086 31.2503 62.2114 32.3853 61.9848 32.7564L61.9776 32.7624C61.9776 32.3877 61.9764 32.0898 61.9764 32.0754C61.956 31.4221 61.353 30.9345 60.7319 30.9033C60.0725 30.8696 59.4192 31.3933 59.3856 32.0754C59.3832 32.1643 59.3832 37.0426 59.3856 37.1086C59.406 37.7608 60.009 38.3012 60.63 38.3312C61.2894 38.3649 61.9416 37.7896 61.9752 37.1086C61.9764 37.0582 61.9776 35.4657 61.9764 34.0942L61.9872 34.0882C62.0987 33.561 62.3948 33.023 62.842 33.023C63.4198 33.023 63.4522 33.6679 63.4558 33.6679L63.4498 37.1086C63.4702 37.7608 64.0732 38.3012 64.6942 38.3312C65.3536 38.3649 66.007 37.7896 66.0406 37.1086L66.037 35.3108C66.037 33.4613 66.23 31.2431 64.3562 31.2515" fill="#666562"></path>
  <path d="M114.372 30.9236C112.333 30.9236 110.683 32.5773 110.683 34.619C110.683 36.6606 112.335 38.3131 114.372 38.3131C116.408 38.3131 118.061 36.6606 118.061 34.619C118.061 32.5773 116.408 30.9236 114.372 30.9236ZM114.399 36.7447C114.399 36.7447 114.393 36.7447 114.391 36.7447C114.388 36.7447 114.385 36.7447 114.385 36.7447C113.687 36.729 113.339 35.9292 113.339 34.6178C113.339 33.3063 113.782 32.5065 114.385 32.492C114.385 32.492 114.388 32.492 114.391 32.492C114.393 32.492 114.396 32.492 114.399 32.492C115.001 32.5065 115.443 33.3087 115.443 34.619C115.443 35.9292 115.096 36.7302 114.399 36.7447Z" fill="#666562"></path>
  <path d="M100.598 31.9853C100.576 31.3019 99.9334 30.7363 99.2836 30.7039C98.5931 30.6702 97.9073 31.2707 97.8737 31.9853C97.8737 32.0345 97.8677 32.1414 97.8677 32.1606C97.5405 31.7043 96.8223 30.9356 95.6882 30.9356C92.5699 30.9356 92.3733 36.4973 94.5109 37.8736C95.1139 38.2603 96.0239 38.36 96.712 38.1811C97.1005 38.079 97.6735 37.7475 97.9337 37.3236C98.0931 37.87 98.6338 38.2855 99.1889 38.3132C99.8795 38.3468 100.564 37.7463 100.599 37.0317C100.601 36.9393 100.6 32.0477 100.599 31.9853M96.6401 36.4613C96.6401 36.4613 96.6353 36.4613 96.6329 36.4613H96.6245C95.928 36.4505 95.5791 35.7503 95.5791 34.6082C95.5791 33.4661 96.0203 32.7695 96.6245 32.7563C96.6245 32.7563 96.6305 32.7563 96.6329 32.7563C96.6353 32.7563 96.6377 32.7563 96.6401 32.7563C97.2431 32.7695 97.6867 33.4685 97.6867 34.6094C97.6867 35.7503 97.3366 36.4517 96.6401 36.4625" fill="#666562"></path>
  <path d="M133.674 31.9853C133.654 31.3019 133.011 30.7363 132.36 30.7039C131.669 30.6702 130.985 31.2707 130.95 31.9853C130.95 32.0345 130.943 32.1414 130.943 32.1606C130.617 31.7043 129.898 30.9356 128.763 30.9356C125.645 30.9356 125.448 36.4973 127.586 37.8736C128.189 38.2603 129.099 38.36 129.786 38.1811C130.176 38.079 130.749 37.7475 131.009 37.3236C131.168 37.87 131.709 38.2855 132.263 38.3132C132.953 38.3468 133.638 37.7463 133.673 37.0317C133.675 36.9393 133.673 32.0477 133.673 31.9853M129.718 36.4613C129.718 36.4613 129.713 36.4613 129.71 36.4613H129.702C129.006 36.4505 128.657 35.7503 128.657 34.6082C128.657 33.4661 129.099 32.7695 129.702 32.7563C129.702 32.7563 129.708 32.7563 129.71 32.7563C129.713 32.7563 129.715 32.7563 129.718 32.7563C130.321 32.7695 130.763 33.4685 130.763 34.6094C130.763 35.7503 130.414 36.4517 129.718 36.4625" fill="#666562"></path>
  <path d="M109.866 32.6806C109.835 32.0356 109.331 31.53 108.693 31.476C108.654 31.4724 108.62 31.464 108.582 31.464C108.006 31.464 107.279 31.9636 107.279 32.5953L107.283 34.9876H107.279C107.288 35.7334 107.279 37.0821 107.279 37.0965C107.31 37.7414 107.816 38.247 108.452 38.3011C108.491 38.3059 108.525 38.3131 108.562 38.3131C109.139 38.3131 109.865 37.8135 109.865 37.1818L109.863 35.1834H109.865C109.857 34.4364 109.865 32.695 109.865 32.6794" fill="#666562"></path>
  <path d="M109.862 29.4452C109.862 30.1549 109.286 30.7302 108.578 30.7302C107.869 30.7302 107.294 30.1549 107.294 29.4452C107.294 28.7354 107.868 28.1589 108.578 28.1589C109.288 28.1589 109.862 28.7354 109.862 29.4452Z" fill="#666562"></path>
  <path d="M83.6201 31.1601C82.8504 31.1913 82.4704 31.7654 81.9465 32.486C81.9429 32.492 81.9465 32.1533 81.9465 32.1401C81.9261 31.4868 81.3231 30.9475 80.7032 30.9163C80.0427 30.8827 79.3893 31.458 79.3569 32.1401V37.1217H79.3545C79.3749 37.775 79.9767 38.3143 80.5989 38.3455C81.2523 38.3779 81.8985 37.8147 81.9429 37.1409H81.9489V33.986C81.9872 33.5236 82.1887 32.9448 82.5603 32.9484C83.0854 32.9532 82.5423 34.2262 83.7484 34.2262C85.4772 34.2262 85.6618 31.076 83.6201 31.1601Z" fill="#666562"></path>
  <path d="M78.3422 36.0241C78.3422 36.0241 77.9441 36.5705 76.3976 36.5705C74.851 36.5705 74.5177 35.366 74.5177 35.366C76.7728 35.366 78.6635 35.2147 78.6635 33.3856C78.6635 31.5565 76.6002 30.9548 75.3785 30.9548C73.3596 30.9548 71.8838 32.5677 71.8838 34.697C71.8838 37.0954 73.8044 38.3107 75.4001 38.3107C78.2091 38.3107 78.3434 36.0217 78.3434 36.0217M74.3715 34.1938C74.4506 33.6102 74.5909 32.8752 75.1148 32.5341C75.55 32.2507 76.159 32.5737 76.1686 33.1178C76.1782 33.6942 75.8065 34.0857 75.2898 34.195C75.2347 34.207 74.3631 34.2503 74.3715 34.1926" fill="#666562"></path>
  <path d="M71.7247 36.9476C71.7247 36.9476 71.0509 38.3131 69.8065 38.3131C68.7814 38.3131 67.5214 37.4064 67.4687 36.0949C67.4687 36.0829 67.4615 34.195 67.4567 32.6157H67.109C66.9268 32.6157 66.6055 32.5077 66.6055 32.0333C66.6055 31.5589 66.9675 31.4592 67.1462 31.4592H67.4531C67.4519 30.908 67.4507 30.5285 67.4531 30.5045C67.4855 29.8235 68.1376 29.2518 68.7958 29.2843C69.4145 29.3155 70.0331 29.8523 70.0523 30.5045V31.4592H71.1492C71.3015 31.4592 71.6528 31.5589 71.6528 32.0417C71.6528 32.5245 71.3015 32.6169 71.1109 32.6169H70.0523V35.5149C70.0523 36.4552 70.8603 36.9428 71.7295 36.9464" fill="#666562"></path>
  <path d="M106.373 36.9476C106.373 36.9476 105.699 38.3131 104.455 38.3131C103.43 38.3131 102.169 37.4064 102.117 36.0949C102.117 36.0829 102.11 34.195 102.105 32.6157H101.757C101.575 32.6157 101.254 32.5077 101.254 32.0333C101.254 31.5589 101.616 31.4592 101.795 31.4592H102.102C102.1 30.908 102.099 30.5285 102.102 30.5045C102.135 29.8235 102.786 29.2518 103.444 29.2843C104.063 29.3155 104.682 29.8523 104.701 30.5045V31.4592H105.798C105.95 31.4592 106.301 31.5589 106.301 32.0417C106.301 32.5245 105.95 32.6169 105.759 32.6169H104.701V35.5149C104.701 36.4552 105.509 36.9428 106.378 36.9464" fill="#666562"></path>
  <path d="M6.99428 56.9726C6.99428 57.0686 7.06262 57.1323 7.06262 57.2236C7.06262 57.3208 7.01586 57.4049 6.95352 57.4854C6.872 57.5886 6.76769 57.6847 6.71494 57.7904C6.53032 58.1627 6.29054 58.4978 5.97883 58.7908C5.81458 58.9457 5.62995 59.037 5.43334 59.1475C5.18877 59.2856 4.96338 59.4561 4.7188 59.5967C4.47903 59.7336 4.1901 59.826 3.89757 59.826C3.68657 59.826 3.47316 59.7972 3.27415 59.7972C3.07513 59.7972 2.88451 59.8128 2.6843 59.8128C2.27548 59.8128 2.28987 59.796 1.91342 59.6567C1.54656 59.5198 1.19169 59.1967 0.932731 58.8857C0.932731 58.9493 0.932731 59.0154 0.930333 59.1727C0.930333 59.27 0.930333 59.4489 0.896765 59.6135C0.8584 59.8116 0.772081 59.9918 0.577862 59.9918C0.423206 59.9918 0.357267 59.9569 0.238578 59.8597C0.140269 59.7792 0.0911151 59.6495 0.0623419 59.5318C0.0275743 59.3829 0.0155855 59.2772 0.0155855 59.1823C0.0155855 59.0214 0.0479553 58.8929 0.0479553 58.6395C0.0479553 58.4545 0.0443587 57.9958 0.0443587 57.501C0.0443587 56.8621 0.0503531 56.1643 0.0791263 55.9265C0.0971095 55.7716 0.104303 55.5614 0.173838 55.4221C0.208606 55.3501 0.228987 55.2996 0.309312 55.2191C0.348875 55.1783 0.436393 55.1135 0.499934 55.1135C0.568271 55.1135 0.640204 55.1879 0.662982 55.2215C0.739711 55.332 0.800854 55.5002 0.820036 55.6263C0.840417 55.7812 0.853605 56.1331 0.859599 56.5114C0.865594 56.7876 0.871588 57.0794 0.878781 57.3172C0.900361 57.5274 0.937527 57.7472 1.03703 57.9057C1.16052 58.1051 1.30199 58.2312 1.42547 58.4233C1.56454 58.6407 1.65566 58.7584 1.9302 58.7992C2.08486 58.8232 2.55962 58.9397 2.7886 58.9397C3.01639 58.9397 3.07394 58.8449 3.27415 58.7464C3.48036 58.6443 3.7597 58.6863 3.95512 58.5662C4.10857 58.4738 4.33037 58.2708 4.41908 58.1171C4.5066 57.967 4.55336 57.8132 4.55336 57.6715C4.55336 57.5826 4.53418 57.4902 4.49461 57.3869C4.41429 57.1755 4.28121 56.9882 4.1829 56.784C4.06901 56.551 3.99947 56.3072 3.8616 56.0838C3.58586 55.6359 3.18184 55.2996 2.84735 54.8985C2.52005 54.5058 2.16758 54.1299 1.8199 53.7528C1.45544 53.3589 1.10177 52.9433 0.782871 52.5134C0.47236 52.0942 0.340483 51.5322 0.218197 51.041C0.109098 50.6255 0 50.1823 0 49.7464C0 49.1519 0.222992 48.7327 0.501133 48.2596C0.767285 47.8068 1.15692 47.4357 1.60051 47.1691C2.01652 46.9193 2.30186 46.8316 2.81738 46.7896C3.1123 46.7644 3.20701 46.6298 3.55109 46.6298C3.77049 46.6298 3.94552 46.6875 4.15773 46.7283C4.35434 46.7668 4.57973 46.8724 4.79553 46.9589C5.05329 47.0622 5.29906 47.1595 5.46571 47.3384C5.48249 47.0574 5.49088 46.8544 5.55802 46.7211C5.59279 46.6491 5.61317 46.5986 5.6935 46.5182C5.73306 46.4773 5.86374 46.4125 5.92728 46.4125C5.99561 46.4125 6.06755 46.4857 6.09033 46.5194C6.16586 46.6311 6.2282 46.798 6.24618 46.9241C6.27136 47.1054 6.28934 47.7335 6.28814 48.1227C6.28814 48.4709 6.27136 48.8168 6.27136 49.033C6.27136 49.5434 6.32651 49.7548 6.31691 50.2135C6.31092 50.4297 6.31931 51.0326 5.96205 51.0326C5.80859 51.0326 5.74145 50.9978 5.62396 50.8993C5.52565 50.8188 5.4753 50.6903 5.44653 50.5714C5.41176 50.4237 5.39977 50.318 5.39977 50.2219C5.39977 50.0622 5.43094 49.9337 5.43094 49.6803C5.43094 49.541 5.42854 49.2876 5.42734 48.9933C5.42135 48.8156 5.39737 48.6439 5.34702 48.4901C5.27389 48.2692 5.15879 48.059 5.00054 47.8909C4.85787 47.7407 4.68164 47.6242 4.47064 47.5642C4.28001 47.5114 4.04383 47.4693 3.81005 47.4693C3.5451 47.4693 3.28374 47.5222 3.09911 47.6699C2.94685 47.7924 2.8989 47.9797 2.80659 48.1407C2.6855 48.3508 2.60158 48.5406 2.53684 48.776C2.47929 48.9861 2.40616 49.1483 2.40616 49.4005C2.40616 49.5002 2.48648 49.6395 2.50686 49.7367C2.53804 49.8809 2.49248 50.0418 2.52725 50.1787C2.5752 50.3721 2.80539 50.5126 2.94446 50.6471C3.1135 50.8104 3.16385 51.0254 3.29573 51.2163C3.46118 51.4541 3.67338 51.6571 3.89157 51.8528C4.06661 52.0102 4.24524 52.1615 4.40709 52.3236C4.74278 52.6575 5.10604 52.9661 5.41895 53.3204C5.56641 53.4886 5.65993 53.7215 5.82058 53.8741C5.87333 53.9257 5.95006 53.9425 6.00041 53.9918C6.07474 54.065 6.11071 54.1767 6.17185 54.2584C6.31691 54.4481 6.51713 54.6055 6.64301 54.806C6.7605 54.9958 6.80006 55.2372 6.88878 55.4413C6.9751 55.6431 7.01586 55.8557 7.0878 56.0586C7.11537 56.1319 7.12616 56.2051 7.12616 56.2772C7.12616 56.4189 7.0866 56.5606 7.05423 56.7179C7.03864 56.796 6.99189 56.8921 6.99189 56.9714L6.99428 56.9726Z" fill="#666562"></path>
  <path d="M16.7672 47.1018C16.959 47.1018 17.3294 47.1138 17.3294 47.4093C17.3294 47.5786 17.3066 47.6206 17.2287 47.7407C17.1664 47.8356 17.0669 47.8837 16.9758 47.9125C16.8343 47.9557 16.7444 47.9689 16.6569 47.9689C16.6161 47.9689 16.3523 47.9677 16.0526 47.9653C16.0742 48.1094 16.097 48.2548 16.097 48.4073C16.097 48.6379 16.0586 48.8672 16.0586 49.099C16.0586 49.4521 16.121 49.8028 16.1653 50.1547C16.2073 50.5066 16.2205 50.8608 16.2289 51.2151C16.2348 51.507 16.2384 51.7988 16.2528 52.0906C16.2672 52.4005 16.308 52.7103 16.308 53.0202C16.308 53.33 16.2289 53.6351 16.2289 53.9425C16.2289 54.25 16.2336 54.5454 16.2336 54.8444C16.2336 55.1999 16.2265 55.5554 16.1917 55.9181C16.1641 56.2075 16.1809 56.491 16.1689 56.7804C16.1569 57.0758 16.1234 57.3641 16.1234 57.6607C16.1234 57.9309 16.2289 58.2864 16.2289 58.6095C16.2289 58.8292 16.1797 59.0346 16.0131 59.1859C15.7565 59.4189 15.428 59.5138 15.0863 59.5138C14.8166 59.5138 14.5396 59.4345 14.2819 59.3384C14.0037 59.2364 13.7484 59.1115 13.5505 58.9505C13.1106 58.5914 12.8588 58.0846 12.6346 57.573C12.3828 56.9966 12.1251 56.4201 11.8937 55.834C11.7618 55.5002 11.6359 55.1651 11.5136 54.8288C11.3194 54.2956 11.1348 53.7576 10.9562 53.2183C10.8399 52.8677 10.7248 52.5158 10.6121 52.1651C10.5174 51.8697 10.4083 51.585 10.2632 51.3112C10.2141 51.2163 10.1637 51.1215 10.1157 51.1215C10.051 51.1215 10.045 51.2968 10.045 51.3857C10.045 51.4829 10.0582 51.5874 10.0582 51.6679C10.0582 52.0006 10.1038 52.3164 10.1086 52.6479C10.1181 53.2916 10.1769 53.9293 10.2201 54.5718C10.2332 54.764 10.2368 54.9573 10.2368 55.1507C10.2368 55.5794 10.2153 56.007 10.2153 56.4381C10.2153 56.9425 10.1685 57.4361 10.1685 57.9357C10.1685 58.0894 10.1721 58.2456 10.1841 58.4017C10.1841 58.5903 10.1433 58.7716 10.1265 58.9541C10.491 58.9433 10.8147 58.9337 10.9873 58.9337C11.1792 58.9337 11.5508 58.9445 11.5508 59.2388C11.5508 59.4093 11.5268 59.4501 11.4489 59.5714C11.3866 59.6663 11.2883 59.7156 11.1959 59.7444C11.0569 59.7876 10.9646 59.7996 10.8782 59.8008C10.8291 59.8008 10.479 59.7972 10.1493 59.7948C9.83281 59.7912 9.53549 59.7888 9.46355 59.7888C9.24536 59.7888 8.83174 59.8068 8.61115 59.8068C8.49006 59.8068 8.37137 59.802 8.25148 59.7864C8.1316 59.7696 7.97094 59.7588 7.86185 59.6999C7.73956 59.6339 7.62207 59.4609 7.62207 59.3877C7.62207 59.3409 7.62806 59.2964 7.68681 59.2304C7.75634 59.1523 7.91819 59.0935 8.0153 59.0754C8.28865 59.0238 8.7742 58.983 8.88809 58.983C8.94923 58.983 9.01397 58.983 9.08351 58.9806C9.0967 58.1387 9.15065 57.3437 9.15065 56.473C9.15065 56.228 9.14705 55.9842 9.13746 55.7416C9.10029 54.8709 9.08471 54.0002 9.08471 53.1319C9.08471 52.6275 9.0907 52.1243 9.0979 51.6211C9.10749 51.0674 9.12187 50.5138 9.13746 49.9613C9.15784 49.302 9.18062 48.6415 9.2046 47.9737H8.61355C8.49366 47.9737 8.37377 47.9689 8.25388 47.9521C8.13399 47.9353 7.97334 47.9245 7.86424 47.8656C7.74316 47.8008 7.62447 47.6267 7.62447 47.5546C7.62447 47.5078 7.63166 47.4621 7.68921 47.3961C7.75874 47.3168 7.92059 47.2604 8.0177 47.2423C8.29105 47.1907 8.99 47.1487 9.10389 47.1487C9.21778 47.1487 9.45396 47.1379 9.70813 47.1283C9.81962 47.0286 9.93711 46.9385 10.0438 46.858C10.1877 46.7487 10.3627 46.6947 10.5366 46.6947C10.7955 46.6947 11.0521 46.8172 11.1852 47.0634C11.2978 47.27 11.4441 47.4525 11.5328 47.6723C11.6467 47.9545 11.7187 48.2439 11.8469 48.5202C11.956 48.7556 12.0244 49.0006 12.1203 49.2395C12.2282 49.5074 12.3505 49.7632 12.4248 50.043C12.4967 50.318 12.5866 50.587 12.661 50.8596C12.7341 51.1251 12.7257 51.358 12.8744 51.6018C13.1669 52.0774 13.4175 52.6371 13.5481 53.1823C13.6153 53.4585 13.6884 53.6975 13.8167 53.9509C13.9558 54.2211 14.0037 54.501 14.0661 54.7964C14.1248 55.069 14.2519 55.3068 14.379 55.5518C14.4389 55.6683 14.5264 55.7692 14.5816 55.8857C14.6403 56.007 14.6499 56.1403 14.6943 56.2652C14.7554 56.4333 14.8022 56.6399 14.8753 56.8008C14.9113 56.8801 14.9496 56.9221 14.9856 56.9221C15.024 56.9221 15.0599 56.8825 15.0851 56.7924C15.1007 56.7324 15.1055 56.6699 15.1067 56.6051C15.1067 56.2784 15.0875 55.9493 15.0875 55.6227C15.0875 54.9525 15.1235 54.286 15.0923 53.6171C15.0659 52.9998 14.9604 52.4017 14.9604 51.782C14.9604 51.3472 14.958 50.9113 14.9592 50.4777C14.9592 50.2267 14.9604 49.9769 14.9616 49.7259C14.9616 49.3392 14.9329 48.9501 14.9329 48.561C14.9329 48.358 14.9413 48.1575 14.964 47.9569C14.7758 47.9629 14.5648 47.9737 14.3898 47.9737C14.2687 47.9737 14.1476 47.9677 14.0289 47.9521C13.9102 47.9353 13.7496 47.9245 13.6393 47.8656C13.517 47.8008 13.3983 47.6266 13.3983 47.5534C13.3983 47.5066 13.4067 47.4609 13.4642 47.3961C13.535 47.3168 13.6944 47.2604 13.7927 47.2411C14.0661 47.1895 14.765 47.1475 14.8789 47.1475C14.9688 47.1475 15.1235 47.1451 15.3093 47.1391C15.4124 47.0394 15.5383 46.9733 15.6918 46.9733C15.8572 46.9733 15.9423 47.0322 15.9831 47.1174C16.3056 47.1066 16.6101 47.0994 16.766 47.0994L16.7672 47.1018Z" fill="#666562"></path>
  <path d="M22.4039 54.2848C22.4027 54.1995 22.3691 54.0037 22.3559 53.9209C22.3092 53.6447 22.2612 53.4489 22.2576 53.1919C22.2481 52.613 22.2373 52.0125 22.2049 51.4337C22.1917 51.1599 22.1473 50.886 22.1054 50.6098C22.0562 50.3024 22.0107 49.9925 22.0047 49.6755C22.0047 49.5758 21.9867 49.1975 21.9579 48.9165C21.9315 48.6498 21.8848 48.4757 21.7913 48.4757C21.6414 48.4757 21.4544 48.818 21.4352 48.9044C21.3741 49.1182 21.3309 49.374 21.2758 49.5902C21.2482 49.7019 21.2374 49.8088 21.2278 49.9121C21.2146 50.0274 21.199 50.139 21.1595 50.2543C21.0767 50.4897 21.0588 50.7467 21.0216 50.9833C20.9449 51.4769 20.7818 51.9477 20.6391 52.4197C20.5732 52.6418 20.5348 52.8688 20.4941 53.0982C20.4485 53.3552 20.4006 53.617 20.3011 53.8776C20.2603 53.9833 20.18 54.3268 20.1824 54.4553C20.1824 54.519 20.2255 54.519 20.3119 54.519C20.4401 54.519 20.6751 54.4973 20.7387 54.4985C20.8945 54.4985 21.042 54.4781 21.1918 54.4601C21.3093 54.4457 21.428 54.4337 21.5515 54.4337C21.675 54.4337 21.85 54.4553 22.0215 54.4553C22.1294 54.4553 22.2361 54.4553 22.3212 54.4133C22.3655 54.382 22.4051 54.3364 22.4039 54.2836M27.1263 59.4825C27.1287 59.5978 27.0436 59.6435 26.9597 59.7456C26.8817 59.8416 26.7535 59.8897 26.636 59.9185C26.4369 59.9665 26.2919 59.9761 26.1468 59.9749C26.0149 59.9749 25.8831 59.9629 25.7056 59.9629C25.6721 59.9629 25.6193 59.9629 25.5474 59.9641C25.4599 60.0038 25.3627 60.029 25.2668 60.053C25.1601 60.0746 25.0534 60.095 24.9467 60.095C24.7142 60.095 24.4684 60.0566 24.2502 59.9797C24.0979 59.9797 23.9469 59.9797 23.8018 59.9797C23.3606 59.9797 22.9794 59.9749 22.8247 59.9581C22.6701 59.9425 22.4603 59.9377 22.32 59.8717C22.2265 59.8284 22.0059 59.6963 22.0035 59.5606C21.9999 59.3156 22.3188 59.2772 22.507 59.2483C22.5957 59.2351 22.7911 59.2255 23.0417 59.2159C23.0237 59.0754 23.0177 58.9313 23.0081 58.8424C22.989 58.6611 22.9794 58.4761 22.9458 58.3164C22.929 58.2311 22.9002 58.1591 22.899 58.0594C22.8978 57.9729 22.9386 57.848 22.9374 57.758C22.935 57.6511 22.8691 57.5874 22.8463 57.4373C22.8211 57.2223 22.7552 57.0086 22.7276 56.7936C22.7036 56.6014 22.718 56.4309 22.6761 56.2363C22.6293 56.0214 22.6401 55.8088 22.6005 55.5926C22.5765 55.4641 22.555 55.4209 22.4698 55.4209C22.4267 55.4209 22.3619 55.4425 22.2768 55.4425C22.0622 55.4425 21.8548 55.4581 21.6486 55.4749C21.4436 55.4905 21.2398 55.5073 21.0372 55.5073C20.8657 55.5073 20.6955 55.5278 20.5241 55.5278C20.4473 55.5278 20.2219 55.4929 20.0721 55.4917C19.8934 55.4917 19.8839 55.631 19.8863 55.7511C19.8886 55.9529 19.8143 56.2171 19.7688 56.4285C19.6896 56.7924 19.6261 57.1407 19.553 57.5214C19.4774 57.9117 19.318 58.5974 19.2089 58.9913C19.3875 58.9829 19.5661 58.9805 19.8239 58.9805C20.0817 58.9805 20.5289 58.9925 20.5576 59.3144C20.5468 59.4621 20.5277 59.5066 20.4329 59.6194C20.355 59.7143 20.2279 59.7636 20.1092 59.7924C19.927 59.8356 19.8107 59.8476 19.6968 59.8488C19.5745 59.8488 19.4559 59.8368 19.2652 59.8368C18.9847 59.8368 18.6982 59.8548 18.4128 59.8548C18.257 59.8548 18.1011 59.85 17.9465 59.8332C17.793 59.8164 17.5844 59.8056 17.4417 59.7467C17.2823 59.6819 17.1264 59.5078 17.124 59.4345C17.124 59.3877 17.1336 59.342 17.2067 59.2772C17.2955 59.1979 17.5029 59.1415 17.6288 59.1234C17.8853 59.085 18.1467 59.0694 18.4056 59.0514C18.4032 59.0346 18.402 59.019 18.402 59.001C18.3984 58.7872 18.4596 58.5302 18.4788 58.4233C18.5555 57.9729 18.6358 57.5442 18.7125 57.0938C18.7701 56.7503 18.8228 56.3853 18.908 56.0214C18.9283 55.9361 19.0087 55.6575 19.0063 55.5073C19.0027 55.3356 18.6178 55.3356 18.4668 55.2503C18.3373 55.1867 18.2714 55.1218 18.2714 55.0354C18.2678 54.8636 18.438 54.8216 18.6298 54.7784C18.7581 54.7567 19.0338 54.7327 19.1621 54.6282C19.2676 54.5418 19.2604 54.1995 19.3012 54.0494C19.4235 53.6206 19.535 53.1895 19.6441 52.7836C19.7652 52.3332 19.8851 51.9045 19.9846 51.4757C20.0853 51.0482 20.18 50.6182 20.2627 50.1895C20.3418 49.7824 20.4054 49.3776 20.5408 48.9897C20.6835 48.5826 20.825 48.1346 21.0108 47.7455L21.1966 47.36C21.2841 47.1799 21.3381 46.9925 21.5095 46.8676C21.8057 46.6526 22.254 46.589 22.6389 46.589C22.8966 46.589 23.0465 46.6322 23.2407 46.7187C23.4361 46.804 23.4373 46.9325 23.5692 47.1246C23.6567 47.2543 23.7874 47.36 23.8534 47.4897C23.9205 47.6398 23.9229 47.7888 23.9672 47.9401C24.0596 48.2391 24.0464 48.5826 24.1123 48.9044C24.183 49.2479 24.3233 49.547 24.3653 49.8904C24.4156 50.2976 24.4384 50.6639 24.5355 51.0494C24.6278 51.4133 24.6998 51.7784 24.7261 52.1627C24.7381 52.3452 24.7741 52.5278 24.8149 52.7091C24.8688 52.9529 24.9324 53.1931 24.9611 53.4273C24.9755 53.5306 25.0031 53.7539 25.0534 53.9581C25.0954 54.1298 25.1541 54.2896 25.2333 54.3496C25.2836 54.3868 25.3735 54.3953 25.4694 54.3965C25.5426 54.3965 25.6193 54.3929 25.6841 54.3929C25.8771 54.3929 26.1073 54.4613 26.2235 54.6282C26.2667 54.6943 26.2895 54.7363 26.2895 54.7796C26.2907 54.8432 26.2487 54.9069 26.1648 54.9717C26.0389 55.0786 25.9334 55.2071 25.7848 55.272C25.738 55.2948 25.6517 55.2996 25.5726 55.3092C25.509 55.3176 25.4515 55.3284 25.4215 55.3572C25.4011 55.3776 25.4011 55.4005 25.4023 55.4437C25.4023 55.5049 25.4251 55.5878 25.4467 55.6755C25.4706 55.7704 25.4958 55.87 25.497 55.9589L25.5006 56.1943C25.503 56.2796 25.5054 56.3432 25.5258 56.4297C25.5726 56.623 25.6397 56.8164 25.6649 57.0086C25.6876 57.1959 25.738 57.3893 25.7836 57.5826C25.8315 57.7856 25.8735 57.9897 25.8771 58.1879C25.8831 58.4665 25.9058 58.6166 25.9742 58.8736C25.9934 58.9481 26.0137 59.0286 26.0269 59.1126C26.1816 59.1078 26.3422 59.1066 26.5245 59.1066C26.8314 59.1066 27.1227 59.252 27.1263 59.4825Z" fill="#666562"></path>
  <path d="M34.4418 59.0934C34.4382 59.3084 34.4454 59.9125 34.1025 59.9125C33.9551 59.9125 33.8903 59.8765 33.7764 59.7792C33.6817 59.6987 33.635 59.5702 33.6074 59.4513C33.5283 59.1054 33.5762 58.798 33.5894 58.5134C33.4527 58.7043 33.2142 59.073 33.0463 59.2291C32.5812 59.6567 32.08 59.9257 31.3979 59.9257C31.2576 59.9257 31.1137 59.9149 30.9663 59.8909C30.5011 59.8164 30.0095 59.6555 29.5636 59.4213C29.2123 59.2363 28.891 59.0046 28.6344 58.7307C28.3467 58.4257 28.1453 58.0594 28.0002 57.6883C27.836 57.2704 27.7449 56.8428 27.6813 56.3853C27.6142 55.9061 27.583 55.4209 27.583 54.9393C27.583 54.4577 27.6082 53.9929 27.6454 53.5174C27.6813 53.0694 27.6693 52.619 27.7461 52.1747C27.8252 51.7171 27.9894 51.2475 28.1381 50.7852C28.2915 50.3084 28.4282 49.8388 28.6164 49.3992C28.7963 48.9765 29.0552 48.6486 29.3526 48.304C29.6367 47.9761 29.8861 47.6014 30.2146 47.3156C30.5359 47.0346 30.9099 46.9169 31.3151 46.8064C31.5921 46.7307 31.9074 46.6514 32.2119 46.6514C32.3354 46.6514 32.4565 46.6647 32.5716 46.6959C32.7262 46.7391 32.8557 46.8784 32.9804 46.9745C33.1506 47.1042 33.165 47.2603 33.3125 47.4177C33.4108 47.5209 33.4911 47.7455 33.5594 47.8704C33.5654 47.6999 33.5726 47.4501 33.5822 47.3576C33.6002 47.2039 33.6074 46.9925 33.6745 46.8532C33.7081 46.7823 33.7273 46.7319 33.804 46.6502C33.8412 46.6106 33.9263 46.5446 33.9874 46.5446C34.0522 46.5446 34.1217 46.619 34.1445 46.6526C34.2176 46.7643 34.2776 46.9313 34.2944 47.0586C34.3147 47.2111 34.3255 47.5642 34.3339 47.9425C34.3435 48.4385 34.3471 48.9789 34.3639 49.1795C34.3963 49.5902 34.4118 49.8028 34.4023 50.2123C34.4059 50.2567 34.4083 50.3024 34.4083 50.3468C34.4083 50.4357 34.3999 50.5246 34.3783 50.6074C34.3459 50.8248 34.2656 51.0374 34.063 51.0374C33.9143 51.0374 33.8496 51.0013 33.7369 50.9041C33.6422 50.8236 33.5942 50.6951 33.5678 50.5762C33.4767 50.1775 33.5534 50.0874 33.5522 49.6851C33.5522 49.637 33.5522 49.5746 33.5522 49.5025C33.4671 49.1194 33.352 48.7627 33.2202 48.3724C33.1159 48.0602 32.6771 47.557 32.2898 47.557C32.0596 47.557 31.8414 47.7023 31.67 47.8428C31.5969 47.904 31.5369 47.9737 31.471 48.041C31.4122 48.0998 31.3043 48.1659 31.2684 48.2319C31.1952 48.3652 31.2456 48.5886 31.188 48.7411C31.1029 48.9669 31.0394 49.1675 30.9914 49.4065C30.9087 49.8292 30.8044 50.2543 30.7253 50.6819C30.645 51.1094 30.5898 51.5406 30.6018 51.9753C30.603 52.0474 30.6282 52.1302 30.6282 52.2047C30.6282 52.3164 30.567 52.3944 30.5634 52.5073C30.561 52.6334 30.597 52.7559 30.6054 52.8784C30.609 52.9421 30.6054 53.0057 30.5862 53.0694C30.5514 53.1835 30.5323 53.2387 30.5323 53.3096C30.5323 53.3564 30.5395 53.4081 30.5586 53.4861C30.573 53.5558 30.579 53.6278 30.579 53.6987C30.579 53.82 30.567 53.9437 30.567 54.0662C30.567 54.543 30.7385 54.9921 30.7553 55.4653C30.772 55.9421 30.7876 56.3985 30.8979 56.8644C30.9435 57.059 30.9435 57.2752 30.9986 57.4637C31.0538 57.6547 31.2108 57.8132 31.29 58.0006C31.4482 58.3716 31.718 58.6551 32.1508 58.6671C32.556 58.6779 33.0643 58.2275 33.2513 57.9129C33.4 57.6631 33.5115 57.4781 33.5894 57.2007C33.5918 56.6399 33.6002 56.0069 33.623 55.8028C33.641 55.6491 33.647 55.4377 33.7141 55.2984C33.7477 55.2275 33.768 55.1759 33.8436 55.0954C33.8819 55.0558 33.9659 54.9897 34.0282 54.9897C34.0905 54.9897 34.1625 55.0642 34.1841 55.0978C34.2572 55.2095 34.3171 55.3764 34.3339 55.5025C34.3555 55.6563 34.3651 56.4369 34.3735 56.8152C34.3831 57.3112 34.3879 57.8516 34.4035 58.051C34.4358 58.4653 34.4514 58.6767 34.4418 59.091" fill="#666562"></path>
  <path d="M41.4261 52.3704C41.2846 52.6046 41.0328 52.8808 41.0328 53.1498C41.0328 53.3324 41.3901 53.3468 41.7594 53.5089C42.131 53.6723 42.5962 54.0458 42.77 54.4157C42.8683 54.6234 42.9738 54.8252 43.0649 55.0305C43.168 55.2611 43.2544 55.4989 43.2939 55.7595C43.3335 56.0141 43.3647 56.157 43.4726 56.3912C43.5769 56.6194 43.5936 56.8884 43.6572 57.131C43.7063 57.3196 43.6956 57.555 43.7615 57.7315C43.7963 57.8228 43.885 57.8972 43.9317 57.9825C43.9869 58.0822 44.0732 58.1891 44.1044 58.2972C44.1643 58.5073 44.2782 58.6587 44.3633 58.8508C44.458 59.0682 44.5671 59.115 44.7805 59.2243C44.9016 59.2868 44.9951 59.4273 44.9951 59.5702C44.9951 59.6206 44.9844 59.6711 44.958 59.7179C44.8729 59.8728 44.5851 59.9677 44.3214 59.9677C44.0576 59.9677 43.6872 59.9257 43.3191 59.8212C42.9331 59.7107 42.5194 59.3216 42.3324 59.1498C42.1562 58.9889 42.0303 58.8184 41.9248 58.6358C41.8121 58.4389 41.7246 58.2263 41.6251 57.9969C41.4345 57.5514 41.3937 57.2655 41.2414 56.7972C41.1395 56.4861 41.0772 56.1655 41.0053 55.846C40.9621 55.6526 40.9153 55.4617 40.853 55.2743C40.8254 55.1891 40.7535 54.9945 40.6816 54.8264C40.5892 54.609 40.4849 54.4217 40.3291 54.4217C40.2679 54.4217 40.202 54.4541 40.1325 54.5297C40.0222 54.6498 39.8915 54.8192 39.7956 54.9537C39.6565 55.147 39.5702 55.4004 39.5414 55.6358C39.5234 55.7811 39.4935 55.9469 39.4935 56.1006C39.4935 56.1354 39.4959 56.1691 39.4995 56.2015C39.5115 56.3132 39.5186 56.6374 39.5186 56.8332C39.5186 57.4217 39.5558 57.7747 39.5186 58.3632C39.5067 58.5578 39.4947 58.7547 39.4635 58.9457C39.6697 58.9421 39.8375 58.9397 39.9395 58.9397C40.1972 58.9397 40.6971 58.9517 40.6971 59.2459C40.6971 59.4165 40.666 59.4573 40.5605 59.5786C40.4777 59.6747 40.3435 59.7227 40.2212 59.7515C40.0318 59.7948 39.9083 59.8068 39.792 59.808C39.738 59.808 39.4227 59.808 39.0571 59.8104C38.9336 59.9161 38.7921 59.9581 38.6447 59.9581C38.466 59.9581 38.2802 59.8968 38.1076 59.8152H37.8006C37.5081 59.8152 37.0358 59.8128 36.7396 59.8128C36.5766 59.8128 36.4147 59.808 36.2529 59.79C36.0946 59.7744 35.8776 59.7635 35.7302 59.7035C35.5659 59.6386 35.4053 59.4657 35.4053 59.3924C35.4053 59.3468 35.4173 59.3012 35.4952 59.2351C35.5887 59.1559 35.8045 59.0994 35.9364 59.0814C36.3044 59.0286 36.6869 58.9865 36.8367 58.9877C36.9315 58.9877 37.0669 58.9877 37.2288 58.9829C37.2156 58.9409 37.1976 58.8976 37.176 58.8568C36.9267 58.4233 36.8883 57.9597 36.8883 57.4649C36.8883 56.8872 36.9027 56.306 36.9171 55.7247C36.9339 55.099 36.9506 54.4721 36.9506 53.8476C36.9506 53.3204 36.9087 52.798 36.9087 52.2695C36.9087 51.7711 36.9662 51.2799 36.9662 50.7779C36.9662 50.4681 37.0118 50.169 37.0118 49.8544C37.0118 49.6118 36.9758 49.3704 36.9698 49.1278C36.959 48.7003 36.9674 48.31 36.9722 47.9004C36.9027 47.9052 36.9602 47.916 36.7432 47.916C36.5802 47.916 36.4183 47.9112 36.2577 47.8944C36.0982 47.8776 35.8812 47.8656 35.7338 47.8079C35.5707 47.7431 35.4101 47.569 35.4101 47.4945C35.4101 47.4489 35.4209 47.4032 35.4988 47.3384C35.5923 47.2591 35.8093 47.2027 35.94 47.1847C36.308 47.1318 36.8248 47.1006 36.9746 47.1006C37.0022 47.1006 37.0525 47.1006 37.1209 47.0982C37.2312 46.9577 37.3966 46.8724 37.6004 46.87C37.6508 46.87 37.7059 46.8724 37.7611 46.8832C37.9169 46.9108 38.1435 46.9793 38.315 47.0718C38.9779 47.0585 39.6853 47.0429 39.9419 47.0429C40.1984 47.0429 40.6995 47.0549 40.6995 47.3492C40.6995 47.5185 40.6696 47.5606 40.5641 47.6818C40.4801 47.7767 40.3459 47.826 40.2236 47.8548C40.0234 47.9004 39.8987 47.9124 39.7752 47.9124C39.6781 47.9124 39.2992 47.91 38.8569 47.9076C38.9408 48.065 39.0091 48.2211 39.0091 48.4C39.0091 48.4925 38.9899 48.579 38.9899 48.6919C38.9899 48.7651 39.0151 48.8011 39.0307 48.8804C39.0739 49.0774 39.0799 49.2935 39.1146 49.5037C39.1254 49.5698 39.1302 49.6358 39.1302 49.7031C39.1302 49.8424 39.1122 49.9817 39.1122 50.1222C39.1122 50.4104 39.1806 50.6999 39.2177 50.9905C39.2465 51.2139 39.3376 51.4216 39.3796 51.6414C39.4131 51.8156 39.4347 51.9909 39.4347 52.1674C39.4347 52.2299 39.4323 52.2923 39.4263 52.356C39.4131 52.4893 39.4131 52.6118 39.4155 52.7475C39.4191 52.864 39.3868 53.0189 39.3868 53.1486C39.3868 53.2315 39.4143 53.402 39.4995 53.402C39.5846 53.402 39.6841 53.2519 39.7368 53.1462C39.8591 52.8988 39.9754 52.6502 40.0977 52.4028C40.1864 52.2215 40.2823 52.0437 40.3818 51.8684C40.5533 51.5634 40.7343 51.2643 40.8998 50.9557C41.0316 50.7107 41.1635 50.4621 41.293 50.2135C41.4716 49.8748 41.6467 49.5325 41.8205 49.1903C42.0111 48.8156 42.1981 48.4385 42.3816 48.0626C42.3972 48.0313 42.4091 48.0061 42.4199 47.9833C42.3192 47.9833 42.2197 47.9761 42.1202 47.9617C42.0063 47.9449 41.8517 47.9341 41.7462 47.8752C41.6299 47.8104 41.5148 47.6362 41.5148 47.563C41.5148 47.5161 41.522 47.4705 41.5783 47.4056C41.6455 47.3264 41.8001 47.2699 41.8936 47.2507C42.1574 47.1991 42.4595 47.157 42.6273 47.157C42.7041 47.157 42.7964 47.157 42.8995 47.1534C42.9223 47.1378 42.9463 47.121 42.9726 47.1066C43.0697 47.0513 43.1573 47.0333 43.246 47.0333C43.3395 47.0333 43.4354 47.0549 43.5433 47.0742C43.6092 47.0862 43.644 47.1018 43.6692 47.1318C44.0276 47.121 44.3669 47.1102 44.5384 47.1102C44.7218 47.1102 45.0791 47.1222 45.0791 47.4152C45.0791 47.5858 45.0575 47.6278 44.982 47.7491C44.9232 47.844 44.8273 47.892 44.7386 47.9208C44.6043 47.9641 44.5168 47.9761 44.4329 47.9773C44.3861 47.9773 43.9881 47.9737 43.5889 47.9713C43.5181 48.1406 43.445 48.2427 43.3539 48.4156C43.1489 48.8035 42.9954 49.1951 42.7952 49.577C42.5674 50.0153 42.4092 50.5077 42.2113 50.9629C41.9979 51.4553 41.7054 51.9116 41.4285 52.3728" fill="#666562"></path>
  <path d="M50.1252 58.9421C50.3913 58.9421 50.9117 58.9553 50.8817 59.2759C50.8673 59.4225 50.8457 59.4669 50.7462 59.581C50.6635 59.6759 50.5292 59.7239 50.4069 59.7527C50.2175 59.796 50.0952 59.8092 49.9777 59.8092C49.9202 59.8092 49.5389 59.7948 49.1397 59.8008C48.647 59.8092 48.1171 59.8392 48.008 59.8392C47.7166 59.8392 47.2239 59.8164 46.9266 59.8152C46.7647 59.8152 46.6029 59.8092 46.4422 59.7936C46.2816 59.7767 46.0658 59.7659 45.9183 59.7071C45.7553 59.6422 45.5946 59.4681 45.5946 59.3948C45.5946 59.3492 45.6042 59.3036 45.6833 59.2375C45.7756 59.1595 45.9938 59.1018 46.1245 59.0838C46.4926 59.0309 46.9206 58.9901 47.0704 58.9901C47.1196 58.9901 47.1915 58.9901 47.279 58.9877C47.1364 58.8604 47.0345 58.7103 47.0345 58.5277C47.0345 58.4209 47.0189 58.3332 46.9937 58.2299C46.9769 58.1627 46.9709 58.0978 46.9709 58.0317C46.9709 57.9705 46.9757 57.9092 46.9793 57.8456C46.9877 57.6667 46.9925 57.4877 46.9925 57.3088C46.9925 57.2355 46.9925 57.1622 46.9913 57.089C46.9733 56.0958 47.0237 55.1062 46.9997 54.1142C46.9865 53.5882 46.9997 53.0658 47.0177 52.5421C47.0321 52.0894 47.0489 51.6342 47.0513 51.1815C47.0513 50.9329 47.0513 50.6843 47.0513 50.4345C47.0513 50.1222 47.0513 49.8087 47.0513 49.4977C47.0513 49.0569 47.0381 48.615 47.0513 48.1754C47.0513 48.1106 47.0572 48.0469 47.0632 47.9821C47.0201 47.9821 46.9745 47.9833 46.9278 47.9833C46.7647 47.9833 46.6029 47.9773 46.441 47.9605C46.2828 47.9449 46.0658 47.934 45.9183 47.874C45.7541 47.8091 45.5934 47.635 45.5934 47.5629C45.5934 47.5173 45.5706 47.4585 45.6402 47.384C45.7121 47.3059 45.9711 47.2699 46.1029 47.2507C46.4506 47.2027 46.9134 47.1618 47.0908 47.1582C47.0872 47.1186 47.0848 47.0814 47.0848 47.0453C47.0848 46.9505 47.1004 46.864 47.152 46.8075C47.2155 46.7379 47.3546 46.6898 47.4409 46.6502C47.544 46.6022 47.6519 46.5661 47.7646 46.5457C47.8605 46.5301 47.9588 46.5205 48.0571 46.5205C48.1902 46.5205 48.3233 46.5361 48.4492 46.5685C48.7621 46.6478 49.021 46.8484 49.1733 47.1222C49.5905 47.1162 49.9538 47.109 50.1264 47.109C50.3913 47.109 50.9141 47.1222 50.8829 47.4416C50.8685 47.5894 50.8469 47.6326 50.7486 47.7479C50.6647 47.8428 50.5304 47.8908 50.4081 47.9196C50.2187 47.9629 50.0964 47.9749 49.9789 47.9761C49.937 47.9761 49.6948 47.9761 49.3819 47.9725L49.3867 48.0121C49.4214 48.2559 49.4634 48.4985 49.4946 48.7423C49.5269 48.9837 49.5461 49.2251 49.5461 49.4689C49.5461 49.7127 49.5329 49.9324 49.5329 50.1738C49.5329 50.2927 49.5102 50.4056 49.5102 50.5281C49.5102 50.6266 49.5269 50.7227 49.5425 50.8212C49.6157 51.3076 49.6121 51.8132 49.6289 52.3056C49.6492 52.8544 49.6588 53.402 49.6696 53.9509C49.678 54.3988 49.6864 54.8456 49.7008 55.2911C49.7152 55.7895 49.7967 56.2843 49.8087 56.7827C49.8147 57.0205 49.8255 57.2595 49.8327 57.4985C49.8399 57.7519 49.8411 58.0065 49.8243 58.2599C49.8087 58.4833 49.8003 58.7355 49.72 58.9469C49.8938 58.9445 50.0353 58.9433 50.124 58.9433L50.1252 58.9421Z" fill="#666562"></path>
  <path d="M60.576 47.109C60.7678 47.109 61.1383 47.121 61.1383 47.4165C61.1383 47.5858 61.1155 47.6278 61.0375 47.7479C60.9752 47.8428 60.8757 47.8909 60.7846 47.9197C60.6431 47.9629 60.5532 47.9761 60.4657 47.9761C60.4249 47.9761 60.1612 47.9749 59.8614 47.9725C59.883 48.1166 59.9058 48.262 59.9058 48.4145C59.9058 48.6451 59.8674 48.8745 59.8674 49.1062C59.8674 49.4593 59.9298 49.81 59.9729 50.1619C60.0161 50.5138 60.0293 50.868 60.0377 51.2223C60.0437 51.5142 60.0473 51.806 60.0617 52.0978C60.076 52.4077 60.1168 52.7175 60.1168 53.0274C60.1168 53.3372 60.0377 53.6423 60.0377 53.9497C60.0377 54.2548 60.0425 54.5526 60.0425 54.8516C60.0425 55.2071 60.0353 55.5626 60.0005 55.9253C59.9729 56.2147 59.9897 56.4982 59.9777 56.7876C59.9657 57.083 59.9322 57.3713 59.931 57.6679C59.931 57.9381 60.0365 58.2936 60.0365 58.6167C60.0365 58.8364 59.9873 59.0418 59.8207 59.1931C59.5641 59.4261 59.2356 59.521 58.8939 59.521C58.6242 59.521 58.3473 59.4417 58.0895 59.3457C57.8114 59.2436 57.556 59.1187 57.3582 58.9577C56.9182 58.5987 56.6664 58.0918 56.4422 57.5802C56.1905 57.0038 55.9327 56.4273 55.7013 55.8412C55.5694 55.5074 55.4436 55.1723 55.3213 54.836C55.1283 54.3028 54.9436 53.7648 54.765 53.2255C54.6487 52.8749 54.5336 52.523 54.4209 52.1723C54.3262 51.8769 54.2171 51.5922 54.072 51.3184C54.0229 51.2235 53.9725 51.1287 53.9246 51.1287C53.8598 51.1287 53.8538 51.304 53.8538 51.3929C53.8538 51.4901 53.867 51.5946 53.867 51.6751C53.867 52.0078 53.9126 52.3236 53.9174 52.6551C53.927 53.2988 53.9857 53.9365 54.0289 54.579C54.0421 54.7712 54.0457 54.9645 54.0457 55.1579C54.0457 55.5866 54.0241 56.0142 54.0241 56.4453C54.0241 56.9497 53.9773 57.4433 53.9773 57.9429C53.9773 58.0967 53.9809 58.2528 53.9929 58.4089C53.9929 58.5975 53.9521 58.7788 53.9354 58.9613C54.2998 58.9505 54.6235 58.9397 54.7962 58.9409C54.988 58.9409 55.3596 58.9517 55.3596 59.246C55.3596 59.4165 55.3357 59.4573 55.2577 59.5786C55.1954 59.6735 55.0971 59.7228 55.0048 59.7516C54.8657 59.7948 54.7734 59.8068 54.6871 59.808C54.6379 59.808 54.2878 59.8044 53.9569 59.802C53.6404 59.7984 53.3431 59.796 53.2712 59.796C53.053 59.796 52.6394 59.814 52.4188 59.814C52.2977 59.814 52.179 59.8092 52.0591 59.7936C51.9392 59.7768 51.7786 59.766 51.6695 59.7071C51.5472 59.6411 51.4285 59.4682 51.4297 59.3949C51.4297 59.3481 51.4369 59.3036 51.4944 59.2376C51.564 59.1595 51.7258 59.1007 51.8229 59.0826C52.0963 59.031 52.5818 58.9902 52.6957 58.9902C52.7569 58.9902 52.8216 58.9902 52.8911 58.9878C52.9043 58.1459 52.9583 57.3509 52.9583 56.4802C52.9583 56.2352 52.9547 55.9914 52.9451 55.7488C52.9079 54.8781 52.8923 54.0074 52.8923 53.1391C52.8923 52.6347 52.8983 52.1315 52.9055 51.6283C52.9151 51.0746 52.9295 50.521 52.9451 49.9685C52.9655 49.3092 52.9882 48.6487 53.0122 47.9809H52.4224C52.3025 47.9809 52.1826 47.9761 52.0627 47.9593C51.9428 47.9425 51.7822 47.9317 51.6731 47.8728C51.552 47.808 51.4333 47.6339 51.4333 47.5618C51.4333 47.515 51.4405 47.4693 51.498 47.4033C51.5676 47.324 51.7294 47.2676 51.8265 47.2495C52.0999 47.1979 52.7988 47.1559 52.9127 47.1559C53.0266 47.1559 53.2628 47.1451 53.517 47.1355C53.6284 47.0358 53.7459 46.9469 53.8526 46.8652C53.9965 46.7559 54.1715 46.7019 54.3454 46.7019C54.6043 46.7019 54.8609 46.8244 54.994 47.0706C55.1067 47.2772 55.2529 47.4597 55.3416 47.6795C55.4555 47.9617 55.5275 48.2511 55.6558 48.5274C55.7649 48.7628 55.8332 49.0078 55.9291 49.2467C56.037 49.5146 56.1593 49.7704 56.2336 50.0502C56.3056 50.3252 56.3955 50.5942 56.4698 50.8668C56.5429 51.1323 56.5345 51.3652 56.6832 51.609C56.9757 52.0846 57.2263 52.6443 57.357 53.1895C57.4241 53.4657 57.4972 53.7047 57.6255 53.9581C57.7646 54.2283 57.8125 54.5082 57.8749 54.8036C57.9336 55.0762 58.0607 55.314 58.1878 55.559C58.2477 55.6743 58.3353 55.7764 58.3904 55.8929C58.4492 56.0142 58.4587 56.1475 58.5031 56.2724C58.5643 56.4405 58.611 56.6471 58.6841 56.808C58.7201 56.8873 58.7585 56.9293 58.7944 56.9293C58.8328 56.9293 58.8688 56.8897 58.8939 56.7996C58.9095 56.7396 58.9143 56.6771 58.9143 56.6123C58.9143 56.2856 58.8951 55.9565 58.8951 55.6299C58.8951 54.9597 58.9311 54.2932 58.8999 53.6243C58.8736 53.007 58.7681 52.4089 58.7681 51.7892C58.7681 51.3544 58.7657 50.9185 58.7669 50.4849C58.7669 50.2339 58.7681 49.9841 58.7693 49.7331C58.7693 49.3464 58.7405 48.9573 58.7405 48.5682C58.7405 48.3652 58.7489 48.1647 58.7717 47.9641C58.5834 47.9689 58.3724 47.9809 58.1974 47.9809C58.0763 47.9809 57.9552 47.9749 57.8365 47.9593C57.7178 47.9425 57.5572 47.9317 57.4469 47.8728C57.3246 47.808 57.2059 47.6339 57.2059 47.5606C57.2059 47.5138 57.2143 47.4681 57.2719 47.4033C57.3426 47.324 57.502 47.2676 57.6003 47.2483C57.8737 47.1967 58.5726 47.1547 58.6865 47.1547C58.7765 47.1547 58.9311 47.1523 59.1169 47.1463C59.22 47.0466 59.3459 46.9805 59.4994 46.9805C59.6648 46.9805 59.7499 47.0394 59.7907 47.1246C60.1132 47.1138 60.4177 47.1066 60.5736 47.1066L60.576 47.109Z" fill="#666562"></path>
  <path d="M70 54.3052C70 54.4997 69.7854 54.6414 69.6272 54.7171C69.397 54.8276 69.0481 54.8804 68.7987 54.9116C68.5758 54.9381 68.4379 54.9525 68.4379 55.1626C68.4379 55.3188 68.4727 55.6899 68.4727 55.8184C68.4727 55.8904 68.4726 56.3912 68.475 56.4633C68.4798 56.599 68.4834 56.7503 68.487 56.9064C68.4966 57.4024 68.5014 58.0077 68.517 58.2071C68.5494 58.6202 68.565 58.8328 68.5554 59.2471C68.5518 59.4645 68.559 60.0674 68.2161 60.0674C68.0674 60.0674 68.0039 60.0314 67.89 59.9341C67.7953 59.8536 67.7473 59.7251 67.7209 59.6062C67.6862 59.4573 67.6754 59.3516 67.6754 59.2567C67.6754 59.097 67.7066 58.9673 67.7054 58.7151V58.6623C67.5843 59.0718 67.3241 59.4117 66.9692 59.6867C66.4657 60.0758 66.0893 60.2523 65.4551 60.2523C65.0726 60.2523 64.6902 60.1887 64.3341 60.0686C63.9145 59.9257 63.5728 59.6951 63.2827 59.4081C62.8643 58.9937 62.5562 58.4629 62.278 57.9165C62.0634 57.4961 61.9483 57.065 61.868 56.6218C61.8129 56.318 61.7733 56.0081 61.7289 55.6923C61.6846 55.3848 61.7014 55.1711 61.7014 54.8936C61.7014 53.8128 61.9783 52.7247 62.2528 51.5369C62.3763 51.0013 62.501 50.4513 62.6713 49.918C62.8535 49.35 63.0861 48.8011 63.4253 48.3111C63.7191 47.8872 64.0572 47.4308 64.4492 47.0934C64.6314 46.9372 64.8256 46.8364 65.0546 46.7703C65.3424 46.6862 65.5941 46.5337 65.901 46.5229C65.9538 46.5217 65.9982 46.5205 66.0377 46.5205C66.1744 46.5205 66.2583 46.5325 66.4645 46.5637C66.7151 46.6034 66.9573 46.6742 67.1527 46.7895C67.3265 46.894 67.4584 47.0453 67.5591 47.2183C67.5711 47.0922 67.5867 46.9565 67.6346 46.8568C67.6694 46.7859 67.6886 46.7355 67.7653 46.6538C67.8037 46.6142 67.8876 46.5481 67.9499 46.5481C68.0123 46.5481 68.083 46.6226 68.1058 46.6562C68.1789 46.7679 68.2389 46.9348 68.2557 47.0621C68.2772 47.2147 68.2868 47.5678 68.2952 47.9461C68.3048 48.4421 68.3084 48.9825 68.3252 49.183C68.3576 49.5962 68.3719 49.8075 68.3647 50.2231C68.3588 50.4393 68.3672 51.0421 68.0243 51.0421C67.8756 51.0421 67.8109 51.0061 67.6982 50.91C67.6047 50.8284 67.5519 50.7011 67.5279 50.581C67.5064 50.4621 67.5004 50.3588 67.5004 50.2507C67.5004 50.0958 67.5135 49.9324 67.5147 49.7007C67.5016 49.5686 67.4872 49.434 67.4716 49.2995C67.4404 49.0065 67.3901 48.7123 67.3457 48.4276C67.3037 48.1598 67.1875 47.898 67.028 47.653C66.9189 47.4825 66.6432 47.4128 66.4453 47.4128C66.1624 47.4128 65.9922 47.5509 65.8555 47.7779C65.7236 48.0001 65.527 48.1814 65.4395 48.4276C65.3508 48.681 65.3004 48.9693 65.2776 49.2359C65.2524 49.5157 65.2045 49.7403 65.1266 50.0081C65.0414 50.2987 65.0211 50.6146 64.9635 50.9112C64.9108 51.1803 64.8844 51.4493 64.8592 51.7207C64.8364 51.9741 64.7609 52.2167 64.7333 52.4713C64.7034 52.7595 64.665 53.0465 64.6278 53.3336C64.5931 53.6074 64.5583 53.8824 64.5319 54.1586C64.5079 54.4024 64.4744 54.6486 64.4744 54.8948C64.4744 55.2431 64.5199 55.5866 64.5343 55.9349C64.5535 56.4044 64.7022 56.8788 64.7921 57.34C64.8256 57.5225 64.8652 57.7087 64.9168 57.89C64.9827 58.1254 65.0702 58.3536 65.2009 58.5602C65.3891 58.8568 65.7164 59.1967 66.0953 59.1955C66.4106 59.1931 66.6515 58.9445 66.817 58.7007C67.0748 58.32 67.2174 57.8936 67.3025 57.4529C67.3781 57.0662 67.4092 56.6675 67.4356 56.2759C67.4536 56.0057 67.462 55.6274 67.4632 55.356C67.4632 55.308 67.4644 55.2551 67.4644 55.2047C67.4644 54.9981 67.456 54.9345 67.1611 54.9345C66.9237 54.9345 66.6683 54.9681 66.4178 54.9681C66.1996 54.9681 65.9862 54.9417 65.7931 54.8456C65.7128 54.8048 65.6673 54.7579 65.6637 54.7027C65.6613 54.6594 65.684 54.6102 65.7356 54.5526C65.8531 54.4241 65.9766 54.4048 66.1073 54.3388C66.3686 54.2079 66.6695 54.1755 66.9776 54.1262C67.2558 54.083 67.5387 54.0602 67.8001 54.0385C68.0147 54.0217 68.2305 54.0133 68.4463 54.0133C68.7712 54.0133 69.2795 53.9833 69.4869 53.9833C69.7255 53.9833 69.9964 54.0638 69.9964 54.3076" fill="#666562"></path>
  <path d="M84.1978 58.9469C84.4556 58.9469 84.9555 58.9589 84.9555 59.2543C84.9555 59.4237 84.9244 59.4657 84.8189 59.5858C84.7361 59.6807 84.6019 59.7299 84.4796 59.7575C84.2901 59.8008 84.1667 59.814 84.0492 59.814C84.006 59.814 83.7602 59.814 83.4473 59.8116C83.1728 59.9629 82.8503 60.0602 82.5338 60.0602C82.3444 60.0602 82.1573 60.0254 81.9847 59.9473C81.8972 59.9077 81.8192 59.8584 81.7509 59.8032C81.4955 59.8056 81.2618 59.82 80.9968 59.82C80.8338 59.82 80.6719 59.814 80.5101 59.7984C80.3506 59.7816 80.1336 59.7708 79.9862 59.7119C79.8231 59.6471 79.6625 59.4729 79.6625 59.3997C79.6625 59.3528 79.6732 59.3084 79.7512 59.2423C79.8459 59.1643 80.0617 59.1066 80.1924 59.0874C80.5616 59.0358 81.0699 58.9949 81.2198 58.9949H81.2929C81.2714 58.9085 81.2534 58.822 81.239 58.7343C81.1515 58.2143 81.1131 57.6811 81.0687 57.0169C81.0256 56.3432 81.0424 55.6647 81.0112 55.0017C80.9824 54.4024 80.9704 53.802 80.956 53.2027C80.9429 52.6166 80.9285 52.0293 80.8961 51.4445C80.8685 50.904 80.8266 50.169 80.8266 49.9625C80.8266 49.8664 80.8026 49.8136 80.7678 49.8136C80.7474 49.8136 80.7259 49.8436 80.7103 49.9024C80.6503 50.1414 80.6323 50.3924 80.5796 50.6326C80.4645 51.1682 80.3602 51.7063 80.2391 52.2419C80.1204 52.7571 79.9873 53.2759 79.9274 53.7996C79.8974 54.065 79.8375 54.3196 79.7716 54.5718C79.7044 54.83 79.6301 55.0882 79.5785 55.3572C79.5234 55.6394 79.4754 55.9289 79.3316 56.1402C79.2021 56.33 78.9959 56.4561 78.6386 56.4561C78.2322 56.4561 77.797 56.3012 77.5105 56.0261C77.134 55.6671 77.0117 55.0846 76.8906 54.5982C76.7564 54.059 76.6557 53.5113 76.5418 52.9685C76.519 52.8604 76.4315 52.3968 76.3176 51.83C76.2133 51.3136 76.0886 50.7131 75.9735 50.2183C75.8896 49.8532 75.8104 49.5445 75.7481 49.3728C75.7145 49.2779 75.7073 49.2455 75.6858 49.2455C75.6426 49.2455 75.6174 49.3716 75.603 49.583C75.5911 49.7631 75.5874 50.0273 75.5827 50.0754C75.5671 50.3156 75.5479 50.5594 75.5479 50.8008C75.5479 50.9941 75.5311 51.3244 75.5095 51.6883C75.4903 52.0125 75.4664 52.362 75.4496 52.6562C75.434 52.9133 75.4172 53.1739 75.4112 53.4321C75.4076 53.6614 75.3681 53.868 75.3681 54.0914C75.3681 54.2643 75.3728 54.4373 75.3728 54.6102C75.3728 54.7663 75.3681 54.9213 75.3513 55.0774C75.3201 55.3788 75.2674 55.6803 75.2194 55.9793C75.1223 56.5762 75.0563 57.1803 75.0096 57.7844C74.9892 58.0414 75.0048 58.3728 74.9784 58.6911C74.9712 58.7836 74.9604 58.876 74.9448 58.9649C75.3752 58.9541 75.7889 58.9445 75.9711 58.9445C76.1785 58.9445 76.6017 58.9973 76.6017 59.2952C76.6017 59.4693 76.4914 59.4633 76.4063 59.5834C76.3403 59.6783 76.2325 59.7263 76.1341 59.7551C75.9807 59.7996 75.8824 59.8116 75.7877 59.8116C75.6846 59.8116 74.6511 59.7996 74.4917 59.7996C74.2555 59.7996 73.5721 59.8188 73.3335 59.8188C73.2029 59.8188 73.0734 59.814 72.9427 59.7984C72.8144 59.7804 72.6406 59.7696 72.5219 59.7119C72.39 59.6459 72.3037 59.4729 72.3037 59.3985C72.3037 59.3528 72.3133 59.3072 72.3756 59.2423C72.4512 59.1631 72.5819 59.1054 72.6874 59.0874C72.9835 59.0358 73.5649 58.9937 73.686 58.9937C73.7532 58.9937 73.8623 58.9913 74.0001 58.9901C74.0181 58.4725 74.0888 57.9549 74.1296 57.4397C74.1812 56.79 74.2195 56.139 74.2507 55.4881C74.2783 54.9441 74.3022 54.4012 74.325 53.8572C74.3586 53.085 74.3958 52.3128 74.4473 51.5405C74.4737 51.1514 74.5037 50.7635 74.5396 50.3744C74.596 49.7595 74.6703 49.3824 74.759 48.7711C74.801 48.4853 74.8214 48.1574 74.8621 47.8716C74.8645 47.8488 74.8693 47.8248 74.8717 47.8019C74.7434 47.808 74.6451 47.8164 74.4497 47.8164C74.2879 47.8164 74.1248 47.8104 73.9654 47.7935C73.8047 47.7767 73.5889 47.7659 73.4414 47.7071C73.2772 47.6422 73.1177 47.4693 73.1177 47.3948C73.1177 47.3492 73.1273 47.3035 73.2053 47.2387C73.2988 47.1594 73.5158 47.1018 73.6465 47.0838C74.0145 47.0309 74.5228 46.9901 74.6739 46.9901C75.0995 46.9901 75.44 46.9409 75.9375 46.9421C75.9927 46.9421 76.0562 46.9421 76.1246 46.9421C76.3128 46.9421 76.5262 46.9517 76.6748 47.0285C76.9506 47.1702 77.2767 47.4609 77.4229 47.9989C77.562 48.5117 77.7934 49.0461 77.9325 49.5974C77.9948 49.8436 77.9636 50.0898 78.0416 50.3336C78.1327 50.6194 78.2046 50.9052 78.2454 51.2019C78.2789 51.4493 78.2897 51.6835 78.3952 51.914C78.5043 52.1554 78.5235 52.3452 78.5667 52.6046C78.5823 52.6935 78.7069 53.0706 78.8005 53.372C78.8892 53.6506 78.9443 53.8584 79.0103 53.8584C79.1421 53.8584 79.1865 53.2075 79.2069 53.0922C79.262 52.7932 79.3148 52.4941 79.3699 52.1951C79.4838 51.5802 79.6085 50.9665 79.7332 50.3528C79.8603 49.7211 79.9718 49.0846 80.1216 48.4589C80.2463 47.9473 80.4381 47.4393 80.8062 47.0537C81.0484 46.8003 81.3888 46.6178 81.7341 46.6178C81.8708 46.6178 82.0506 46.6358 82.1933 46.7331L83.5744 46.7283C83.8394 46.7283 84.3309 46.7415 84.3309 47.0622C84.3309 47.2099 84.2961 47.2531 84.1966 47.3672C84.1139 47.4621 83.9796 47.5113 83.8561 47.5389C83.6667 47.5834 83.5444 47.5954 83.4269 47.5966C83.3538 47.5966 83.1176 47.593 82.8898 47.5894C82.9102 47.6326 82.9258 47.6782 82.933 47.7287C82.9762 47.9929 83.0097 48.2631 83.0409 48.5333C83.0733 48.8168 83.1033 49.1002 83.1392 49.3812C83.1644 49.5782 83.2255 49.7715 83.2255 49.9697C83.2255 50.0021 83.2255 50.0345 83.2231 50.0682C83.2171 50.133 83.2135 50.1967 83.2135 50.2603C83.2135 50.4549 83.2375 50.6446 83.2603 50.8476C83.2891 51.1046 83.3478 51.37 83.3514 51.6294C83.3514 51.7087 83.3334 51.7903 83.3334 51.8708C83.3334 51.9981 83.4054 52.1038 83.4317 52.2251C83.4485 52.3008 83.4569 52.3776 83.4593 52.4557C83.4677 52.613 83.4569 52.7763 83.4569 52.9445C83.4569 53.1126 83.4629 53.2735 83.4761 53.4369C83.4905 53.6182 83.5145 53.7984 83.548 53.9797C83.5768 54.1274 83.59 54.2535 83.59 54.3844C83.59 54.4637 83.5732 54.537 83.5732 54.6402C83.5732 54.7375 83.578 54.7255 83.6068 54.8084C83.6547 54.9465 83.6799 55.0582 83.6979 55.2107C83.7267 55.4461 83.753 55.6815 83.777 55.9193C83.8082 56.2219 83.8358 56.5257 83.8609 56.8272C83.8645 56.8668 83.8657 56.9065 83.8657 56.9449C83.8657 57.0554 83.8454 57.1599 83.8454 57.2643C83.8454 57.5334 83.8765 57.633 83.9041 57.7399C83.9269 57.8204 83.9341 57.896 83.9353 57.9705C83.9377 58.069 83.9281 58.1639 83.9281 58.2623C83.9281 58.32 83.9317 58.3788 83.9413 58.4413C83.964 58.5746 83.9784 58.7103 83.9784 58.8448C83.9784 58.8796 83.9784 58.9157 83.9748 58.9505C84.0636 58.9505 84.1367 58.9505 84.193 58.9505L84.1978 58.9469Z" fill="#666562"></path>
  <path d="M90.5743 54.2944C90.5719 54.2091 90.5383 54.0134 90.5251 53.9305C90.4784 53.6543 90.4304 53.4585 90.4268 53.2015C90.4172 52.6227 90.4064 52.0222 90.3741 51.4433C90.3597 51.1695 90.3165 50.8957 90.2734 50.6195C90.2242 50.312 90.1786 50.0022 90.1726 49.6851C90.1726 49.5854 90.1547 49.2071 90.1259 48.9261C90.0995 48.6595 90.0528 48.4853 89.9593 48.4853C89.8094 48.4853 89.6224 48.8276 89.6032 48.9141C89.5432 49.1279 89.4989 49.3837 89.4437 49.5998C89.4162 49.7115 89.4054 49.8184 89.3958 49.9217C89.3838 50.037 89.367 50.1487 89.3274 50.264C89.2447 50.4994 89.2267 50.7564 89.1896 50.993C89.1128 51.4866 88.9498 51.9573 88.8071 52.4293C88.7412 52.6515 88.7028 52.8785 88.6621 53.1079C88.6165 53.3649 88.5685 53.6267 88.469 53.8873C88.4283 53.993 88.3479 54.3364 88.3503 54.4649C88.3503 54.5286 88.3935 54.5286 88.4798 54.5286C88.6081 54.5286 88.8431 54.507 88.9066 54.507C89.0625 54.507 89.2099 54.4878 89.3598 54.4697C89.4773 54.4553 89.596 54.4433 89.7195 54.4433C89.843 54.4433 90.0192 54.4649 90.1894 54.4649C90.2973 54.4649 90.404 54.4649 90.4892 54.4229C90.5335 54.3929 90.5731 54.346 90.5731 54.2932M95.2955 59.4922C95.2979 59.6075 95.2128 59.6531 95.1288 59.7552C95.0509 59.8513 94.9238 59.8993 94.8051 59.9281C94.6061 59.9762 94.4611 59.9858 94.316 59.9846C94.1841 59.9846 94.0522 59.9726 93.8748 59.9726C93.8412 59.9726 93.7885 59.9726 93.7165 59.9738C93.6278 60.0134 93.5319 60.0386 93.4348 60.0626C93.3281 60.0843 93.2214 60.1047 93.1147 60.1047C92.8821 60.1047 92.6364 60.0662 92.4182 59.9894C92.2659 59.9894 92.1148 59.9894 91.9698 59.9894C91.5286 59.9894 91.1473 59.9846 90.9927 59.9678C90.8392 59.9521 90.6282 59.9473 90.488 59.8813C90.3944 59.8381 90.1738 59.7059 90.1714 59.5702C90.1679 59.3252 90.4868 59.2868 90.6762 59.258C90.7637 59.2448 90.9603 59.2352 91.2097 59.2256C91.1917 59.0851 91.1857 58.9409 91.1761 58.8521C91.1569 58.6707 91.1473 58.4858 91.1138 58.326C91.097 58.2408 91.0682 58.1687 91.067 58.069C91.0658 57.9826 91.1066 57.8577 91.1054 57.7676C91.103 57.6607 91.037 57.5971 91.0143 57.4469C90.9891 57.232 90.9232 57.0182 90.8956 56.8032C90.8716 56.6111 90.886 56.4405 90.844 56.246C90.7973 56.031 90.8081 55.8184 90.7685 55.6023C90.7445 55.4738 90.7229 55.4305 90.6378 55.4305C90.5947 55.4305 90.5311 55.4521 90.4448 55.4521C90.2302 55.4521 90.0228 55.4677 89.8166 55.4846C89.6116 55.5002 89.4078 55.517 89.2051 55.517C89.0337 55.517 88.8635 55.5374 88.692 55.5374C88.6153 55.5374 88.3899 55.5026 88.24 55.5014C88.0614 55.5014 88.0518 55.6407 88.0542 55.7608C88.0566 55.9625 87.9835 56.2268 87.9367 56.4381C87.8576 56.802 87.7941 57.1503 87.7209 57.531C87.6454 57.9213 87.486 58.6071 87.3769 59.001C87.5567 58.9926 87.7341 58.9902 87.9919 58.9902C88.2496 58.9902 88.6968 59.0022 88.7256 59.324C88.7148 59.4718 88.6956 59.5162 88.6009 59.6291C88.523 59.724 88.3959 59.7732 88.2772 59.802C88.095 59.8453 87.9787 59.8573 87.866 59.8585C87.7425 59.8585 87.6238 59.8465 87.4332 59.8465C87.1527 59.8465 86.8661 59.8645 86.5808 59.8645C86.4249 59.8645 86.2691 59.8597 86.1144 59.8429C85.961 59.8272 85.7524 59.8152 85.6097 59.7564C85.4502 59.6915 85.2944 59.5174 85.292 59.4441C85.292 59.3973 85.3016 59.3517 85.3747 59.2868C85.4634 59.2076 85.6708 59.1511 85.7967 59.1331C86.0533 59.0947 86.3146 59.079 86.5736 59.061C86.5712 59.0442 86.57 59.0286 86.57 59.0106C86.5664 58.7968 86.6276 58.5398 86.6467 58.4329C86.7235 57.9826 86.8038 57.5538 86.8805 57.1035C86.9381 56.76 86.9908 56.3949 87.0759 56.031C87.0963 55.9457 87.1766 55.6671 87.1742 55.517C87.1706 55.3452 86.7858 55.3453 86.6347 55.26C86.5053 55.1963 86.4393 55.1315 86.4393 55.045C86.4357 54.8733 86.606 54.8312 86.7978 54.788C86.9261 54.7664 87.2018 54.7424 87.3301 54.6379C87.4356 54.5526 87.4284 54.2091 87.4692 54.059C87.5915 53.6303 87.7029 53.1991 87.812 52.7932C87.9331 52.3428 88.053 51.9141 88.1525 51.4854C88.2532 51.0566 88.348 50.6279 88.4307 50.1991C88.5098 49.792 88.5733 49.3873 88.7088 48.9994C88.8515 48.5922 88.993 48.1443 89.18 47.7552L89.3658 47.3696C89.4533 47.1895 89.5073 47.0022 89.6787 46.8773C89.9748 46.6623 90.4232 46.5986 90.8093 46.5986C91.0658 46.5986 91.2157 46.6419 91.4099 46.7283C91.6053 46.8136 91.6065 46.9421 91.7384 47.1343C91.8259 47.264 91.9566 47.3697 92.0225 47.4994C92.0897 47.6495 92.0921 47.7984 92.1376 47.9497C92.2287 48.2488 92.2167 48.5922 92.2827 48.9141C92.3534 49.2576 92.4937 49.5566 92.5356 49.9001C92.586 50.3072 92.6088 50.6735 92.7059 51.059C92.7982 51.4229 92.8701 51.788 92.8965 52.1723C92.9085 52.3549 92.9445 52.5374 92.9852 52.7187C93.0392 52.9625 93.1027 53.2027 93.1315 53.4369C93.1459 53.5402 93.1735 53.7636 93.2238 53.9677C93.2658 54.1395 93.3245 54.2992 93.4036 54.3593C93.454 54.3965 93.5439 54.4049 93.6398 54.4061C93.7129 54.4061 93.7897 54.4025 93.8544 54.4025C94.0474 54.4025 94.2788 54.471 94.3939 54.6379C94.4371 54.7039 94.4599 54.746 94.4599 54.7892C94.4623 54.8529 94.4203 54.9165 94.3352 54.9814C94.2093 55.0882 94.1038 55.2179 93.9551 55.2816C93.9084 55.3044 93.8221 55.3092 93.7429 55.3188C93.6782 55.3272 93.6194 55.338 93.5907 55.3669C93.5703 55.3873 93.5703 55.4101 93.5715 55.4533C93.5715 55.5146 93.5943 55.5975 93.617 55.6851C93.6398 55.7788 93.665 55.8785 93.6662 55.9673L93.6698 56.2027C93.6722 56.288 93.6746 56.3517 93.695 56.4381C93.7417 56.6315 93.8089 56.8248 93.834 57.017C93.8568 57.2043 93.9072 57.3977 93.9527 57.5911C94.0007 57.794 94.0426 57.9982 94.0462 58.1963C94.0522 58.475 94.075 58.6251 94.1433 58.8821C94.1625 58.9565 94.1829 59.037 94.1961 59.1211C94.3508 59.1163 94.5114 59.1151 94.6936 59.1151C95.0006 59.1151 95.2919 59.2604 95.2955 59.491V59.4922Z" fill="#666562"></path>
  <path d="M102.584 53.6074C102.584 53.3949 102.561 52.9745 102.518 52.5002C102.469 51.9513 102.409 51.5442 102.397 51.4373C102.308 50.6555 102.19 49.9925 101.974 49.2323C101.917 49.033 101.933 48.6643 101.254 48.0734C101.114 47.9509 100.512 47.8044 100.108 47.8044C99.8733 47.8044 99.7462 47.8548 99.703 47.9869C99.6683 48.0974 99.6718 48.5202 99.6623 49.0558C99.6431 50.2231 99.6419 51.9345 99.6155 52.1867C99.6011 52.3332 99.5951 52.4833 99.5951 52.6323C99.5951 52.9085 99.6131 53.1859 99.6239 53.4585C99.6371 53.8284 99.6455 54.1983 99.6515 54.567C99.6563 54.8805 99.6587 55.1951 99.6587 55.5086C99.6587 55.9325 99.7006 56.8404 99.685 57.2656C99.679 57.4229 99.6467 57.5874 99.6467 57.7436C99.6467 57.8396 99.5819 58.4377 99.5819 58.7536C99.5819 58.8593 99.5999 58.9205 99.7222 58.9205C99.8697 58.9205 99.9644 58.9205 100.028 58.9241C100.215 58.9301 100.147 58.9421 100.445 58.9421C100.548 58.9421 100.89 58.7127 100.989 58.6911C101.052 58.6779 101.227 58.5938 101.288 58.5578C101.431 58.4725 101.511 58.2888 101.586 58.1519C101.699 57.9513 101.807 57.746 101.903 57.5358C102.073 57.1599 102.199 57.1635 102.291 56.2808C102.344 55.7896 102.476 55.3308 102.519 54.8877C102.566 54.4313 102.582 54.0014 102.582 53.6062M105.021 53.581C105.021 53.6543 105.063 53.8645 105.063 53.9882C105.063 54.1611 104.971 54.31 104.943 54.4769C104.917 54.6535 104.939 54.8384 104.917 55.0162C104.909 55.0966 104.856 55.2348 104.815 55.3789C104.778 55.505 104.758 55.6347 104.716 55.7319C104.641 55.9061 104.618 56.1103 104.58 56.3C104.545 56.485 104.506 56.6675 104.429 56.8404C104.359 57.0014 104.246 57.1155 104.141 57.2752C104.063 57.3905 104.056 57.5226 103.977 57.6379C103.88 57.7772 103.691 58.1171 103.587 58.2564C103.162 58.8388 102.772 59.0983 102.483 59.3192C102.284 59.473 102.024 59.5666 101.744 59.6387C101.499 59.7047 101.239 59.7576 100.991 59.7576C100.78 59.7576 100.584 59.6855 100.4 59.6855C99.8445 59.6855 100.051 59.7336 99.4872 59.736C99.4165 59.9029 99.3266 60.0038 99.1695 60.065C99.0736 60.1023 98.9645 60.1095 98.8578 60.1311C98.7511 60.1527 98.642 60.1647 98.5305 60.1827C98.4682 60.1923 98.3375 60.2115 98.2728 60.2115C98.1301 60.2115 97.9323 60.1251 97.8915 60.0963C97.7752 60.0182 97.6625 59.9269 97.5187 59.82C97.4767 59.7876 97.4347 59.754 97.3964 59.7167C97.2417 59.7216 97.37 59.736 97.1122 59.7348C96.9504 59.7348 96.7885 59.7288 96.6279 59.7143C96.4672 59.6975 96.2514 59.6867 96.104 59.6279C95.9397 59.5642 95.7803 59.3949 95.7803 59.3228C95.7803 59.1919 95.7899 59.1463 95.8678 59.0826C95.9613 59.0058 96.1783 58.9493 96.309 58.9313C96.5356 58.9001 96.8341 58.8761 97.0655 58.8593C97.0391 58.6911 97.0391 58.5146 97.0391 58.3428C97.0391 57.4721 97.0091 56.6183 97.0091 55.7524C97.0091 55.4077 97.0583 54.5622 97.0799 53.3024C97.0967 52.4041 97.1182 51.5082 97.1182 50.6038C97.1182 50.1066 97.1278 49.5038 97.1554 48.8997C97.171 48.5526 97.2081 48.2091 97.2249 47.8608C97.1998 47.8608 97.1638 47.8632 97.1158 47.8632C96.954 47.8632 96.7921 47.8572 96.6303 47.8404C96.4708 47.8248 96.255 47.814 96.1076 47.7563C95.9433 47.6915 95.7827 47.5222 95.7827 47.4501C95.7827 47.4057 95.7935 47.2748 95.8714 47.2099C95.9649 47.133 96.1819 47.0778 96.3138 47.0586C96.671 47.0081 97.0595 46.9685 97.3136 46.9661C97.34 46.9037 97.3892 46.8496 97.4263 46.8088C97.4899 46.7391 97.6517 46.6695 97.7369 46.6298C97.8412 46.5818 97.9479 46.5458 98.0606 46.5266C98.1565 46.5097 98.2548 46.5013 98.3543 46.5013C98.4862 46.5013 98.6192 46.5158 98.7451 46.5494C98.9789 46.6082 99.1515 46.7415 99.2774 46.9229C99.4045 46.9169 99.5304 46.9133 99.6623 46.9133C100.044 46.9133 100.397 47.0226 101.016 47.0226C101.367 47.0226 101.675 47.2087 102.023 47.2087C102.19 47.2087 102.395 47.2207 102.542 47.3048C102.698 47.3937 102.819 47.557 102.956 47.6723C103.074 47.7744 103.221 47.8584 103.302 47.9941C103.375 48.1142 103.39 48.2499 103.478 48.3652C103.586 48.5045 103.702 48.5994 103.979 48.77C104.159 48.8817 104.083 49.1519 104.187 49.338C104.403 49.7259 104.78 50.1475 104.883 50.539C104.983 50.9101 105.019 51.2331 105.019 51.6114C105.019 51.8648 105.004 52.1158 105.004 52.3693C105.004 52.5518 105.019 52.7199 105.057 52.8953C105.069 52.9517 105.075 53.0034 105.075 53.0538C105.078 53.2279 105.02 53.3721 105.02 53.5774" fill="#666562"></path>
  <path d="M113.305 58.7404C113.369 58.7836 113.408 58.8472 113.408 58.9385C113.408 59.1151 113.279 59.276 113.137 59.3697C112.99 59.4693 112.805 59.4886 112.635 59.521C112.248 59.5894 111.858 59.599 111.472 59.6615C111.282 59.6927 111.092 59.7287 110.899 59.754C110.756 59.772 110.36 59.7768 110.098 59.7804C110.005 59.7972 109.932 59.8164 109.858 59.8176H109.633C109.564 59.9257 109.474 59.9978 109.338 60.0458C109.233 60.083 109.112 60.0914 108.994 60.1131C108.877 60.1335 108.756 60.1455 108.634 60.1635C108.565 60.1731 108.42 60.1911 108.348 60.1911C108.192 60.1911 107.971 60.1047 107.927 60.077C107.801 59.999 107.679 59.9125 107.523 59.8056C107.401 59.8056 107.317 59.8056 107.286 59.8056C107.004 59.8056 107.21 59.8248 106.925 59.8248C106.769 59.8248 106.613 59.8188 106.458 59.802C106.305 59.7852 106.096 59.7744 105.955 59.7155C105.798 59.6507 105.643 59.4129 105.643 59.3396C105.643 59.294 105.654 59.2484 105.728 59.1823C105.819 59.1043 106.027 59.0466 106.153 59.0274C106.436 58.9878 106.752 58.9517 107.032 58.9397C107.02 58.6251 107.028 58.1807 107.028 57.7231C107.028 57.0314 107.002 56.3072 106.997 56.1054C106.994 56.0058 106.991 55.3933 106.969 54.9825C106.948 54.5838 106.94 54.1851 106.936 53.7852C106.933 53.6291 106.924 53.4717 106.924 53.3144C106.924 53.0754 106.972 52.84 106.973 52.6022C106.973 52.4281 106.956 52.2552 106.956 52.0822C106.956 51.8636 106.98 51.6463 107.01 51.4301C107.063 51.047 107.12 50.6615 107.131 50.2736C107.141 49.8448 107.129 49.4173 107.13 48.9873C107.13 48.6499 107.138 48.3112 107.172 47.9725C107.04 47.9785 107.142 47.9905 106.906 47.9905C106.75 47.9905 106.593 47.9845 106.439 47.9689C106.285 47.9521 106.077 47.9413 105.935 47.8824C105.777 47.8176 105.624 47.5798 105.624 47.5053C105.624 47.4597 105.634 47.4141 105.709 47.3492C105.799 47.27 106.008 47.2123 106.134 47.1943C106.472 47.1451 107.033 47.1042 107.287 47.1006C107.289 47.0934 107.292 47.0862 107.293 47.079C107.316 47.0033 107.396 46.9637 107.457 46.9229C107.606 46.8256 107.781 46.792 107.95 46.7463C108.076 46.7127 108.221 46.6803 108.359 46.6791C108.41 46.6791 108.459 46.6827 108.507 46.6935C108.586 46.7091 108.657 46.7535 108.73 46.7848C108.817 46.822 108.907 46.8496 108.998 46.8748C109.175 46.9253 109.342 47.0129 109.52 47.055C109.58 47.0706 109.643 47.0742 109.704 47.0742C109.824 47.0742 109.946 47.0574 110.06 47.055C110.255 47.0502 110.878 47.0526 111.072 47.0574C111.252 47.0634 111.434 47.0706 111.615 47.0862C111.823 47.103 112.03 47.127 112.236 47.1607C112.361 47.1811 112.486 47.2039 112.61 47.2327C112.681 47.1547 112.761 47.0994 112.805 47.0994C112.85 47.0994 112.896 47.109 112.962 47.1847C113.04 47.2748 113.137 47.4573 113.148 47.5846C113.201 48.1539 113.179 47.8981 113.209 48.2499C113.249 48.6931 113.257 48.6907 113.257 49.1687C113.257 49.4161 113.245 49.8977 112.95 49.8977C112.781 49.8977 112.739 49.8688 112.62 49.7668C112.525 49.6875 112.477 49.559 112.448 49.4401C112.405 49.2575 112.393 49.1399 112.392 49.027C112.392 48.9033 112.404 48.7856 112.404 48.5946C112.404 48.4037 112.417 48.2211 112.404 48.0362C112.237 48.071 112.063 48.0902 111.895 48.0902C111.675 48.0902 111.463 48.0998 111.246 48.1286C111.048 48.1563 110.85 48.1803 110.224 48.2043C110.132 48.2091 110.04 48.2271 109.948 48.2403C109.873 48.2523 109.79 48.2656 109.742 48.3328C109.698 48.3941 109.704 48.4829 109.703 48.5574C109.701 48.6583 109.721 48.7555 109.731 48.8552C109.751 49.0486 109.753 49.2431 109.758 49.4377C109.76 49.5734 109.761 49.7115 109.761 49.8484C109.761 50.0958 109.758 50.3444 109.751 50.5906C109.745 50.7804 109.711 50.9677 109.705 51.1575C109.7 51.3532 109.703 51.5478 109.699 51.7423C109.699 51.8396 109.694 51.9357 109.689 52.0342C109.687 52.1002 109.664 52.2035 109.694 52.266C109.724 52.3296 109.805 52.3284 109.864 52.3332C109.96 52.3428 110.056 52.3572 110.151 52.3584C110.755 52.374 110.934 52.374 111.109 52.4041C111.276 52.4317 111.446 52.4509 111.615 52.4569C111.615 52.4209 111.615 52.3849 111.615 52.3476C111.615 52.1927 111.62 52.0366 111.638 51.8805C111.653 51.7279 111.665 51.519 111.724 51.376C111.789 51.2187 111.961 51.0638 112.036 51.0638C112.082 51.0638 112.128 51.0746 112.193 51.1491C112.272 51.2403 112.328 51.4481 112.346 51.5742C112.399 51.9285 112.41 52.2924 112.441 52.6443C112.479 53.0862 112.489 53.2976 112.489 53.778C112.489 54.0254 112.477 54.507 112.182 54.507C112.013 54.507 111.971 54.4769 111.851 54.3761C111.756 54.2956 111.707 54.1671 111.678 54.0494C111.635 53.8656 111.622 53.748 111.622 53.6351C111.622 53.527 111.632 53.4225 111.634 53.27C111.242 53.2892 110.679 53.3012 109.934 53.2928C109.761 53.2928 109.676 53.3877 109.668 53.5582C109.656 53.7492 109.657 53.9389 109.639 54.1311C109.632 54.2031 109.628 54.274 109.628 54.3448C109.628 54.4577 109.637 54.5694 109.646 54.6835C109.661 54.8444 109.691 55.0018 109.691 55.1615C109.691 55.3212 109.673 55.4713 109.673 55.6251C109.673 55.8821 109.728 56.1259 109.73 56.3805C109.736 56.7696 109.723 57.1575 109.743 57.5442C109.753 57.7376 109.777 57.9261 109.824 58.1135C109.861 58.26 109.814 58.6215 109.941 58.7091C109.992 58.7428 110.133 58.7536 110.409 58.7536C110.663 58.7536 110.979 58.7307 111.13 58.7307C111.369 58.7307 111.612 58.7812 111.852 58.7812C112.109 58.7812 112.265 58.7091 112.496 58.6743C112.502 58.4785 112.51 58.2852 112.51 58.093C112.51 57.9009 112.497 57.7844 112.498 57.6595C112.498 57.5466 112.512 57.4277 112.556 57.2464C112.584 57.1275 112.633 57.0002 112.729 56.9197C112.848 56.8176 112.89 56.7888 113.059 56.7888C113.353 56.7888 113.365 57.2704 113.365 57.5178C113.365 57.997 113.356 58.2083 113.317 58.6515C113.314 58.6875 113.311 58.7175 113.308 58.7416L113.305 58.7404Z" fill="#666562"></path>
  <path d="M122.994 49.3849C122.994 49.3153 122.994 49.206 122.987 49.0871C122.97 48.8505 122.793 48.5611 122.581 48.3041C122.497 48.2032 122.407 48.1227 122.312 48.0567C122.173 47.9594 122.025 47.8981 121.873 47.8573C121.576 47.7792 121.269 47.7792 121.051 47.7852L120.54 47.802C120.533 48.0615 120.527 48.429 120.54 48.8913C120.557 49.4882 120.619 50.1824 120.635 50.7937C120.658 51.5887 120.675 52.1808 120.675 52.3021C120.675 52.5206 120.731 52.7296 120.703 52.9458C120.699 52.9854 120.696 53.0178 120.696 53.0467C120.696 53.1812 120.751 53.2052 120.857 53.2052C120.92 53.2052 121.004 53.1944 121.104 53.1944C121.222 53.1944 121.3 53.2028 121.419 53.2028C121.67 53.2028 122.078 53.1043 122.261 52.8929C122.407 52.7224 122.494 52.6227 122.571 52.3933C122.636 52.194 122.688 51.9886 122.74 51.8037C122.816 51.5443 122.866 51.4001 122.901 51.1455C122.936 50.8813 122.95 50.8105 122.95 50.545C122.95 50.1908 122.966 50.3109 122.98 49.9926C122.992 49.7188 122.997 49.6611 122.996 49.3861M125.821 59.3481C125.936 59.4274 126.116 59.5271 126.109 59.6592C126.108 59.6976 126.095 59.7396 126.061 59.7829C125.959 59.9186 125.755 59.9582 125.59 59.9582C125.089 59.9582 124.385 59.6051 124.04 59.2544C123.695 58.9038 123.475 58.5014 123.238 58.0739C123.111 57.8481 123.004 57.6163 122.9 57.3833C122.805 57.1708 122.721 56.9534 122.664 56.7204C122.604 56.4742 122.533 56.2316 122.455 55.9914C122.373 55.7392 122.282 55.4906 122.184 55.2408C122.112 55.0547 122.023 54.8073 121.936 54.5719C121.843 54.3281 121.743 54.2212 121.565 54.0927C121.442 54.0038 121.293 53.9978 121.194 53.9822C121.11 53.9702 120.974 53.9786 120.845 53.9786C120.797 53.9786 120.779 54.0266 120.779 54.0795C120.779 54.226 120.811 54.483 120.81 54.5419C120.808 54.8025 120.757 55.0595 120.757 55.3201C120.757 55.7284 120.859 55.9302 120.859 56.3409C120.859 56.8345 120.778 57.3341 120.73 57.8277C120.714 57.991 120.682 58.164 120.682 58.3309C120.682 58.4234 120.695 58.5303 120.712 58.6407C121.011 58.6347 121.26 58.6287 121.413 58.6287C121.672 58.6287 122.171 58.642 122.171 59.0142C122.171 59.1908 122.143 59.2304 122.035 59.3541C121.951 59.4478 121.82 59.497 121.695 59.5259C121.497 59.5727 121.371 59.5823 121.248 59.5823C121.158 59.5823 120.828 59.5799 120.448 59.5775C120.238 59.7192 119.964 59.8189 119.744 59.8453C119.608 59.8609 119.494 59.8849 119.375 59.8849C119.301 59.8849 119.224 59.8765 119.14 59.8513C118.952 59.7925 118.777 59.7024 118.624 59.5787C118.431 59.5835 118.235 59.5895 118.066 59.5895C117.897 59.5895 117.741 59.5847 117.579 59.5667C117.42 59.5511 117.203 59.4538 117.055 59.395C116.892 59.3301 116.731 59.156 116.731 59.0827C116.731 59.0359 116.743 58.9914 116.82 58.9254C116.915 58.8473 117.131 58.7897 117.263 58.7717C117.535 58.7332 117.93 58.7008 118.181 58.6864C118.162 58.5639 118.147 58.4426 118.135 58.3249C118.119 58.176 118.08 57.172 118.08 56.8237C118.08 56.413 118.114 55.9686 118.114 55.5711C118.114 55.1075 118.074 54.6463 118.074 54.1828C118.074 53.664 118.086 53.1475 118.101 52.6299C118.119 52.0859 118.14 51.5394 118.163 50.993C118.183 50.4706 118.202 50.3553 118.202 49.8329C118.202 49.5963 118.192 49.3597 118.193 49.1231C118.193 48.8733 118.243 48.6355 118.246 48.3881C118.246 48.2596 118.218 48.0903 118.206 47.9257C118.18 47.9257 118.138 47.9281 118.068 47.9281C117.905 47.9281 117.743 47.9221 117.583 47.9065C117.422 47.8885 117.206 47.8777 117.058 47.8201C116.894 47.7552 116.734 47.5595 116.734 47.485C116.734 47.4394 116.746 47.3937 116.823 47.3289C116.917 47.2496 117.133 47.1932 117.265 47.1751C117.633 47.1223 117.989 47.0803 118.262 47.0803C118.28 47.037 118.307 47.001 118.345 46.9782C118.43 46.9277 118.547 46.8785 118.683 46.8197C118.779 46.7776 118.901 46.7128 119.002 46.6864C119.064 46.6707 119.206 46.6611 119.329 46.6611C119.486 46.6611 119.733 46.7092 119.937 46.78C120.143 46.8521 120.309 46.9037 120.386 46.9962C120.642 46.9866 120.798 46.9746 121.01 46.9746C121.245 46.9746 121.467 46.9938 121.78 46.9938C121.853 46.9938 122.017 46.9722 122.165 46.9722C122.376 46.9722 122.674 47.0911 123.089 47.198C123.269 47.2436 123.422 47.3433 123.565 47.4442C123.657 47.509 123.88 47.6387 124.091 47.7792C124.306 47.9221 124.51 48.0747 124.553 48.1792C124.639 48.3857 124.891 48.5707 124.982 48.7748C125.094 49.0246 125.128 49.2984 125.146 49.5723C125.16 49.7776 125.224 49.9254 125.224 50.0046C125.224 50.0587 125.224 50.1091 125.224 50.1619C125.224 50.2448 125.288 50.3697 125.288 50.4814C125.288 50.6087 125.256 50.748 125.239 50.8681C125.211 51.0675 125.211 51.1732 125.163 51.4194C125.118 51.6547 125.048 51.8805 124.926 52.0414C124.863 52.1243 124.774 52.1591 124.724 52.254C124.686 52.3273 124.688 52.4041 124.636 52.4786C124.553 52.5987 124.388 52.8089 124.277 52.8869C124.199 52.941 124.118 52.9362 124.042 53.0142C123.963 53.0959 123.902 53.1836 123.813 53.2592C123.674 53.3805 123.546 53.5511 123.385 53.6363C123.25 53.7096 123.123 53.7072 123.132 53.9102C123.141 54.0795 123.558 54.3065 123.63 54.4614C123.769 54.758 123.961 54.9946 124.076 55.2961C124.173 55.5543 124.262 55.8149 124.344 56.0791C124.457 56.4382 124.555 56.8045 124.643 57.178C124.732 57.5587 124.957 57.9046 125.088 58.2769C125.162 58.4882 125.25 58.6912 125.366 58.8725C125.483 59.0563 125.631 59.2196 125.821 59.3481Z" fill="#666562"></path>
  <path d="M131.195 58.9542C131.461 58.9542 131.981 58.9674 131.951 59.2881C131.937 59.4346 131.915 59.479 131.816 59.5931C131.733 59.688 131.599 59.7372 131.476 59.7648C131.287 59.8081 131.165 59.8213 131.047 59.8213C130.99 59.8213 130.608 59.8069 130.209 59.8129C129.717 59.8213 129.187 59.8513 129.078 59.8513C128.786 59.8513 128.293 59.8285 127.996 59.8285C127.833 59.8285 127.671 59.8225 127.511 59.8057C127.35 59.7889 127.134 59.778 126.987 59.7192C126.824 59.6543 126.663 59.4802 126.663 59.4069C126.663 59.3613 126.674 59.3157 126.752 59.2496C126.845 59.1716 127.062 59.1139 127.193 59.0959C127.561 59.0431 127.989 59.0022 128.139 59.0022C128.188 59.0022 128.26 59.0022 128.347 58.9998C128.205 58.8725 128.103 58.7224 128.103 58.5398C128.103 58.433 128.087 58.3453 128.062 58.242C128.045 58.1748 128.039 58.1099 128.039 58.0438C128.039 57.9826 128.044 57.9214 128.048 57.8577C128.056 57.6788 128.061 57.4998 128.061 57.3209C128.061 57.2476 128.061 57.1744 128.06 57.1011C128.042 56.1079 128.092 55.1183 128.068 54.1263C128.055 53.6003 128.068 53.0779 128.086 52.5542C128.1 52.1015 128.117 51.6463 128.12 51.1936C128.12 50.945 128.12 50.6964 128.12 50.4466C128.12 50.1343 128.12 49.8209 128.12 49.5098C128.12 49.069 128.106 48.6271 128.12 48.1875C128.12 48.1227 128.126 48.059 128.132 47.9942C128.09 47.9942 128.043 47.9954 127.996 47.9954C127.833 47.9954 127.671 47.9894 127.509 47.9738C127.351 47.957 127.134 47.9461 126.987 47.8873C126.822 47.8224 126.662 47.6483 126.662 47.5762C126.662 47.5306 126.639 47.4718 126.709 47.3973C126.78 47.3192 127.039 47.2832 127.171 47.264C127.519 47.216 127.982 47.1751 128.159 47.1715C128.157 47.1319 128.153 47.0947 128.153 47.0586C128.153 46.9638 128.169 46.8773 128.22 46.8208C128.284 46.7512 128.423 46.7031 128.509 46.6635C128.612 46.6155 128.72 46.5794 128.833 46.559C128.929 46.5434 129.027 46.5338 129.127 46.5338C129.259 46.5338 129.392 46.5494 129.518 46.5819C129.83 46.6611 130.089 46.8617 130.242 47.1355C130.659 47.1295 131.022 47.1223 131.195 47.1223C131.46 47.1223 131.982 47.1355 131.951 47.455C131.937 47.6027 131.915 47.6459 131.817 47.7612C131.733 47.8561 131.6 47.9041 131.476 47.9329C131.287 47.9762 131.165 47.9882 131.047 47.9894C131.005 47.9894 130.763 47.9894 130.45 47.9858L130.455 48.0254C130.49 48.2692 130.532 48.5118 130.563 48.7556C130.597 48.997 130.614 49.2384 130.614 49.4822C130.614 49.726 130.601 49.9458 130.601 50.1871C130.601 50.306 130.579 50.4189 130.579 50.5414C130.579 50.6399 130.595 50.736 130.611 50.8345C130.684 51.3209 130.68 51.8265 130.697 52.3189C130.718 52.8677 130.727 53.4153 130.738 53.9642C130.746 54.4121 130.755 54.8589 130.769 55.3045C130.784 55.8029 130.865 56.2977 130.877 56.7961C130.883 57.0338 130.894 57.2728 130.901 57.5118C130.908 57.7652 130.909 58.0198 130.893 58.2732C130.877 58.4966 130.869 58.7488 130.788 58.9602C130.962 58.9578 131.104 58.9566 131.192 58.9566L131.195 58.9542Z" fill="#666562"></path>
  <path d="M141.034 54.316C141.034 54.5106 140.82 54.6523 140.661 54.7279C140.431 54.8384 140.082 54.8913 139.833 54.9225C139.61 54.9489 139.472 54.9633 139.472 55.1735C139.472 55.3296 139.507 55.7007 139.507 55.8292C139.507 55.9013 139.507 56.4021 139.509 56.4741C139.514 56.6099 139.518 56.7612 139.521 56.9173C139.531 57.4133 139.536 58.0186 139.551 58.218C139.584 58.6311 139.599 58.8437 139.59 59.258C139.586 59.4754 139.593 60.0782 139.25 60.0782C139.102 60.0782 139.038 60.0422 138.924 59.9449C138.829 59.8645 138.782 59.736 138.755 59.6171C138.72 59.4682 138.71 59.3625 138.71 59.2676C138.71 59.1079 138.741 58.9782 138.74 58.726V58.6731C138.618 59.0826 138.358 59.4225 138.003 59.6975C137.5 60.0866 137.123 60.2632 136.489 60.2632C136.107 60.2632 135.724 60.1995 135.368 60.0794C134.949 59.9365 134.607 59.7059 134.317 59.4189C133.898 59.0046 133.59 58.4738 133.312 57.9273C133.096 57.507 132.983 57.0758 132.902 56.6327C132.847 56.3288 132.807 56.019 132.763 55.7031C132.719 55.3957 132.736 55.1819 132.736 54.9045C132.736 53.8236 133.012 52.7355 133.287 51.5478C133.411 51.0122 133.535 50.4621 133.705 49.9289C133.888 49.3608 134.121 48.812 134.46 48.322C134.753 47.8981 135.091 47.4417 135.483 47.1042C135.666 46.9481 135.861 46.8472 136.089 46.7812C136.377 46.6971 136.628 46.5446 136.935 46.5338C136.988 46.5326 137.032 46.5314 137.072 46.5314C137.209 46.5314 137.292 46.5434 137.499 46.5746C137.749 46.6142 137.991 46.6851 138.187 46.8004C138.361 46.9049 138.493 47.0562 138.593 47.2291C138.605 47.103 138.621 46.9673 138.669 46.8676C138.704 46.7968 138.723 46.7463 138.799 46.6647C138.838 46.625 138.922 46.559 138.984 46.559C139.046 46.559 139.117 46.6335 139.14 46.6671C139.213 46.7788 139.273 46.9457 139.29 47.073C139.311 47.2255 139.321 47.5786 139.329 47.9569C139.339 48.4529 139.343 48.9933 139.359 49.1939C139.392 49.607 139.406 49.8184 139.399 50.2339C139.393 50.4501 139.401 51.053 139.058 51.053C138.91 51.053 138.845 51.017 138.732 50.9209C138.639 50.8392 138.586 50.7119 138.562 50.5918C138.541 50.4729 138.535 50.3697 138.535 50.2616C138.535 50.1066 138.548 49.9433 138.549 49.7115C138.536 49.5794 138.521 49.4449 138.506 49.3104C138.475 49.0174 138.424 48.7231 138.38 48.4385C138.338 48.1707 138.222 47.9089 138.062 47.6639C137.953 47.4933 137.677 47.4237 137.48 47.4237C137.197 47.4237 137.026 47.5618 136.89 47.7888C136.758 48.011 136.561 48.1923 136.474 48.4385C136.385 48.6919 136.335 48.9801 136.312 49.2467C136.287 49.5266 136.239 49.7512 136.161 50.019C136.076 50.3096 136.055 50.6255 135.998 50.9221C135.945 51.1911 135.919 51.4601 135.893 51.7315C135.871 51.9849 135.795 52.2275 135.768 52.4809C135.738 52.7704 135.699 53.0562 135.662 53.3432C135.627 53.6171 135.592 53.8921 135.566 54.1683C135.542 54.4121 135.509 54.6583 135.509 54.9045C135.509 55.2528 135.554 55.5962 135.568 55.9445C135.588 56.4141 135.736 56.8885 135.825 57.3497C135.86 57.5322 135.899 57.7183 135.951 57.8997C136.017 58.1351 136.104 58.3633 136.235 58.5698C136.423 58.8665 136.751 59.2063 137.129 59.2051C137.445 59.2027 137.686 58.9541 137.851 58.7103C138.109 58.3296 138.252 57.9033 138.337 57.4625C138.412 57.0758 138.443 56.6771 138.47 56.2856C138.488 56.0154 138.496 55.6371 138.497 55.3657C138.497 55.3176 138.499 55.2648 138.499 55.2143C138.499 55.0078 138.49 54.9441 138.195 54.9441C137.958 54.9441 137.703 54.9777 137.452 54.9777C137.234 54.9777 137.02 54.9513 136.827 54.8553C136.747 54.8144 136.701 54.7676 136.698 54.7123C136.695 54.6691 136.718 54.6199 136.77 54.5622C136.887 54.4337 137.011 54.4145 137.141 54.3484C137.403 54.2175 137.704 54.1851 138.012 54.1359C138.29 54.0926 138.573 54.0698 138.834 54.0482C139.049 54.0314 139.265 54.023 139.48 54.023C139.805 54.023 140.314 53.993 140.521 53.993C140.76 53.993 141.031 54.0734 141.031 54.3172" fill="#666562"></path>
  <path d="M150.583 58.9553C150.842 58.9553 151.342 58.9674 151.342 59.2628C151.342 59.4321 151.31 59.4742 151.204 59.5943C151.122 59.6891 150.989 59.7384 150.865 59.7672C150.666 59.8128 150.54 59.8236 150.419 59.8236C150.185 59.8236 148.38 59.8116 148.188 59.8104C147.897 59.8104 148.11 59.8296 147.813 59.8296C147.651 59.8296 147.489 59.8236 147.328 59.808C147.169 59.7912 146.952 59.7804 146.805 59.7216C146.642 59.6567 146.481 59.4826 146.481 59.4093C146.481 59.3625 146.492 59.3168 146.57 59.252C146.663 59.1727 146.88 59.1163 147.011 59.0971C147.343 59.0502 147.641 59.0118 147.807 59.0046C147.656 58.8893 147.567 58.7764 147.545 58.5278C147.502 58.0558 147.492 57.5802 147.492 57.1059C147.492 56.6555 147.501 56.2039 147.501 55.7548C147.501 55.4629 147.498 55.1723 147.484 54.8829C147.471 54.579 147.451 54.2776 147.462 53.9749C147.464 53.8729 147.496 53.7095 147.498 53.575C147.498 53.4802 147.482 53.3985 147.428 53.3613C147.394 53.3384 147.333 53.33 147.255 53.33C147.036 53.33 146.694 53.4009 146.578 53.4105C146.396 53.4273 146.215 53.4441 145.606 53.4441C145.31 53.4441 145.161 53.3889 145.09 53.3889C145.04 53.3889 145.006 53.3949 145.006 53.491C145.006 53.6291 145.007 53.754 145.007 53.8753C145.007 54.035 145.005 54.1887 144.991 54.3569C144.979 54.4986 144.974 54.6403 144.974 54.7844C144.974 55.0102 144.985 55.2372 144.998 55.4629C144.998 55.4942 145 55.5242 145 55.5542C145 55.7716 144.962 55.9746 144.962 56.1907C144.962 56.4285 144.949 56.6651 144.936 56.9017C144.924 57.1323 144.91 57.3605 144.91 57.5899C144.91 57.9117 144.855 58.1675 144.854 58.4918C144.854 58.6467 144.888 58.8004 144.906 58.9553C145.171 58.965 145.523 59.013 145.523 59.2592C145.523 59.4285 145.492 59.4706 145.386 59.5919C145.304 59.6867 145.169 59.736 145.047 59.7648C144.859 59.8092 144.738 59.8212 144.62 59.8224C144.613 59.826 144.607 59.8309 144.6 59.8357C144.503 59.8909 144.464 59.8753 144.379 59.9449C144.298 60.0098 144.33 60.0818 144.226 60.1335C144.167 60.1647 144.086 60.1755 143.998 60.1755C143.705 60.1755 143.521 60.0963 143.37 59.9786C143.305 59.9293 143.247 59.8729 143.19 59.8128C142.905 59.8104 142.672 59.8092 142.606 59.8092C142.312 59.8092 142.527 59.8284 142.231 59.8284C142.068 59.8284 141.906 59.8224 141.744 59.8056C141.586 59.79 141.369 59.778 141.221 59.7192C141.057 59.6543 140.896 59.4802 140.896 59.4069C140.896 59.3613 140.908 59.3156 140.986 59.2496C141.08 59.1715 141.296 59.1151 141.428 59.0971C141.693 59.0586 142.094 59.0262 142.352 59.0118C142.338 58.9565 142.332 58.9013 142.332 58.8437C142.332 58.738 142.351 58.6263 142.356 58.505C142.365 58.2792 142.368 58.0534 142.369 57.8276C142.369 57.5766 142.365 57.3256 142.365 57.0758C142.365 56.7552 142.365 56.4333 142.365 56.1115C142.365 55.6755 142.365 55.2384 142.371 54.8012C142.376 54.5082 142.378 54.2127 142.371 53.9197C142.371 53.844 142.374 53.7624 142.374 53.6807C142.374 53.6075 142.358 53.4501 142.358 53.3829C142.358 53.2928 142.345 53.2616 142.231 53.2424C142.161 53.2328 141.907 53.2075 141.732 53.1751C141.492 53.1307 141.245 53.061 141.245 52.9361C141.245 52.8893 141.28 52.8352 141.363 52.7716C141.464 52.6935 141.576 52.6539 141.691 52.6287C141.812 52.6022 141.938 52.5902 142.062 52.5686C142.254 52.5326 142.257 52.5434 142.329 52.4317C142.35 52.4017 142.356 52.3404 142.356 52.2696C142.356 51.7856 142.35 51.2884 142.35 50.79C142.35 49.9349 142.369 49.0714 142.472 48.2367C142.487 48.1094 142.495 47.9605 142.505 47.808C142.371 47.8116 142.433 47.8164 142.184 47.8164H142.065C141.96 47.8164 141.868 47.8164 141.748 47.8032C141.588 47.7864 141.372 47.7744 141.224 47.7167C141.06 47.6519 140.9 47.4777 140.9 47.4045C140.9 47.3576 140.92 47.3 140.989 47.2255C141.061 47.1463 141.277 47.0898 141.408 47.0718C141.776 47.019 142.306 46.9985 142.456 46.9985H142.652C142.769 46.7223 142.986 46.5242 143.405 46.5242C143.719 46.5242 144.003 46.6899 144.207 46.9613C144.428 46.9553 144.621 46.9517 144.769 46.9517C145.028 46.9517 145.612 46.9637 145.612 47.2616C145.612 47.4285 145.495 47.4717 145.39 47.5906C145.307 47.6855 145.173 47.7347 145.051 47.7624C144.861 47.8068 144.738 47.8188 144.621 47.8188H144.474C144.482 47.8512 144.492 47.8837 144.503 47.9149C144.621 48.2476 144.66 48.5706 144.698 48.9273C144.735 49.254 144.75 49.583 144.786 49.9109C144.819 50.2147 144.873 50.5174 144.902 50.82C144.912 50.9197 144.913 51.0254 144.913 51.1263V51.2223C144.913 51.3905 144.915 51.5598 144.952 51.7195C144.974 51.8144 145.04 51.8913 145.058 51.9886C145.06 52.0018 145.061 52.0174 145.061 52.0342C145.061 52.081 145.054 52.1339 145.053 52.1831C145.053 52.2984 145.084 52.3224 145.224 52.3224C145.468 52.3224 146.353 52.2408 146.445 52.2336C146.626 52.2179 146.818 52.2275 147.007 52.2275C147.123 52.2275 147.237 52.2095 147.349 52.2095C147.48 52.2095 147.575 52.1651 147.575 52.0018C147.575 51.8384 147.541 51.5862 147.54 51.5118C147.536 51.1539 147.551 50.7984 147.58 50.4429C147.585 50.3745 147.613 50.0358 147.638 49.6587C147.658 49.3248 147.677 48.9621 147.679 48.7279C147.679 48.5766 147.65 48.3616 147.65 48.2488C147.65 48.083 147.646 48.035 147.645 47.9125C147.541 47.9089 147.436 47.9029 147.332 47.8921C147.173 47.8753 146.956 47.8644 146.808 47.8056C146.645 47.7407 146.528 47.5666 146.528 47.4945C146.528 47.4477 146.537 47.4021 146.615 47.336C146.71 47.2568 146.884 47.2003 147.014 47.1823C147.254 47.1487 147.506 47.1271 147.694 47.1186C147.731 47.049 147.794 47.0094 147.867 47.0094C148.012 47.0094 148.217 46.9505 148.247 46.9493C148.278 46.9457 148.313 46.9445 148.346 46.9445C148.478 46.9445 148.622 46.9637 148.743 46.9985C148.815 47.0202 148.876 47.049 148.93 47.0838C149.473 47.0646 150.039 47.0406 150.333 47.0406C150.591 47.0406 151.069 47.0538 151.069 47.3456C151.069 47.5174 151.061 47.5582 150.955 47.6795C150.871 47.7744 150.737 47.8236 150.615 47.8524C150.425 47.8957 150.303 47.9077 150.185 47.9089C150.129 47.9089 149.775 47.9065 149.379 47.9029C149.433 48.0746 149.528 48.2199 149.563 48.3977C149.629 48.7231 149.726 49.051 149.799 49.3849C149.859 49.6563 149.84 49.9217 149.913 50.1871C149.989 50.4597 150.013 50.7047 150.032 50.9894C150.046 51.2247 150.007 51.3749 150.008 51.6091C150.008 51.6991 150.054 51.9045 150.054 51.9934C150.054 52.0282 150.054 52.0522 150.054 52.0714C150.054 52.1555 150.136 52.1543 150.224 52.1543C150.279 52.1543 150.353 52.1507 150.432 52.1507C150.601 52.1507 150.791 52.1723 150.86 52.3104C150.88 52.3476 150.887 52.3861 150.887 52.4233C150.887 52.6059 150.691 52.7848 150.551 52.852C150.473 52.8881 150.348 52.9193 150.257 52.9385C150.169 52.9577 150.113 52.9661 150.082 53.0394C150.078 53.0514 150.075 53.0718 150.075 53.0958C150.075 53.1631 150.093 53.2628 150.094 53.312C150.094 53.3432 150.096 53.3757 150.096 53.4069C150.096 53.5822 150.072 53.7504 150.072 53.9269C150.072 54.3641 150.076 54.8036 150.115 55.2444C150.155 55.7079 150.206 56.1715 150.206 56.6303C150.206 56.8501 150.193 57.071 150.164 57.2896C150.111 57.6727 150.091 58.0534 150.058 58.4365C150.054 58.4918 149.99 58.5374 149.984 58.6059C149.978 58.6767 150.024 58.7572 150.018 58.8365C150.015 58.8785 150.007 58.9217 149.995 58.9662C150.247 58.9626 150.459 58.9602 150.586 58.9602V58.9578L150.583 58.9553Z" fill="#666562"></path>
  <path d="M159.999 49.3825C159.999 49.6118 159.987 50.0574 159.693 50.0574C159.524 50.0574 159.481 50.0298 159.361 49.9361C159.266 49.8616 159.217 49.7427 159.189 49.6335C159.146 49.4641 159.133 49.356 159.133 49.2516C159.133 49.1375 159.145 48.4277 159.145 48.2512C159.145 48.1299 159.141 48.0074 159.137 47.8837C158.968 47.8921 158.799 47.8945 158.63 47.8981C158.464 47.9017 158.296 47.9053 158.131 47.9185C157.957 47.9317 157.783 47.9485 157.609 47.9641C157.545 47.9701 157.48 47.9773 157.415 47.9821C157.408 47.9821 157.399 47.9821 157.392 47.9821C157.228 47.9821 157.187 48.029 157.187 48.1118C157.187 48.1803 157.215 48.2596 157.223 48.3088C157.253 48.4889 157.276 48.8384 157.289 49.0198C157.301 49.1927 157.313 49.3668 157.316 49.541C157.317 49.7007 157.283 49.8616 157.283 50.0202C157.283 50.1787 157.356 50.4249 157.353 50.587C157.347 50.7624 157.332 50.9365 157.322 51.1106C157.299 51.4685 157.318 51.8336 157.336 52.1915C157.344 52.3608 157.359 52.5302 157.363 52.6995C157.366 52.7788 157.352 52.858 157.352 52.9373C157.352 53.0214 157.384 53.2472 157.384 53.33C157.384 53.6891 157.385 53.8981 157.391 54.2584C157.395 54.6163 157.429 54.9766 157.411 55.3356C157.403 55.505 157.377 55.6719 157.379 55.84C157.379 56.031 157.397 56.222 157.407 56.4129C157.425 56.7804 157.433 57.1455 157.435 57.513C157.438 57.8505 157.444 58.2756 157.428 58.6131C157.423 58.6731 157.421 58.732 157.416 58.792C157.63 58.7872 157.803 58.7848 157.907 58.7848C158.164 58.7848 158.664 58.8581 158.664 59.1547C158.664 59.3252 158.633 59.3673 158.528 59.4874C158.445 59.5822 158.312 59.6315 158.188 59.6591C157.999 59.7035 157.877 59.7156 157.759 59.7156C157.715 59.7156 157.453 59.7156 157.124 59.7131C157.065 59.748 157.003 59.7804 156.952 59.8116C156.801 59.9029 156.673 59.9293 156.509 59.9293C156.385 59.9293 156.262 59.9425 156.138 59.9425C155.92 59.9425 155.777 59.8693 155.616 59.7756C155.574 59.7516 155.532 59.7276 155.488 59.7035C155.22 59.7047 154.985 59.7228 154.708 59.7228C154.545 59.7228 154.384 59.7168 154.222 59.6999C154.062 59.6831 153.846 59.6723 153.699 59.6135C153.535 59.5486 153.375 59.3108 153.375 59.2376C153.375 59.1907 153.386 59.1451 153.464 59.0802C153.557 59.001 153.774 58.9433 153.905 58.9253C154.237 58.8785 154.57 58.8581 154.743 58.8533V58.8304C154.743 58.6359 154.69 58.4485 154.69 58.2504C154.69 57.9201 154.718 57.5034 154.722 57.1731C154.73 56.8164 154.748 56.4609 154.763 56.1043C154.782 55.6791 154.803 55.2516 154.803 54.8264C154.803 54.5238 154.789 54.2211 154.805 53.9185C154.815 53.7468 154.851 53.5762 154.864 53.4033C154.876 53.2424 154.919 53.0826 154.925 52.9229C154.935 52.565 154.913 52.2047 154.914 51.8468C154.914 51.4745 154.937 51.1022 154.937 50.7287C154.937 50.4117 154.924 50.0946 154.924 49.7776C154.924 49.3705 154.927 48.7928 154.941 48.3869C154.943 48.3016 154.972 48.1863 154.972 48.0914C154.972 47.9605 154.861 47.9533 154.815 47.9533C154.696 47.9533 154.043 47.9701 153.959 47.9701C153.625 47.9701 153.29 47.9677 152.961 47.9269C152.906 47.9209 152.851 47.9101 152.796 47.8969C152.825 48.2968 152.831 48.9909 152.831 49.3765C152.831 49.6058 152.817 50.0514 152.525 50.0514C152.356 50.0514 152.314 50.0238 152.193 49.9289C152.098 49.8556 152.049 49.7367 152.021 49.6275C151.977 49.4581 151.965 49.35 151.964 49.2455C151.964 49.1315 151.977 48.5934 151.977 48.4169C151.977 48.1815 151.961 47.9413 151.959 47.7011C151.897 47.6158 151.849 47.5174 151.849 47.4297C151.849 47.3516 151.887 47.2796 151.987 47.2291C152.154 47.1451 152.225 47.0502 152.513 47.0502C152.654 47.0502 152.816 47.0442 152.95 47.0418C153.315 47.0346 153.676 47.0418 154.038 46.9997C154.208 46.9805 154.377 46.9637 154.549 46.9553C154.563 46.9553 154.577 46.9553 154.593 46.9553C154.672 46.9553 154.762 46.9625 154.847 46.9625C154.915 46.9625 154.979 46.9577 155.034 46.9397C155.161 46.8989 155.273 46.7908 155.402 46.7427C155.512 46.7007 155.629 46.6947 155.745 46.6947C155.949 46.6947 156.156 46.6947 156.354 46.7511C156.427 46.7728 156.497 46.8004 156.563 46.8376C156.638 46.8784 156.711 46.9529 156.792 46.9841C156.838 47.0021 156.896 47.007 156.956 47.007C157.045 47.007 157.139 46.9949 157.215 46.9937C157.403 46.9913 157.59 46.9877 157.778 46.9865C158.231 46.9829 158.685 46.9817 159.143 46.9817C159.368 46.9817 159.61 46.9973 159.786 47.103C159.912 47.1787 159.995 47.3264 159.995 47.4717C159.995 47.545 159.973 47.617 159.926 47.6783C159.932 47.7095 159.932 47.7155 159.951 47.9005C159.989 48.31 159.997 48.9345 159.997 49.3765" fill="#666562"></path>
</svg>
