<?xml version="1.0" encoding="UTF-8"?>
<svg xmlns="http://www.w3.org/2000/svg" width="175" height="41" viewBox="0 0 175 41" fill="none">
  <path fill-rule="evenodd" clip-rule="evenodd" d="M44.9168 26.2876H48.967C50.5472 26.2876 51.1481 26.8329 51.1481 28.1684C51.1481 29.4544 50.5469 29.9991 48.967 29.9991H44.9168V26.2876ZM38.6423 39.7961H44.9171V34.3031H51.6381C56.0879 34.3031 57.6901 31.6818 57.6901 28.2927C57.6901 24.3587 56.0426 22.1326 51.5928 22.1326H38.6423V39.7961ZM59.7594 22.1326H76.6472V26.4362H66.0341V28.8113H75.8919V33.1167H66.0341V35.4915H76.6472V39.7961H59.7594V22.1326ZM85.5484 26.2876H89.5983C91.1782 26.2876 91.7794 26.8329 91.7794 28.1684C91.7794 29.4544 91.1782 29.9991 89.5983 29.9991H85.5484V26.2876ZM79.2736 39.7961H85.5484V34.3031H92.2682C96.7192 34.3031 98.3217 31.6818 98.3217 28.2927C98.3217 24.3587 96.6742 22.1326 92.2235 22.1326H79.2736V39.7961ZM104.395 32.3C101.325 31.7797 100.058 29.8006 100.058 27.3274C100.058 22.7499 104.085 21.514 109.246 21.514C116.321 21.514 119.237 23.5666 119.46 27.3028H112.161C112.161 26.5851 111.782 26.1389 111.205 25.8918C110.648 25.6204 109.937 25.5216 109.246 25.5216C107.377 25.5216 106.733 26.0405 106.733 26.7833C106.733 27.2772 106.932 27.6 107.555 27.6985L115.054 28.935C118.214 29.4544 120.172 31.0873 120.172 34.08C120.172 38.3861 117.012 40.4146 109.958 40.4146C105.13 40.4146 99.856 39.6727 99.8341 34.4772H107.399C107.421 35.0702 107.622 35.466 108.068 35.7383C108.534 35.986 109.224 36.1101 110.203 36.1101C112.16 36.1101 112.695 35.5158 112.695 34.6745C112.695 34.155 112.405 33.6359 111.561 33.4882L104.395 32.3ZM122.218 22.1326H128.493V39.7961H122.218V22.1326ZM151.747 32.9186C151.347 35.2441 150.633 37.1243 149.076 38.4104C147.541 39.697 145.137 40.4146 141.311 40.4146C137.506 40.4146 130.452 40.1171 130.452 30.9648C130.452 21.8107 137.506 21.5137 141.311 21.5137C145.093 21.5137 150.923 22.0575 151.747 29.0596H144.671C144.493 27.7967 143.735 25.9663 141.311 25.9663C138.751 25.9663 137.127 27.3763 137.127 30.9645C137.127 34.5517 138.707 35.9608 140.999 35.9608C142.98 35.9608 144.159 35.0456 144.671 32.9183H151.747V32.9186ZM159.957 30.9651C159.957 27.3766 161.582 25.9669 164.141 25.9669C166.7 25.9669 168.325 27.3769 168.325 30.9651C168.325 34.5523 166.7 35.9614 164.141 35.9614C161.582 35.9611 159.957 34.552 159.957 30.9651ZM153.281 30.9651C153.281 40.1171 160.335 40.4149 164.141 40.4149C167.946 40.4149 175 40.1174 175 30.9651C175 21.811 167.946 21.514 164.141 21.514C160.335 21.514 153.281 21.8107 153.281 30.9651ZM29.1609 22.3076C29.566 13.8332 22.2578 4.2897 12.2946 3.11007L12.3116 2.99426C22.1338 2.99426 29.6636 12.0873 29.6636 19.2608C29.6542 20.7541 29.5363 21.6794 29.3259 22.3511L29.1609 22.3076ZM28.5657 23.3848C27.9123 24.1833 27.0904 24.9873 26.1274 25.7505C24.356 15.5623 16.8694 6.65353 11.5764 4.05323L11.463 4.13226C16.7861 8.50095 23.135 16.9858 25.604 26.1502C24.3447 27.0753 22.9843 27.8544 21.549 28.4724C16.5259 22.7441 11.843 11.6967 10.3338 4.68636L10.1803 4.73256C10.2144 11.5374 15.0457 23.0894 20.9375 28.7262C19.5862 29.2609 18.1814 29.6491 16.7472 29.8839C11.0995 27.6465 7.07943 20.4806 7.07943 13.1399C7.07943 8.34776 8.54052 5.38332 8.82319 4.77663L8.70283 4.72891C8.36088 5.24624 6.22046 8.20916 6.22046 13.3827C6.22046 21.6803 10.3126 28.0225 15.7454 30.0198C13.8026 30.2335 11.8383 30.1413 9.92411 29.7465L9.88368 29.873C10.4648 30.087 12.4366 30.9146 15.4445 30.9146C22.2478 30.9146 26.8469 26.6876 28.6983 23.4745L28.5657 23.3848Z" fill="#666562"></path>
  <path fill-rule="evenodd" clip-rule="evenodd" d="M14.7644 0C9.60699 0 3.55957 3.72219 3.55957 7.12462C3.55957 8.44073 4.76352 9.55258 7.25531 9.55258C13.0398 9.55258 18.414 5.57842 18.414 2.48815C18.414 0.862006 16.8523 0 14.7644 0ZM16.8234 2.3921C16.8234 4.99696 11.8213 8.18115 7.63981 8.18115C5.7924 8.18115 4.79422 7.4541 4.79422 6.25441C4.79422 3.61216 9.85319 0.482067 13.7754 0.482067C16.3325 0.482067 16.8234 1.78328 16.8234 2.3921Z" fill="#666562"></path>
  <path fill-rule="evenodd" clip-rule="evenodd" d="M1.50434 8.70001C1.35936 8.95077 0.778809 10.0875 0.778809 11.2523C0.778809 13.4125 2.96148 15.4179 6.97607 15.4179C14.6992 15.4179 23.622 9.73314 23.622 4.45624C23.622 2.08755 21.3797 0.799709 19.8229 0.533447L19.7937 0.625848C20.2779 0.77904 22.0518 1.60366 22.0518 3.71369C22.0518 7.91825 14.1736 13.6471 6.32622 13.6471C3.32197 13.6471 1.42926 12.1641 1.42926 10.004C1.42926 9.32068 1.57151 8.87053 1.6092 8.74013L1.50434 8.70001Z" fill="#666562"></path>
  <path fill-rule="evenodd" clip-rule="evenodd" d="M26.8064 4.85071C27.0182 5.0115 28.2902 6.07168 28.2902 8.07654C28.2902 14.9124 17.5796 21.6343 8.11061 21.6343C2.4638 21.6343 -0.110361 18.8461 0.0036211 16.3705H0.104837C0.326113 17.6562 2.15955 19.9568 7.1018 19.9568C16.5826 19.9568 27.1684 13.0015 27.1684 6.90755C27.1684 5.86226 26.8845 5.21089 26.724 4.92122L26.8064 4.85071Z" fill="#666562"></path>
  <path fill-rule="evenodd" clip-rule="evenodd" d="M30.3862 11.2325C30.4306 11.3781 30.6613 12.0325 30.6613 13.0575C30.6613 20.6617 19.8221 27.1718 10.395 27.1718C5.54306 27.1718 3.00932 24.8149 2.47437 23.8578L2.56069 23.7939C3.90324 24.9681 6.54762 25.8602 9.63363 25.8602C17.9595 25.8602 30.3829 19.5259 30.2719 11.2602L30.3862 11.2325Z" fill="#666562"></path>
</svg>
