<?xml version="1.0" encoding="UTF-8"?>
<svg xmlns="http://www.w3.org/2000/svg" width="104" height="104" viewBox="0 0 104 104" fill="none">
  <rect width="104" height="104" fill="#F0F0F0"></rect>
  <path d="M99.7863 28.5351V76.0701C99.7863 77.8863 98.3153 79.3573 96.4991 79.3573H24.2005C22.3842 79.3573 20.9133 77.8863 20.9133 76.0701V28.5351H99.783H99.7863Z" fill="white" stroke="black" stroke-width="1.5" stroke-linecap="round" stroke-linejoin="round"></path>
  <path d="M20.9164 28.5351V14.2872C20.9164 12.4709 22.3874 11 24.2036 11H96.5022C98.3185 11 99.7895 12.4709 99.7895 14.2872V28.5351H20.9164Z" fill="black" stroke="black" stroke-width="1.5" stroke-linecap="round" stroke-linejoin="round"></path>
  <path d="M95.5727 70.8105H63.2485" stroke="black" stroke-width="1.5" stroke-linecap="round" stroke-linejoin="round"></path>
  <path d="M93.2152 70.8105V48.4642C93.2152 47.737 92.6275 47.1493 91.9003 47.1493H85.3292C84.6021 47.1493 84.0143 47.737 84.0143 48.4642V70.8105H93.2152Z" fill="#FF5B4A" stroke="black" stroke-width="1.5" stroke-linecap="round" stroke-linejoin="round"></path>
  <path d="M64.9518 43.208L69.5539 39.2633L78.7548 45.8344L90.5854 34.0038" stroke="black" stroke-width="1.5" stroke-linecap="round" stroke-linejoin="round"></path>
  <path d="M35.377 20.2009C35.377 22.3791 33.6106 24.1455 31.4324 24.1455C29.2542 24.1455 27.4877 22.3791 27.4877 20.2009C27.4877 18.0227 29.2542 16.2562 31.4324 16.2562C33.6106 16.2562 35.377 18.0227 35.377 20.2009Z" fill="white" stroke="black" stroke-width="1.5" stroke-linecap="round" stroke-linejoin="round"></path>
  <path d="M45.2353 24.1455C47.4139 24.1455 49.1799 22.3794 49.1799 20.2009C49.1799 18.0223 47.4139 16.2562 45.2353 16.2562C43.0567 16.2562 41.2906 18.0223 41.2906 20.2009C41.2906 22.3794 43.0567 24.1455 45.2353 24.1455Z" fill="white" stroke="black" stroke-width="1.5" stroke-linecap="round" stroke-linejoin="round"></path>
  <path d="M59.0382 24.1455C61.2168 24.1455 62.9829 22.3794 62.9829 20.2009C62.9829 18.0223 61.2168 16.2562 59.0382 16.2562C56.8596 16.2562 55.0936 18.0223 55.0936 20.2009C55.0936 22.3794 56.8596 24.1455 59.0382 24.1455Z" fill="white" stroke="black" stroke-width="1.5" stroke-linecap="round" stroke-linejoin="round"></path>
  <path d="M83.8749 70.8038V59.4182C83.8749 58.9334 83.2905 58.5416 82.57 58.5416H76.052C75.3315 58.5416 74.7471 58.9334 74.7471 59.4182V70.8038H83.8716H83.8749Z" fill="#FF5B4A" stroke="black" stroke-width="1.5" stroke-linecap="round" stroke-linejoin="round"></path>
  <path d="M74.8102 70.8105V53.7203C74.8102 52.9932 74.2225 52.4055 73.4953 52.4055H66.9242C66.197 52.4055 65.6093 52.9932 65.6093 53.7203V70.8105H74.8102Z" fill="#FF5B4A" stroke="black" stroke-width="1.5" stroke-linecap="round" stroke-linejoin="round"></path>
  <path d="M22.0091 67.1647L5.75567 82.7673C3.41478 85.1082 3.41478 88.9035 5.75567 91.2443C8.09656 93.5852 11.8918 93.5852 14.2327 91.2443L30.4828 75.6417" fill="white"></path>
  <path d="M22.0091 67.1647L5.75567 82.7673C3.41478 85.1082 3.41478 88.9035 5.75567 91.2443C8.09656 93.5852 11.8918 93.5852 14.2327 91.2443L30.4828 75.6417" stroke="black" stroke-width="1.5" stroke-linecap="round" stroke-linejoin="round"></path>
  <path d="M39.8459 81.3383C51.3022 79.3141 58.9484 68.3861 56.9242 56.9298C54.9001 45.4736 43.972 37.8273 32.5158 39.8515C21.0595 41.8757 13.4133 52.8037 15.4375 64.26C17.4617 75.7162 28.3897 83.3624 39.8459 81.3383Z" fill="#C8C8C8" stroke="black" stroke-width="1.5" stroke-linecap="round" stroke-linejoin="round"></path>
  <path d="M36.2769 70.9201C42.931 70.9201 48.5724 66.5903 50.5414 60.597C48.5691 54.6036 42.931 50.2738 36.2769 50.2738C29.6228 50.2738 23.9815 54.6036 22.0125 60.597C23.9848 66.5903 29.6228 70.9201 36.2769 70.9201Z" fill="white" stroke="black" stroke-width="1.5" stroke-linecap="round" stroke-linejoin="round"></path>
  <path d="M41.9083 57.2101C42.5027 58.1996 42.8447 59.3551 42.8447 60.5936C42.8447 64.2228 39.9028 67.1647 36.2736 67.1647C32.6444 67.1647 29.7025 64.2228 29.7025 60.5936C29.7025 56.9644 32.6444 54.0225 36.2736 54.0225C36.7584 54.0225 37.2266 54.0757 37.6815 54.1753" fill="#666562"></path>
  <path d="M41.9083 57.2101C42.5027 58.1996 42.8447 59.3551 42.8447 60.5936C42.8447 64.2228 39.9028 67.1647 36.2736 67.1647C32.6444 67.1647 29.7025 64.2228 29.7025 60.5936C29.7025 56.9644 32.6444 54.0225 36.2736 54.0225C36.7584 54.0225 37.2266 54.0757 37.6815 54.1753" stroke="black" stroke-width="1.5" stroke-linecap="round" stroke-linejoin="round"></path>
  <path d="M41.0815 54.8493C42.1806 55.9483 42.1806 57.7314 41.0815 58.8304C39.9825 59.9295 38.1994 59.9295 37.1004 58.8304C36.0013 57.7314 36.0013 55.9483 37.1004 54.8493C38.1994 53.7502 39.9825 53.7502 41.0815 54.8493Z" fill="white" stroke="black" stroke-width="1.5" stroke-linecap="round" stroke-linejoin="round"></path>
</svg>
