<?xml version="1.0" encoding="UTF-8"?>
<svg xmlns="http://www.w3.org/2000/svg" width="175" height="54" viewBox="0 0 175 54" fill="none">
  <path d="M30.2473 0C27.5705 0 28.7007 3.98538 28.9089 5.29402C28.9089 5.3535 29.1171 14.3057 29.1766 16.3579C29.593 16.239 29.9796 16.1497 30.396 16.0605L31.199 15.8523C31.2288 13.8596 31.437 5.32376 31.437 5.26428C31.6154 3.89616 33.0133 0 30.2473 0ZM29.5037 30.3365C29.8012 30.2473 30.0986 30.1283 30.3663 30.0688C30.5744 30.0094 30.7529 29.9499 30.9611 29.8904C30.9611 29.3253 31.1395 21.3545 31.1693 19.9269C30.5447 20.0756 29.9201 20.2541 29.3253 20.4623C29.355 21.533 29.5037 29.474 29.5037 30.3365ZM30.5447 33.3107C30.4555 33.3404 30.1878 33.4594 30.0094 33.5189C29.8309 33.5784 29.6227 33.6676 29.6227 33.7271C29.6227 33.7271 29.8012 42.8875 29.8012 43.0659C29.8012 44.9397 30.7529 44.9694 30.7529 43.0659C30.7529 42.947 30.9611 33.162 30.9611 33.162C30.9611 33.162 30.6934 33.2512 30.5447 33.3107ZM28.3438 7.79232C27.63 8.03025 26.9162 8.29793 26.2322 8.65483C25.4886 8.89276 24.4179 8.95224 23.3175 10.1419C22.9606 10.5583 22.6334 11.0044 22.3063 11.4505C21.9791 11.9264 21.9494 12.6997 21.7114 13.0863C21.3545 13.6812 21.4438 14.0381 21.4438 14.0381C21.3843 14.3057 21.2356 14.5734 21.0571 14.7816C20.7002 15.198 20.1649 15.4062 19.6295 15.317C20.1351 15.5549 20.8192 15.2277 20.8192 15.2277C20.7002 15.5549 20.611 15.8821 20.5515 16.2092C21.1166 14.9303 21.6222 14.4842 21.8006 14.3355C22.0386 14.395 22.5442 14.3652 23.4662 13.8299C24.5071 13.235 26.0835 12.2536 26.5296 11.629C27.0054 11.0044 27.63 10.4988 28.3736 10.2311C28.3736 9.33889 28.3438 8.50612 28.3438 7.79232ZM23.9421 11.748L23.4067 11.8669L24.061 10.7962L24.8046 10.826L23.9421 11.748ZM27.1542 33.6081C27.1542 34.7978 28.0167 35.4223 28.8792 35.9279C28.8792 35.7198 28.8494 33.9055 28.8494 33.8758C28.8792 33.5189 29.2063 33.2809 29.5037 33.162C29.9499 32.9538 30.4257 32.7753 30.9016 32.6266C31.1693 32.5374 31.3775 32.4482 31.6154 32.3887C33.3702 31.8533 35.3926 31.199 35.3926 29.0576C35.3926 26.9162 33.6676 26.0537 31.7641 25.3994C31.7344 26.0835 31.7344 27.0649 31.7046 27.749C32.5077 28.0464 33.043 28.433 33.043 29.0576C33.043 29.8309 32.24 30.2473 31.6451 30.4852C31.4072 30.5744 31.0503 30.6934 30.9313 30.7232C30.4555 30.8719 29.9796 31.0206 29.5037 31.199C29.2658 31.2882 29.0279 31.3775 28.7899 31.4964C28.0167 31.9128 27.1542 32.5374 27.1542 33.6081ZM38.575 12.9971C38.575 10.826 36.9986 8.44664 33.162 7.61387C32.7753 7.55439 32.3887 7.4949 32.002 7.46516C32.002 7.79232 31.9723 8.53586 31.9723 8.53586C31.9723 8.7738 31.9426 9.6363 31.9426 9.81475C32.1805 9.8445 32.4482 9.87424 32.6861 9.90398C34.9167 10.4393 35.7198 11.7182 35.7198 12.9674C35.7198 15.0195 33.965 15.7928 31.8236 16.3877L31.1098 16.5661C30.4555 16.7148 29.7714 16.8933 29.1171 17.0717C28.8792 17.1312 28.6412 17.1907 28.4033 17.2799C26.024 17.9937 23.9718 19.1536 23.9718 22.0981C23.9718 25.0425 26.3214 26.1132 28.6115 26.827C28.6115 25.9942 28.5818 25.1317 28.552 24.299C27.5111 23.8231 26.827 23.1985 26.827 22.1575C26.827 21.1166 27.4813 20.5218 28.4628 20.0756C28.671 19.9864 28.9089 19.8972 29.1766 19.808C29.7417 19.5998 30.396 19.4511 31.0503 19.2726L31.7641 19.0942C34.9762 18.3209 38.6047 17.3097 38.575 12.9971ZM31.437 37.1771C32.5077 37.7124 33.5189 38.4857 33.9353 39.9133C34.1137 37.534 32.7753 36.5228 31.4667 35.809L31.437 37.1771ZM49.282 9.81475C50.4419 11.2126 52.4643 12.0156 53.654 13.4135C52.7915 9.30914 49.6389 5.94834 45.8914 5.14531C47.7354 6.51343 48.122 8.41689 49.282 9.81475ZM4.37203 20.2243C6.95955 14.6032 10.7962 15.7928 12.432 10.4691C11.4803 12.0751 7.28671 12.7592 5.3535 16.9528C6.36472 14.4545 5.85911 10.6475 7.52465 8.5656C2.4983 12.3131 4.6397 18.3209 4.37203 20.2243ZM9.01173 33.6676C9.4876 35.8387 8.11948 39.0211 10.2906 42.025C8.06 39.5267 3.30133 38.8724 1.36812 35.0654C3.77719 44.3746 10.0824 42.4711 12.9079 44.4936C10.588 41.1327 12.4915 38.9021 9.01173 33.6676ZM8.29793 39.5267C6.90007 34.3219 9.36863 32.5077 7.4949 27.5111C7.31645 30.3365 5.41299 31.7046 6.69188 36.8499C4.46125 32.4779 1.01122 30.8421 0 27.868C0.0594834 36.0469 6.6324 37.2663 8.29793 39.5267ZM18.3804 48.241C16.4471 45.5643 17.7558 44.0474 12.3428 39.1995C13.5027 40.984 12.3131 43.2147 15.9713 46.6647C12.4023 44.553 7.43542 45.4453 5.05609 42.6198C9.16044 50.4716 16.3579 47.2595 18.3804 48.241ZM44.7017 46.6647C48.36 43.1849 47.1703 40.9543 48.3302 39.1995C42.8875 44.0474 44.2259 45.5643 42.2629 48.241C44.3151 47.2595 51.5126 50.4716 55.5872 42.6198C53.2376 45.475 48.2707 44.553 44.7017 46.6647ZM50.3824 42.025C52.5535 39.0211 51.1854 35.8685 51.6316 33.6676C48.1518 38.9021 50.0552 41.1327 47.7354 44.4936C50.5906 42.4711 56.8661 44.3746 59.2752 35.0654C57.342 38.8724 52.613 39.5267 50.3824 42.025ZM41.6978 48.6276C39.7646 48.122 37.7719 47.7949 35.7495 47.7354C33.9055 47.7057 32.0615 48.0031 30.3365 48.6574C28.6115 48.0031 26.7675 47.7057 24.9235 47.7354C22.9011 47.7949 20.9084 48.122 18.9752 48.6276C15.7036 49.4902 12.8781 50.1742 10.4096 48.9251C12.7592 51.007 15.5252 51.7803 19.5105 51.3341C22.8119 50.9772 25.4886 49.3117 28.6115 49.3414H28.7305C26.7675 50.3229 25.0128 51.691 23.5852 53.3566L25.102 53.5648C25.102 53.5648 26.6783 50.3824 30.3365 49.5496C33.9947 50.3824 35.571 53.5648 35.571 53.5648L37.0879 53.3566C35.6603 51.691 33.9055 50.3229 31.9426 49.3414H32.0615C35.1844 49.3117 37.8612 50.9772 41.1625 51.3341C45.1479 51.7505 47.8841 51.007 50.2634 48.9251C47.7949 50.1742 44.9694 49.4902 41.6978 48.6276ZM7.79232 21.8601C6.45395 24.4477 4.34229 25.0425 4.58022 30.3663C3.45003 25.6373 0.743542 23.8528 0.773284 20.8489C-1.10044 28.7602 3.89616 29.6822 5.20479 33.0133C4.9966 28.2546 8.03025 27.3029 7.79232 21.8601ZM9.66605 15.7631C9.19018 16.4174 8.86302 16.7148 7.61387 17.726C5.74014 19.2131 4.43151 21.3248 3.98539 23.6744C4.10435 20.7597 2.31985 16.5959 3.50952 13.5622C-1.10044 20.0756 3.77719 23.9718 3.95564 26.3511C5.11557 21.8006 7.88155 21.7709 9.66605 15.7631ZM56.6579 23.6744C56.182 21.3248 54.9031 19.2131 53.0294 17.726C51.7803 16.6851 51.4531 16.4174 50.9772 15.7631C52.7617 21.7709 55.5277 21.8006 56.7174 26.3511C56.8958 24.0015 61.7735 20.1054 57.1635 13.5622C58.3532 16.5959 56.5687 20.7597 56.6579 23.6744ZM60.5838 27.868C59.5726 30.8719 56.1226 32.4779 53.8919 36.8499C55.1708 31.7046 53.2673 30.3365 53.0889 27.5111C51.2152 32.5077 53.6837 34.3219 52.2859 39.5267C53.9514 37.2663 60.5243 36.0469 60.5838 27.868ZM52.851 21.8601C52.5833 27.3029 55.6467 28.2546 55.4385 33.0133C56.7174 29.7119 61.7437 28.7602 59.87 20.8489C59.8997 23.8826 57.1933 25.6373 56.0631 30.396C56.301 25.0128 54.2191 24.4477 52.851 21.8601ZM11.2126 9.81475C12.3725 8.41689 12.7592 6.51343 14.6032 5.14531C10.826 5.94834 7.67335 9.2794 6.81085 13.3838C8.00051 11.9859 10.0527 11.1829 11.2126 9.81475ZM48.0923 10.4096C49.7281 15.7631 53.5648 14.5734 56.1523 20.1649C55.8846 18.2911 58.026 12.2536 52.9997 8.5656C54.695 10.6178 54.1893 14.4545 55.1708 16.9528C53.2079 12.7592 49.0143 12.0751 48.0923 10.4096ZM35.006 13.473C34.0245 13.0566 32.9835 12.7889 31.9426 12.6402V13.3243C32.924 13.473 33.8758 13.7407 34.768 14.0976C34.887 13.8894 34.9762 13.6812 35.006 13.473ZM34.2327 6.84059L34.4409 6.66214L34.0542 6.48369L33.0133 6.45394L32.7456 6.63239L32.1508 6.57291V6.72162C32.5374 6.75136 32.924 6.7811 33.2215 6.84059L33.7271 6.81084L34.2327 6.84059ZM32.2697 29.0279C32.2697 28.8494 32.0318 28.671 31.7046 28.5223H31.6451C31.6451 28.671 31.6154 29.355 31.6154 29.7119C32.002 29.5037 32.2697 29.3253 32.2697 29.0279ZM20.3433 15.9713C20.373 15.8523 20.4028 15.7036 20.4325 15.5846C20.2838 15.6144 20.1649 15.6441 20.0161 15.6144L20.3433 15.9713ZM15.5549 11.1829L17.9937 13.6217C15.0493 16.6851 13.3838 20.7894 13.3243 25.0425H9.87424C9.93372 19.8377 11.9562 14.9006 15.5549 11.1829ZM14.0678 30.1581L13.8596 30.1283L13.6514 29.9201L12.67 29.8309L12.9674 30.2473L12.0751 30.0688L12.3131 29.8606L12.1049 29.6525L11.4505 29.9201L11.2126 30.3365L11.3018 31.318L12.0454 33.1025L12.4023 33.6676L12.6105 33.7271L12.0454 32.6564L11.9264 32.121L12.0454 32.002L11.9562 31.7046L12.2833 31.7641L12.8187 32.5374L12.9376 32.5969V32.0318L13.1458 32.1508L13.2053 32.4482L13.7407 32.5969L13.9786 32.4184L14.0678 32.4779V32.8943L14.3057 33.1917L14.6032 33.2512L15.2575 34.3219L15.6441 34.4409L15.7631 33.9353C16.4471 35.0357 17.2204 36.0767 18.1424 36.9986L15.7036 39.4375C12.0751 35.7792 9.99321 30.8719 9.87424 25.7266H13.3243C13.354 27.2136 13.6217 28.7305 14.0678 30.1581ZM17.4584 25.6968C17.4584 26.024 17.4881 26.3511 17.5476 26.708L17.1312 26.7973L17.042 27.2136L16.1497 28.3438L16.1795 29.8904L15.2872 30.1878H14.7816C14.3057 28.7305 14.0678 27.2434 14.0083 25.6968H17.4584ZM18.2316 35.4223L19.0049 35.8685L19.1536 35.9874L18.5886 36.5525C18.3209 36.2848 18.0829 36.0172 17.845 35.7198L18.2316 35.4223ZM21.3843 17.0122L23.8231 19.4511C23.3175 20.0161 22.8714 20.6407 22.5442 21.3248H22.3657L22.0088 21.414H21.8899L21.533 21.7412L22.0088 21.6817L22.4252 21.5925L22.336 21.7114L21.9791 21.9494H21.8006L21.2653 22.3657L20.7597 22.3063L20.0161 23.7041L20.1649 23.9718L19.7485 24.4477L19.689 25.0425H18.1424C18.1722 22.0386 19.3321 19.1834 21.3843 17.0122ZM23.8826 27.0947L24.061 27.0054L24.5071 27.3326L24.299 27.4813L24.8046 27.8085L24.7748 27.4516L25.0425 27.0054L25.3399 27.3029L25.6373 27.7192L25.102 27.868L25.3399 28.3438L25.6968 28.1356L25.6373 27.9869L25.905 27.8085L26.0537 27.0649C26.2619 27.5111 26.5296 27.9274 26.8567 28.2843L24.4179 30.7232C23.2283 29.474 22.4847 27.868 22.2765 26.1429L22.7821 26.6783H23.258L23.8826 27.0947ZM20.3731 24.5071L20.4325 23.8231L20.8489 23.5852L21.5925 23.7041L21.7114 23.8231C21.6519 24.2097 21.6222 24.6261 21.5925 25.0128H20.7597L20.3731 24.5071ZM19.2429 26.8865L18.9157 27.3921H18.3506L18.3209 27.3623C18.2317 26.827 18.1722 26.2619 18.1424 25.7266H19.1834L18.9455 26.5593L19.2429 26.8865ZM21.533 33.6081C21.295 33.3404 21.0274 33.0727 20.8192 32.8051L20.9381 31.9426L20.5812 31.1098L20.492 29.8012L20.0756 28.9981L20.1649 28.4925L19.6593 27.5408L19.2429 27.3326L19.4213 26.827L19.2429 26.4404L19.4213 25.9942H19.8972L20.0756 25.7266H20.8787L20.9976 25.9645L20.8192 26.7675L20.7299 26.9162L21.0274 27.5705L20.8192 27.6895L20.6705 27.5111L20.611 27.5705L20.7597 27.9572L20.9976 28.4033H21.1166L21.1761 27.9869L21.0571 27.8382V27.5705L21.0274 27.0054L21.2058 25.9942L21.0274 25.7266H21.5925C21.7114 27.7787 22.5442 29.7119 23.9718 31.199L21.533 33.6081ZM42.2927 36.9392C45.2371 33.9055 46.9324 29.8904 47.0216 25.6968H50.4716C50.3527 30.8124 48.3005 35.7198 44.7017 39.378L42.2927 36.9392ZM41.3409 35.9874L41.6086 35.69L41.3409 34.3516L41.1625 34.2922L41.2815 34.0542L40.7164 33.8758L40.5974 34.3516L40.5379 34.9465L40.4189 35.0654L39.378 34.0245C41.5491 31.7641 42.7983 28.8197 42.9172 25.6968H46.3673C46.2483 29.7417 44.6423 33.5784 41.8168 36.4633L41.3409 35.9874ZM38.3073 39.2293L38.6344 38.5452L38.5155 38.2478L38.9913 37.8314V37.5935L38.575 37.3258L38.9021 36.6417L39.4077 35.9874L38.9021 35.4521H38.5155L38.2775 35.0654C38.4857 34.887 38.6939 34.7085 38.8724 34.5301L41.3112 36.9689C40.4189 37.8314 39.4077 38.6047 38.3073 39.2293ZM37.8314 32.5077L37.5043 32.1805L37.7422 31.8533L38.0694 31.199L37.9504 31.0206L38.1586 30.5447L38.1288 30.0986L38.0099 29.6525L37.7124 29.5632L37.5935 29.8012L37.415 29.7417C37.6827 29.355 37.9206 28.9089 38.1288 28.4925L38.4263 28.3736L38.6047 28.1356L38.6939 28.2249L38.9021 27.9869L38.7237 27.7787L38.8724 27.749L39.14 27.868H39.6754L40.0026 27.6895L40.8353 27.4516L40.6866 27.1839L40.6271 26.8567L41.0733 27.0649L41.2517 26.9757L41.1625 26.6188L40.5974 26.827L40.0026 26.708L39.5267 25.7563H42.1737C42.0547 28.7007 40.8651 31.4964 38.8426 33.6081L38.4857 33.2512L38.6344 32.7753L38.3668 31.7046L37.8314 32.5077ZM36.5823 19.5403L39.0211 17.1015C39.5862 17.726 40.0918 18.4101 40.5379 19.1239L40.2405 19.2131L40.2702 19.7485L41.1625 20.3136C41.4004 20.8192 41.5789 21.3248 41.7276 21.8601L41.5789 22.0981L41.2517 22.336L41.1625 22.8416L40.9245 22.9606L40.7461 23.1985L40.5676 23.1093H40.2405L40.4189 22.8416L40.5676 22.1575L40.8056 22.0088L40.1513 21.3843L39.6754 21.5627L39.5564 22.0386L39.259 22.3657L38.9319 22.0981L38.8129 21.8007L38.9913 21.6817L39.0806 21.8601L39.2293 21.8007L39.1698 21.5032H38.9616V21.6222L38.8129 21.6519L38.0694 20.7597L37.8017 20.5515L37.8909 20.4623L38.1288 20.373L37.8909 20.2838C37.8909 20.2838 37.6232 20.3433 37.5935 20.3433L37.7422 20.5515H37.3555C37.1176 20.1649 36.8797 19.8377 36.5823 19.5403ZM36.9689 32.8348L36.2254 32.6266L35.9874 32.7158L35.571 32.3887L35.1844 32.24C35.3926 32.0913 35.571 31.9426 35.7495 31.7939L36.3741 32.24L36.8499 32.4779L37.0879 32.7158L36.9689 32.8348ZM35.6603 21.3843L35.9577 21.3248V21.2653L35.6603 21.0571L35.7495 20.4028L36.1064 20.0161C36.3443 20.2838 36.5525 20.5515 36.7607 20.8489L36.6418 21.2356L36.3146 20.9976L36.0469 21.0571L36.1659 21.295H36.2849L36.1361 21.6519L36.0469 21.5032L35.6603 21.3843ZM39.7944 23.7636L40.4189 23.4364L41.0435 23.3472L41.1922 23.0498L41.5491 22.8416L41.6978 22.5442L41.8168 22.0386C41.8763 22.217 41.906 22.3955 41.9655 22.5739L41.6384 23.5554V23.8826L42.0547 23.1985C42.144 23.7933 42.2034 24.4179 42.2332 25.0128H39.1995L39.14 24.7451L39.497 24.4774L39.5564 24.299L39.7051 24.18L40.1215 24.1205L40.1513 23.9421L39.7944 23.7636ZM40.4784 15.6739L41.3112 15.7036L41.5194 15.9415L41.4302 16.2984L42.5901 17.0122L42.828 16.9825L44.2854 18.6778L44.8802 18.4696C45.8319 20.5218 46.3375 22.7821 46.3673 25.0425H42.9172C42.9172 24.1502 42.7983 23.2877 42.5901 22.4252L42.7388 22.217L42.947 21.1166L42.7983 19.9567L42.3819 18.6183L41.4302 17.2204L41.6681 17.3394L41.7871 17.2204L41.0138 16.6851L40.9543 16.8635L41.7276 17.964L42.1737 18.8562L42.4711 19.7485L42.5603 20.3433L42.709 21.3545L42.4116 21.3843C42.4116 21.3843 42.0845 20.7597 41.9655 20.492L42.1142 20.2541L41.8168 19.8377V19.4511L41.6086 19.1834L41.3409 19.2131C41.2517 19.0347 41.1625 18.8562 41.0435 18.7075L41.222 18.7967L41.2815 18.7373L41.1922 18.5291L41.4302 18.4101L41.3409 18.2911L41.0138 18.4101L41.1327 17.8747L40.9245 17.7558L40.7461 18.1722C40.3595 17.6071 39.9431 17.0717 39.497 16.5661L40.4784 15.6739ZM44.8802 11.2424C48.4492 14.9601 50.4419 19.8972 50.5014 25.0425H47.0513C47.0216 22.4847 46.4268 19.9567 45.2668 17.6666L45.2966 17.6071L45.5345 17.726L45.594 17.5476L44.9694 16.4769L44.2259 15.4657L43.3634 14.7519C43.066 14.395 42.7685 14.0381 42.4414 13.6812L44.8802 11.2424ZM30.1878 46.2186C41.7871 46.2186 51.1854 36.7905 51.1557 25.1912C51.1557 14.4247 43.0065 5.41299 32.2995 4.31254L32.2697 4.43151C32.24 4.6397 32.1805 4.81815 32.1508 4.9966C36.7607 5.44273 41.0733 7.46516 44.3746 10.707L42.0547 13.0269L42.144 12.6105L41.8465 12.4618L41.4599 12.4915L41.5491 12.2238L41.2815 11.2721L40.7164 10.6475L38.9021 9.69579L38.7534 9.87424L38.4263 9.96346C39.0508 10.8557 39.378 11.9264 39.378 12.9971V13.4135L40.2702 14.5437L39.8539 14.6329L40.1215 15.0493L39.3185 15.8523L38.9913 15.2575C38.8426 15.6739 38.6344 16.0902 38.3965 16.4471L38.575 16.5959L36.1064 19.0347C35.9577 18.886 35.809 18.767 35.6603 18.6183C35.4223 18.7373 35.1844 18.8265 34.9465 18.9157L35.1547 19.0644L35.0357 19.1834L34.7383 19.3321L34.6193 19.6295L34.4409 19.4511L33.9353 19.6295L34.084 19.8674L34.4409 19.7782L34.6788 19.808L34.7085 19.689L34.887 19.5998L34.9465 19.5105L35.2736 19.4213H35.5116L35.6603 19.5403L34.7085 20.5218L34.6491 20.4325L33.6378 20.611L33.3999 20.8489L33.1917 20.8787L33.8163 20.2838L33.5784 20.1649L32.9835 20.9381L33.162 20.9084V21.2058L33.3702 21.295L33.3999 21.5925L33.043 21.533L32.6861 21.5925L31.7939 21.1463C31.7939 21.1463 31.7344 23.5257 31.7344 24.7153C33.8163 25.4291 36.0469 26.4404 36.0469 29.1171C36.0767 30.2473 35.4818 31.318 34.5301 31.9426L34.4706 31.9723L34.4111 32.0318C33.5784 32.5969 32.4779 32.8943 31.5262 33.1917L31.4964 35.0654C33.0133 35.809 34.8275 36.9094 34.6491 40.0026C34.6193 40.7758 34.3219 40.984 34.084 41.0435C33.1917 41.2517 32.2697 41.4004 31.3775 41.4599V42.144C35.3034 41.8763 38.9913 40.2405 41.8465 37.534L44.2854 39.9728C36.4633 47.5272 24.061 47.5272 16.2092 40.0323L18.648 37.5935C21.4735 40.2405 25.1317 41.8465 28.9981 42.144V41.4599C25.3102 41.1625 21.8601 39.6457 19.1834 37.0879L19.808 36.4336L20.7002 36.5228L21.1761 36.0172L22.4252 36.0767L22.6037 35.6305L22.5442 35.4521C24.3882 36.8499 26.5891 37.7422 28.9089 37.9801V37.2961C26.3511 36.9986 23.9718 35.9279 22.0683 34.1732L24.5071 31.7344C25.102 32.2697 25.7563 32.7158 26.4998 33.0727C26.5593 32.8348 26.6188 32.6266 26.7378 32.4184C26.1132 32.0913 25.5184 31.7046 25.0128 31.2585L27.4516 28.8197C27.8382 29.1171 28.2843 29.3848 28.7305 29.5335V28.7899C28.433 28.671 28.1654 28.4925 27.9274 28.3141L28.6115 27.63C28.3736 27.5705 28.1356 27.4813 27.8977 27.3921L27.4218 27.868C27.1839 27.6003 26.9757 27.3029 26.827 27.0054C26.4106 26.827 25.9942 26.6188 25.6076 26.3511C24.18 25.4886 23.3175 23.9123 23.3472 22.217C23.3175 21.0868 23.6446 19.9567 24.3287 19.0644L21.8899 16.6256C23.6744 14.9006 25.9645 13.8001 28.4033 13.4135V12.7294C25.786 13.1161 23.3175 14.3057 21.414 16.1497L20.9976 15.7333C20.9084 15.8821 20.7894 16.0902 20.6705 16.3579L20.9381 16.6256C18.767 18.9157 17.5476 21.9494 17.4881 25.102H14.0083C14.0678 21.0274 15.6441 17.1312 18.4696 14.157L19.57 15.2575H19.7187C19.9269 15.2277 20.1649 15.1683 20.3433 15.079L18.9455 13.6812C19.689 12.9674 20.492 12.3131 21.3545 11.748C21.414 11.5695 21.4438 11.3911 21.533 11.2424C21.6817 11.0044 21.8601 10.7665 22.0683 10.5286C20.7597 11.2424 19.57 12.1346 18.4993 13.1756L16.0605 10.7367C19.3321 7.55439 23.5852 5.56169 28.1654 5.08583C28.1654 4.9966 28.1356 4.93712 28.1356 4.93712C28.1059 4.75867 28.0761 4.60996 28.0464 4.40177C16.4769 5.59144 8.11948 15.9118 9.33889 27.4516C10.4691 38.1288 19.4511 46.2483 30.1878 46.2186ZM40.5082 9.93372L40.3 9.60656L39.8539 9.36863L39.497 9.6363L39.9431 9.87424L40.4487 10.2311L40.5082 9.93372ZM38.4263 19.689L38.456 19.9567L39.0508 19.7782L39.2293 19.4213L38.8129 18.886L39.0211 18.5588L39.5862 18.9454L39.6754 18.8562L39.5564 18.767L39.4375 18.5291L39.6754 18.4101L39.4375 18.1127L38.9021 18.3804L38.7237 18.7075L38.6047 19.0049L38.8426 19.3916L38.7534 19.57L38.4263 19.689ZM13.5027 35.1547L13.5325 35.006L13.235 34.3219L12.8781 34.1732L13.5027 35.1547ZM27.5705 22.1873C27.5705 22.7821 27.9274 23.1688 28.552 23.5257V23.258L28.1654 22.8416L28.3736 22.455L28.552 22.3955C28.5223 21.7114 28.5223 20.9679 28.5223 20.8489H28.4925C27.8977 21.2058 27.6003 21.6222 27.5705 22.1873Z" fill="#666562"></path>
  <path d="M74.265 12.6997H74.2353L71.8559 25.1318H68.5843L65.4912 9.9635H68.1085L70.2499 21.652H70.2796L72.5697 9.9635H75.9603L78.2206 21.652H78.2504L80.481 9.9635H83.0091L79.8862 25.1318H76.5551L74.265 12.6997Z" fill="#666562"></path>
  <path d="M87.0538 13.7406C89.3439 13.7406 91.9612 14.9303 91.9612 19.4807C91.9612 24.1799 89.3439 25.2506 87.0538 25.2506C84.7637 25.2506 82.1167 24.1502 82.1167 19.4807C82.1464 14.9303 84.7935 13.7406 87.0538 13.7406ZM87.0538 23.3769C88.7788 23.3769 89.1952 21.3842 89.1952 19.5105C89.1952 17.6368 88.8086 15.6738 87.0538 15.6738C85.2991 15.6738 84.9124 17.6368 84.9124 19.5105C84.9124 21.3842 85.3288 23.3769 87.0538 23.3769Z" fill="#666562"></path>
  <path d="M93.2997 15.7631C93.2997 15.1385 93.2699 14.5437 93.2104 13.9191H95.6493C95.679 14.6032 95.7385 15.2872 95.7385 15.9713H95.7682C96.0954 15.1088 96.9282 13.7704 98.6234 13.7704C98.7721 13.7704 98.9208 13.8001 99.0696 13.8299V16.3579C98.8316 16.2984 98.5639 16.2389 98.326 16.2389C97.2256 16.2389 96.0062 16.923 96.0062 19.0049V25.1317H93.3294L93.2997 15.7631Z" fill="#666562"></path>
  <path d="M100.14 8.83325H102.847V25.1019H100.14V8.83325Z" fill="#666562"></path>
  <path d="M113.821 8.83325V23.1985C113.821 23.8231 113.851 24.4774 113.911 25.1019H111.383C111.323 24.5369 111.293 23.942 111.293 23.3769H111.234C110.788 24.3287 109.985 25.2804 108.26 25.2804C105.494 25.2804 104.334 22.6334 104.334 19.5403C104.334 15.882 105.791 13.7704 108.2 13.7704C109.449 13.7109 110.579 14.4247 111.085 15.5549H111.115V8.83325H113.821ZM108.973 23.2877C110.55 23.2877 111.085 21.5627 111.085 19.4808C111.085 17.3096 110.49 15.7333 109.003 15.7333C107.516 15.7333 106.981 17.1907 106.981 19.4213C107.01 22.0088 107.427 23.2877 108.973 23.2877Z" fill="#666562"></path>
  <path d="M121.852 9.9635H124.647V16.12H129.138V9.9635H131.904V25.1318H129.138V18.4101H124.647V25.102H121.852V9.9635Z" fill="#666562"></path>
  <path d="M141.778 24.5666C140.737 25.0425 139.577 25.2804 138.447 25.2804C134.849 25.2804 133.272 22.6929 133.272 19.689C133.272 16.3579 135.027 13.7704 137.882 13.7704C140.291 13.7704 142.343 15.1682 142.343 19.7485V20.2838H135.889C135.889 22.1873 136.663 23.3472 138.745 23.3472C140.38 23.3472 141.184 22.8416 141.689 22.4847L141.778 24.5666ZM139.726 18.5588C139.726 16.5958 139.072 15.5846 137.852 15.5846C136.425 15.5846 135.86 17.0717 135.86 18.5588H139.726Z" fill="#666562"></path>
  <path d="M143.86 14.5734C144.961 14.038 146.18 13.7406 147.4 13.7406C150.879 13.7406 151.683 15.4359 151.683 18.2316V23.1092C151.683 23.7635 151.742 24.4179 151.831 25.0722H149.392C149.273 24.5666 149.214 24.061 149.244 23.5554H149.214C148.53 24.4773 147.697 25.2506 146.091 25.2506C144.366 25.2506 142.76 24.061 142.76 21.979C142.76 18.9454 145.229 18.1721 148.649 18.1721H149.184V17.7557C149.184 16.6553 148.649 15.6143 147.102 15.6143C146.002 15.6441 144.931 16.0307 144.039 16.7148L143.86 14.5734ZM149.154 19.6295H148.917C146.626 19.6295 145.258 20.1053 145.258 21.7411C145.199 22.6334 145.883 23.4066 146.775 23.4661H146.983C148.589 23.4661 149.184 22.2765 149.184 20.2838V19.6295H149.154Z" fill="#666562"></path>
  <path d="M154.27 8.83325H156.947V25.1019H154.27V8.83325Z" fill="#666562"></path>
  <path d="M159.921 11.629L162.598 10.7963V13.9191H164.828V15.8821H162.598V21.7115C162.598 22.9011 163.044 23.258 163.817 23.258C164.174 23.258 164.531 23.1688 164.828 23.0201V24.9236C164.263 25.1615 163.639 25.2805 163.014 25.2805C161.021 25.2805 159.891 24.3585 159.891 22.0089V15.9118H158.107V13.9489H159.891V11.629H159.921Z" fill="#666562"></path>
  <path d="M165.869 8.83325H168.546V15.3764H168.606C169.081 14.6924 169.706 13.7704 171.371 13.7704C173.9 13.7704 174.673 15.6441 174.673 17.9045V25.1019H171.996V18.4101C171.996 16.6851 171.55 15.9713 170.449 15.9713C169.052 15.9713 168.546 17.1609 168.546 18.5885V25.1019H165.869V8.83325Z" fill="#666562"></path>
  <path d="M71.5881 29.1469C74.7407 29.1469 77.6257 31.4964 77.6257 36.9392C77.6257 42.3819 74.7407 44.7315 71.5881 44.7315C68.4355 44.7315 65.5505 42.3819 65.5505 36.9392C65.5505 31.4964 68.4355 29.1469 71.5881 29.1469ZM71.5881 42.6198C73.3429 42.6198 74.7705 41.1327 74.7705 36.9392C74.7705 32.7456 73.3429 31.2883 71.5881 31.2883C69.8333 31.2883 68.4057 32.7753 68.4057 36.9392C68.4057 41.103 69.8333 42.6198 71.5881 42.6198Z" fill="#666562"></path>
  <path d="M78.7262 35.0951C78.7262 34.4705 78.6964 33.8757 78.637 33.2511H81.0758C81.1055 33.9352 81.165 34.6192 81.165 35.3033H81.1947C81.5219 34.4408 82.3844 33.1024 84.0499 33.1024C84.1987 33.1024 84.3474 33.1322 84.4961 33.1619V35.6899C84.2581 35.6305 83.9905 35.571 83.7228 35.571C82.6223 35.571 81.4029 36.255 81.4029 38.3369V44.4637H78.7262V35.0951Z" fill="#666562"></path>
  <path d="M85.8641 46.397C86.8753 46.9918 88.0055 47.319 89.1654 47.3487C91.6934 47.3487 92.1098 45.594 92.1098 43.8392V42.7685H92.0801C91.634 43.631 90.8904 44.672 89.1357 44.672C87.5891 44.672 85.2395 43.631 85.2395 39.1103C85.2395 36.0172 86.3399 33.3107 89.2844 33.3107C90.9202 33.3107 91.6637 34.2327 92.2288 35.2141H92.318C92.318 34.6193 92.3775 34.0542 92.4072 33.4891H94.8461C94.8163 34.084 94.7568 34.649 94.7568 35.2439V43.4823C94.7568 46.9918 93.6861 49.4604 89.5818 49.4604C88.2732 49.4604 86.9645 49.2225 85.7451 48.7763L85.8641 46.397ZM89.7602 42.6793C91.4555 42.6793 92.1396 41.4599 92.1396 38.9318C92.1396 36.5823 91.2473 35.3331 89.9684 35.3628C88.5408 35.3926 88.0055 36.7012 88.0055 38.9616C88.0055 41.5789 88.8382 42.6793 89.7602 42.6793Z" fill="#666562"></path>
  <path d="M97.1659 33.9055C98.2663 33.3404 99.4857 33.0728 100.705 33.0728C104.185 33.0728 104.988 34.768 104.988 37.5637V42.4414C104.988 43.0957 105.047 43.75 105.137 44.4043H102.698C102.579 43.8987 102.519 43.3931 102.549 42.8875H102.519C101.835 43.8095 101.003 44.5828 99.3965 44.5828C97.6715 44.5828 96.0654 43.3931 96.0654 41.3112C96.0654 38.2775 98.534 37.5043 101.954 37.5043H102.49V37.0879C102.49 35.9874 101.954 34.9465 100.408 34.9465C99.3073 34.9762 98.2366 35.3629 97.3443 36.0469L97.1659 33.9055ZM102.46 38.9616H102.222C99.9319 38.9616 98.5637 39.4375 98.5637 41.0733C98.5043 41.9655 99.1883 42.7388 100.081 42.7983H100.289C101.895 42.7983 102.49 41.6086 102.49 39.6159L102.46 38.9616Z" fill="#666562"></path>
  <path d="M107.278 35.0951C107.278 34.4705 107.248 33.8757 107.189 33.2511H109.717C109.747 33.8162 109.806 34.411 109.806 34.9761H109.836C110.223 34.2921 110.996 33.1024 112.81 33.1024C115.338 33.1024 116.111 34.9761 116.111 37.2365V44.434H113.405V37.7124C113.405 35.9874 112.959 35.2736 111.858 35.2736C110.461 35.2736 109.955 36.4632 109.955 37.8908V44.4043H107.278V35.0951Z" fill="#666562"></path>
  <path d="M117.985 28.5818H120.781V31.2288H117.985V28.5818ZM118.045 33.3405H120.721V44.5233H118.045V33.3405Z" fill="#666562"></path>
  <path d="M123.041 42.2331L127.83 35.4223H123.19V33.3701H130.506V35.6602L125.807 42.5008H130.655V44.553H123.011V42.2331H123.041Z" fill="#666562"></path>
  <path d="M132.558 33.9055C133.659 33.3404 134.878 33.0728 136.098 33.0728C139.577 33.0728 140.381 34.768 140.381 37.5637V42.4414C140.381 43.0957 140.44 43.75 140.529 44.4043H138.09C137.971 43.8987 137.912 43.3931 137.942 42.8875H137.912C137.228 43.8095 136.395 44.5828 134.789 44.5828C133.064 44.5828 131.458 43.3931 131.458 41.3112C131.458 38.2775 133.927 37.5043 137.347 37.5043H137.882V37.0879C137.882 35.9874 137.347 34.9465 135.8 34.9465C134.7 34.9762 133.629 35.3629 132.737 36.0469L132.558 33.9055ZM137.852 38.9616H137.615C135.324 38.9616 133.956 39.4375 133.956 41.0733C133.897 41.9655 134.581 42.7388 135.473 42.7983H135.681C137.287 42.7983 137.882 41.6086 137.882 39.6159V38.9616H137.852Z" fill="#666562"></path>
  <path d="M143.265 30.9313L145.942 30.0985V33.2214H148.173V35.1843H145.942V40.984C145.942 42.1736 146.388 42.5305 147.162 42.5305C147.518 42.5305 147.875 42.471 148.173 42.2926V44.1961C147.608 44.4637 146.983 44.5827 146.359 44.553C144.366 44.553 143.236 43.631 143.236 41.3111V35.1843H141.451V33.2214H143.236L143.265 30.9313Z" fill="#666562"></path>
  <path d="M149.809 28.5818H152.575V31.2288H149.809V28.5818ZM149.868 33.3405H152.575V44.5233H149.898L149.868 33.3405Z" fill="#666562"></path>
  <path d="M159.029 33.3107C161.319 33.3107 163.936 34.5003 163.936 39.0508C163.936 43.75 161.319 44.8207 159.029 44.8207C156.738 44.8207 154.091 43.75 154.091 39.0508C154.121 34.5301 156.768 33.3107 159.029 33.3107ZM159.029 42.947C160.754 42.947 161.17 40.9543 161.17 39.0806C161.17 37.2068 160.783 35.2439 159.029 35.2439C157.274 35.2439 156.887 37.2068 156.887 39.0806C156.887 40.9543 157.304 42.947 159.029 42.947Z" fill="#666562"></path>
  <path d="M166.167 35.0951C166.167 34.4705 166.137 33.8757 166.077 33.2511H168.605C168.635 33.8162 168.695 34.411 168.695 34.9761H168.724C169.111 34.2921 169.884 33.1024 171.699 33.1024C174.227 33.1024 175 34.9761 175 37.2365V44.434H172.323V37.7124C172.323 35.9874 171.877 35.2736 170.777 35.2736C169.379 35.2736 168.873 36.4632 168.873 37.8908V44.4043H166.196L166.167 35.0951Z" fill="#666562"></path>
</svg>
