<svg width="170" height="48" viewBox="0 0 170 48" fill="none" xmlns="http://www.w3.org/2000/svg">
<path d="M87.6916 12.1207H83.0985L80.5081 16.3221H85.0988L87.6916 12.1207ZM99.6065 23.1755C97.2005 23.3746 92.9494 25.5276 90.634 30.2318C88.3187 34.9359 88.3102 37.8399 88.3102 37.8399C88.3102 37.8399 89.5313 36.5009 91.4033 35.0989C93.2752 33.6969 94.6684 33.1988 94.6684 33.1988C94.6684 33.1988 95.0158 31.4716 95.8803 29.6653C96.721 27.9081 98.055 26.0787 99.7057 25.6636C103.052 24.8212 101.449 30.9297 98.9918 34.9129C97.6708 37.0536 92.9855 43.2059 88.9519 43.2059C84.9183 43.2059 84.1398 39.3158 84.9905 35.6785C85.8404 32.042 87.0169 27.4216 92.9018 19.0263C98.7866 10.631 105.156 5.65394 108.843 3.56242C112.63 1.41556 114.173 2.3564 114.173 2.3564C114.173 2.3564 109.339 5.33494 106.589 8.91843C103.959 12.3436 102.39 16.1976 103.61 18.0862C104.772 19.8856 108.868 19.9195 113.378 13.4058C117.83 6.97603 116.705 3.15272 116.705 3.15272C116.705 3.15272 117.243 2.97747 117.605 2.92905C119.775 2.64003 121.514 3.21268 124.207 4.59396C127.028 6.04134 129.735 8.36269 133.443 10.262C134.56 9.03834 135.802 7.73854 137.11 6.47025C132.11 4.03591 128.315 0.566192 123.411 0.233363C119.143 -0.0556523 115.778 1.50011 115.778 1.50011C115.778 1.50011 114.476 -0.273182 110.46 0.305617C106.444 0.885185 94.0714 6.05979 83.5443 22.9226C74.0261 38.1689 78.5109 46.9062 85.3524 46.8063C92.7688 46.6972 99.824 38.4472 102.212 31.6438C104.599 24.8404 101.777 22.9964 99.6065 23.1755ZM114.166 9.00836C112.919 12.0476 111.084 14.1714 109.278 15.7933C106.962 17.8741 105.691 17.8041 105.141 17.386C103.704 16.2914 105.632 12.1637 108.979 8.4726C112.311 4.79611 115.181 3.65235 115.181 3.65235C115.181 3.6954 115.658 5.36415 114.166 9.00836ZM155.465 4.57628C152.071 6.76004 147.366 8.73779 142.85 8.30196C141.708 9.488 140.483 10.8547 139.254 12.3497C147.093 13.8963 153.949 9.0391 157.599 4.90065C159.876 2.32027 161 0.0166016 161 0.0166016C161 0.0166016 158.826 2.41328 155.465 4.57628Z" fill="#858D9D" style="fill:#858D9D;fill:color(display-p3 0.5216 0.5529 0.6157);fill-opacity:1;"/>
<path d="M151.757 23.7373H146.927L146.143 24.9503C146.143 24.9503 145.157 23.1724 143.489 23.2008C140.63 23.25 137.77 25.433 134.445 29.2194C132.008 31.9935 127.969 38.1696 127.969 38.1696C127.969 38.1696 124.87 42.9468 123.303 42.5725C120.63 41.9338 125.546 32.0419 125.546 32.0419C125.546 32.0419 128.13 30.4454 131.479 27.6267C133.588 25.8527 136.014 23.4122 138.244 21.15C140.272 19.0923 142.662 16.2983 144.933 13.2375C144.351 13.3297 143.755 13.392 143.147 13.4219C141.11 16.1092 138.935 18.5143 137.086 20.4259C134.332 23.2715 131.799 25.5998 129.959 27.0848C128.195 28.5068 127.064 29.1471 127.064 29.1471C127.064 29.1471 130.428 22.2361 136.036 14.6003C141.643 6.96521 149.495 -0.127959 148.879 3.23722C148.703 4.20343 148.103 5.58932 147.197 7.23424C147.835 7.10126 148.454 6.93524 149.052 6.74615C150.403 3.95669 150.863 1.65763 149.855 0.993512C145.741 -1.71677 135.276 9.49794 130.03 16.0115C124.784 22.5251 120.037 32.4793 120.037 32.4793C120.037 32.4793 119.216 32.8236 118.308 32.9958C117.736 33.1049 117.491 33.0811 117.398 33.0442C117.351 33.025 117.345 32.9927 117.345 32.9927C117.345 32.9927 121.96 24.3638 117.236 23.2192C112.676 22.1155 104.777 30.5522 101.968 36.4209C100.041 40.4472 98.9532 45.5157 102.258 46.7225C105.838 48.03 111.918 41.4933 113.347 39.594C114.777 37.6938 116.561 34.5347 116.561 34.5347C116.561 34.5347 117.434 34.4885 117.911 34.4186C118.824 34.2841 119.251 34.1718 119.251 34.1718C119.251 34.1718 118.66 35.7222 118.019 37.6877C116.826 41.3526 115.749 46.5964 120.046 46.8432C122.783 46.9992 126.799 42.0544 126.799 42.0544C126.799 42.0544 125.719 46.4511 129.271 46.8432C131.894 47.1322 135.711 43.0791 135.711 43.0791C135.711 43.0791 134.879 46.5711 137.538 46.8785C139.814 47.1422 143.046 44.4726 145.695 41.5356C148.589 38.3287 150.808 34.8167 150.808 34.8167H149.126C149.126 34.8167 145.403 40.4695 142.788 41.9822C140.642 43.2243 141.377 41.2343 142.028 40.1912C142.746 39.0405 151.755 23.7373 151.755 23.7381L151.757 23.7373ZM114.959 34.384C114.893 34.5354 113.685 36.6392 112.391 38.2934C110.998 40.0759 108.448 42.7585 106.914 42.1913C104.518 41.3042 107.155 36.0812 108.879 33.5477C110.604 31.0142 110.8 30.8428 110.848 30.7767C110.897 30.7106 110.945 30.6499 110.987 30.7283C111.03 30.8067 111.578 31.8474 112.662 32.7506C113.75 33.6576 114.796 34.1365 114.881 34.1665C114.966 34.1964 115.026 34.2326 114.959 34.3832V34.384ZM116.038 32.5016C115.886 32.7537 115.778 32.766 115.464 32.6822C114.91 32.5323 112.618 31.4723 112.636 29.121C112.652 26.8296 115.881 24.5851 117.147 25.5444C118.329 26.4392 117.764 28.7267 117.319 29.8935C116.874 31.0596 116.137 32.3363 116.038 32.5016ZM137.979 38.1696C137.341 39.0444 136.807 39.8345 136.326 40.3895C135.298 41.5771 134.627 42.1298 134.029 42.2758C133.728 42.3488 133.355 42.3312 133.107 42.1813C132.23 41.647 132.844 39.5671 134.372 36.7707C135.77 34.2149 137.385 31.6576 140.04 28.7136C142.706 25.7581 143.726 25.6159 144.472 25.6497C145.1 25.6766 145.189 26.3369 145.189 26.3369C145.189 26.3369 145.144 26.4899 145.045 26.6628C144.165 28.1886 139.732 35.7645 137.978 38.1696H137.979ZM66.7372 41.8669C63.8086 40.0567 60.0516 38.8952 55.7352 38.8576C44.6156 38.7607 32.5085 44.1644 24.3083 44.2374C14.6365 44.322 14.1547 36.8791 14.8717 32.7921C16.4147 23.9871 22.6585 15.5872 26.6729 11.1582C30.6881 6.72924 34.8954 3.29257 38.3934 2.41399C41.8914 1.53542 41.5625 4.19651 41.1345 4.56008C40.6926 4.56931 39.845 4.66462 39.3639 4.99745C38.6109 5.51706 37.6049 6.46866 37.5419 7.97753C37.4336 10.302 40.4367 10.7093 42.6076 5.8422C44.0884 2.52237 41.74 0.269437 39.7897 0.0526753C37.1147 -0.245564 33.0265 0.684512 28.1468 3.8214C19.6538 9.28041 8.29368 21.4029 8.00397 34.8529C7.83875 42.5256 12.8499 46.8432 19.7253 46.8432C26.6006 46.8432 35.9351 42.6317 45.0498 42.5241C50.6933 42.4757 54.3458 44.4542 56.1955 47.6764C56.1955 47.6764 58.0336 44.6179 62.1272 44.4542C66.177 44.2912 70.6356 45.4265 74.2957 48C73.0746 46.2352 69.6227 43.6502 66.7364 41.8669H66.7372Z" fill="#858D9D" style="fill:#858D9D;fill:color(display-p3 0.5216 0.5529 0.6157);fill-opacity:1;"/>
<path d="M41.414 11.6504C36.7525 10.4621 29.0111 18.3992 25.749 24.859C23.7372 28.8438 22.855 33.8516 26.4367 35.1544C30.0185 36.4573 36.0955 29.9253 37.5248 28.0259C38.9541 26.1258 41.2933 22.3202 41.2933 22.3202C41.2933 22.3202 42.0111 22.1818 42.4814 22.0726C42.9517 21.9635 43.7117 21.7467 43.7117 21.7467C43.7117 21.7467 42.8302 23.3179 42.0349 24.9282C41.092 26.8376 38.53 33.1936 43.4765 35.0999C48.2025 36.9208 54.9304 29.3272 55.2839 29.1835C55.2839 29.1835 53.2813 34.3581 56.392 35.1544C59.8055 36.0276 63.5463 31.6532 63.5463 31.6532C63.5463 31.6532 62.7587 34.9369 65.4183 35.2451C70.1812 35.7963 78.6058 23.6107 78.6058 23.6107H76.9229C76.9229 23.6107 72.6356 29.1289 70.5739 30.2688C68.5121 31.4088 69.2537 29.3833 69.8139 28.4779C70.5285 27.3257 79.6363 12.1032 79.6363 12.1032H74.8065L74.2463 12.9894C74.2463 12.9894 73.2512 11.4698 71.5875 11.5782C66.7469 11.8941 60.9874 19.6114 58.4545 23.0127C55.9225 26.4148 50.4595 32.9099 47.5832 31.7523C44.4486 30.4902 47.5655 24.6961 49.6273 21.294C51.8719 17.5906 55.8502 13.9226 57.4233 13.8941C59.359 13.858 58.599 15.6128 58.599 15.6128C58.599 15.6128 57.152 15.4322 56.103 16.7528C55.3607 17.6867 54.746 19.0503 55.4514 19.792C56.591 20.9904 58.0749 19.7736 58.9609 18.4161C61.7235 14.1862 59.7025 11.9571 57.5324 11.632C52.9093 10.9379 48.6505 16.8788 45.413 19.0864C43.1668 20.6168 42.2285 20.4977 42.2285 20.4977C42.2285 20.4977 46.1254 12.8511 41.4147 11.6497L41.414 11.6504ZM62.3429 25.3294C63.7407 22.7729 65.645 20.3047 68.1233 17.2109C70.6015 14.117 71.8349 13.8665 72.5811 13.9003C73.2089 13.928 73.298 14.5875 73.298 14.5875C73.298 14.5875 67.9135 23.972 65.96 26.65C65.3222 27.5247 64.7766 28.2657 64.2956 28.8215C63.2674 30.009 62.5204 30.5832 61.9441 30.7262C61.6429 30.8 61.2694 30.7815 61.0212 30.6309C60.1436 30.0967 60.8129 28.1251 62.3422 25.3294H62.3429ZM39.4905 22.284C39.4237 22.4347 37.886 24.9782 36.5934 26.6323C35.201 28.4148 32.6274 31.1082 31.0944 30.5409C28.6975 29.6539 31.2542 24.467 32.9786 21.9343C34.703 19.4008 34.9559 19.0749 35.005 19.0095C35.0535 18.9427 35.1011 18.8819 35.1434 18.9611C35.1856 19.0395 35.7343 20.1679 36.9223 20.9273C38.1104 21.6875 39.3284 22.0373 39.4129 22.0673C39.4974 22.0972 39.5582 22.1341 39.4913 22.284H39.4905ZM41.4954 18.3247C41.0497 19.4923 40.6517 20.2279 40.5694 20.4016C40.4373 20.6798 40.1061 20.5907 40.1061 20.5907C39.7288 20.5738 36.7956 19.9043 36.8125 17.5529C36.8286 15.2616 40.0584 13.0171 41.3241 13.9764C42.506 14.8711 41.9411 17.1586 41.4954 18.3247ZM148.123 44.0539C147.841 43.8941 147.527 43.8149 147.182 43.8149C146.837 43.8149 146.524 43.8948 146.242 44.0539C145.96 44.2138 145.738 44.4306 145.576 44.7065C145.415 44.9817 145.333 45.2815 145.333 45.6043C145.333 45.9272 145.414 46.2323 145.576 46.506C145.737 46.7788 145.96 46.9956 146.242 47.1547C146.524 47.3146 146.837 47.3938 147.182 47.3938C147.527 47.3938 147.841 47.3138 148.123 47.1547C148.405 46.9956 148.626 46.7788 148.788 46.506C148.95 46.2331 149.031 45.9325 149.031 45.6043C149.031 45.2761 148.95 44.9817 148.788 44.7065C148.627 44.4314 148.405 44.2138 148.123 44.0539ZM148.454 46.3453C148.332 46.5636 148.16 46.735 147.939 46.8603C147.719 46.9848 147.466 47.0471 147.182 47.0471C146.899 47.0471 146.646 46.9848 146.425 46.8603C146.205 46.7358 146.033 46.5644 145.91 46.3453C145.788 46.127 145.727 45.8795 145.727 45.6043C145.727 45.3291 145.788 45.0886 145.91 44.8703C146.033 44.652 146.205 44.4805 146.428 44.3553C146.651 44.23 146.902 44.1685 147.182 44.1685C147.462 44.1685 147.713 44.2307 147.936 44.3553C148.159 44.4798 148.332 44.6512 148.454 44.8703C148.576 45.0886 148.638 45.3338 148.638 45.6043C148.638 45.8749 148.576 46.127 148.454 46.3453Z" fill="#858D9D" style="fill:#858D9D;fill:color(display-p3 0.5216 0.5529 0.6157);fill-opacity:1;"/>
<path d="M147.877 45.5746C147.929 45.4893 147.955 45.394 147.955 45.2895C147.955 45.145 147.909 45.0243 147.815 44.9259C147.721 44.8275 147.595 44.7783 147.438 44.7783H146.501V46.3979H146.913V45.8076H147.228L147.608 46.3979H148.08L147.654 45.7684C147.75 45.7245 147.825 45.66 147.877 45.5746ZM147.484 45.404C147.453 45.4324 147.411 45.4463 147.359 45.4463H146.913V45.1319H147.359C147.411 45.1319 147.453 45.1465 147.484 45.1742C147.514 45.2026 147.53 45.2411 147.53 45.2887C147.53 45.3364 147.514 45.3748 147.484 45.4032V45.404Z" fill="#858D9D" style="fill:#858D9D;fill:color(display-p3 0.5216 0.5529 0.6157);fill-opacity:1;"/>
</svg>
