<svg width="147" height="49" viewBox="0 0 147 49" fill="none" xmlns="http://www.w3.org/2000/svg">
<path fill-rule="evenodd" clip-rule="evenodd" d="M0 31.3619V31.2691C0 22.1381 7.01176 14.4054 16.878 14.4054C21.7873 14.4054 25.0591 15.5689 28.052 17.7122C28.4139 17.9802 28.7084 18.3307 28.9115 18.7353C29.1147 19.1399 29.2208 19.5873 29.2213 20.0411C29.2213 21.5796 27.9594 22.8842 26.3688 22.8842C25.6208 22.8842 25.0601 22.5575 24.592 22.2309C22.4884 20.6944 20.1977 19.6681 16.644 19.6681C10.6133 19.6681 6.03171 24.9338 6.03171 31.1754V31.2691C6.03171 37.9775 10.4728 42.9155 17.1589 42.9155C20.2445 42.9155 23.0492 41.9376 25.0601 40.4465V34.344H18.6081C17.2047 34.344 16.0374 33.2734 16.0374 31.876C16.0374 30.4777 17.2047 29.3596 18.6081 29.3596H27.7253C29.3608 29.3596 30.6237 30.6178 30.6237 32.2491V40.9597C30.6237 42.5899 29.9693 43.7553 28.6138 44.5931C25.8081 46.4572 21.8809 48.1338 16.9726 48.1338C6.73189 48.1328 0 40.8669 0 31.3619ZM35.7799 16.1284C35.7799 14.591 36.995 13.3328 38.5836 13.3328C40.1742 13.3328 41.4361 14.591 41.4361 16.1284V45.0125C41.4361 46.5963 40.1732 47.8071 38.5836 47.8071C37.0418 47.8071 35.7799 46.5973 35.7799 45.0115V16.1284ZM45.8185 35.4157V35.321C45.8185 28.2869 51.4279 22.4638 59.0024 22.4638C66.5759 22.4638 72.1405 28.1942 72.1405 35.2292V35.321C72.1405 42.3106 66.5301 48.1338 58.9088 48.1338C51.3811 48.1338 45.8185 42.4034 45.8185 35.4157ZM66.4833 35.4157V35.321C66.4833 30.9899 63.3499 27.4028 58.9088 27.4028C54.373 27.4028 51.4747 30.9435 51.4747 35.2292V35.321C51.4747 39.6077 54.6071 43.1948 59.0024 43.1948C63.5839 43.1948 66.4833 39.6541 66.4833 35.4157ZM86.2646 48.04H85.9837C84.4419 48.04 83.4121 47.0621 82.7587 45.57L74.5319 26.7959C74.3904 26.3765 74.2032 25.9127 74.2032 25.3985C74.2032 24.0012 75.4651 22.6966 77.0079 22.6966C78.5497 22.6966 79.3445 23.5818 79.8126 24.7473L86.171 41.0514L92.623 24.6545C93.0443 23.6756 93.7913 22.6966 95.2883 22.6966C96.831 22.6966 98.0462 23.8621 98.0462 25.3985C98.0462 25.9127 97.8599 26.4712 97.7205 26.7495L89.4916 45.571C88.8343 47.0147 87.8084 48.04 86.2646 48.04ZM100.109 35.4157V35.321C100.109 28.2869 105.719 22.4638 113.296 22.4638C120.867 22.4638 126.432 28.1942 126.432 35.2292V35.321C126.432 42.3106 120.821 48.1338 113.2 48.1338C105.673 48.1338 100.109 42.4034 100.109 35.4157ZM120.776 35.4157V35.321C120.776 30.9899 117.642 27.4028 113.2 27.4028C108.665 27.4028 105.767 30.9435 105.767 35.2292V35.321C105.767 39.6077 108.898 43.1948 113.295 43.1948C117.875 43.1948 120.776 39.6541 120.776 35.4157ZM135.892 0.133789C129.766 0.133789 124.783 5.10105 124.783 11.2035C124.783 13.5283 125.509 15.7604 126.878 17.6578L127.174 18.0661L132.957 26.199C132.957 26.199 133.663 27.3483 135.202 27.3483H136.583C138.123 27.3483 138.826 26.199 138.826 26.199L144.611 18.0661L144.903 17.6578C146.265 15.7882 147 13.5264 147 11.2035C147 5.10105 142.017 0.133789 135.892 0.133789ZM140.463 14.472L140.156 14.9015L135.893 20.8971L131.636 14.9136L131.323 14.479C130.63 13.5309 130.255 12.383 130.253 11.2035C130.253 8.10539 132.783 5.58497 135.891 5.58497C139 5.58497 141.529 8.10539 141.529 11.2035C141.529 12.378 141.161 13.5082 140.463 14.472ZM132.767 32.3418V32.3196C132.767 30.6662 134.085 29.2961 135.865 29.2961C137.647 29.2961 138.953 30.643 138.953 32.2974V32.3196C138.953 33.9609 137.635 35.33 135.844 35.33C134.076 35.33 132.766 33.9841 132.766 32.3418H132.767Z" fill="#858D9D" style="fill:#858D9D;fill:color(display-p3 0.5216 0.5529 0.6157);fill-opacity:1;"/>
</svg>
