<svg width="207" height="48" viewBox="0 0 207 48" fill="none" xmlns="http://www.w3.org/2000/svg">
<path fill-rule="evenodd" clip-rule="evenodd" d="M52.9791 31.2211H57.7554C59.6192 31.2211 60.3274 31.868 60.3274 33.455C60.3274 34.9817 59.618 35.6286 57.7554 35.6286H52.9791V31.2211ZM45.5781 47.264H52.9791V40.7397H60.9052C66.1536 40.7397 68.0432 37.626 68.0432 33.6016C68.0432 28.9292 66.1007 26.285 60.8511 26.285H45.5781V47.264ZM70.4836 26.2861H90.4026V31.3973H77.8847V34.2177H89.5112V39.3313H77.8847V42.1517H90.4026V47.264H70.4836V26.2861ZM100.899 31.2211H105.676C107.541 31.2211 108.249 31.868 108.249 33.455C108.249 34.9817 107.539 35.6286 105.676 35.6286H100.899V31.2211ZM93.4995 47.264H100.901V40.7397H108.827C114.077 40.7397 115.965 37.626 115.965 33.6016C115.965 28.9292 114.022 26.285 108.774 26.285H93.4995V47.264ZM123.13 38.3604C119.508 37.7442 118.013 35.3921 118.013 32.4545C118.013 27.0193 122.763 25.5506 128.851 25.5506C137.195 25.5506 140.634 27.9891 140.898 32.4261H132.29C132.29 31.5723 131.843 31.0425 131.161 30.7492C130.505 30.4287 129.666 30.3093 128.851 30.3093C126.647 30.3093 125.886 30.9266 125.886 31.8088C125.886 32.3954 126.122 32.7785 126.856 32.8956L135.7 34.3644C139.428 34.9805 141.738 36.9211 141.738 40.476C141.738 45.5883 138.01 47.9972 129.691 47.9972C123.998 47.9972 117.777 47.1162 117.75 40.9467H126.673C126.7 41.6503 126.937 42.1198 127.462 42.4438C128.013 42.7383 128.827 42.8849 129.981 42.8849C132.291 42.8849 132.922 42.1801 132.922 41.1808C132.922 40.5647 132.58 39.9474 131.582 39.7724L123.13 38.3604ZM144.149 26.2861H151.551V47.264H144.149V26.2861ZM178.975 39.0959C178.503 41.8584 177.663 44.0912 175.825 45.6191C174.015 47.1481 171.18 47.9996 166.666 47.9996C162.18 47.9996 153.86 47.646 153.86 36.7769C153.86 25.9065 162.18 25.5529 166.666 25.5529C171.127 25.5529 178.004 26.1998 178.974 34.5146H170.629C170.42 33.0151 169.527 30.8415 166.666 30.8415C163.648 30.8415 161.732 32.5172 161.732 36.778C161.732 41.0389 163.597 42.7135 166.299 42.7135C168.636 42.7135 170.027 41.6255 170.631 39.0983H178.975V39.0959ZM188.66 36.7757C188.66 32.5148 190.578 30.8391 193.594 30.8391C196.612 30.8391 198.53 32.5148 198.53 36.7757C198.53 41.0365 196.612 42.7111 193.594 42.7111C190.577 42.7099 188.66 41.0354 188.66 36.7757ZM180.787 36.7757C180.787 47.6448 189.106 47.9984 193.593 47.9984C198.081 47.9984 206.401 47.6448 206.401 36.7757C206.401 25.9053 198.081 25.5518 193.593 25.5518C189.106 25.5506 180.787 25.9042 180.787 36.7757ZM34.3954 26.4931C34.8734 16.4281 26.2533 5.09421 14.5034 3.69284L14.5234 3.55566C26.1077 3.55566 34.9885 14.355 34.9885 22.8732C34.9767 24.6471 34.8382 25.7457 34.5892 26.5439L34.3954 26.4931ZM33.6931 27.7727C32.8364 28.8097 31.8723 29.7516 30.817 30.5825C28.7277 18.4834 19.8974 7.90166 13.6555 4.81275L13.5216 4.90736C19.7999 10.0954 27.2891 20.1722 30.2004 31.0567C28.7151 32.1552 27.1108 33.0804 25.4183 33.8145C19.4934 27.0111 13.9702 13.8903 12.1898 5.56487L12.009 5.61927C12.0489 13.7011 17.7471 27.4226 24.696 34.116C23.1028 34.7524 21.4459 35.2132 19.7541 35.4902C13.0929 32.8329 8.35189 24.3231 8.35189 15.605C8.35189 9.91324 10.0747 6.39268 10.4083 5.67248L10.2662 5.61573C9.86334 6.23067 7.33838 9.74887 7.33838 15.8924C7.33838 25.7469 12.1652 33.28 18.5727 35.651C16.2814 35.9056 13.9647 35.7962 11.7071 35.327L11.659 35.4772C12.3437 35.7315 14.6702 36.7154 18.2169 36.7154C26.2415 36.7154 31.6649 31.6941 33.8493 27.8779L33.6931 27.7727Z" fill="#858D9D" style="fill:#858D9D;fill:color(display-p3 0.5216 0.5529 0.6157);fill-opacity:1;"/>
<path fill-rule="evenodd" clip-rule="evenodd" d="M17.4143 0C11.3309 0 4.19873 4.42051 4.19873 8.4614C4.19873 10.0248 5.61858 11.3457 8.55693 11.3457C15.379 11.3457 21.7184 6.62603 21.7184 2.95528C21.7184 1.02412 19.8758 0 17.4143 0ZM19.8418 2.84057C19.8418 5.93422 13.9427 9.71613 9.01025 9.71613C6.83174 9.71613 5.65381 8.85284 5.65381 7.42664C5.65381 4.28806 11.6209 0.571191 16.2469 0.571191C19.2628 0.572374 19.8418 2.11801 19.8418 2.84057Z" fill="#858D9D" style="fill:#858D9D;fill:color(display-p3 0.5216 0.5529 0.6157);fill-opacity:1;"/>
<path fill-rule="evenodd" clip-rule="evenodd" d="M1.77606 10.3322C1.6046 10.6302 0.919922 11.9807 0.919922 13.3631C0.919922 15.9294 3.49421 18.3111 8.22939 18.3111C17.3381 18.3111 27.8619 11.5597 27.8619 5.29199C27.8619 2.47862 25.2171 0.94954 23.3815 0.633789L23.3463 0.742581C23.917 0.9247 26.0098 1.90389 26.0098 4.41097C26.0098 9.40385 16.718 16.2084 7.46251 16.2084C3.91934 16.2084 1.68681 14.4476 1.68681 11.8814C1.68681 11.0689 1.85475 10.5356 1.89937 10.3795L1.77606 10.3322Z" fill="#858D9D" style="fill:#858D9D;fill:color(display-p3 0.5216 0.5529 0.6157);fill-opacity:1;"/>
<path fill-rule="evenodd" clip-rule="evenodd" d="M31.6168 5.76172C31.8669 5.9533 33.3666 7.21157 33.3666 9.5933C33.3666 17.7129 20.7348 25.6954 9.56621 25.6954C2.90618 25.6954 -0.129645 22.3841 0.00423689 19.4442H0.122852C0.384744 20.971 2.54682 23.7039 8.37537 23.7039C19.5568 23.7039 32.0419 15.4436 32.0419 8.20613C32.0419 6.96441 31.7072 6.18981 31.5181 5.84686L31.6168 5.76172Z" fill="#858D9D" style="fill:#858D9D;fill:color(display-p3 0.5216 0.5529 0.6157);fill-opacity:1;"/>
<path fill-rule="evenodd" clip-rule="evenodd" d="M35.8412 13.3408C35.8929 13.5135 36.1654 14.2904 36.1654 15.5085C36.1654 24.5387 23.3797 32.2705 12.2616 32.2705C6.53874 32.2705 3.55106 29.4713 2.92041 28.3348L3.02141 28.2592C4.6045 29.6546 7.72254 30.713 11.3632 30.713C21.1823 30.713 35.8354 23.1906 35.705 13.3739L35.8412 13.3408Z" fill="#858D9D" style="fill:#858D9D;fill:color(display-p3 0.5216 0.5529 0.6157);fill-opacity:1;"/>
</svg>
