<svg width="297" height="48" viewBox="0 0 297 48" fill="none" xmlns="http://www.w3.org/2000/svg">
<path d="M35.0314 45.6082C31.1116 43.2389 28.2252 35.0616 28.2252 25.3469C28.2252 24.9904 28.2268 24.6384 28.2361 24.2879L28.2408 24.2924C17.3403 22.6392 9.46347 18.1083 9.26242 12.7515L9.22969 12.8132C6.56146 16.0128 5.03877 19.7118 5.03877 23.6531C5.03877 35.2512 18.2287 44.7537 34.9597 45.5946L35.0314 45.6082ZM0 24.5C0 11.5225 16.7325 1 37.3739 1C58.0152 1 74.7477 11.5225 74.7477 24.5C74.7477 37.4775 58.0152 48 37.3739 48C16.7325 48 0 37.4775 0 24.5ZM37.3739 4.39067C41.359 4.39067 44.7473 10.2243 46.0035 18.3655L46.0082 18.3535C53.7604 17.1892 59.1888 14.501 59.1888 11.3751C59.1888 7.17811 49.4214 3.78143 37.3739 3.78143C25.3263 3.78143 15.5589 7.17962 15.5589 11.3751C15.5589 14.501 20.9858 17.1877 28.7395 18.3535L28.7442 18.3655C30.0004 10.2258 33.3902 4.39067 37.3739 4.39067ZM39.7865 45.5946C56.5174 44.7537 69.7089 35.2512 69.7089 23.6531C69.7089 19.7118 68.1847 16.0128 65.518 12.8132L65.4853 12.7515C65.2842 18.1083 57.4089 22.6392 46.5069 24.2924L46.5116 24.2879C46.5194 24.6384 46.5225 24.9904 46.5225 25.3469C46.5225 35.0616 43.633 43.2389 39.7163 45.6082L39.7865 45.5946ZM37.3739 18.9702C39.1599 18.9702 40.8946 18.8965 42.5545 18.7551L42.5529 18.7566C41.7269 13.5382 39.7195 9.85575 37.3739 9.85575C35.0282 9.85575 33.0224 13.5382 32.1948 18.7566L32.1933 18.7551C33.8531 18.8965 35.5878 18.9702 37.3739 18.9702ZM37.3739 38.2943C40.3741 38.2943 42.821 32.2681 42.9519 24.7106L42.9675 24.7151C39.2463 25.0461 35.5014 25.0461 31.7802 24.7151L31.7974 24.7106C31.9267 32.2697 34.3737 38.2943 37.3739 38.2943ZM190.706 24.5C190.706 14.5807 199.038 6.5403 209.314 6.5403C219.594 6.5403 227.924 14.5822 227.924 24.5C227.924 34.4208 219.592 42.4597 209.314 42.4597C199.038 42.4597 190.706 34.4193 190.706 24.5ZM209.314 35.8739C215.054 35.8739 219.706 30.7804 219.706 24.4985C219.706 18.2181 215.054 13.1231 209.314 13.1231C203.577 13.1231 198.926 18.2166 198.926 24.4985C198.926 30.7804 203.578 35.8739 209.314 35.8739ZM249.04 14.0226V41.6444H241.2V14.0226H241.227H230.262V7.77682H259.977V14.0211L249.04 14.0226ZM269.461 34.0252L269.453 34.0327L266.445 41.6459H257.289L271.765 7.77833H281.523L296 41.6459H286.842L283.834 34.0327L283.826 34.0252H276.646H269.461ZM276.646 28.3089H281.579L281.576 28.3104L276.679 15.915H276.61L271.71 28.3104L271.709 28.3089H276.646ZM104.511 14.0226V41.6444H96.6702V14.0226H96.6967H85.7308V7.77682H115.447V14.0211L104.511 14.0226ZM117.455 24.5C117.455 14.5807 125.787 6.5403 136.065 6.5403C146.342 6.5403 154.674 14.5822 154.674 24.5C154.674 34.4208 146.342 42.4597 136.065 42.4597C125.787 42.4597 117.455 34.4193 117.455 24.5ZM136.065 35.8739C141.802 35.8739 146.456 30.7804 146.456 24.4985C146.456 18.2181 141.804 13.1231 136.065 13.1231C130.327 13.1231 125.675 18.2166 125.675 24.4985C125.675 30.7804 130.327 35.8739 136.065 35.8739ZM172.69 41.6444H176.665V28.7842L190.343 7.77682H181.188L172.69 22.0119L164.192 7.77682H155.034L168.714 28.7842V41.6429L172.69 41.6444Z" fill="#858D9D" style="fill:#858D9D;fill:color(display-p3 0.5216 0.5529 0.6157);fill-opacity:1;"/>
</svg>
