<svg width="201" height="48" viewBox="0 0 201 48" fill="none" xmlns="http://www.w3.org/2000/svg">
<path d="M172.28 0C161.885 0 153.325 8.40764 153.325 18.9554C153.325 29.3503 161.732 37.9108 172.28 37.9108C182.675 37.9108 191.236 29.5032 191.236 18.9554C191.236 8.40764 182.675 0 172.28 0ZM186.955 8.40764C186.038 9.01911 184.968 9.63057 183.898 10.242C183.287 9.01911 182.522 7.79618 181.605 6.72611C182.369 6.26752 183.134 5.65605 183.745 5.19745C185.121 5.96178 186.191 7.18471 186.955 8.40764ZM179.006 2.14013C180.535 2.75159 181.911 3.51592 183.287 4.58599C182.675 5.19745 181.911 5.65605 181.146 6.11465C180.229 5.04459 179.159 4.12739 178.089 3.21019C178.395 2.75159 178.701 2.44586 179.006 2.14013ZM180.535 6.42038C179.465 7.03185 178.395 7.33758 177.325 7.79618C176.866 6.72611 176.408 5.65605 175.796 4.73885C176.408 4.43312 177.019 4.12739 177.478 3.66879C178.548 4.43312 179.618 5.35032 180.535 6.42038ZM178.242 1.8344C177.936 2.14013 177.631 2.44586 177.478 2.75159C176.408 2.14013 175.49 1.52866 174.268 1.07006C175.643 1.07006 177.019 1.3758 178.242 1.8344ZM176.866 3.21019C176.408 3.51592 175.949 3.82166 175.49 3.97452C174.879 3.05732 174.268 2.29299 173.656 1.3758C174.726 1.83439 175.796 2.44586 176.866 3.21019ZM172.586 1.52866C173.35 2.29299 173.962 3.21019 174.573 4.28025C173.962 4.43312 173.35 4.58599 172.586 4.58599V1.52866ZM172.586 5.35032C173.35 5.35032 174.268 5.19745 175.032 4.89172C175.643 5.80892 176.102 6.87898 176.561 7.94904C175.338 8.25478 173.962 8.40764 172.586 8.56051V5.35032ZM171.822 1.52866V4.58599C171.21 4.58599 170.599 4.43312 169.834 4.28025C170.599 3.36306 171.21 2.44586 171.822 1.52866ZM169.223 3.97452C168.764 3.82166 168.153 3.51592 167.847 3.21019C168.917 2.59873 169.987 1.98726 171.057 1.52866C170.293 2.29299 169.682 3.05732 169.223 3.97452ZM170.293 0.917198C169.223 1.3758 168.153 1.98726 167.083 2.59873C166.777 2.29299 166.471 1.98726 166.318 1.68153C167.541 1.3758 168.917 1.07006 170.293 0.917198ZM183.287 33.3248C180.841 31.949 180.688 29.9618 180.841 29.3503C180.994 28.586 181.452 28.8917 181.758 28.8917C183.439 28.8917 185.121 28.4331 187.261 26.1401C189.707 23.6943 190.471 18.1911 186.65 14.6752C182.675 10.8535 178.395 11.465 175.643 14.9809C175.032 15.7452 173.656 16.2038 172.586 16.2038C170.752 16.2038 171.975 17.5796 171.975 17.8854C171.975 18.1911 171.669 18.3439 171.516 18.3439C170.904 18.1911 171.21 19.1083 171.21 19.2611C171.21 19.414 170.904 19.7197 170.904 19.7197C170.14 19.7197 170.293 20.3312 170.446 20.6369C170.446 20.7898 170.446 21.0955 170.14 21.2484C169.834 21.4013 169.682 22.0127 169.682 22.4713C169.682 23.2357 170.446 23.8471 171.669 24.7643C172.892 25.6815 173.045 26.5987 173.045 27.2102C173.045 27.8217 173.197 28.8917 173.35 29.5032C173.656 30.2675 173.656 31.7962 171.975 31.7962C169.834 31.949 166.166 33.4777 165.86 33.6306C164.637 34.0892 163.108 34.242 161.885 33.9363C161.274 33.4777 160.662 33.0191 160.051 32.4076C159.745 31.6433 160.204 30.7261 160.662 30.1147C161.427 30.879 162.344 30.7261 162.955 30.7261C163.567 30.7261 166.318 30.2675 166.777 30.1147C167.236 29.9618 167.389 29.9618 167.541 30.1147C168.611 30.5732 170.14 30.5732 170.752 28.586C171.363 26.4459 169.987 27.0573 169.682 27.2102C169.529 27.3631 169.223 27.2102 169.376 27.0573C169.682 26.5987 169.223 26.5987 169.07 26.5987C168.459 26.5987 167.694 27.2102 167.541 27.3631C167.236 27.5159 167.083 27.5159 166.93 27.5159C166.166 27.0573 163.873 27.6688 163.108 26.4459C163.108 26.1401 162.497 21.0955 162.191 20.1783C162.191 20.0255 162.038 19.7197 162.344 19.414C162.955 18.4968 164.484 19.414 165.401 19.414C166.471 19.414 166.624 18.9554 166.93 18.6497C167.236 18.3439 167.389 18.4968 167.541 18.3439C167.694 18.1911 167.541 18.0382 167.541 17.8854C167.541 17.7325 167.694 17.8854 167.847 17.7325C168 17.5796 167.847 17.2739 167.847 17.121C168.153 16.6624 168.764 16.9682 168.459 16.051C168.306 15.4395 168.611 14.828 168.917 14.5223C169.376 13.9108 171.363 11.1592 168 8.25478C164.79 5.50318 161.427 5.80892 159.287 8.10191C157.146 10.3949 158.217 13.758 158.369 14.6752C158.522 15.5924 157.911 16.3567 157.147 16.6624C156.535 16.9682 155.159 17.8854 154.242 18.6497C154.395 11.3121 158.828 4.89172 165.554 2.29299C165.86 2.59873 166.166 3.05732 166.471 3.36306C165.707 3.97452 164.025 5.35032 164.025 5.35032C164.025 5.35032 164.178 5.35032 164.484 5.50318C164.637 5.50318 164.943 5.65605 164.943 5.65605C164.943 5.65605 166.318 4.43312 167.083 3.97452C167.541 4.43312 168.153 4.73885 168.764 5.04459C168.459 5.65605 167.541 7.18471 167.541 7.18471C167.541 7.18471 167.694 7.33758 167.847 7.33758C168 7.49045 168.153 7.49045 168.153 7.49045C168.153 7.49045 169.07 5.80892 169.376 5.19745C170.14 5.50318 170.904 5.65605 171.669 5.65605V8.71338C171.21 8.71338 170.14 8.71338 169.682 8.56051H169.376L169.529 8.86624C169.682 9.01911 169.682 9.17197 169.834 9.32484H171.669V14.9809H172.433V13.6051C173.656 13.6051 174.573 13.4522 175.643 13.2994L176.713 12.3822H176.102C174.879 12.535 173.809 12.6879 172.892 12.6879H172.433V9.17197C173.809 9.17197 175.338 9.01911 176.713 8.56051L177.783 11.7707L178.548 11.465L177.478 8.25478C178.701 7.94904 179.771 7.33758 180.841 6.87898C181.758 7.94904 182.522 9.17198 183.134 10.3949C182.522 10.7006 181.605 11.0064 181.605 11.0064C182.369 11.1592 182.981 11.3121 182.981 11.3121C182.981 11.3121 183.287 11.1592 183.439 11.1592C183.439 11.3121 183.592 11.6178 183.592 11.6178L184.662 12.0764L184.51 11.7707C184.51 11.7707 184.204 11.0064 184.051 10.8535C185.121 10.3949 186.191 9.78344 187.261 9.01911C189.248 11.9236 190.166 15.4395 190.166 18.9554C190.471 24.7643 187.567 29.9618 183.287 33.3248ZM151.643 5.04459L151.338 5.35032C150.268 6.26752 147.669 8.86624 148.127 11.7707V11.9236L148.28 12.535L148.586 12.2293C150.115 10.8535 151.338 8.40764 151.796 5.65605L151.949 4.89172L151.643 5.04459ZM146.446 9.93631L146.293 10.242C146.14 10.7006 145.834 11.7707 145.682 12.9936C145.376 14.828 145.529 17.5796 147.057 19.5669L147.21 19.8726L147.363 20.1783L147.669 18.9554C147.975 16.8153 147.516 12.3822 146.752 10.3949L146.446 9.78344V9.93631ZM144.611 17.5796V17.8854C144.459 19.7197 144.611 24.4586 148.433 27.0573L148.892 27.3631V26.7516C148.892 24.9172 146.752 19.5669 145.223 17.7325L144.764 17.121L144.611 17.5796ZM145.223 25.9873V26.293C145.834 29.0446 148.28 33.3248 152.255 34.7006L152.866 34.8535L152.713 34.242C151.949 32.2548 148.127 27.5159 145.682 25.9873L145.223 25.6815V25.9873ZM153.325 9.17197L152.866 9.32484C149.962 11.1592 148.586 13.2994 148.586 16.051V16.6624L149.045 16.3567C150.573 14.9809 152.713 11.6178 153.172 9.78344L153.325 9.01911V9.17197ZM151.49 14.9809L151.338 15.2866C150.573 16.051 148.127 18.6497 148.28 21.8599C148.28 22.3185 148.433 22.9299 148.586 23.3885L148.739 23.8471L149.045 23.3885C150.268 21.707 151.796 17.4268 151.643 15.4395V14.828L151.49 14.9809ZM151.643 20.6369L151.49 20.9427C150.268 22.7771 149.656 24.6115 149.656 26.4459C149.656 27.6688 150.115 28.8917 150.879 30.1147L151.185 30.5732L151.338 30.1147C151.796 29.0446 152.255 25.8344 152.255 23.2357C152.255 22.3185 152.102 21.5541 151.949 21.0955L151.796 20.4841L151.643 20.6369ZM153.019 26.5987L152.866 26.9045C152.561 28.1274 152.255 29.1975 152.408 30.4204C152.408 32.8662 153.631 34.8535 155.771 36.2293L156.076 36.3822L156.229 35.9236V35.465C156.229 33.4777 154.701 28.2803 153.478 26.7516L153.172 26.293L153.019 26.5987ZM148.892 34.5478L149.045 34.8535C150.573 37.4522 153.325 40.9682 158.369 40.051H158.828L158.522 39.7452C157.605 38.3694 151.49 34.8535 149.35 34.5478L148.739 34.3949L148.892 34.5478ZM156.382 41.2739L155.618 41.4268L156.382 41.7325C159.592 43.1083 163.567 43.414 166.013 42.6497C166.93 42.3439 167.389 41.8853 168 41.2739C172.127 41.7325 175.949 45.0955 178.242 47.8471L178.395 48H178.548C178.854 47.8471 179.159 47.5414 179.312 47.3885L179.465 47.2357L179.312 47.0828C177.019 44.0255 173.35 42.1911 173.197 42.0382C169.834 40.5096 164.025 39.2866 156.382 41.2739Z" fill="#858D9D" style="fill:#858D9D;fill:color(display-p3 0.5216 0.5529 0.6157);fill-opacity:1;"/>
<path d="M156.535 32.7138V33.0195C156.994 36.0768 158.217 40.0513 163.414 39.5927H163.72L163.567 39.287C163.261 37.9112 158.522 33.9367 156.841 32.8666L156.382 32.5609L156.535 32.7138ZM192.611 4.73924L192.764 5.50357C193.223 8.25516 194.446 10.701 195.975 12.0768L196.28 12.3826L196.433 11.7711V11.6182C196.892 8.71376 194.293 6.11504 193.223 5.19784L192.917 4.89211L192.611 4.73924ZM197.962 9.63096L197.656 10.2424C196.892 12.2297 196.586 16.6628 196.739 18.8029L197.045 20.0259L197.197 19.873L197.35 19.5673C199.032 17.58 199.032 14.9813 198.726 12.994C198.573 11.6182 198.268 10.701 198.115 10.2424L197.962 9.93669V9.63096ZM199.949 17.2743L199.49 17.8857C197.962 19.873 195.822 25.0705 195.822 26.9048V27.5163L196.28 27.2106C200.102 24.7647 200.255 20.0259 200.102 18.0386V17.7329L199.949 17.2743ZM199.338 25.6819L198.726 25.9876C196.28 27.5163 192.459 32.2552 191.694 34.2424L191.541 34.8539L192.153 34.701C196.127 33.4781 198.726 29.045 199.185 26.2934V25.9876L199.338 25.6819ZM191.236 8.86663L191.389 9.63096C192 11.6182 193.834 14.9813 195.516 16.3571L195.975 16.6628V16.0513C196.127 13.2997 194.752 11.1596 191.847 9.32523L191.541 9.17236L191.236 8.86663ZM192.917 14.8284V15.4399C192.764 17.4271 194.446 21.8603 195.516 23.3889L195.822 23.8475L195.975 23.3889C196.127 22.7775 196.28 22.3189 196.28 21.8603C196.433 18.6501 193.987 16.0513 193.223 15.287L193.07 15.1341L192.917 14.8284ZM192.764 20.3316L192.611 20.9431C192.459 21.4017 192.306 22.166 192.306 23.0832C192.306 25.6819 192.611 28.8921 193.223 29.9622L193.376 30.4208L193.682 29.9622C194.446 28.8921 194.904 27.6692 194.904 26.2934C194.904 24.6119 194.293 22.6246 193.07 20.7902L192.917 20.4845L192.764 20.3316ZM191.389 26.2934L191.083 26.752C189.86 28.2806 188.331 33.4781 188.331 35.4654V35.924L188.484 36.3826L188.79 36.2297C190.93 34.8539 192 32.8666 192.153 30.4208C192.153 29.3507 192 28.1278 191.694 26.9048L191.541 26.5991L191.389 26.2934ZM195.822 34.2424L195.21 34.3953C193.07 34.701 186.955 38.2169 186.038 39.5927L185.732 39.8985H186.191C191.236 40.8157 193.987 37.2998 195.516 34.701L195.669 34.3953L195.822 34.2424ZM171.516 42.0386C171.363 42.0386 167.694 44.0259 165.401 47.0832L165.248 47.2361L165.401 47.3889C165.554 47.5418 166.013 47.8475 166.166 48.0004H166.318L166.471 47.8475C168.764 45.0959 172.586 41.58 176.713 41.2743C177.325 41.8857 177.936 42.3443 178.701 42.6501C180.994 43.4144 185.121 43.1087 188.331 41.7329L189.096 41.4271L188.331 41.2743C180.535 39.287 174.726 40.5099 171.516 42.0386ZM188.025 32.408L187.567 32.7138C185.885 33.7838 181.299 37.7584 180.841 39.1341L180.688 39.4399H180.994C186.038 39.8985 187.261 35.924 187.873 32.8666V32.5609L188.025 32.408ZM59.0064 1.83478H65.4268V7.6437H59.0064V1.83478ZM59.6178 14.3698H64.9682V42.8029H59.6178V14.3698ZM19.1083 14.3698H24.4586V42.8029H19.2611V38.6755H19.1083C16.9682 42.1915 13.2994 43.7201 9.32484 43.7201C3.36306 43.7201 0 39.1341 0 33.4781V14.3698H5.35032V31.1851C5.35032 36.0768 6.42038 39.7456 11.6178 39.7456C13.758 39.7456 16.8153 38.6755 17.8854 35.6182C18.9554 33.0195 18.9554 29.6564 18.9554 28.8921V14.3698H19.1083ZM35.1592 18.4972C37.1465 14.9813 40.9682 13.4526 43.8726 13.4526C45.8599 13.4526 54.5732 13.9112 54.5732 23.0832V42.6501H49.2229V24.7647C49.2229 20.0259 47.2357 17.58 42.6497 17.58C42.6497 17.58 39.7452 17.4271 37.4522 19.7201C36.6879 20.4845 35.1592 21.7074 35.1592 27.3634V42.8029H29.8089V14.3698H35.1592V18.4972ZM87.4395 23.3889C87.1338 19.873 85.4522 17.4271 81.6306 17.4271C76.586 17.4271 74.5987 21.8603 74.5987 28.4335C74.5987 35.0068 76.586 39.4399 81.6306 39.4399C85.1465 39.4399 87.2866 37.1469 87.5924 33.0195H92.9427C92.4841 39.4399 87.7452 43.2615 81.4777 43.2615C72.4586 43.2615 68.7898 36.8412 68.7898 28.5864C68.7898 20.3316 72.9172 13.4526 81.9363 13.4526C87.8981 13.4526 92.3312 17.2743 92.6369 23.3889H87.4395ZM100.892 29.5036C100.433 34.3953 102.573 39.5927 107.924 39.5927C112.051 39.5927 114.191 37.9112 114.803 33.7838H120.459C119.541 40.2042 114.65 43.4144 107.924 43.4144C98.9045 43.4144 95.2357 36.994 95.2357 28.7392C95.2357 20.4845 99.3631 13.6055 108.382 13.6055C116.79 13.7583 120.764 19.1087 120.764 26.9048V29.5036H100.892ZM115.261 25.8348C115.414 21.0959 113.274 17.4271 108.076 17.4271C103.643 17.4271 101.045 21.2488 101.045 25.8348H115.261ZM126.879 42.4972V18.0386H121.987V14.3698H126.879V8.25516C127.032 2.14051 131.771 0.458984 135.745 0.458984C136.968 0.458984 138.344 0.764717 139.567 1.07045V5.50357C138.65 5.50357 137.732 5.3507 136.815 5.3507C133.758 5.3507 132.076 6.11504 132.229 9.17236V14.3698H138.803V18.0386H132.229V42.4972H126.879Z" fill="#858D9D" style="fill:#858D9D;fill:color(display-p3 0.5216 0.5529 0.6157);fill-opacity:1;"/>
</svg>
