<svg width="132" height="44" viewBox="0 0 132 44" fill="none" xmlns="http://www.w3.org/2000/svg">
<rect x="0.5" y="0.5" width="131" height="43" rx="6.5" fill="#282828" style="fill:#282828;fill:color(display-p3 0.1569 0.1569 0.1569);fill-opacity:1;"/>
<rect x="0.5" y="0.5" width="131" height="43" rx="6.5" stroke="#A6A6A6" style="stroke:#A6A6A6;stroke:color(display-p3 0.6510 0.6510 0.6510);stroke-opacity:1;"/>
<path d="M89.6784 21.1214V23.6415H88.0987V25.2942H89.6784V30.9097C89.6784 32.8271 90.5458 33.5941 92.7281 33.5941C93.1116 33.5941 93.4768 33.5485 93.7964 33.4937V31.8593C93.5224 31.8867 93.349 31.9049 93.0476 31.9049C92.0706 31.9049 91.6415 31.4484 91.6415 30.4075V25.2942H93.7964V23.6415H91.6415V21.1214H89.6784Z" fill="white" style="fill:white;fill-opacity:1;"/>
<path d="M99.3556 33.7311C102.259 33.7311 104.04 31.7862 104.04 28.563C104.04 25.3581 102.25 23.4041 99.3556 23.4041C96.452 23.4041 94.6623 25.3581 94.6623 28.563C94.6623 31.7862 96.4429 33.7311 99.3556 33.7311ZM99.3556 31.9871C97.6481 31.9871 96.6894 30.7362 96.6894 28.563C96.6894 26.4082 97.6481 25.1481 99.3556 25.1481C101.054 25.1481 102.022 26.4082 102.022 28.563C102.022 30.727 101.054 31.9871 99.3556 31.9871Z" fill="white" style="fill:white;fill-opacity:1;"/>
<path d="M105.563 33.5394H107.526V27.6682C107.526 26.2712 108.576 25.3307 110.065 25.3307C110.412 25.3307 110.996 25.3946 111.16 25.4494V23.5137C110.95 23.4589 110.576 23.4315 110.284 23.4315C108.987 23.4315 107.882 24.1437 107.599 25.1207H107.453V23.5958H105.563V33.5394Z" fill="white" style="fill:white;fill-opacity:1;"/>
<path d="M116.035 25.075C117.487 25.075 118.436 26.0886 118.482 27.6499H113.46C113.569 26.0977 114.583 25.075 116.035 25.075ZM118.473 30.8549C118.107 31.631 117.295 32.0602 116.108 32.0602C114.537 32.0602 113.524 30.9553 113.46 29.2113V29.1018H120.481V28.4169C120.481 25.2942 118.811 23.4041 116.044 23.4041C113.241 23.4041 111.46 25.422 111.46 28.5996C111.46 31.7771 113.204 33.7311 116.053 33.7311C118.327 33.7311 119.915 32.6354 120.363 30.8549H118.473Z" fill="white" style="fill:white;fill-opacity:1;"/>
<path d="M76.8044 29.8674C76.9558 32.3091 78.9906 33.8706 82.019 33.8706C85.2556 33.8706 87.2809 32.2333 87.2809 29.6213C87.2809 27.5677 86.1263 26.432 83.325 25.779L81.8203 25.4099C80.041 24.9935 79.3218 24.4351 79.3218 23.4603C79.3218 22.23 80.4385 21.4256 82.1136 21.4256C83.7036 21.4256 84.8014 22.2111 85.0001 23.4698H87.0632C86.9402 21.1701 84.9149 19.5518 82.142 19.5518C79.1609 19.5518 77.1735 21.1701 77.1735 23.6023C77.1735 25.6086 78.2997 26.8011 80.7698 27.3784L82.53 27.8042C84.3376 28.2301 85.1326 28.8547 85.1326 29.8958C85.1326 31.1071 83.8834 31.9873 82.1799 31.9873C80.3534 31.9873 79.0852 31.1639 78.9054 29.8674H76.8044Z" fill="white" style="fill:white;fill-opacity:1;"/>
<path d="M56.4683 23.4315C55.117 23.4315 53.9482 24.1072 53.3456 25.2394H53.1995V23.5958H51.3094V36.8447H53.2725V32.0328H53.4278C53.9482 33.0828 55.0713 33.7037 56.4866 33.7037C58.9976 33.7037 60.5955 31.7223 60.5955 28.563C60.5955 25.4038 58.9976 23.4315 56.4683 23.4315ZM55.9114 31.9415C54.2678 31.9415 53.236 30.6449 53.236 28.5722C53.236 26.4903 54.2678 25.1937 55.9205 25.1937C57.5823 25.1937 58.5776 26.4629 58.5776 28.563C58.5776 30.6723 57.5823 31.9415 55.9114 31.9415Z" fill="white" style="fill:white;fill-opacity:1;"/>
<path d="M67.4648 23.4315C66.1134 23.4315 64.9447 24.1072 64.3421 25.2394H64.196V23.5958H62.3059V36.8447H64.269V32.0328H64.4242C64.9447 33.0828 66.0678 33.7037 67.4831 33.7037C69.9941 33.7037 71.592 31.7223 71.592 28.563C71.592 25.4038 69.9941 23.4315 67.4648 23.4315ZM66.9078 31.9415C65.2643 31.9415 64.2325 30.6449 64.2325 28.5722C64.2325 26.4903 65.2643 25.1937 66.917 25.1937C68.5788 25.1937 69.574 26.4629 69.574 28.563C69.574 30.6723 68.5788 31.9415 66.9078 31.9415Z" fill="white" style="fill:white;fill-opacity:1;"/>
<path d="M47.7872 33.5394H50.0396L45.1089 19.883H42.8281L37.8975 33.5394H40.0742L41.3328 29.9147H46.538L47.7872 33.5394ZM43.8597 22.3625H44.0206L45.9985 28.1355H41.8723L43.8597 22.3625Z" fill="white" style="fill:white;fill-opacity:1;"/>
<path d="M39.2163 9.58196V16.1699H41.5949C43.558 16.1699 44.6948 14.96 44.6948 12.8554C44.6948 10.7827 43.5489 9.58196 41.5949 9.58196H39.2163ZM40.239 10.5133H41.4808C42.8458 10.5133 43.6539 11.3807 43.6539 12.8691C43.6539 14.3802 42.8595 15.2385 41.4808 15.2385H40.239V10.5133Z" fill="white" style="fill:white;fill-opacity:1;"/>
<path d="M48.1764 16.2657C49.6282 16.2657 50.5185 15.2933 50.5185 13.6817C50.5185 12.0792 49.6237 11.1022 48.1764 11.1022C46.7246 11.1022 45.8298 12.0792 45.8298 13.6817C45.8298 15.2933 46.72 16.2657 48.1764 16.2657ZM48.1764 15.3937C47.3227 15.3937 46.8433 14.7683 46.8433 13.6817C46.8433 12.6043 47.3227 11.9742 48.1764 11.9742C49.0256 11.9742 49.5095 12.6043 49.5095 13.6817C49.5095 14.7637 49.0256 15.3937 48.1764 15.3937Z" fill="white" style="fill:white;fill-opacity:1;"/>
<path d="M58.0998 11.1981H57.1183L56.2326 14.992H56.155L55.1323 11.1981H54.1918L53.1692 14.992H53.0961L52.2059 11.1981H51.2106L52.5802 16.1699H53.5892L54.6119 12.5084H54.6895L55.7167 16.1699H56.7348L58.0998 11.1981Z" fill="white" style="fill:white;fill-opacity:1;"/>
<path d="M59.2302 16.1699H60.2118V13.2617C60.2118 12.4856 60.6729 12.0016 61.3988 12.0016C62.1247 12.0016 62.4717 12.3988 62.4717 13.1978V16.1699H63.4533V12.9512C63.4533 11.7688 62.8415 11.1022 61.7321 11.1022C60.9834 11.1022 60.4903 11.4355 60.2483 11.9879H60.1753V11.1981H59.2302V16.1699Z" fill="white" style="fill:white;fill-opacity:1;"/>
<path d="M64.9991 16.1699H65.9807V9.25781H64.9991V16.1699Z" fill="white" style="fill:white;fill-opacity:1;"/>
<path d="M69.6723 16.2657C71.1241 16.2657 72.0144 15.2933 72.0144 13.6817C72.0144 12.0792 71.1195 11.1022 69.6723 11.1022C68.2205 11.1022 67.3257 12.0792 67.3257 13.6817C67.3257 15.2933 68.2159 16.2657 69.6723 16.2657ZM69.6723 15.3937C68.8186 15.3937 68.3392 14.7683 68.3392 13.6817C68.3392 12.6043 68.8186 11.9742 69.6723 11.9742C70.5215 11.9742 71.0054 12.6043 71.0054 13.6817C71.0054 14.7637 70.5215 15.3937 69.6723 15.3937Z" fill="white" style="fill:white;fill-opacity:1;"/>
<path d="M74.939 15.4257C74.4048 15.4257 74.0168 15.1655 74.0168 14.7181C74.0168 14.2798 74.3272 14.0469 75.012 14.0013L76.2264 13.9237V14.3391C76.2264 14.9555 75.6786 15.4257 74.939 15.4257ZM74.6879 16.2521C75.3407 16.2521 75.884 15.969 76.1808 15.4714H76.2584V16.1699H77.2034V12.7732C77.2034 11.7231 76.5003 11.1022 75.254 11.1022C74.1263 11.1022 73.3228 11.6501 73.2224 12.5038H74.172C74.2816 12.1523 74.6605 11.9514 75.2083 11.9514C75.8794 11.9514 76.2264 12.2482 76.2264 12.7732V13.2023L74.8796 13.28C73.6972 13.353 73.0306 13.8689 73.0306 14.7637C73.0306 15.6722 73.7291 16.2521 74.6879 16.2521Z" fill="white" style="fill:white;fill-opacity:1;"/>
<path d="M80.5344 16.2521C81.2192 16.2521 81.799 15.9279 82.0957 15.3846H82.1734V16.1699H83.1138V9.25781H82.1323V11.9879H82.0592C81.7899 11.4401 81.2146 11.1159 80.5344 11.1159C79.2789 11.1159 78.4708 12.1112 78.4708 13.6817C78.4708 15.2568 79.2697 16.2521 80.5344 16.2521ZM80.8129 11.9971C81.6346 11.9971 82.1505 12.6499 82.1505 13.6863C82.1505 14.7272 81.6392 15.3709 80.8129 15.3709C79.9819 15.3709 79.4843 14.7363 79.4843 13.6817C79.4843 12.6362 79.9865 11.9971 80.8129 11.9971Z" fill="white" style="fill:white;fill-opacity:1;"/>
<path d="M89.479 16.2657C90.9308 16.2657 91.821 15.2933 91.821 13.6817C91.821 12.0792 90.9262 11.1022 89.479 11.1022C88.0271 11.1022 87.1323 12.0792 87.1323 13.6817C87.1323 15.2933 88.0226 16.2657 89.479 16.2657ZM89.479 15.3937C88.6252 15.3937 88.1459 14.7683 88.1459 13.6817C88.1459 12.6043 88.6252 11.9742 89.479 11.9742C90.3281 11.9742 90.8121 12.6043 90.8121 13.6817C90.8121 14.7637 90.3281 15.3937 89.479 15.3937Z" fill="white" style="fill:white;fill-opacity:1;"/>
<path d="M93.1203 16.1699H94.1019V13.2617C94.1019 12.4856 94.563 12.0016 95.2889 12.0016C96.0148 12.0016 96.3618 12.3988 96.3618 13.1978V16.1699H97.3434V12.9512C97.3434 11.7688 96.7316 11.1022 95.6222 11.1022C94.8735 11.1022 94.3804 11.4355 94.1384 11.9879H94.0654V11.1981H93.1203V16.1699Z" fill="white" style="fill:white;fill-opacity:1;"/>
<path d="M101.864 9.96089V11.2209H101.074V12.0473H101.864V14.855C101.864 15.8138 102.298 16.1973 103.389 16.1973C103.581 16.1973 103.763 16.1744 103.923 16.147V15.3298C103.786 15.3435 103.699 15.3527 103.549 15.3527C103.06 15.3527 102.846 15.1244 102.846 14.6039V12.0473H103.923V11.2209H102.846V9.96089H101.864Z" fill="white" style="fill:white;fill-opacity:1;"/>
<path d="M105.241 16.1699H106.222V13.2663C106.222 12.513 106.67 12.0062 107.473 12.0062C108.167 12.0062 108.537 12.408 108.537 13.2023V16.1699H109.518V12.9604C109.518 11.7779 108.866 11.1068 107.806 11.1068C107.058 11.1068 106.533 11.4401 106.291 11.9971H106.213V9.25781H105.241V16.1699Z" fill="white" style="fill:white;fill-opacity:1;"/>
<path d="M113.059 11.9377C113.785 11.9377 114.26 12.4445 114.283 13.2252H111.772C111.827 12.449 112.333 11.9377 113.059 11.9377ZM114.278 14.8276C114.096 15.2157 113.689 15.4303 113.096 15.4303C112.311 15.4303 111.804 14.8779 111.772 14.0059V13.9511H115.283V13.6087C115.283 12.0473 114.447 11.1022 113.064 11.1022C111.662 11.1022 110.772 12.1112 110.772 13.7C110.772 15.2887 111.644 16.2657 113.069 16.2657C114.205 16.2657 115 15.7179 115.223 14.8276H114.278Z" fill="white" style="fill:white;fill-opacity:1;"/>
<path d="M27.2458 22.3312C27.2696 20.4821 28.2627 18.7324 29.838 17.7639C28.8442 16.3446 27.1796 15.4446 25.4477 15.3905C23.6006 15.1966 21.8098 16.4958 20.8685 16.4958C19.909 16.4958 18.4598 15.4097 16.8992 15.4418C14.865 15.5075 12.9687 16.6641 11.979 18.4425C9.85158 22.1257 11.4384 27.5389 13.4763 30.5162C14.4959 31.974 15.6875 33.6025 17.2467 33.5448C18.7725 33.4815 19.3423 32.5719 21.184 32.5719C23.0087 32.5719 23.5433 33.5448 25.1341 33.5081C26.7714 33.4815 27.8029 32.0437 28.7867 30.572C29.5193 29.5332 30.083 28.3851 30.457 27.1703C28.5329 26.3565 27.248 24.4202 27.2458 22.3312Z" fill="white" style="fill:white;fill-opacity:1;"/>
<path d="M24.241 13.4325C25.1336 12.3608 25.5734 10.9834 25.4669 9.59277C24.1031 9.73602 22.8433 10.3878 21.9386 11.4183C21.0539 12.4252 20.5935 13.7784 20.6805 15.1159C22.0448 15.1299 23.386 14.4958 24.241 13.4325Z" fill="white" style="fill:white;fill-opacity:1;"/>
</svg>
